<?xml version="1.0" encoding="UTF-8" standalone="no"?>
<!DOCTYPE svg PUBLIC "-//W3C//DTD SVG 1.1//EN"
 "http://www.w3.org/Graphics/SVG/1.1/DTD/svg11.dtd">
<!-- Generated by graphviz version 2.43.0 (0)
 -->
<!-- Title: T Pages: 1 -->
<svg width="425pt" height="393pt"
 viewBox="0.00 0.00 425.00 393.00" xmlns="http://www.w3.org/2000/svg" xmlns:xlink="http://www.w3.org/1999/xlink">
<g id="graph0" class="graph" transform="scale(1 1) rotate(0) translate(4 389)">
<title>T</title>
<polygon fill="white" stroke="transparent" points="-4,4 -4,-389 421,-389 421,4 -4,4"/>
<!-- node_0x5d137e25aaa0 -->
<g id="node1" class="node">
<title>node_0x5d137e25aaa0</title>
<path fill="#e9f2ff" stroke="#6b8fd6" d="M127,-321.5C127,-321.5 331,-321.5 331,-321.5 337,-321.5 343,-327.5 343,-333.5 343,-333.5 343,-372.5 343,-372.5 343,-378.5 337,-384.5 331,-384.5 331,-384.5 127,-384.5 127,-384.5 121,-384.5 115,-378.5 115,-372.5 115,-372.5 115,-333.5 115,-333.5 115,-327.5 121,-321.5 127,-321.5"/>
<text text-anchor="middle" x="229" y="-370.9" font-family="Fira Mono" font-size="12.00">ptr: 0x5d137e25aaa0</text>
<polyline fill="none" stroke="#6b8fd6" points="115,-363.5 343,-363.5 "/>
<text text-anchor="middle" x="229" y="-349.9" font-family="Fira Mono" font-size="12.00">val: 0</text>
<polyline fill="none" stroke="#6b8fd6" points="115,-342.5 343,-342.5 "/>
<text text-anchor="middle" x="192.5" y="-328.9" font-family="Fira Mono" font-size="12.00">prev: 0x5d137e25a920</text>
<polyline fill="none" stroke="#6b8fd6" points="270,-321.5 270,-342.5 "/>
<text text-anchor="middle" x="306.5" y="-328.9" font-family="Fira Mono" font-size="12.00">next: (nil)</text>
</g>
<!-- node_0x5d137e25a920 -->
<g id="node2" class="node">
<title>node_0x5d137e25a920</title>
<path fill="#e9fbf5" stroke="#5aa99b" d="M87.5,-214.5C87.5,-214.5 370.5,-214.5 370.5,-214.5 376.5,-214.5 382.5,-220.5 382.5,-226.5 382.5,-226.5 382.5,-265.5 382.5,-265.5 382.5,-271.5 376.5,-277.5 370.5,-277.5 370.5,-277.5 87.5,-277.5 87.5,-277.5 81.5,-277.5 75.5,-271.5 75.5,-265.5 75.5,-265.5 75.5,-226.5 75.5,-226.5 75.5,-220.5 81.5,-214.5 87.5,-214.5"/>
<text text-anchor="middle" x="229" y="-263.9" font-family="Fira Mono" font-size="12.00">ptr: 0x5d137e25a920</text>
<polyline fill="none" stroke="#5aa99b" points="75.5,-256.5 382.5,-256.5 "/>
<text text-anchor="middle" x="229" y="-242.9" font-family="Fira Mono" font-size="12.00">val: +</text>
<polyline fill="none" stroke="#5aa99b" points="75.5,-235.5 382.5,-235.5 "/>
<text text-anchor="middle" x="153" y="-221.9" font-family="Fira Mono" font-size="12.00">prev: 0x5d137e25aa70</text>
<polyline fill="none" stroke="#5aa99b" points="230.5,-214.5 230.5,-235.5 "/>
<text text-anchor="middle" x="306.5" y="-221.9" font-family="Fira Mono" font-size="12.00">next: 0x5d137e25a9f0</text>
</g>
<!-- node_0x5d137e25aaa0&#45;&gt;node_0x5d137e25a920 -->
<g id="edge1" class="edge">
<title>node_0x5d137e25aaa0&#45;&gt;node_0x5d137e25a920</title>
<path fill="none" stroke="#999999" d="M229,-321.35C229,-310.78 229,-298.78 229,-287.54"/>
<polygon fill="#999999" stroke="#999999" points="232.5,-287.51 229,-277.51 225.5,-287.51 232.5,-287.51"/>
</g>
<!-- node_0x5d137e25aa70 -->
<g id="node3" class="node">
<title>node_0x5d137e25aa70</title>
<path fill="#f1eafd" stroke="#8e6bd6" d="M12,-107.5C12,-107.5 216,-107.5 216,-107.5 222,-107.5 228,-113.5 228,-119.5 228,-119.5 228,-158.5 228,-158.5 228,-164.5 222,-170.5 216,-170.5 216,-170.5 12,-170.5 12,-170.5 6,-170.5 0,-164.5 0,-158.5 0,-158.5 0,-119.5 0,-119.5 0,-113.5 6,-107.5 12,-107.5"/>
<text text-anchor="middle" x="114" y="-156.9" font-family="Fira Mono" font-size="12.00">ptr: 0x5d137e25aa70</text>
<polyline fill="none" stroke="#8e6bd6" points="0,-149.5 228,-149.5 "/>
<text text-anchor="middle" x="114" y="-135.9" font-family="Fira Mono" font-size="12.00">val: sin</text>
<polyline fill="none" stroke="#8e6bd6" points="0,-128.5 228,-128.5 "/>
<text text-anchor="middle" x="77.5" y="-114.9" font-family="Fira Mono" font-size="12.00">prev: 0x5d137e25a710</text>
<polyline fill="none" stroke="#8e6bd6" points="155,-107.5 155,-128.5 "/>
<text text-anchor="middle" x="191.5" y="-114.9" font-family="Fira Mono" font-size="12.00">next: (nil)</text>
</g>
<!-- node_0x5d137e25a920&#45;&gt;node_0x5d137e25aa70 -->
<g id="edge2" class="edge">
<title>node_0x5d137e25a920&#45;&gt;node_0x5d137e25aa70</title>
<path fill="none" stroke="#999999" d="M195.43,-214.35C182.79,-202.81 168.28,-189.56 155.04,-177.47"/>
<polygon fill="#999999" stroke="#999999" points="157.16,-174.67 147.41,-170.51 152.44,-179.84 157.16,-174.67"/>
</g>
<!-- node_0x5d137e25a9f0 -->
<g id="node5" class="node">
<title>node_0x5d137e25a9f0</title>
<path fill="#e8f9e5" stroke="#c9fbdb" d="M283,-107.5C283,-107.5 405,-107.5 405,-107.5 411,-107.5 417,-113.5 417,-119.5 417,-119.5 417,-158.5 417,-158.5 417,-164.5 411,-170.5 405,-170.5 405,-170.5 283,-170.5 283,-170.5 277,-170.5 271,-164.5 271,-158.5 271,-158.5 271,-119.5 271,-119.5 271,-113.5 277,-107.5 283,-107.5"/>
<text text-anchor="middle" x="344" y="-156.9" font-family="Fira Mono" font-size="12.00">ptr: 0x5d137e25a9f0</text>
<polyline fill="none" stroke="#c9fbdb" points="271,-149.5 417,-149.5 "/>
<text text-anchor="middle" x="344" y="-135.9" font-family="Fira Mono" font-size="12.00">val: 2</text>
<polyline fill="none" stroke="#c9fbdb" points="271,-128.5 417,-128.5 "/>
<text text-anchor="middle" x="307.5" y="-114.9" font-family="Fira Mono" font-size="12.00">prev: (nil)</text>
<polyline fill="none" stroke="#c9fbdb" points="344,-107.5 344,-128.5 "/>
<text text-anchor="middle" x="380.5" y="-114.9" font-family="Fira Mono" font-size="12.00">next: (nil)</text>
</g>
<!-- node_0x5d137e25a920&#45;&gt;node_0x5d137e25a9f0 -->
<g id="edge3" class="edge">
<title>node_0x5d137e25a920&#45;&gt;node_0x5d137e25a9f0</title>
<path fill="none" stroke="#999999" d="M262.57,-214.35C275.21,-202.81 289.72,-189.56 302.96,-177.47"/>
<polygon fill="#999999" stroke="#999999" points="305.56,-179.84 310.59,-170.51 300.84,-174.67 305.56,-179.84"/>
</g>
<!-- node_0x5d137e25a710 -->
<g id="node4" class="node">
<title>node_0x5d137e25a710</title>
<path fill="#e8f9e5" stroke="#c9fbdb" d="M53,-0.5C53,-0.5 175,-0.5 175,-0.5 181,-0.5 187,-6.5 187,-12.5 187,-12.5 187,-51.5 187,-51.5 187,-57.5 181,-63.5 175,-63.5 175,-63.5 53,-63.5 53,-63.5 47,-63.5 41,-57.5 41,-51.5 41,-51.5 41,-12.5 41,-12.5 41,-6.5 47,-0.5 53,-0.5"/>
<text text-anchor="middle" x="114" y="-49.9" font-family="Fira Mono" font-size="12.00">ptr: 0x5d137e25a710</text>
<polyline fill="none" stroke="#c9fbdb" points="41,-42.5 187,-42.5 "/>
<text text-anchor="middle" x="114" y="-28.9" font-family="Fira Mono" font-size="12.00">val: 1</text>
<polyline fill="none" stroke="#c9fbdb" points="41,-21.5 187,-21.5 "/>
<text text-anchor="middle" x="77.5" y="-7.9" font-family="Fira Mono" font-size="12.00">prev: (nil)</text>
<polyline fill="none" stroke="#c9fbdb" points="114,-0.5 114,-21.5 "/>
<text text-anchor="middle" x="150.5" y="-7.9" font-family="Fira Mono" font-size="12.00">next: (nil)</text>
</g>
<!-- node_0x5d137e25aa70&#45;&gt;node_0x5d137e25a710 -->
<g id="edge4" class="edge">
<title>node_0x5d137e25aa70&#45;&gt;node_0x5d137e25a710</title>
<path fill="none" stroke="#999999" d="M114,-107.35C114,-96.78 114,-84.78 114,-73.54"/>
<polygon fill="#999999" stroke="#999999" points="117.5,-73.51 114,-63.51 110.5,-73.51 117.5,-73.51"/>
</g>
</g>
</svg>
