<?xml version="1.0" encoding="UTF-8" standalone="no"?>
<!DOCTYPE svg PUBLIC "-//W3C//DTD SVG 1.1//EN"
 "http://www.w3.org/Graphics/SVG/1.1/DTD/svg11.dtd">
<!-- Generated by graphviz version 2.43.0 (0)
 -->
<!-- Title: T Pages: 1 -->
<svg width="234pt" height="393pt"
 viewBox="0.00 0.00 234.00 393.00" xmlns="http://www.w3.org/2000/svg" xmlns:xlink="http://www.w3.org/1999/xlink">
<g id="graph0" class="graph" transform="scale(1 1) rotate(0) translate(4 389)">
<title>T</title>
<polygon fill="white" stroke="transparent" points="-4,4 -4,-389 230,-389 230,4 -4,4"/>
<!-- node_0x5c7c0a196710 -->
<g id="node1" class="node">
<title>node_0x5c7c0a196710</title>
<path fill="#e9f2ff" stroke="#6b8fd6" d="M12,-321.5C12,-321.5 214,-321.5 214,-321.5 220,-321.5 226,-327.5 226,-333.5 226,-333.5 226,-372.5 226,-372.5 226,-378.5 220,-384.5 214,-384.5 214,-384.5 12,-384.5 12,-384.5 6,-384.5 0,-378.5 0,-372.5 0,-372.5 0,-333.5 0,-333.5 0,-327.5 6,-321.5 12,-321.5"/>
<text text-anchor="middle" x="113" y="-370.9" font-family="Fira Mono" font-size="12.00">ptr: 0x5c7c0a196710</text>
<polyline fill="none" stroke="#6b8fd6" points="0,-363.5 226,-363.5 "/>
<text text-anchor="middle" x="113" y="-349.9" font-family="Fira Mono" font-size="12.00">val: 0</text>
<polyline fill="none" stroke="#6b8fd6" points="0,-342.5 226,-342.5 "/>
<text text-anchor="middle" x="36.5" y="-328.9" font-family="Fira Mono" font-size="12.00">prev: (nil)</text>
<polyline fill="none" stroke="#6b8fd6" points="73,-321.5 73,-342.5 "/>
<text text-anchor="middle" x="149.5" y="-328.9" font-family="Fira Mono" font-size="12.00">next: 0x5c7c0a196950</text>
</g>
<!-- node_0x5c7c0a196950 -->
<g id="node2" class="node">
<title>node_0x5c7c0a196950</title>
<path fill="#e9fbf5" stroke="#5aa99b" d="M13.5,-214.5C13.5,-214.5 212.5,-214.5 212.5,-214.5 218.5,-214.5 224.5,-220.5 224.5,-226.5 224.5,-226.5 224.5,-265.5 224.5,-265.5 224.5,-271.5 218.5,-277.5 212.5,-277.5 212.5,-277.5 13.5,-277.5 13.5,-277.5 7.5,-277.5 1.5,-271.5 1.5,-265.5 1.5,-265.5 1.5,-226.5 1.5,-226.5 1.5,-220.5 7.5,-214.5 13.5,-214.5"/>
<text text-anchor="middle" x="113" y="-263.9" font-family="Fira Mono" font-size="12.00">ptr: 0x5c7c0a196950</text>
<polyline fill="none" stroke="#5aa99b" points="1.5,-256.5 224.5,-256.5 "/>
<text text-anchor="middle" x="113" y="-242.9" font-family="Fira Mono" font-size="12.00">val: *</text>
<polyline fill="none" stroke="#5aa99b" points="1.5,-235.5 224.5,-235.5 "/>
<text text-anchor="middle" x="76.5" y="-221.9" font-family="Fira Mono" font-size="12.00">prev: 0x5c7c0a1969f0</text>
<polyline fill="none" stroke="#5aa99b" points="151.5,-214.5 151.5,-235.5 "/>
<text text-anchor="middle" x="188" y="-221.9" font-family="Fira Mono" font-size="12.00">next: (nil)</text>
</g>
<!-- node_0x5c7c0a196710&#45;&gt;node_0x5c7c0a196950 -->
<g id="edge1" class="edge">
<title>node_0x5c7c0a196710&#45;&gt;node_0x5c7c0a196950</title>
<path fill="none" stroke="#999999" d="M113,-321.35C113,-310.78 113,-298.78 113,-287.54"/>
<polygon fill="#999999" stroke="#999999" points="116.5,-287.51 113,-277.51 109.5,-287.51 116.5,-287.51"/>
</g>
<!-- node_0x5c7c0a1969f0 -->
<g id="node3" class="node">
<title>node_0x5c7c0a1969f0</title>
<path fill="#f1eafd" stroke="#8e6bd6" d="M12,-107.5C12,-107.5 214,-107.5 214,-107.5 220,-107.5 226,-113.5 226,-119.5 226,-119.5 226,-158.5 226,-158.5 226,-164.5 220,-170.5 214,-170.5 214,-170.5 12,-170.5 12,-170.5 6,-170.5 0,-164.5 0,-158.5 0,-158.5 0,-119.5 0,-119.5 0,-113.5 6,-107.5 12,-107.5"/>
<text text-anchor="middle" x="113" y="-156.9" font-family="Fira Mono" font-size="12.00">ptr: 0x5c7c0a1969f0</text>
<polyline fill="none" stroke="#8e6bd6" points="0,-149.5 226,-149.5 "/>
<text text-anchor="middle" x="113" y="-135.9" font-family="Fira Mono" font-size="12.00">val: sin</text>
<polyline fill="none" stroke="#8e6bd6" points="0,-128.5 226,-128.5 "/>
<text text-anchor="middle" x="76.5" y="-114.9" font-family="Fira Mono" font-size="12.00">prev: 0x5c7c0a196a90</text>
<polyline fill="none" stroke="#8e6bd6" points="153,-107.5 153,-128.5 "/>
<text text-anchor="middle" x="189.5" y="-114.9" font-family="Fira Mono" font-size="12.00">next: (nil)</text>
</g>
<!-- node_0x5c7c0a196950&#45;&gt;node_0x5c7c0a1969f0 -->
<g id="edge2" class="edge">
<title>node_0x5c7c0a196950&#45;&gt;node_0x5c7c0a1969f0</title>
<path fill="none" stroke="#999999" d="M113,-214.35C113,-203.78 113,-191.78 113,-180.54"/>
<polygon fill="#999999" stroke="#999999" points="116.5,-180.51 113,-170.51 109.5,-180.51 116.5,-180.51"/>
</g>
<!-- node_0x5c7c0a196a90 -->
<g id="node4" class="node">
<title>node_0x5c7c0a196a90</title>
<path fill="#e8f9e5" stroke="#c9fbdb" d="M52,-0.5C52,-0.5 174,-0.5 174,-0.5 180,-0.5 186,-6.5 186,-12.5 186,-12.5 186,-51.5 186,-51.5 186,-57.5 180,-63.5 174,-63.5 174,-63.5 52,-63.5 52,-63.5 46,-63.5 40,-57.5 40,-51.5 40,-51.5 40,-12.5 40,-12.5 40,-6.5 46,-0.5 52,-0.5"/>
<text text-anchor="middle" x="113" y="-49.9" font-family="Fira Mono" font-size="12.00">ptr: 0x5c7c0a196a90</text>
<polyline fill="none" stroke="#c9fbdb" points="40,-42.5 186,-42.5 "/>
<text text-anchor="middle" x="113" y="-28.9" font-family="Fira Mono" font-size="12.00">val: x</text>
<polyline fill="none" stroke="#c9fbdb" points="40,-21.5 186,-21.5 "/>
<text text-anchor="middle" x="76.5" y="-7.9" font-family="Fira Mono" font-size="12.00">prev: (nil)</text>
<polyline fill="none" stroke="#c9fbdb" points="113,-0.5 113,-21.5 "/>
<text text-anchor="middle" x="149.5" y="-7.9" font-family="Fira Mono" font-size="12.00">next: (nil)</text>
</g>
<!-- node_0x5c7c0a1969f0&#45;&gt;node_0x5c7c0a196a90 -->
<g id="edge3" class="edge">
<title>node_0x5c7c0a1969f0&#45;&gt;node_0x5c7c0a196a90</title>
<path fill="none" stroke="#999999" d="M113,-107.35C113,-96.78 113,-84.78 113,-73.54"/>
<polygon fill="#999999" stroke="#999999" points="116.5,-73.51 113,-63.51 109.5,-73.51 116.5,-73.51"/>
</g>
</g>
</svg>
