<?xml version="1.0" encoding="UTF-8" standalone="no"?>
<!DOCTYPE svg PUBLIC "-//W3C//DTD SVG 1.1//EN"
 "http://www.w3.org/Graphics/SVG/1.1/DTD/svg11.dtd">
<!-- Generated by graphviz version 2.43.0 (0)
 -->
<!-- Title: T Pages: 1 -->
<svg width="343pt" height="179pt"
 viewBox="0.00 0.00 343.00 179.00" xmlns="http://www.w3.org/2000/svg" xmlns:xlink="http://www.w3.org/1999/xlink">
<g id="graph0" class="graph" transform="scale(1 1) rotate(0) translate(4 175)">
<title>T</title>
<polygon fill="white" stroke="transparent" points="-4,4 -4,-175 339,-175 339,4 -4,4"/>
<!-- node_0x5c8f58402500 -->
<g id="node1" class="node">
<title>node_0x5c8f58402500</title>
<path fill="#e9fbf5" stroke="#5aa99b" d="M28,-107.5C28,-107.5 306,-107.5 306,-107.5 312,-107.5 318,-113.5 318,-119.5 318,-119.5 318,-158.5 318,-158.5 318,-164.5 312,-170.5 306,-170.5 306,-170.5 28,-170.5 28,-170.5 22,-170.5 16,-164.5 16,-158.5 16,-158.5 16,-119.5 16,-119.5 16,-113.5 22,-107.5 28,-107.5"/>
<text text-anchor="middle" x="167" y="-156.9" font-family="Fira Mono" font-size="12.00">ptr: 0x5c8f58402500</text>
<polyline fill="none" stroke="#5aa99b" points="16,-149.5 318,-149.5 "/>
<text text-anchor="middle" x="167" y="-135.9" font-family="Fira Mono" font-size="12.00">val: +</text>
<polyline fill="none" stroke="#5aa99b" points="16,-128.5 318,-128.5 "/>
<text text-anchor="middle" x="91.5" y="-114.9" font-family="Fira Mono" font-size="12.00">prev: 0x5c8f584024a0</text>
<polyline fill="none" stroke="#5aa99b" points="167,-107.5 167,-128.5 "/>
<text text-anchor="middle" x="242.5" y="-114.9" font-family="Fira Mono" font-size="12.00">next: 0x5c8f58402470</text>
</g>
<!-- node_0x5c8f584024a0 -->
<g id="node2" class="node">
<title>node_0x5c8f584024a0</title>
<path fill="#e8f9e5" stroke="#c9fbdb" d="M12,-0.5C12,-0.5 134,-0.5 134,-0.5 140,-0.5 146,-6.5 146,-12.5 146,-12.5 146,-51.5 146,-51.5 146,-57.5 140,-63.5 134,-63.5 134,-63.5 12,-63.5 12,-63.5 6,-63.5 0,-57.5 0,-51.5 0,-51.5 0,-12.5 0,-12.5 0,-6.5 6,-0.5 12,-0.5"/>
<text text-anchor="middle" x="73" y="-49.9" font-family="Fira Mono" font-size="12.00">ptr: 0x5c8f584024a0</text>
<polyline fill="none" stroke="#c9fbdb" points="0,-42.5 146,-42.5 "/>
<text text-anchor="middle" x="73" y="-28.9" font-family="Fira Mono" font-size="12.00">val: 0.000000</text>
<polyline fill="none" stroke="#c9fbdb" points="0,-21.5 146,-21.5 "/>
<text text-anchor="middle" x="36.5" y="-7.9" font-family="Fira Mono" font-size="12.00">prev: (nil)</text>
<polyline fill="none" stroke="#c9fbdb" points="73,-0.5 73,-21.5 "/>
<text text-anchor="middle" x="109.5" y="-7.9" font-family="Fira Mono" font-size="12.00">next: (nil)</text>
</g>
<!-- node_0x5c8f58402500&#45;&gt;node_0x5c8f584024a0 -->
<g id="edge1" class="edge">
<title>node_0x5c8f58402500&#45;&gt;node_0x5c8f584024a0</title>
<path fill="none" stroke="#999999" d="M139.56,-107.35C129.42,-96.03 117.81,-83.06 107.15,-71.15"/>
<polygon fill="#999999" stroke="#999999" points="109.59,-68.63 100.31,-63.51 104.38,-73.29 109.59,-68.63"/>
</g>
<!-- node_0x5c8f58402470 -->
<g id="node3" class="node">
<title>node_0x5c8f58402470</title>
<path fill="#e8f9e5" stroke="#c9fbdb" d="M201,-0.5C201,-0.5 323,-0.5 323,-0.5 329,-0.5 335,-6.5 335,-12.5 335,-12.5 335,-51.5 335,-51.5 335,-57.5 329,-63.5 323,-63.5 323,-63.5 201,-63.5 201,-63.5 195,-63.5 189,-57.5 189,-51.5 189,-51.5 189,-12.5 189,-12.5 189,-6.5 195,-0.5 201,-0.5"/>
<text text-anchor="middle" x="262" y="-49.9" font-family="Fira Mono" font-size="12.00">ptr: 0x5c8f58402470</text>
<polyline fill="none" stroke="#c9fbdb" points="189,-42.5 335,-42.5 "/>
<text text-anchor="middle" x="262" y="-28.9" font-family="Fira Mono" font-size="12.00">val: 1.000000</text>
<polyline fill="none" stroke="#c9fbdb" points="189,-21.5 335,-21.5 "/>
<text text-anchor="middle" x="225.5" y="-7.9" font-family="Fira Mono" font-size="12.00">prev: (nil)</text>
<polyline fill="none" stroke="#c9fbdb" points="262,-0.5 262,-21.5 "/>
<text text-anchor="middle" x="298.5" y="-7.9" font-family="Fira Mono" font-size="12.00">next: (nil)</text>
</g>
<!-- node_0x5c8f58402500&#45;&gt;node_0x5c8f58402470 -->
<g id="edge2" class="edge">
<title>node_0x5c8f58402500&#45;&gt;node_0x5c8f58402470</title>
<path fill="none" stroke="#999999" d="M194.73,-107.35C204.98,-96.03 216.71,-83.06 227.48,-71.15"/>
<polygon fill="#999999" stroke="#999999" points="230.28,-73.27 234.4,-63.51 225.09,-68.58 230.28,-73.27"/>
</g>
</g>
</svg>
