<?xml version="1.0" encoding="UTF-8" standalone="no"?>
<!DOCTYPE svg PUBLIC "-//W3C//DTD SVG 1.1//EN"
 "http://www.w3.org/Graphics/SVG/1.1/DTD/svg11.dtd">
<!-- Generated by graphviz version 2.43.0 (0)
 -->
<!-- Title: T Pages: 1 -->
<svg width="235pt" height="179pt"
 viewBox="0.00 0.00 235.00 179.00" xmlns="http://www.w3.org/2000/svg" xmlns:xlink="http://www.w3.org/1999/xlink">
<g id="graph0" class="graph" transform="scale(1 1) rotate(0) translate(4 175)">
<title>T</title>
<polygon fill="white" stroke="transparent" points="-4,4 -4,-175 231,-175 231,4 -4,4"/>
<!-- node_0x58059bc44710 -->
<g id="node1" class="node">
<title>node_0x58059bc44710</title>
<path fill="#e9f2ff" stroke="#6b8fd6" d="M12,-107.5C12,-107.5 215,-107.5 215,-107.5 221,-107.5 227,-113.5 227,-119.5 227,-119.5 227,-158.5 227,-158.5 227,-164.5 221,-170.5 215,-170.5 215,-170.5 12,-170.5 12,-170.5 6,-170.5 0,-164.5 0,-158.5 0,-158.5 0,-119.5 0,-119.5 0,-113.5 6,-107.5 12,-107.5"/>
<text text-anchor="middle" x="113.5" y="-156.9" font-family="Fira Mono" font-size="12.00">ptr: 0x58059bc44710</text>
<polyline fill="none" stroke="#6b8fd6" points="0,-149.5 227,-149.5 "/>
<text text-anchor="middle" x="113.5" y="-135.9" font-family="Fira Mono" font-size="12.00">val: 0</text>
<polyline fill="none" stroke="#6b8fd6" points="0,-128.5 227,-128.5 "/>
<text text-anchor="middle" x="36.5" y="-114.9" font-family="Fira Mono" font-size="12.00">prev: (nil)</text>
<polyline fill="none" stroke="#6b8fd6" points="73,-107.5 73,-128.5 "/>
<text text-anchor="middle" x="150" y="-114.9" font-family="Fira Mono" font-size="12.00">next: 0x58059bc44950</text>
</g>
<!-- node_0x58059bc44950 -->
<g id="node2" class="node">
<title>node_0x58059bc44950</title>
<path fill="#e9fbf5" stroke="#5aa99b" d="M52.5,-0.5C52.5,-0.5 174.5,-0.5 174.5,-0.5 180.5,-0.5 186.5,-6.5 186.5,-12.5 186.5,-12.5 186.5,-51.5 186.5,-51.5 186.5,-57.5 180.5,-63.5 174.5,-63.5 174.5,-63.5 52.5,-63.5 52.5,-63.5 46.5,-63.5 40.5,-57.5 40.5,-51.5 40.5,-51.5 40.5,-12.5 40.5,-12.5 40.5,-6.5 46.5,-0.5 52.5,-0.5"/>
<text text-anchor="middle" x="113.5" y="-49.9" font-family="Fira Mono" font-size="12.00">ptr: 0x58059bc44950</text>
<polyline fill="none" stroke="#5aa99b" points="40.5,-42.5 186.5,-42.5 "/>
<text text-anchor="middle" x="113.5" y="-28.9" font-family="Fira Mono" font-size="12.00">val: *</text>
<polyline fill="none" stroke="#5aa99b" points="40.5,-21.5 186.5,-21.5 "/>
<text text-anchor="middle" x="77" y="-7.9" font-family="Fira Mono" font-size="12.00">prev: (nil)</text>
<polyline fill="none" stroke="#5aa99b" points="113.5,-0.5 113.5,-21.5 "/>
<text text-anchor="middle" x="150" y="-7.9" font-family="Fira Mono" font-size="12.00">next: (nil)</text>
</g>
<!-- node_0x58059bc44710&#45;&gt;node_0x58059bc44950 -->
<g id="edge1" class="edge">
<title>node_0x58059bc44710&#45;&gt;node_0x58059bc44950</title>
<path fill="none" stroke="#999999" d="M113.5,-107.35C113.5,-96.78 113.5,-84.78 113.5,-73.54"/>
<polygon fill="#999999" stroke="#999999" points="117,-73.51 113.5,-63.51 110,-73.51 117,-73.51"/>
</g>
</g>
</svg>
