<?xml version="1.0" encoding="UTF-8" standalone="no"?>
<!DOCTYPE svg PUBLIC "-//W3C//DTD SVG 1.1//EN"
 "http://www.w3.org/Graphics/SVG/1.1/DTD/svg11.dtd">
<!-- Generated by graphviz version 2.43.0 (0)
 -->
<!-- Title: T Pages: 1 -->
<svg width="236pt" height="179pt"
 viewBox="0.00 0.00 236.00 179.00" xmlns="http://www.w3.org/2000/svg" xmlns:xlink="http://www.w3.org/1999/xlink">
<g id="graph0" class="graph" transform="scale(1 1) rotate(0) translate(4 175)">
<title>T</title>
<polygon fill="white" stroke="transparent" points="-4,4 -4,-175 232,-175 232,4 -4,4"/>
<!-- node_0x503000000280 -->
<g id="node1" class="node">
<title>node_0x503000000280</title>
<path fill="#e9fbf5" stroke="#5aa99b" d="M12,-107.5C12,-107.5 216,-107.5 216,-107.5 222,-107.5 228,-113.5 228,-119.5 228,-119.5 228,-158.5 228,-158.5 228,-164.5 222,-170.5 216,-170.5 216,-170.5 12,-170.5 12,-170.5 6,-170.5 0,-164.5 0,-158.5 0,-158.5 0,-119.5 0,-119.5 0,-113.5 6,-107.5 12,-107.5"/>
<text text-anchor="middle" x="114" y="-156.9" font-family="Fira Mono" font-size="12.00">ptr: 0x503000000280</text>
<polyline fill="none" stroke="#5aa99b" points="0,-149.5 228,-149.5 "/>
<text text-anchor="middle" x="114" y="-135.9" font-family="Fira Mono" font-size="12.00">val: +</text>
<polyline fill="none" stroke="#5aa99b" points="0,-128.5 228,-128.5 "/>
<text text-anchor="middle" x="77.5" y="-114.9" font-family="Fira Mono" font-size="12.00">prev: 0x5030000002e0</text>
<polyline fill="none" stroke="#5aa99b" points="155,-107.5 155,-128.5 "/>
<text text-anchor="middle" x="191.5" y="-114.9" font-family="Fira Mono" font-size="12.00">next: (nil)</text>
</g>
<!-- node_0x5030000002e0 -->
<g id="node2" class="node">
<title>node_0x5030000002e0</title>
<path fill="#e8f9e5" stroke="#c9fbdb" d="M53,-0.5C53,-0.5 175,-0.5 175,-0.5 181,-0.5 187,-6.5 187,-12.5 187,-12.5 187,-51.5 187,-51.5 187,-57.5 181,-63.5 175,-63.5 175,-63.5 53,-63.5 53,-63.5 47,-63.5 41,-57.5 41,-51.5 41,-51.5 41,-12.5 41,-12.5 41,-6.5 47,-0.5 53,-0.5"/>
<text text-anchor="middle" x="114" y="-49.9" font-family="Fira Mono" font-size="12.00">ptr: 0x5030000002e0</text>
<polyline fill="none" stroke="#c9fbdb" points="41,-42.5 187,-42.5 "/>
<text text-anchor="middle" x="114" y="-28.9" font-family="Fira Mono" font-size="12.00">val: 10.000000</text>
<polyline fill="none" stroke="#c9fbdb" points="41,-21.5 187,-21.5 "/>
<text text-anchor="middle" x="77.5" y="-7.9" font-family="Fira Mono" font-size="12.00">prev: (nil)</text>
<polyline fill="none" stroke="#c9fbdb" points="114,-0.5 114,-21.5 "/>
<text text-anchor="middle" x="150.5" y="-7.9" font-family="Fira Mono" font-size="12.00">next: (nil)</text>
</g>
<!-- node_0x503000000280&#45;&gt;node_0x5030000002e0 -->
<g id="edge1" class="edge">
<title>node_0x503000000280&#45;&gt;node_0x5030000002e0</title>
<path fill="none" stroke="#999999" d="M114,-107.35C114,-96.78 114,-84.78 114,-73.54"/>
<polygon fill="#999999" stroke="#999999" points="117.5,-73.51 114,-63.51 110.5,-73.51 117.5,-73.51"/>
</g>
</g>
</svg>
