<?xml version="1.0" encoding="UTF-8" standalone="no"?>
<!DOCTYPE svg PUBLIC "-//W3C//DTD SVG 1.1//EN"
 "http://www.w3.org/Graphics/SVG/1.1/DTD/svg11.dtd">
<!-- Generated by graphviz version 2.43.0 (0)
 -->
<!-- Title: T Pages: 1 -->
<svg width="1091pt" height="500pt"
 viewBox="0.00 0.00 1091.00 500.00" xmlns="http://www.w3.org/2000/svg" xmlns:xlink="http://www.w3.org/1999/xlink">
<g id="graph0" class="graph" transform="scale(1 1) rotate(0) translate(4 496)">
<title>T</title>
<polygon fill="white" stroke="transparent" points="-4,4 -4,-496 1087,-496 1087,4 -4,4"/>
<!-- node_0x58059bc45080 -->
<g id="node1" class="node">
<title>node_0x58059bc45080</title>
<path fill="#e9f2ff" stroke="#6b8fd6" d="M494.5,-428.5C494.5,-428.5 775.5,-428.5 775.5,-428.5 781.5,-428.5 787.5,-434.5 787.5,-440.5 787.5,-440.5 787.5,-479.5 787.5,-479.5 787.5,-485.5 781.5,-491.5 775.5,-491.5 775.5,-491.5 494.5,-491.5 494.5,-491.5 488.5,-491.5 482.5,-485.5 482.5,-479.5 482.5,-479.5 482.5,-440.5 482.5,-440.5 482.5,-434.5 488.5,-428.5 494.5,-428.5"/>
<text text-anchor="middle" x="635" y="-477.9" font-family="Fira Mono" font-size="12.00">ptr: 0x58059bc45080</text>
<polyline fill="none" stroke="#6b8fd6" points="482.5,-470.5 787.5,-470.5 "/>
<text text-anchor="middle" x="635" y="-456.9" font-family="Fira Mono" font-size="12.00">val: +</text>
<polyline fill="none" stroke="#6b8fd6" points="482.5,-449.5 787.5,-449.5 "/>
<text text-anchor="middle" x="559.5" y="-435.9" font-family="Fira Mono" font-size="12.00">prev: 0x58059bc45050</text>
<polyline fill="none" stroke="#6b8fd6" points="636.5,-428.5 636.5,-449.5 "/>
<text text-anchor="middle" x="712" y="-435.9" font-family="Fira Mono" font-size="12.00">next: 0x58059bc44f60</text>
</g>
<!-- node_0x58059bc45050 -->
<g id="node2" class="node">
<title>node_0x58059bc45050</title>
<path fill="#f1eafd" stroke="#8e6bd6" d="M320.5,-321.5C320.5,-321.5 601.5,-321.5 601.5,-321.5 607.5,-321.5 613.5,-327.5 613.5,-333.5 613.5,-333.5 613.5,-372.5 613.5,-372.5 613.5,-378.5 607.5,-384.5 601.5,-384.5 601.5,-384.5 320.5,-384.5 320.5,-384.5 314.5,-384.5 308.5,-378.5 308.5,-372.5 308.5,-372.5 308.5,-333.5 308.5,-333.5 308.5,-327.5 314.5,-321.5 320.5,-321.5"/>
<text text-anchor="middle" x="461" y="-370.9" font-family="Fira Mono" font-size="12.00">ptr: 0x58059bc45050</text>
<polyline fill="none" stroke="#8e6bd6" points="308.5,-363.5 613.5,-363.5 "/>
<text text-anchor="middle" x="461" y="-349.9" font-family="Fira Mono" font-size="12.00">val: *</text>
<polyline fill="none" stroke="#8e6bd6" points="308.5,-342.5 613.5,-342.5 "/>
<text text-anchor="middle" x="385.5" y="-328.9" font-family="Fira Mono" font-size="12.00">prev: 0x58059bc45020</text>
<polyline fill="none" stroke="#8e6bd6" points="462.5,-321.5 462.5,-342.5 "/>
<text text-anchor="middle" x="538" y="-328.9" font-family="Fira Mono" font-size="12.00">next: 0x58059bc44f00</text>
</g>
<!-- node_0x58059bc45080&#45;&gt;node_0x58059bc45050 -->
<g id="edge1" class="edge">
<title>node_0x58059bc45080&#45;&gt;node_0x58059bc45050</title>
<path fill="none" stroke="#999999" d="M584.2,-428.35C564.19,-416.27 541.07,-402.32 520.3,-389.78"/>
<polygon fill="#999999" stroke="#999999" points="521.93,-386.68 511.56,-384.51 518.31,-392.67 521.93,-386.68"/>
</g>
<!-- node_0x58059bc44f60 -->
<g id="node8" class="node">
<title>node_0x58059bc44f60</title>
<path fill="#f1eafd" stroke="#8e6bd6" d="M668.5,-321.5C668.5,-321.5 949.5,-321.5 949.5,-321.5 955.5,-321.5 961.5,-327.5 961.5,-333.5 961.5,-333.5 961.5,-372.5 961.5,-372.5 961.5,-378.5 955.5,-384.5 949.5,-384.5 949.5,-384.5 668.5,-384.5 668.5,-384.5 662.5,-384.5 656.5,-378.5 656.5,-372.5 656.5,-372.5 656.5,-333.5 656.5,-333.5 656.5,-327.5 662.5,-321.5 668.5,-321.5"/>
<text text-anchor="middle" x="809" y="-370.9" font-family="Fira Mono" font-size="12.00">ptr: 0x58059bc44f60</text>
<polyline fill="none" stroke="#8e6bd6" points="656.5,-363.5 961.5,-363.5 "/>
<text text-anchor="middle" x="809" y="-349.9" font-family="Fira Mono" font-size="12.00">val: *</text>
<polyline fill="none" stroke="#8e6bd6" points="656.5,-342.5 961.5,-342.5 "/>
<text text-anchor="middle" x="733.5" y="-328.9" font-family="Fira Mono" font-size="12.00">prev: 0x58059bc44ed0</text>
<polyline fill="none" stroke="#8e6bd6" points="810.5,-321.5 810.5,-342.5 "/>
<text text-anchor="middle" x="886" y="-328.9" font-family="Fira Mono" font-size="12.00">next: 0x58059bc44f30</text>
</g>
<!-- node_0x58059bc45080&#45;&gt;node_0x58059bc44f60 -->
<g id="edge2" class="edge">
<title>node_0x58059bc45080&#45;&gt;node_0x58059bc44f60</title>
<path fill="none" stroke="#999999" d="M685.8,-428.35C705.81,-416.27 728.93,-402.32 749.7,-389.78"/>
<polygon fill="#999999" stroke="#999999" points="751.69,-392.67 758.44,-384.51 748.07,-386.68 751.69,-392.67"/>
</g>
<!-- node_0x58059bc45020 -->
<g id="node3" class="node">
<title>node_0x58059bc45020</title>
<path fill="#f1eafd" stroke="#8e6bd6" d="M89.5,-214.5C89.5,-214.5 362.5,-214.5 362.5,-214.5 368.5,-214.5 374.5,-220.5 374.5,-226.5 374.5,-226.5 374.5,-265.5 374.5,-265.5 374.5,-271.5 368.5,-277.5 362.5,-277.5 362.5,-277.5 89.5,-277.5 89.5,-277.5 83.5,-277.5 77.5,-271.5 77.5,-265.5 77.5,-265.5 77.5,-226.5 77.5,-226.5 77.5,-220.5 83.5,-214.5 89.5,-214.5"/>
<text text-anchor="middle" x="226" y="-263.9" font-family="Fira Mono" font-size="12.00">ptr: 0x58059bc45020</text>
<polyline fill="none" stroke="#8e6bd6" points="77.5,-256.5 374.5,-256.5 "/>
<text text-anchor="middle" x="226" y="-242.9" font-family="Fira Mono" font-size="12.00">val: *</text>
<polyline fill="none" stroke="#8e6bd6" points="77.5,-235.5 374.5,-235.5 "/>
<text text-anchor="middle" x="151" y="-221.9" font-family="Fira Mono" font-size="12.00">prev: 0x58059bc44ff0</text>
<polyline fill="none" stroke="#8e6bd6" points="224.5,-214.5 224.5,-235.5 "/>
<text text-anchor="middle" x="299.5" y="-221.9" font-family="Fira Mono" font-size="12.00">next: 0x58059bc44fc0</text>
</g>
<!-- node_0x58059bc45050&#45;&gt;node_0x58059bc45020 -->
<g id="edge3" class="edge">
<title>node_0x58059bc45050&#45;&gt;node_0x58059bc45020</title>
<path fill="none" stroke="#999999" d="M392.71,-321.49C364.83,-309.03 332.44,-294.56 303.66,-281.7"/>
<polygon fill="#999999" stroke="#999999" points="305.02,-278.47 294.46,-277.59 302.16,-284.86 305.02,-278.47"/>
</g>
<!-- node_0x58059bc44f00 -->
<g id="node7" class="node">
<title>node_0x58059bc44f00</title>
<path fill="#e8f9e5" stroke="#c9fbdb" d="M430,-214.5C430,-214.5 552,-214.5 552,-214.5 558,-214.5 564,-220.5 564,-226.5 564,-226.5 564,-265.5 564,-265.5 564,-271.5 558,-277.5 552,-277.5 552,-277.5 430,-277.5 430,-277.5 424,-277.5 418,-271.5 418,-265.5 418,-265.5 418,-226.5 418,-226.5 418,-220.5 424,-214.5 430,-214.5"/>
<text text-anchor="middle" x="491" y="-263.9" font-family="Fira Mono" font-size="12.00">ptr: 0x58059bc44f00</text>
<polyline fill="none" stroke="#c9fbdb" points="418,-256.5 564,-256.5 "/>
<text text-anchor="middle" x="491" y="-242.9" font-family="Fira Mono" font-size="12.00">val: 1</text>
<polyline fill="none" stroke="#c9fbdb" points="418,-235.5 564,-235.5 "/>
<text text-anchor="middle" x="454.5" y="-221.9" font-family="Fira Mono" font-size="12.00">prev: (nil)</text>
<polyline fill="none" stroke="#c9fbdb" points="491,-214.5 491,-235.5 "/>
<text text-anchor="middle" x="527.5" y="-221.9" font-family="Fira Mono" font-size="12.00">next: (nil)</text>
</g>
<!-- node_0x58059bc45050&#45;&gt;node_0x58059bc44f00 -->
<g id="edge4" class="edge">
<title>node_0x58059bc45050&#45;&gt;node_0x58059bc44f00</title>
<path fill="none" stroke="#999999" d="M469.76,-321.35C472.81,-310.67 476.28,-298.53 479.51,-287.2"/>
<polygon fill="#999999" stroke="#999999" points="482.9,-288.09 482.28,-277.51 476.17,-286.16 482.9,-288.09"/>
</g>
<!-- node_0x58059bc44ff0 -->
<g id="node4" class="node">
<title>node_0x58059bc44ff0</title>
<path fill="#f1eafd" stroke="#8e6bd6" d="M12,-107.5C12,-107.5 212,-107.5 212,-107.5 218,-107.5 224,-113.5 224,-119.5 224,-119.5 224,-158.5 224,-158.5 224,-164.5 218,-170.5 212,-170.5 212,-170.5 12,-170.5 12,-170.5 6,-170.5 0,-164.5 0,-158.5 0,-158.5 0,-119.5 0,-119.5 0,-113.5 6,-107.5 12,-107.5"/>
<text text-anchor="middle" x="112" y="-156.9" font-family="Fira Mono" font-size="12.00">ptr: 0x58059bc44ff0</text>
<polyline fill="none" stroke="#8e6bd6" points="0,-149.5 224,-149.5 "/>
<text text-anchor="middle" x="112" y="-135.9" font-family="Fira Mono" font-size="12.00">val: cos</text>
<polyline fill="none" stroke="#8e6bd6" points="0,-128.5 224,-128.5 "/>
<text text-anchor="middle" x="75.5" y="-114.9" font-family="Fira Mono" font-size="12.00">prev: 0x58059bc44f90</text>
<polyline fill="none" stroke="#8e6bd6" points="151,-107.5 151,-128.5 "/>
<text text-anchor="middle" x="187.5" y="-114.9" font-family="Fira Mono" font-size="12.00">next: (nil)</text>
</g>
<!-- node_0x58059bc45020&#45;&gt;node_0x58059bc44ff0 -->
<g id="edge5" class="edge">
<title>node_0x58059bc45020&#45;&gt;node_0x58059bc44ff0</title>
<path fill="none" stroke="#999999" d="M192.72,-214.35C180.19,-202.81 165.81,-189.56 152.68,-177.47"/>
<polygon fill="#999999" stroke="#999999" points="154.85,-174.71 145.12,-170.51 150.11,-179.86 154.85,-174.71"/>
</g>
<!-- node_0x58059bc44fc0 -->
<g id="node6" class="node">
<title>node_0x58059bc44fc0</title>
<path fill="#e8f9e5" stroke="#c9fbdb" d="M279,-107.5C279,-107.5 401,-107.5 401,-107.5 407,-107.5 413,-113.5 413,-119.5 413,-119.5 413,-158.5 413,-158.5 413,-164.5 407,-170.5 401,-170.5 401,-170.5 279,-170.5 279,-170.5 273,-170.5 267,-164.5 267,-158.5 267,-158.5 267,-119.5 267,-119.5 267,-113.5 273,-107.5 279,-107.5"/>
<text text-anchor="middle" x="340" y="-156.9" font-family="Fira Mono" font-size="12.00">ptr: 0x58059bc44fc0</text>
<polyline fill="none" stroke="#c9fbdb" points="267,-149.5 413,-149.5 "/>
<text text-anchor="middle" x="340" y="-135.9" font-family="Fira Mono" font-size="12.00">val: 1</text>
<polyline fill="none" stroke="#c9fbdb" points="267,-128.5 413,-128.5 "/>
<text text-anchor="middle" x="303.5" y="-114.9" font-family="Fira Mono" font-size="12.00">prev: (nil)</text>
<polyline fill="none" stroke="#c9fbdb" points="340,-107.5 340,-128.5 "/>
<text text-anchor="middle" x="376.5" y="-114.9" font-family="Fira Mono" font-size="12.00">next: (nil)</text>
</g>
<!-- node_0x58059bc45020&#45;&gt;node_0x58059bc44fc0 -->
<g id="edge6" class="edge">
<title>node_0x58059bc45020&#45;&gt;node_0x58059bc44fc0</title>
<path fill="none" stroke="#999999" d="M259.28,-214.35C271.81,-202.81 286.19,-189.56 299.32,-177.47"/>
<polygon fill="#999999" stroke="#999999" points="301.89,-179.86 306.88,-170.51 297.15,-174.71 301.89,-179.86"/>
</g>
<!-- node_0x58059bc44f90 -->
<g id="node5" class="node">
<title>node_0x58059bc44f90</title>
<path fill="#e8f9e5" stroke="#c9fbdb" d="M51,-0.5C51,-0.5 173,-0.5 173,-0.5 179,-0.5 185,-6.5 185,-12.5 185,-12.5 185,-51.5 185,-51.5 185,-57.5 179,-63.5 173,-63.5 173,-63.5 51,-63.5 51,-63.5 45,-63.5 39,-57.5 39,-51.5 39,-51.5 39,-12.5 39,-12.5 39,-6.5 45,-0.5 51,-0.5"/>
<text text-anchor="middle" x="112" y="-49.9" font-family="Fira Mono" font-size="12.00">ptr: 0x58059bc44f90</text>
<polyline fill="none" stroke="#c9fbdb" points="39,-42.5 185,-42.5 "/>
<text text-anchor="middle" x="112" y="-28.9" font-family="Fira Mono" font-size="12.00">val: x</text>
<polyline fill="none" stroke="#c9fbdb" points="39,-21.5 185,-21.5 "/>
<text text-anchor="middle" x="75.5" y="-7.9" font-family="Fira Mono" font-size="12.00">prev: (nil)</text>
<polyline fill="none" stroke="#c9fbdb" points="112,-0.5 112,-21.5 "/>
<text text-anchor="middle" x="148.5" y="-7.9" font-family="Fira Mono" font-size="12.00">next: (nil)</text>
</g>
<!-- node_0x58059bc44ff0&#45;&gt;node_0x58059bc44f90 -->
<g id="edge7" class="edge">
<title>node_0x58059bc44ff0&#45;&gt;node_0x58059bc44f90</title>
<path fill="none" stroke="#999999" d="M112,-107.35C112,-96.78 112,-84.78 112,-73.54"/>
<polygon fill="#999999" stroke="#999999" points="115.5,-73.51 112,-63.51 108.5,-73.51 115.5,-73.51"/>
</g>
<!-- node_0x58059bc44ed0 -->
<g id="node9" class="node">
<title>node_0x58059bc44ed0</title>
<path fill="#f1eafd" stroke="#8e6bd6" d="M678.5,-214.5C678.5,-214.5 881.5,-214.5 881.5,-214.5 887.5,-214.5 893.5,-220.5 893.5,-226.5 893.5,-226.5 893.5,-265.5 893.5,-265.5 893.5,-271.5 887.5,-277.5 881.5,-277.5 881.5,-277.5 678.5,-277.5 678.5,-277.5 672.5,-277.5 666.5,-271.5 666.5,-265.5 666.5,-265.5 666.5,-226.5 666.5,-226.5 666.5,-220.5 672.5,-214.5 678.5,-214.5"/>
<text text-anchor="middle" x="780" y="-263.9" font-family="Fira Mono" font-size="12.00">ptr: 0x58059bc44ed0</text>
<polyline fill="none" stroke="#8e6bd6" points="666.5,-256.5 893.5,-256.5 "/>
<text text-anchor="middle" x="780" y="-242.9" font-family="Fira Mono" font-size="12.00">val: sin</text>
<polyline fill="none" stroke="#8e6bd6" points="666.5,-235.5 893.5,-235.5 "/>
<text text-anchor="middle" x="743.5" y="-221.9" font-family="Fira Mono" font-size="12.00">prev: 0x58059bc44b80</text>
<polyline fill="none" stroke="#8e6bd6" points="820.5,-214.5 820.5,-235.5 "/>
<text text-anchor="middle" x="857" y="-221.9" font-family="Fira Mono" font-size="12.00">next: (nil)</text>
</g>
<!-- node_0x58059bc44f60&#45;&gt;node_0x58059bc44ed0 -->
<g id="edge8" class="edge">
<title>node_0x58059bc44f60&#45;&gt;node_0x58059bc44ed0</title>
<path fill="none" stroke="#999999" d="M800.53,-321.35C797.59,-310.67 794.23,-298.53 791.1,-287.2"/>
<polygon fill="#999999" stroke="#999999" points="794.46,-286.22 788.43,-277.51 787.71,-288.08 794.46,-286.22"/>
</g>
<!-- node_0x58059bc44f30 -->
<g id="node11" class="node">
<title>node_0x58059bc44f30</title>
<path fill="#e8f9e5" stroke="#c9fbdb" d="M949,-214.5C949,-214.5 1071,-214.5 1071,-214.5 1077,-214.5 1083,-220.5 1083,-226.5 1083,-226.5 1083,-265.5 1083,-265.5 1083,-271.5 1077,-277.5 1071,-277.5 1071,-277.5 949,-277.5 949,-277.5 943,-277.5 937,-271.5 937,-265.5 937,-265.5 937,-226.5 937,-226.5 937,-220.5 943,-214.5 949,-214.5"/>
<text text-anchor="middle" x="1010" y="-263.9" font-family="Fira Mono" font-size="12.00">ptr: 0x58059bc44f30</text>
<polyline fill="none" stroke="#c9fbdb" points="937,-256.5 1083,-256.5 "/>
<text text-anchor="middle" x="1010" y="-242.9" font-family="Fira Mono" font-size="12.00">val: 0</text>
<polyline fill="none" stroke="#c9fbdb" points="937,-235.5 1083,-235.5 "/>
<text text-anchor="middle" x="973.5" y="-221.9" font-family="Fira Mono" font-size="12.00">prev: (nil)</text>
<polyline fill="none" stroke="#c9fbdb" points="1010,-214.5 1010,-235.5 "/>
<text text-anchor="middle" x="1046.5" y="-221.9" font-family="Fira Mono" font-size="12.00">next: (nil)</text>
</g>
<!-- node_0x58059bc44f60&#45;&gt;node_0x58059bc44f30 -->
<g id="edge9" class="edge">
<title>node_0x58059bc44f60&#45;&gt;node_0x58059bc44f30</title>
<path fill="none" stroke="#999999" d="M867.41,-321.49C890.84,-309.25 918,-295.06 942.29,-282.37"/>
<polygon fill="#999999" stroke="#999999" points="944.2,-285.32 951.45,-277.59 940.96,-279.12 944.2,-285.32"/>
</g>
<!-- node_0x58059bc44b80 -->
<g id="node10" class="node">
<title>node_0x58059bc44b80</title>
<path fill="#e8f9e5" stroke="#c9fbdb" d="M719,-107.5C719,-107.5 841,-107.5 841,-107.5 847,-107.5 853,-113.5 853,-119.5 853,-119.5 853,-158.5 853,-158.5 853,-164.5 847,-170.5 841,-170.5 841,-170.5 719,-170.5 719,-170.5 713,-170.5 707,-164.5 707,-158.5 707,-158.5 707,-119.5 707,-119.5 707,-113.5 713,-107.5 719,-107.5"/>
<text text-anchor="middle" x="780" y="-156.9" font-family="Fira Mono" font-size="12.00">ptr: 0x58059bc44b80</text>
<polyline fill="none" stroke="#c9fbdb" points="707,-149.5 853,-149.5 "/>
<text text-anchor="middle" x="780" y="-135.9" font-family="Fira Mono" font-size="12.00">val: x</text>
<polyline fill="none" stroke="#c9fbdb" points="707,-128.5 853,-128.5 "/>
<text text-anchor="middle" x="743.5" y="-114.9" font-family="Fira Mono" font-size="12.00">prev: (nil)</text>
<polyline fill="none" stroke="#c9fbdb" points="780,-107.5 780,-128.5 "/>
<text text-anchor="middle" x="816.5" y="-114.9" font-family="Fira Mono" font-size="12.00">next: (nil)</text>
</g>
<!-- node_0x58059bc44ed0&#45;&gt;node_0x58059bc44b80 -->
<g id="edge10" class="edge">
<title>node_0x58059bc44ed0&#45;&gt;node_0x58059bc44b80</title>
<path fill="none" stroke="#999999" d="M780,-214.35C780,-203.78 780,-191.78 780,-180.54"/>
<polygon fill="#999999" stroke="#999999" points="783.5,-180.51 780,-170.51 776.5,-180.51 783.5,-180.51"/>
</g>
</g>
</svg>
