<?xml version="1.0" encoding="UTF-8" standalone="no"?>
<!DOCTYPE svg PUBLIC "-//W3C//DTD SVG 1.1//EN"
 "http://www.w3.org/Graphics/SVG/1.1/DTD/svg11.dtd">
<!-- Generated by graphviz version 2.43.0 (0)
 -->
<!-- Title: T Pages: 1 -->
<svg width="229pt" height="179pt"
 viewBox="0.00 0.00 229.00 179.00" xmlns="http://www.w3.org/2000/svg" xmlns:xlink="http://www.w3.org/1999/xlink">
<g id="graph0" class="graph" transform="scale(1 1) rotate(0) translate(4 175)">
<title>T</title>
<polygon fill="white" stroke="transparent" points="-4,4 -4,-175 225,-175 225,4 -4,4"/>
<!-- node_0x62e738f7cf20 -->
<g id="node1" class="node">
<title>node_0x62e738f7cf20</title>
<path fill="#e9fbf5" stroke="#5aa99b" d="M12,-107.5C12,-107.5 209,-107.5 209,-107.5 215,-107.5 221,-113.5 221,-119.5 221,-119.5 221,-158.5 221,-158.5 221,-164.5 215,-170.5 209,-170.5 209,-170.5 12,-170.5 12,-170.5 6,-170.5 0,-164.5 0,-158.5 0,-158.5 0,-119.5 0,-119.5 0,-113.5 6,-107.5 12,-107.5"/>
<text text-anchor="middle" x="110.5" y="-156.9" font-family="Fira Mono" font-size="12.00">ptr: 0x62e738f7cf20</text>
<polyline fill="none" stroke="#5aa99b" points="0,-149.5 221,-149.5 "/>
<text text-anchor="middle" x="110.5" y="-135.9" font-family="Fira Mono" font-size="12.00">val: +</text>
<polyline fill="none" stroke="#5aa99b" points="0,-128.5 221,-128.5 "/>
<text text-anchor="middle" x="74" y="-114.9" font-family="Fira Mono" font-size="12.00">prev: 0x62e738f7cfb0</text>
<polyline fill="none" stroke="#5aa99b" points="148,-107.5 148,-128.5 "/>
<text text-anchor="middle" x="184.5" y="-114.9" font-family="Fira Mono" font-size="12.00">next: (nil)</text>
</g>
<!-- node_0x62e738f7cfb0 -->
<g id="node2" class="node">
<title>node_0x62e738f7cfb0</title>
<path fill="#e8f9e5" stroke="#c9fbdb" d="M49.5,-0.5C49.5,-0.5 171.5,-0.5 171.5,-0.5 177.5,-0.5 183.5,-6.5 183.5,-12.5 183.5,-12.5 183.5,-51.5 183.5,-51.5 183.5,-57.5 177.5,-63.5 171.5,-63.5 171.5,-63.5 49.5,-63.5 49.5,-63.5 43.5,-63.5 37.5,-57.5 37.5,-51.5 37.5,-51.5 37.5,-12.5 37.5,-12.5 37.5,-6.5 43.5,-0.5 49.5,-0.5"/>
<text text-anchor="middle" x="110.5" y="-49.9" font-family="Fira Mono" font-size="12.00">ptr: 0x62e738f7cfb0</text>
<polyline fill="none" stroke="#c9fbdb" points="37.5,-42.5 183.5,-42.5 "/>
<text text-anchor="middle" x="110.5" y="-28.9" font-family="Fira Mono" font-size="12.00">val: 10.000000</text>
<polyline fill="none" stroke="#c9fbdb" points="37.5,-21.5 183.5,-21.5 "/>
<text text-anchor="middle" x="74" y="-7.9" font-family="Fira Mono" font-size="12.00">prev: (nil)</text>
<polyline fill="none" stroke="#c9fbdb" points="110.5,-0.5 110.5,-21.5 "/>
<text text-anchor="middle" x="147" y="-7.9" font-family="Fira Mono" font-size="12.00">next: (nil)</text>
</g>
<!-- node_0x62e738f7cf20&#45;&gt;node_0x62e738f7cfb0 -->
<g id="edge1" class="edge">
<title>node_0x62e738f7cf20&#45;&gt;node_0x62e738f7cfb0</title>
<path fill="none" stroke="#999999" d="M110.5,-107.35C110.5,-96.78 110.5,-84.78 110.5,-73.54"/>
<polygon fill="#999999" stroke="#999999" points="114,-73.51 110.5,-63.51 107,-73.51 114,-73.51"/>
</g>
</g>
</svg>
