<?xml version="1.0" encoding="UTF-8" standalone="no"?>
<!DOCTYPE svg PUBLIC "-//W3C//DTD SVG 1.1//EN"
 "http://www.w3.org/Graphics/SVG/1.1/DTD/svg11.dtd">
<!-- Generated by graphviz version 2.43.0 (0)
 -->
<!-- Title: T Pages: 1 -->
<svg width="423pt" height="286pt"
 viewBox="0.00 0.00 422.50 286.00" xmlns="http://www.w3.org/2000/svg" xmlns:xlink="http://www.w3.org/1999/xlink">
<g id="graph0" class="graph" transform="scale(1 1) rotate(0) translate(4 282)">
<title>T</title>
<polygon fill="white" stroke="transparent" points="-4,4 -4,-282 418.5,-282 418.5,4 -4,4"/>
<!-- node_0x62b9933c0a70 -->
<g id="node1" class="node">
<title>node_0x62b9933c0a70</title>
<path fill="#e9fbf5" stroke="#5aa99b" d="M84.5,-214.5C84.5,-214.5 368.5,-214.5 368.5,-214.5 374.5,-214.5 380.5,-220.5 380.5,-226.5 380.5,-226.5 380.5,-265.5 380.5,-265.5 380.5,-271.5 374.5,-277.5 368.5,-277.5 368.5,-277.5 84.5,-277.5 84.5,-277.5 78.5,-277.5 72.5,-271.5 72.5,-265.5 72.5,-265.5 72.5,-226.5 72.5,-226.5 72.5,-220.5 78.5,-214.5 84.5,-214.5"/>
<text text-anchor="middle" x="226.5" y="-263.9" font-family="Fira Mono" font-size="12.00">ptr: 0x62b9933c0a70</text>
<polyline fill="none" stroke="#5aa99b" points="72.5,-256.5 380.5,-256.5 "/>
<text text-anchor="middle" x="226.5" y="-242.9" font-family="Fira Mono" font-size="12.00">val: +</text>
<polyline fill="none" stroke="#5aa99b" points="72.5,-235.5 380.5,-235.5 "/>
<text text-anchor="middle" x="149.5" y="-221.9" font-family="Fira Mono" font-size="12.00">prev: 0x62b9933c3420</text>
<polyline fill="none" stroke="#5aa99b" points="226.5,-214.5 226.5,-235.5 "/>
<text text-anchor="middle" x="303.5" y="-221.9" font-family="Fira Mono" font-size="12.00">next: 0x62b9933c34e0</text>
</g>
<!-- node_0x62b9933c3420 -->
<g id="node2" class="node">
<title>node_0x62b9933c3420</title>
<path fill="#f1eafd" stroke="#8e6bd6" d="M12,-107.5C12,-107.5 213,-107.5 213,-107.5 219,-107.5 225,-113.5 225,-119.5 225,-119.5 225,-158.5 225,-158.5 225,-164.5 219,-170.5 213,-170.5 213,-170.5 12,-170.5 12,-170.5 6,-170.5 0,-164.5 0,-158.5 0,-158.5 0,-119.5 0,-119.5 0,-113.5 6,-107.5 12,-107.5"/>
<text text-anchor="middle" x="112.5" y="-156.9" font-family="Fira Mono" font-size="12.00">ptr: 0x62b9933c3420</text>
<polyline fill="none" stroke="#8e6bd6" points="0,-149.5 225,-149.5 "/>
<text text-anchor="middle" x="112.5" y="-135.9" font-family="Fira Mono" font-size="12.00">val: sin</text>
<polyline fill="none" stroke="#8e6bd6" points="0,-128.5 225,-128.5 "/>
<text text-anchor="middle" x="76" y="-114.9" font-family="Fira Mono" font-size="12.00">prev: 0x62b9933bfe90</text>
<polyline fill="none" stroke="#8e6bd6" points="152,-107.5 152,-128.5 "/>
<text text-anchor="middle" x="188.5" y="-114.9" font-family="Fira Mono" font-size="12.00">next: (nil)</text>
</g>
<!-- node_0x62b9933c0a70&#45;&gt;node_0x62b9933c3420 -->
<g id="edge1" class="edge">
<title>node_0x62b9933c0a70&#45;&gt;node_0x62b9933c3420</title>
<path fill="none" stroke="#999999" d="M193.22,-214.35C180.69,-202.81 166.31,-189.56 153.18,-177.47"/>
<polygon fill="#999999" stroke="#999999" points="155.35,-174.71 145.62,-170.51 150.61,-179.86 155.35,-174.71"/>
</g>
<!-- node_0x62b9933c34e0 -->
<g id="node4" class="node">
<title>node_0x62b9933c34e0</title>
<path fill="#e8f9e5" stroke="#c9fbdb" d="M280.5,-107.5C280.5,-107.5 402.5,-107.5 402.5,-107.5 408.5,-107.5 414.5,-113.5 414.5,-119.5 414.5,-119.5 414.5,-158.5 414.5,-158.5 414.5,-164.5 408.5,-170.5 402.5,-170.5 402.5,-170.5 280.5,-170.5 280.5,-170.5 274.5,-170.5 268.5,-164.5 268.5,-158.5 268.5,-158.5 268.5,-119.5 268.5,-119.5 268.5,-113.5 274.5,-107.5 280.5,-107.5"/>
<text text-anchor="middle" x="341.5" y="-156.9" font-family="Fira Mono" font-size="12.00">ptr: 0x62b9933c34e0</text>
<polyline fill="none" stroke="#c9fbdb" points="268.5,-149.5 414.5,-149.5 "/>
<text text-anchor="middle" x="341.5" y="-135.9" font-family="Fira Mono" font-size="12.00">val: 2.000000</text>
<polyline fill="none" stroke="#c9fbdb" points="268.5,-128.5 414.5,-128.5 "/>
<text text-anchor="middle" x="305" y="-114.9" font-family="Fira Mono" font-size="12.00">prev: (nil)</text>
<polyline fill="none" stroke="#c9fbdb" points="341.5,-107.5 341.5,-128.5 "/>
<text text-anchor="middle" x="378" y="-114.9" font-family="Fira Mono" font-size="12.00">next: (nil)</text>
</g>
<!-- node_0x62b9933c0a70&#45;&gt;node_0x62b9933c34e0 -->
<g id="edge2" class="edge">
<title>node_0x62b9933c0a70&#45;&gt;node_0x62b9933c34e0</title>
<path fill="none" stroke="#999999" d="M260.07,-214.35C272.71,-202.81 287.22,-189.56 300.46,-177.47"/>
<polygon fill="#999999" stroke="#999999" points="303.06,-179.84 308.09,-170.51 298.34,-174.67 303.06,-179.84"/>
</g>
<!-- node_0x62b9933bfe90 -->
<g id="node3" class="node">
<title>node_0x62b9933bfe90</title>
<path fill="#e8f9e5" stroke="#c9fbdb" d="M51.5,-0.5C51.5,-0.5 173.5,-0.5 173.5,-0.5 179.5,-0.5 185.5,-6.5 185.5,-12.5 185.5,-12.5 185.5,-51.5 185.5,-51.5 185.5,-57.5 179.5,-63.5 173.5,-63.5 173.5,-63.5 51.5,-63.5 51.5,-63.5 45.5,-63.5 39.5,-57.5 39.5,-51.5 39.5,-51.5 39.5,-12.5 39.5,-12.5 39.5,-6.5 45.5,-0.5 51.5,-0.5"/>
<text text-anchor="middle" x="112.5" y="-49.9" font-family="Fira Mono" font-size="12.00">ptr: 0x62b9933bfe90</text>
<polyline fill="none" stroke="#c9fbdb" points="39.5,-42.5 185.5,-42.5 "/>
<text text-anchor="middle" x="112.5" y="-28.9" font-family="Fira Mono" font-size="12.00">val: 1.000000</text>
<polyline fill="none" stroke="#c9fbdb" points="39.5,-21.5 185.5,-21.5 "/>
<text text-anchor="middle" x="76" y="-7.9" font-family="Fira Mono" font-size="12.00">prev: (nil)</text>
<polyline fill="none" stroke="#c9fbdb" points="112.5,-0.5 112.5,-21.5 "/>
<text text-anchor="middle" x="149" y="-7.9" font-family="Fira Mono" font-size="12.00">next: (nil)</text>
</g>
<!-- node_0x62b9933c3420&#45;&gt;node_0x62b9933bfe90 -->
<g id="edge3" class="edge">
<title>node_0x62b9933c3420&#45;&gt;node_0x62b9933bfe90</title>
<path fill="none" stroke="#999999" d="M112.5,-107.35C112.5,-96.78 112.5,-84.78 112.5,-73.54"/>
<polygon fill="#999999" stroke="#999999" points="116,-73.51 112.5,-63.51 109,-73.51 116,-73.51"/>
</g>
</g>
</svg>
