<?xml version="1.0" encoding="UTF-8" standalone="no"?>
<!DOCTYPE svg PUBLIC "-//W3C//DTD SVG 1.1//EN"
 "http://www.w3.org/Graphics/SVG/1.1/DTD/svg11.dtd">
<!-- Generated by graphviz version 2.43.0 (0)
 -->
<!-- Title: T Pages: 1 -->
<svg width="343pt" height="393pt"
 viewBox="0.00 0.00 343.00 393.00" xmlns="http://www.w3.org/2000/svg" xmlns:xlink="http://www.w3.org/1999/xlink">
<g id="graph0" class="graph" transform="scale(1 1) rotate(0) translate(4 389)">
<title>T</title>
<polygon fill="white" stroke="transparent" points="-4,4 -4,-389 339,-389 339,4 -4,4"/>
<!-- node_0x5f3213da1710 -->
<g id="node1" class="node">
<title>node_0x5f3213da1710</title>
<path fill="#e9f2ff" stroke="#6b8fd6" d="M66.5,-321.5C66.5,-321.5 267.5,-321.5 267.5,-321.5 273.5,-321.5 279.5,-327.5 279.5,-333.5 279.5,-333.5 279.5,-372.5 279.5,-372.5 279.5,-378.5 273.5,-384.5 267.5,-384.5 267.5,-384.5 66.5,-384.5 66.5,-384.5 60.5,-384.5 54.5,-378.5 54.5,-372.5 54.5,-372.5 54.5,-333.5 54.5,-333.5 54.5,-327.5 60.5,-321.5 66.5,-321.5"/>
<text text-anchor="middle" x="167" y="-370.9" font-family="Fira Mono" font-size="12.00">ptr: 0x5f3213da1710</text>
<polyline fill="none" stroke="#6b8fd6" points="54.5,-363.5 279.5,-363.5 "/>
<text text-anchor="middle" x="167" y="-349.9" font-family="Fira Mono" font-size="12.00">val: 0</text>
<polyline fill="none" stroke="#6b8fd6" points="54.5,-342.5 279.5,-342.5 "/>
<text text-anchor="middle" x="91" y="-328.9" font-family="Fira Mono" font-size="12.00">prev: (nil)</text>
<polyline fill="none" stroke="#6b8fd6" points="127.5,-321.5 127.5,-342.5 "/>
<text text-anchor="middle" x="203.5" y="-328.9" font-family="Fira Mono" font-size="12.00">next: 0x5f3213da1970</text>
</g>
<!-- node_0x5f3213da1970 -->
<g id="node2" class="node">
<title>node_0x5f3213da1970</title>
<path fill="#e9fbf5" stroke="#5aa99b" d="M66.5,-214.5C66.5,-214.5 267.5,-214.5 267.5,-214.5 273.5,-214.5 279.5,-220.5 279.5,-226.5 279.5,-226.5 279.5,-265.5 279.5,-265.5 279.5,-271.5 273.5,-277.5 267.5,-277.5 267.5,-277.5 66.5,-277.5 66.5,-277.5 60.5,-277.5 54.5,-271.5 54.5,-265.5 54.5,-265.5 54.5,-226.5 54.5,-226.5 54.5,-220.5 60.5,-214.5 66.5,-214.5"/>
<text text-anchor="middle" x="167" y="-263.9" font-family="Fira Mono" font-size="12.00">ptr: 0x5f3213da1970</text>
<polyline fill="none" stroke="#5aa99b" points="54.5,-256.5 279.5,-256.5 "/>
<text text-anchor="middle" x="167" y="-242.9" font-family="Fira Mono" font-size="12.00">val: +</text>
<polyline fill="none" stroke="#5aa99b" points="54.5,-235.5 279.5,-235.5 "/>
<text text-anchor="middle" x="130.5" y="-221.9" font-family="Fira Mono" font-size="12.00">prev: 0x5f3213da1a30</text>
<polyline fill="none" stroke="#5aa99b" points="206.5,-214.5 206.5,-235.5 "/>
<text text-anchor="middle" x="243" y="-221.9" font-family="Fira Mono" font-size="12.00">next: (nil)</text>
</g>
<!-- node_0x5f3213da1710&#45;&gt;node_0x5f3213da1970 -->
<g id="edge1" class="edge">
<title>node_0x5f3213da1710&#45;&gt;node_0x5f3213da1970</title>
<path fill="none" stroke="#999999" d="M167,-321.35C167,-310.78 167,-298.78 167,-287.54"/>
<polygon fill="#999999" stroke="#999999" points="170.5,-287.51 167,-277.51 163.5,-287.51 170.5,-287.51"/>
</g>
<!-- node_0x5f3213da1a30 -->
<g id="node3" class="node">
<title>node_0x5f3213da1a30</title>
<path fill="#f1eafd" stroke="#8e6bd6" d="M28.5,-107.5C28.5,-107.5 305.5,-107.5 305.5,-107.5 311.5,-107.5 317.5,-113.5 317.5,-119.5 317.5,-119.5 317.5,-158.5 317.5,-158.5 317.5,-164.5 311.5,-170.5 305.5,-170.5 305.5,-170.5 28.5,-170.5 28.5,-170.5 22.5,-170.5 16.5,-164.5 16.5,-158.5 16.5,-158.5 16.5,-119.5 16.5,-119.5 16.5,-113.5 22.5,-107.5 28.5,-107.5"/>
<text text-anchor="middle" x="167" y="-156.9" font-family="Fira Mono" font-size="12.00">ptr: 0x5f3213da1a30</text>
<polyline fill="none" stroke="#8e6bd6" points="16.5,-149.5 317.5,-149.5 "/>
<text text-anchor="middle" x="167" y="-135.9" font-family="Fira Mono" font-size="12.00">val: *</text>
<polyline fill="none" stroke="#8e6bd6" points="16.5,-128.5 317.5,-128.5 "/>
<text text-anchor="middle" x="91" y="-114.9" font-family="Fira Mono" font-size="12.00">prev: 0x5f3213da1af0</text>
<polyline fill="none" stroke="#8e6bd6" points="165.5,-107.5 165.5,-128.5 "/>
<text text-anchor="middle" x="241.5" y="-114.9" font-family="Fira Mono" font-size="12.00">next: 0x5f3213da1b90</text>
</g>
<!-- node_0x5f3213da1970&#45;&gt;node_0x5f3213da1a30 -->
<g id="edge2" class="edge">
<title>node_0x5f3213da1970&#45;&gt;node_0x5f3213da1a30</title>
<path fill="none" stroke="#999999" d="M167,-214.35C167,-203.78 167,-191.78 167,-180.54"/>
<polygon fill="#999999" stroke="#999999" points="170.5,-180.51 167,-170.51 163.5,-180.51 170.5,-180.51"/>
</g>
<!-- node_0x5f3213da1af0 -->
<g id="node4" class="node">
<title>node_0x5f3213da1af0</title>
<path fill="#e8f9e5" stroke="#c9fbdb" d="M12,-0.5C12,-0.5 134,-0.5 134,-0.5 140,-0.5 146,-6.5 146,-12.5 146,-12.5 146,-51.5 146,-51.5 146,-57.5 140,-63.5 134,-63.5 134,-63.5 12,-63.5 12,-63.5 6,-63.5 0,-57.5 0,-51.5 0,-51.5 0,-12.5 0,-12.5 0,-6.5 6,-0.5 12,-0.5"/>
<text text-anchor="middle" x="73" y="-49.9" font-family="Fira Mono" font-size="12.00">ptr: 0x5f3213da1af0</text>
<polyline fill="none" stroke="#c9fbdb" points="0,-42.5 146,-42.5 "/>
<text text-anchor="middle" x="73" y="-28.9" font-family="Fira Mono" font-size="12.00">val: 11</text>
<polyline fill="none" stroke="#c9fbdb" points="0,-21.5 146,-21.5 "/>
<text text-anchor="middle" x="36.5" y="-7.9" font-family="Fira Mono" font-size="12.00">prev: (nil)</text>
<polyline fill="none" stroke="#c9fbdb" points="73,-0.5 73,-21.5 "/>
<text text-anchor="middle" x="109.5" y="-7.9" font-family="Fira Mono" font-size="12.00">next: (nil)</text>
</g>
<!-- node_0x5f3213da1a30&#45;&gt;node_0x5f3213da1af0 -->
<g id="edge3" class="edge">
<title>node_0x5f3213da1a30&#45;&gt;node_0x5f3213da1af0</title>
<path fill="none" stroke="#999999" d="M139.56,-107.35C129.42,-96.03 117.81,-83.06 107.15,-71.15"/>
<polygon fill="#999999" stroke="#999999" points="109.59,-68.63 100.31,-63.51 104.38,-73.29 109.59,-68.63"/>
</g>
<!-- node_0x5f3213da1b90 -->
<g id="node5" class="node">
<title>node_0x5f3213da1b90</title>
<path fill="#e8f9e5" stroke="#c9fbdb" d="M201,-0.5C201,-0.5 323,-0.5 323,-0.5 329,-0.5 335,-6.5 335,-12.5 335,-12.5 335,-51.5 335,-51.5 335,-57.5 329,-63.5 323,-63.5 323,-63.5 201,-63.5 201,-63.5 195,-63.5 189,-57.5 189,-51.5 189,-51.5 189,-12.5 189,-12.5 189,-6.5 195,-0.5 201,-0.5"/>
<text text-anchor="middle" x="262" y="-49.9" font-family="Fira Mono" font-size="12.00">ptr: 0x5f3213da1b90</text>
<polyline fill="none" stroke="#c9fbdb" points="189,-42.5 335,-42.5 "/>
<text text-anchor="middle" x="262" y="-28.9" font-family="Fira Mono" font-size="12.00">val: &#45;</text>
<polyline fill="none" stroke="#c9fbdb" points="189,-21.5 335,-21.5 "/>
<text text-anchor="middle" x="225.5" y="-7.9" font-family="Fira Mono" font-size="12.00">prev: (nil)</text>
<polyline fill="none" stroke="#c9fbdb" points="262,-0.5 262,-21.5 "/>
<text text-anchor="middle" x="298.5" y="-7.9" font-family="Fira Mono" font-size="12.00">next: (nil)</text>
</g>
<!-- node_0x5f3213da1a30&#45;&gt;node_0x5f3213da1b90 -->
<g id="edge4" class="edge">
<title>node_0x5f3213da1a30&#45;&gt;node_0x5f3213da1b90</title>
<path fill="none" stroke="#999999" d="M194.73,-107.35C204.98,-96.03 216.71,-83.06 227.48,-71.15"/>
<polygon fill="#999999" stroke="#999999" points="230.28,-73.27 234.4,-63.51 225.09,-68.58 230.28,-73.27"/>
</g>
</g>
</svg>
