<?xml version="1.0" encoding="UTF-8" standalone="no"?>
<!DOCTYPE svg PUBLIC "-//W3C//DTD SVG 1.1//EN"
 "http://www.w3.org/Graphics/SVG/1.1/DTD/svg11.dtd">
<!-- Generated by graphviz version 2.43.0 (0)
 -->
<!-- Title: T Pages: 1 -->
<svg width="228pt" height="179pt"
 viewBox="0.00 0.00 228.00 179.00" xmlns="http://www.w3.org/2000/svg" xmlns:xlink="http://www.w3.org/1999/xlink">
<g id="graph0" class="graph" transform="scale(1 1) rotate(0) translate(4 175)">
<title>T</title>
<polygon fill="white" stroke="transparent" points="-4,4 -4,-175 224,-175 224,4 -4,4"/>
<!-- node_0x61cefcbe1f20 -->
<g id="node1" class="node">
<title>node_0x61cefcbe1f20</title>
<path fill="#e9fbf5" stroke="#5aa99b" d="M12,-107.5C12,-107.5 208,-107.5 208,-107.5 214,-107.5 220,-113.5 220,-119.5 220,-119.5 220,-158.5 220,-158.5 220,-164.5 214,-170.5 208,-170.5 208,-170.5 12,-170.5 12,-170.5 6,-170.5 0,-164.5 0,-158.5 0,-158.5 0,-119.5 0,-119.5 0,-113.5 6,-107.5 12,-107.5"/>
<text text-anchor="middle" x="110" y="-156.9" font-family="Fira Mono" font-size="12.00">ptr: 0x61cefcbe1f20</text>
<polyline fill="none" stroke="#5aa99b" points="0,-149.5 220,-149.5 "/>
<text text-anchor="middle" x="110" y="-135.9" font-family="Fira Mono" font-size="12.00">val: +</text>
<polyline fill="none" stroke="#5aa99b" points="0,-128.5 220,-128.5 "/>
<text text-anchor="middle" x="73.5" y="-114.9" font-family="Fira Mono" font-size="12.00">prev: 0x61cefcbe1fb0</text>
<polyline fill="none" stroke="#5aa99b" points="147,-107.5 147,-128.5 "/>
<text text-anchor="middle" x="183.5" y="-114.9" font-family="Fira Mono" font-size="12.00">next: (nil)</text>
</g>
<!-- node_0x61cefcbe1fb0 -->
<g id="node2" class="node">
<title>node_0x61cefcbe1fb0</title>
<path fill="#e8f9e5" stroke="#c9fbdb" d="M49,-0.5C49,-0.5 171,-0.5 171,-0.5 177,-0.5 183,-6.5 183,-12.5 183,-12.5 183,-51.5 183,-51.5 183,-57.5 177,-63.5 171,-63.5 171,-63.5 49,-63.5 49,-63.5 43,-63.5 37,-57.5 37,-51.5 37,-51.5 37,-12.5 37,-12.5 37,-6.5 43,-0.5 49,-0.5"/>
<text text-anchor="middle" x="110" y="-49.9" font-family="Fira Mono" font-size="12.00">ptr: 0x61cefcbe1fb0</text>
<polyline fill="none" stroke="#c9fbdb" points="37,-42.5 183,-42.5 "/>
<text text-anchor="middle" x="110" y="-28.9" font-family="Fira Mono" font-size="12.00">val: 10</text>
<polyline fill="none" stroke="#c9fbdb" points="37,-21.5 183,-21.5 "/>
<text text-anchor="middle" x="73.5" y="-7.9" font-family="Fira Mono" font-size="12.00">prev: (nil)</text>
<polyline fill="none" stroke="#c9fbdb" points="110,-0.5 110,-21.5 "/>
<text text-anchor="middle" x="146.5" y="-7.9" font-family="Fira Mono" font-size="12.00">next: (nil)</text>
</g>
<!-- node_0x61cefcbe1f20&#45;&gt;node_0x61cefcbe1fb0 -->
<g id="edge1" class="edge">
<title>node_0x61cefcbe1f20&#45;&gt;node_0x61cefcbe1fb0</title>
<path fill="none" stroke="#999999" d="M110,-107.35C110,-96.78 110,-84.78 110,-73.54"/>
<polygon fill="#999999" stroke="#999999" points="113.5,-73.51 110,-63.51 106.5,-73.51 113.5,-73.51"/>
</g>
</g>
</svg>
