<?xml version="1.0" encoding="UTF-8" standalone="no"?>
<!DOCTYPE svg PUBLIC "-//W3C//DTD SVG 1.1//EN"
 "http://www.w3.org/Graphics/SVG/1.1/DTD/svg11.dtd">
<!-- Generated by graphviz version 2.43.0 (0)
 -->
<!-- Title: T Pages: 1 -->
<svg width="230pt" height="179pt"
 viewBox="0.00 0.00 230.00 179.00" xmlns="http://www.w3.org/2000/svg" xmlns:xlink="http://www.w3.org/1999/xlink">
<g id="graph0" class="graph" transform="scale(1 1) rotate(0) translate(4 175)">
<title>T</title>
<polygon fill="white" stroke="transparent" points="-4,4 -4,-175 226,-175 226,4 -4,4"/>
<!-- node_0x64b1e2df82a0 -->
<g id="node1" class="node">
<title>node_0x64b1e2df82a0</title>
<path fill="#e9f2ff" stroke="#6b8fd6" d="M12,-107.5C12,-107.5 210,-107.5 210,-107.5 216,-107.5 222,-113.5 222,-119.5 222,-119.5 222,-158.5 222,-158.5 222,-164.5 216,-170.5 210,-170.5 210,-170.5 12,-170.5 12,-170.5 6,-170.5 0,-164.5 0,-158.5 0,-158.5 0,-119.5 0,-119.5 0,-113.5 6,-107.5 12,-107.5"/>
<text text-anchor="middle" x="111" y="-156.9" font-family="Fira Mono" font-size="12.00">ptr: 0x64b1e2df82a0</text>
<polyline fill="none" stroke="#6b8fd6" points="0,-149.5 222,-149.5 "/>
<text text-anchor="middle" x="111" y="-135.9" font-family="Fira Mono" font-size="12.00">val: 0</text>
<polyline fill="none" stroke="#6b8fd6" points="0,-128.5 222,-128.5 "/>
<text text-anchor="middle" x="36.5" y="-114.9" font-family="Fira Mono" font-size="12.00">prev: (nil)</text>
<polyline fill="none" stroke="#6b8fd6" points="73,-107.5 73,-128.5 "/>
<text text-anchor="middle" x="147.5" y="-114.9" font-family="Fira Mono" font-size="12.00">next: 0x64b1e2df82f0</text>
</g>
<!-- node_0x64b1e2df82f0 -->
<g id="node2" class="node">
<title>node_0x64b1e2df82f0</title>
<path fill="#e9fbf5" stroke="#5aa99b" d="M50,-0.5C50,-0.5 172,-0.5 172,-0.5 178,-0.5 184,-6.5 184,-12.5 184,-12.5 184,-51.5 184,-51.5 184,-57.5 178,-63.5 172,-63.5 172,-63.5 50,-63.5 50,-63.5 44,-63.5 38,-57.5 38,-51.5 38,-51.5 38,-12.5 38,-12.5 38,-6.5 44,-0.5 50,-0.5"/>
<text text-anchor="middle" x="111" y="-49.9" font-family="Fira Mono" font-size="12.00">ptr: 0x64b1e2df82f0</text>
<polyline fill="none" stroke="#5aa99b" points="38,-42.5 184,-42.5 "/>
<text text-anchor="middle" x="111" y="-28.9" font-family="Fira Mono" font-size="12.00">val: x</text>
<polyline fill="none" stroke="#5aa99b" points="38,-21.5 184,-21.5 "/>
<text text-anchor="middle" x="74.5" y="-7.9" font-family="Fira Mono" font-size="12.00">prev: (nil)</text>
<polyline fill="none" stroke="#5aa99b" points="111,-0.5 111,-21.5 "/>
<text text-anchor="middle" x="147.5" y="-7.9" font-family="Fira Mono" font-size="12.00">next: (nil)</text>
</g>
<!-- node_0x64b1e2df82a0&#45;&gt;node_0x64b1e2df82f0 -->
<g id="edge1" class="edge">
<title>node_0x64b1e2df82a0&#45;&gt;node_0x64b1e2df82f0</title>
<path fill="none" stroke="#999999" d="M111,-107.35C111,-96.78 111,-84.78 111,-73.54"/>
<polygon fill="#999999" stroke="#999999" points="114.5,-73.51 111,-63.51 107.5,-73.51 114.5,-73.51"/>
</g>
</g>
</svg>
