<?xml version="1.0" encoding="UTF-8" standalone="no"?>
<!DOCTYPE svg PUBLIC "-//W3C//DTD SVG 1.1//EN"
 "http://www.w3.org/Graphics/SVG/1.1/DTD/svg11.dtd">
<!-- Generated by graphviz version 2.43.0 (0)
 -->
<!-- Title: T Pages: 1 -->
<svg width="515pt" height="500pt"
 viewBox="0.00 0.00 515.00 500.00" xmlns="http://www.w3.org/2000/svg" xmlns:xlink="http://www.w3.org/1999/xlink">
<g id="graph0" class="graph" transform="scale(1 1) rotate(0) translate(4 496)">
<title>T</title>
<polygon fill="white" stroke="transparent" points="-4,4 -4,-496 511,-496 511,4 -4,4"/>
<!-- node_0x5f3213da1710 -->
<g id="node1" class="node">
<title>node_0x5f3213da1710</title>
<path fill="#e9f2ff" stroke="#6b8fd6" d="M105.5,-428.5C105.5,-428.5 306.5,-428.5 306.5,-428.5 312.5,-428.5 318.5,-434.5 318.5,-440.5 318.5,-440.5 318.5,-479.5 318.5,-479.5 318.5,-485.5 312.5,-491.5 306.5,-491.5 306.5,-491.5 105.5,-491.5 105.5,-491.5 99.5,-491.5 93.5,-485.5 93.5,-479.5 93.5,-479.5 93.5,-440.5 93.5,-440.5 93.5,-434.5 99.5,-428.5 105.5,-428.5"/>
<text text-anchor="middle" x="206" y="-477.9" font-family="Fira Mono" font-size="12.00">ptr: 0x5f3213da1710</text>
<polyline fill="none" stroke="#6b8fd6" points="93.5,-470.5 318.5,-470.5 "/>
<text text-anchor="middle" x="206" y="-456.9" font-family="Fira Mono" font-size="12.00">val: 0</text>
<polyline fill="none" stroke="#6b8fd6" points="93.5,-449.5 318.5,-449.5 "/>
<text text-anchor="middle" x="130" y="-435.9" font-family="Fira Mono" font-size="12.00">prev: (nil)</text>
<polyline fill="none" stroke="#6b8fd6" points="166.5,-428.5 166.5,-449.5 "/>
<text text-anchor="middle" x="242.5" y="-435.9" font-family="Fira Mono" font-size="12.00">next: 0x5f3213da1970</text>
</g>
<!-- node_0x5f3213da1970 -->
<g id="node2" class="node">
<title>node_0x5f3213da1970</title>
<path fill="#e9fbf5" stroke="#5aa99b" d="M105.5,-321.5C105.5,-321.5 306.5,-321.5 306.5,-321.5 312.5,-321.5 318.5,-327.5 318.5,-333.5 318.5,-333.5 318.5,-372.5 318.5,-372.5 318.5,-378.5 312.5,-384.5 306.5,-384.5 306.5,-384.5 105.5,-384.5 105.5,-384.5 99.5,-384.5 93.5,-378.5 93.5,-372.5 93.5,-372.5 93.5,-333.5 93.5,-333.5 93.5,-327.5 99.5,-321.5 105.5,-321.5"/>
<text text-anchor="middle" x="206" y="-370.9" font-family="Fira Mono" font-size="12.00">ptr: 0x5f3213da1970</text>
<polyline fill="none" stroke="#5aa99b" points="93.5,-363.5 318.5,-363.5 "/>
<text text-anchor="middle" x="206" y="-349.9" font-family="Fira Mono" font-size="12.00">val: +</text>
<polyline fill="none" stroke="#5aa99b" points="93.5,-342.5 318.5,-342.5 "/>
<text text-anchor="middle" x="169.5" y="-328.9" font-family="Fira Mono" font-size="12.00">prev: 0x5f3213da1a30</text>
<polyline fill="none" stroke="#5aa99b" points="245.5,-321.5 245.5,-342.5 "/>
<text text-anchor="middle" x="282" y="-328.9" font-family="Fira Mono" font-size="12.00">next: (nil)</text>
</g>
<!-- node_0x5f3213da1710&#45;&gt;node_0x5f3213da1970 -->
<g id="edge1" class="edge">
<title>node_0x5f3213da1710&#45;&gt;node_0x5f3213da1970</title>
<path fill="none" stroke="#999999" d="M206,-428.35C206,-417.78 206,-405.78 206,-394.54"/>
<polygon fill="#999999" stroke="#999999" points="209.5,-394.51 206,-384.51 202.5,-394.51 209.5,-394.51"/>
</g>
<!-- node_0x5f3213da1a30 -->
<g id="node3" class="node">
<title>node_0x5f3213da1a30</title>
<path fill="#f1eafd" stroke="#8e6bd6" d="M67.5,-214.5C67.5,-214.5 344.5,-214.5 344.5,-214.5 350.5,-214.5 356.5,-220.5 356.5,-226.5 356.5,-226.5 356.5,-265.5 356.5,-265.5 356.5,-271.5 350.5,-277.5 344.5,-277.5 344.5,-277.5 67.5,-277.5 67.5,-277.5 61.5,-277.5 55.5,-271.5 55.5,-265.5 55.5,-265.5 55.5,-226.5 55.5,-226.5 55.5,-220.5 61.5,-214.5 67.5,-214.5"/>
<text text-anchor="middle" x="206" y="-263.9" font-family="Fira Mono" font-size="12.00">ptr: 0x5f3213da1a30</text>
<polyline fill="none" stroke="#8e6bd6" points="55.5,-256.5 356.5,-256.5 "/>
<text text-anchor="middle" x="206" y="-242.9" font-family="Fira Mono" font-size="12.00">val: *</text>
<polyline fill="none" stroke="#8e6bd6" points="55.5,-235.5 356.5,-235.5 "/>
<text text-anchor="middle" x="130" y="-221.9" font-family="Fira Mono" font-size="12.00">prev: 0x5f3213da1af0</text>
<polyline fill="none" stroke="#8e6bd6" points="204.5,-214.5 204.5,-235.5 "/>
<text text-anchor="middle" x="280.5" y="-221.9" font-family="Fira Mono" font-size="12.00">next: 0x5f3213da1b90</text>
</g>
<!-- node_0x5f3213da1970&#45;&gt;node_0x5f3213da1a30 -->
<g id="edge2" class="edge">
<title>node_0x5f3213da1970&#45;&gt;node_0x5f3213da1a30</title>
<path fill="none" stroke="#999999" d="M206,-321.35C206,-310.78 206,-298.78 206,-287.54"/>
<polygon fill="#999999" stroke="#999999" points="209.5,-287.51 206,-277.51 202.5,-287.51 209.5,-287.51"/>
</g>
<!-- node_0x5f3213da1af0 -->
<g id="node4" class="node">
<title>node_0x5f3213da1af0</title>
<path fill="#e8f9e5" stroke="#c9fbdb" d="M12,-107.5C12,-107.5 134,-107.5 134,-107.5 140,-107.5 146,-113.5 146,-119.5 146,-119.5 146,-158.5 146,-158.5 146,-164.5 140,-170.5 134,-170.5 134,-170.5 12,-170.5 12,-170.5 6,-170.5 0,-164.5 0,-158.5 0,-158.5 0,-119.5 0,-119.5 0,-113.5 6,-107.5 12,-107.5"/>
<text text-anchor="middle" x="73" y="-156.9" font-family="Fira Mono" font-size="12.00">ptr: 0x5f3213da1af0</text>
<polyline fill="none" stroke="#c9fbdb" points="0,-149.5 146,-149.5 "/>
<text text-anchor="middle" x="73" y="-135.9" font-family="Fira Mono" font-size="12.00">val: 11</text>
<polyline fill="none" stroke="#c9fbdb" points="0,-128.5 146,-128.5 "/>
<text text-anchor="middle" x="36.5" y="-114.9" font-family="Fira Mono" font-size="12.00">prev: (nil)</text>
<polyline fill="none" stroke="#c9fbdb" points="73,-107.5 73,-128.5 "/>
<text text-anchor="middle" x="109.5" y="-114.9" font-family="Fira Mono" font-size="12.00">next: (nil)</text>
</g>
<!-- node_0x5f3213da1a30&#45;&gt;node_0x5f3213da1af0 -->
<g id="edge3" class="edge">
<title>node_0x5f3213da1a30&#45;&gt;node_0x5f3213da1af0</title>
<path fill="none" stroke="#999999" d="M167.17,-214.35C152.29,-202.59 135.15,-189.06 119.61,-176.79"/>
<polygon fill="#999999" stroke="#999999" points="121.66,-173.96 111.64,-170.51 117.33,-179.45 121.66,-173.96"/>
</g>
<!-- node_0x5f3213da1b90 -->
<g id="node5" class="node">
<title>node_0x5f3213da1b90</title>
<path fill="#f1eafd" stroke="#8e6bd6" d="M201,-107.5C201,-107.5 479,-107.5 479,-107.5 485,-107.5 491,-113.5 491,-119.5 491,-119.5 491,-158.5 491,-158.5 491,-164.5 485,-170.5 479,-170.5 479,-170.5 201,-170.5 201,-170.5 195,-170.5 189,-164.5 189,-158.5 189,-158.5 189,-119.5 189,-119.5 189,-113.5 195,-107.5 201,-107.5"/>
<text text-anchor="middle" x="340" y="-156.9" font-family="Fira Mono" font-size="12.00">ptr: 0x5f3213da1b90</text>
<polyline fill="none" stroke="#8e6bd6" points="189,-149.5 491,-149.5 "/>
<text text-anchor="middle" x="340" y="-135.9" font-family="Fira Mono" font-size="12.00">val: &#45;</text>
<polyline fill="none" stroke="#8e6bd6" points="189,-128.5 491,-128.5 "/>
<text text-anchor="middle" x="264.5" y="-114.9" font-family="Fira Mono" font-size="12.00">prev: 0x5f3213da1c30</text>
<polyline fill="none" stroke="#8e6bd6" points="340,-107.5 340,-128.5 "/>
<text text-anchor="middle" x="415.5" y="-114.9" font-family="Fira Mono" font-size="12.00">next: 0x5f3213da1c60</text>
</g>
<!-- node_0x5f3213da1a30&#45;&gt;node_0x5f3213da1b90 -->
<g id="edge4" class="edge">
<title>node_0x5f3213da1a30&#45;&gt;node_0x5f3213da1b90</title>
<path fill="none" stroke="#999999" d="M245.12,-214.35C260.12,-202.59 277.38,-189.06 293.04,-176.79"/>
<polygon fill="#999999" stroke="#999999" points="295.35,-179.43 301.06,-170.51 291.03,-173.92 295.35,-179.43"/>
</g>
<!-- node_0x5f3213da1c30 -->
<g id="node6" class="node">
<title>node_0x5f3213da1c30</title>
<path fill="#e8f9e5" stroke="#c9fbdb" d="M184,-0.5C184,-0.5 306,-0.5 306,-0.5 312,-0.5 318,-6.5 318,-12.5 318,-12.5 318,-51.5 318,-51.5 318,-57.5 312,-63.5 306,-63.5 306,-63.5 184,-63.5 184,-63.5 178,-63.5 172,-57.5 172,-51.5 172,-51.5 172,-12.5 172,-12.5 172,-6.5 178,-0.5 184,-0.5"/>
<text text-anchor="middle" x="245" y="-49.9" font-family="Fira Mono" font-size="12.00">ptr: 0x5f3213da1c30</text>
<polyline fill="none" stroke="#c9fbdb" points="172,-42.5 318,-42.5 "/>
<text text-anchor="middle" x="245" y="-28.9" font-family="Fira Mono" font-size="12.00">val: 10</text>
<polyline fill="none" stroke="#c9fbdb" points="172,-21.5 318,-21.5 "/>
<text text-anchor="middle" x="208.5" y="-7.9" font-family="Fira Mono" font-size="12.00">prev: (nil)</text>
<polyline fill="none" stroke="#c9fbdb" points="245,-0.5 245,-21.5 "/>
<text text-anchor="middle" x="281.5" y="-7.9" font-family="Fira Mono" font-size="12.00">next: (nil)</text>
</g>
<!-- node_0x5f3213da1b90&#45;&gt;node_0x5f3213da1c30 -->
<g id="edge5" class="edge">
<title>node_0x5f3213da1b90&#45;&gt;node_0x5f3213da1c30</title>
<path fill="none" stroke="#999999" d="M312.27,-107.35C302.02,-96.03 290.29,-83.06 279.52,-71.15"/>
<polygon fill="#999999" stroke="#999999" points="281.91,-68.58 272.6,-63.51 276.72,-73.27 281.91,-68.58"/>
</g>
<!-- node_0x5f3213da1c60 -->
<g id="node7" class="node">
<title>node_0x5f3213da1c60</title>
<path fill="#e8f9e5" stroke="#c9fbdb" d="M373,-0.5C373,-0.5 495,-0.5 495,-0.5 501,-0.5 507,-6.5 507,-12.5 507,-12.5 507,-51.5 507,-51.5 507,-57.5 501,-63.5 495,-63.5 495,-63.5 373,-63.5 373,-63.5 367,-63.5 361,-57.5 361,-51.5 361,-51.5 361,-12.5 361,-12.5 361,-6.5 367,-0.5 373,-0.5"/>
<text text-anchor="middle" x="434" y="-49.9" font-family="Fira Mono" font-size="12.00">ptr: 0x5f3213da1c60</text>
<polyline fill="none" stroke="#c9fbdb" points="361,-42.5 507,-42.5 "/>
<text text-anchor="middle" x="434" y="-28.9" font-family="Fira Mono" font-size="12.00">val: 9</text>
<polyline fill="none" stroke="#c9fbdb" points="361,-21.5 507,-21.5 "/>
<text text-anchor="middle" x="397.5" y="-7.9" font-family="Fira Mono" font-size="12.00">prev: (nil)</text>
<polyline fill="none" stroke="#c9fbdb" points="434,-0.5 434,-21.5 "/>
<text text-anchor="middle" x="470.5" y="-7.9" font-family="Fira Mono" font-size="12.00">next: (nil)</text>
</g>
<!-- node_0x5f3213da1b90&#45;&gt;node_0x5f3213da1c60 -->
<g id="edge6" class="edge">
<title>node_0x5f3213da1b90&#45;&gt;node_0x5f3213da1c60</title>
<path fill="none" stroke="#999999" d="M367.44,-107.35C377.58,-96.03 389.19,-83.06 399.85,-71.15"/>
<polygon fill="#999999" stroke="#999999" points="402.62,-73.29 406.69,-63.51 397.41,-68.63 402.62,-73.29"/>
</g>
</g>
</svg>
