<?xml version="1.0" encoding="UTF-8" standalone="no"?>
<!DOCTYPE svg PUBLIC "-//W3C//DTD SVG 1.1//EN"
 "http://www.w3.org/Graphics/SVG/1.1/DTD/svg11.dtd">
<!-- Generated by graphviz version 2.43.0 (0)
 -->
<!-- Title: T Pages: 1 -->
<svg width="231pt" height="179pt"
 viewBox="0.00 0.00 231.00 179.00" xmlns="http://www.w3.org/2000/svg" xmlns:xlink="http://www.w3.org/1999/xlink">
<g id="graph0" class="graph" transform="scale(1 1) rotate(0) translate(4 175)">
<title>T</title>
<polygon fill="white" stroke="transparent" points="-4,4 -4,-175 227,-175 227,4 -4,4"/>
<!-- node_0x64ce29caaf20 -->
<g id="node1" class="node">
<title>node_0x64ce29caaf20</title>
<path fill="#e9fbf5" stroke="#5aa99b" d="M12,-107.5C12,-107.5 211,-107.5 211,-107.5 217,-107.5 223,-113.5 223,-119.5 223,-119.5 223,-158.5 223,-158.5 223,-164.5 217,-170.5 211,-170.5 211,-170.5 12,-170.5 12,-170.5 6,-170.5 0,-164.5 0,-158.5 0,-158.5 0,-119.5 0,-119.5 0,-113.5 6,-107.5 12,-107.5"/>
<text text-anchor="middle" x="111.5" y="-156.9" font-family="Fira Mono" font-size="12.00">ptr: 0x64ce29caaf20</text>
<polyline fill="none" stroke="#5aa99b" points="0,-149.5 223,-149.5 "/>
<text text-anchor="middle" x="111.5" y="-135.9" font-family="Fira Mono" font-size="12.00">val: +</text>
<polyline fill="none" stroke="#5aa99b" points="0,-128.5 223,-128.5 "/>
<text text-anchor="middle" x="75" y="-114.9" font-family="Fira Mono" font-size="12.00">prev: 0x64ce29caafb0</text>
<polyline fill="none" stroke="#5aa99b" points="150,-107.5 150,-128.5 "/>
<text text-anchor="middle" x="186.5" y="-114.9" font-family="Fira Mono" font-size="12.00">next: (nil)</text>
</g>
<!-- node_0x64ce29caafb0 -->
<g id="node2" class="node">
<title>node_0x64ce29caafb0</title>
<path fill="#e8f9e5" stroke="#c9fbdb" d="M50.5,-0.5C50.5,-0.5 172.5,-0.5 172.5,-0.5 178.5,-0.5 184.5,-6.5 184.5,-12.5 184.5,-12.5 184.5,-51.5 184.5,-51.5 184.5,-57.5 178.5,-63.5 172.5,-63.5 172.5,-63.5 50.5,-63.5 50.5,-63.5 44.5,-63.5 38.5,-57.5 38.5,-51.5 38.5,-51.5 38.5,-12.5 38.5,-12.5 38.5,-6.5 44.5,-0.5 50.5,-0.5"/>
<text text-anchor="middle" x="111.5" y="-49.9" font-family="Fira Mono" font-size="12.00">ptr: 0x64ce29caafb0</text>
<polyline fill="none" stroke="#c9fbdb" points="38.5,-42.5 184.5,-42.5 "/>
<text text-anchor="middle" x="111.5" y="-28.9" font-family="Fira Mono" font-size="12.00">val: 10</text>
<polyline fill="none" stroke="#c9fbdb" points="38.5,-21.5 184.5,-21.5 "/>
<text text-anchor="middle" x="75" y="-7.9" font-family="Fira Mono" font-size="12.00">prev: (nil)</text>
<polyline fill="none" stroke="#c9fbdb" points="111.5,-0.5 111.5,-21.5 "/>
<text text-anchor="middle" x="148" y="-7.9" font-family="Fira Mono" font-size="12.00">next: (nil)</text>
</g>
<!-- node_0x64ce29caaf20&#45;&gt;node_0x64ce29caafb0 -->
<g id="edge1" class="edge">
<title>node_0x64ce29caaf20&#45;&gt;node_0x64ce29caafb0</title>
<path fill="none" stroke="#999999" d="M111.5,-107.35C111.5,-96.78 111.5,-84.78 111.5,-73.54"/>
<polygon fill="#999999" stroke="#999999" points="115,-73.51 111.5,-63.51 108,-73.51 115,-73.51"/>
</g>
</g>
</svg>
