<?xml version="1.0" encoding="UTF-8" standalone="no"?>
<!DOCTYPE svg PUBLIC "-//W3C//DTD SVG 1.1//EN"
 "http://www.w3.org/Graphics/SVG/1.1/DTD/svg11.dtd">
<!-- Generated by graphviz version 2.43.0 (0)
 -->
<!-- Title: T Pages: 1 -->
<svg width="425pt" height="286pt"
 viewBox="0.00 0.00 425.00 286.00" xmlns="http://www.w3.org/2000/svg" xmlns:xlink="http://www.w3.org/1999/xlink">
<g id="graph0" class="graph" transform="scale(1 1) rotate(0) translate(4 282)">
<title>T</title>
<polygon fill="white" stroke="transparent" points="-4,4 -4,-282 421,-282 421,4 -4,4"/>
<!-- node_0x571b9d4eaa70 -->
<g id="node1" class="node">
<title>node_0x571b9d4eaa70</title>
<path fill="#e9fbf5" stroke="#5aa99b" d="M86,-214.5C86,-214.5 372,-214.5 372,-214.5 378,-214.5 384,-220.5 384,-226.5 384,-226.5 384,-265.5 384,-265.5 384,-271.5 378,-277.5 372,-277.5 372,-277.5 86,-277.5 86,-277.5 80,-277.5 74,-271.5 74,-265.5 74,-265.5 74,-226.5 74,-226.5 74,-220.5 80,-214.5 86,-214.5"/>
<text text-anchor="middle" x="229" y="-263.9" font-family="Fira Mono" font-size="12.00">ptr: 0x571b9d4eaa70</text>
<polyline fill="none" stroke="#5aa99b" points="74,-256.5 384,-256.5 "/>
<text text-anchor="middle" x="229" y="-242.9" font-family="Fira Mono" font-size="12.00">val: +</text>
<polyline fill="none" stroke="#5aa99b" points="74,-235.5 384,-235.5 "/>
<text text-anchor="middle" x="151.5" y="-221.9" font-family="Fira Mono" font-size="12.00">prev: 0x571b9d4ed420</text>
<polyline fill="none" stroke="#5aa99b" points="229,-214.5 229,-235.5 "/>
<text text-anchor="middle" x="306.5" y="-221.9" font-family="Fira Mono" font-size="12.00">next: 0x571b9d4ed4e0</text>
</g>
<!-- node_0x571b9d4ed420 -->
<g id="node2" class="node">
<title>node_0x571b9d4ed420</title>
<path fill="#f1eafd" stroke="#8e6bd6" d="M12,-107.5C12,-107.5 216,-107.5 216,-107.5 222,-107.5 228,-113.5 228,-119.5 228,-119.5 228,-158.5 228,-158.5 228,-164.5 222,-170.5 216,-170.5 216,-170.5 12,-170.5 12,-170.5 6,-170.5 0,-164.5 0,-158.5 0,-158.5 0,-119.5 0,-119.5 0,-113.5 6,-107.5 12,-107.5"/>
<text text-anchor="middle" x="114" y="-156.9" font-family="Fira Mono" font-size="12.00">ptr: 0x571b9d4ed420</text>
<polyline fill="none" stroke="#8e6bd6" points="0,-149.5 228,-149.5 "/>
<text text-anchor="middle" x="114" y="-135.9" font-family="Fira Mono" font-size="12.00">val: sin</text>
<polyline fill="none" stroke="#8e6bd6" points="0,-128.5 228,-128.5 "/>
<text text-anchor="middle" x="77.5" y="-114.9" font-family="Fira Mono" font-size="12.00">prev: 0x571b9d4e9e90</text>
<polyline fill="none" stroke="#8e6bd6" points="155,-107.5 155,-128.5 "/>
<text text-anchor="middle" x="191.5" y="-114.9" font-family="Fira Mono" font-size="12.00">next: (nil)</text>
</g>
<!-- node_0x571b9d4eaa70&#45;&gt;node_0x571b9d4ed420 -->
<g id="edge1" class="edge">
<title>node_0x571b9d4eaa70&#45;&gt;node_0x571b9d4ed420</title>
<path fill="none" stroke="#999999" d="M195.43,-214.35C182.79,-202.81 168.28,-189.56 155.04,-177.47"/>
<polygon fill="#999999" stroke="#999999" points="157.16,-174.67 147.41,-170.51 152.44,-179.84 157.16,-174.67"/>
</g>
<!-- node_0x571b9d4ed4e0 -->
<g id="node4" class="node">
<title>node_0x571b9d4ed4e0</title>
<path fill="#e8f9e5" stroke="#c9fbdb" d="M283,-107.5C283,-107.5 405,-107.5 405,-107.5 411,-107.5 417,-113.5 417,-119.5 417,-119.5 417,-158.5 417,-158.5 417,-164.5 411,-170.5 405,-170.5 405,-170.5 283,-170.5 283,-170.5 277,-170.5 271,-164.5 271,-158.5 271,-158.5 271,-119.5 271,-119.5 271,-113.5 277,-107.5 283,-107.5"/>
<text text-anchor="middle" x="344" y="-156.9" font-family="Fira Mono" font-size="12.00">ptr: 0x571b9d4ed4e0</text>
<polyline fill="none" stroke="#c9fbdb" points="271,-149.5 417,-149.5 "/>
<text text-anchor="middle" x="344" y="-135.9" font-family="Fira Mono" font-size="12.00">val: 2.000000</text>
<polyline fill="none" stroke="#c9fbdb" points="271,-128.5 417,-128.5 "/>
<text text-anchor="middle" x="307.5" y="-114.9" font-family="Fira Mono" font-size="12.00">prev: (nil)</text>
<polyline fill="none" stroke="#c9fbdb" points="344,-107.5 344,-128.5 "/>
<text text-anchor="middle" x="380.5" y="-114.9" font-family="Fira Mono" font-size="12.00">next: (nil)</text>
</g>
<!-- node_0x571b9d4eaa70&#45;&gt;node_0x571b9d4ed4e0 -->
<g id="edge2" class="edge">
<title>node_0x571b9d4eaa70&#45;&gt;node_0x571b9d4ed4e0</title>
<path fill="none" stroke="#999999" d="M262.57,-214.35C275.21,-202.81 289.72,-189.56 302.96,-177.47"/>
<polygon fill="#999999" stroke="#999999" points="305.56,-179.84 310.59,-170.51 300.84,-174.67 305.56,-179.84"/>
</g>
<!-- node_0x571b9d4e9e90 -->
<g id="node3" class="node">
<title>node_0x571b9d4e9e90</title>
<path fill="#e8f9e5" stroke="#c9fbdb" d="M53,-0.5C53,-0.5 175,-0.5 175,-0.5 181,-0.5 187,-6.5 187,-12.5 187,-12.5 187,-51.5 187,-51.5 187,-57.5 181,-63.5 175,-63.5 175,-63.5 53,-63.5 53,-63.5 47,-63.5 41,-57.5 41,-51.5 41,-51.5 41,-12.5 41,-12.5 41,-6.5 47,-0.5 53,-0.5"/>
<text text-anchor="middle" x="114" y="-49.9" font-family="Fira Mono" font-size="12.00">ptr: 0x571b9d4e9e90</text>
<polyline fill="none" stroke="#c9fbdb" points="41,-42.5 187,-42.5 "/>
<text text-anchor="middle" x="114" y="-28.9" font-family="Fira Mono" font-size="12.00">val: 1.000000</text>
<polyline fill="none" stroke="#c9fbdb" points="41,-21.5 187,-21.5 "/>
<text text-anchor="middle" x="77.5" y="-7.9" font-family="Fira Mono" font-size="12.00">prev: (nil)</text>
<polyline fill="none" stroke="#c9fbdb" points="114,-0.5 114,-21.5 "/>
<text text-anchor="middle" x="150.5" y="-7.9" font-family="Fira Mono" font-size="12.00">next: (nil)</text>
</g>
<!-- node_0x571b9d4ed420&#45;&gt;node_0x571b9d4e9e90 -->
<g id="edge3" class="edge">
<title>node_0x571b9d4ed420&#45;&gt;node_0x571b9d4e9e90</title>
<path fill="none" stroke="#999999" d="M114,-107.35C114,-96.78 114,-84.78 114,-73.54"/>
<polygon fill="#999999" stroke="#999999" points="117.5,-73.51 114,-63.51 110.5,-73.51 117.5,-73.51"/>
</g>
</g>
</svg>
