<?xml version="1.0" encoding="UTF-8" standalone="no"?>
<!DOCTYPE svg PUBLIC "-//W3C//DTD SVG 1.1//EN"
 "http://www.w3.org/Graphics/SVG/1.1/DTD/svg11.dtd">
<!-- Generated by graphviz version 2.43.0 (0)
 -->
<!-- Title: T Pages: 1 -->
<svg width="154pt" height="72pt"
 viewBox="0.00 0.00 154.00 72.00" xmlns="http://www.w3.org/2000/svg" xmlns:xlink="http://www.w3.org/1999/xlink">
<g id="graph0" class="graph" transform="scale(1 1) rotate(0) translate(4 68)">
<title>T</title>
<polygon fill="white" stroke="transparent" points="-4,4 -4,-68 150,-68 150,4 -4,4"/>
<!-- node_0x579ba71d14a0 -->
<g id="node1" class="node">
<title>node_0x579ba71d14a0</title>
<path fill="#e9fbf5" stroke="#5aa99b" d="M12,-0.5C12,-0.5 134,-0.5 134,-0.5 140,-0.5 146,-6.5 146,-12.5 146,-12.5 146,-51.5 146,-51.5 146,-57.5 140,-63.5 134,-63.5 134,-63.5 12,-63.5 12,-63.5 6,-63.5 0,-57.5 0,-51.5 0,-51.5 0,-12.5 0,-12.5 0,-6.5 6,-0.5 12,-0.5"/>
<text text-anchor="middle" x="73" y="-49.9" font-family="Fira Mono" font-size="12.00">ptr: 0x579ba71d14a0</text>
<polyline fill="none" stroke="#5aa99b" points="0,-42.5 146,-42.5 "/>
<text text-anchor="middle" x="73" y="-28.9" font-family="Fira Mono" font-size="12.00">val: 0</text>
<polyline fill="none" stroke="#5aa99b" points="0,-21.5 146,-21.5 "/>
<text text-anchor="middle" x="36.5" y="-7.9" font-family="Fira Mono" font-size="12.00">prev: (nil)</text>
<polyline fill="none" stroke="#5aa99b" points="73,-0.5 73,-21.5 "/>
<text text-anchor="middle" x="109.5" y="-7.9" font-family="Fira Mono" font-size="12.00">next: (nil)</text>
</g>
</g>
</svg>
