<?xml version="1.0" encoding="UTF-8" standalone="no"?>
<!DOCTYPE svg PUBLIC "-//W3C//DTD SVG 1.1//EN"
 "http://www.w3.org/Graphics/SVG/1.1/DTD/svg11.dtd">
<!-- Generated by graphviz version 2.43.0 (0)
 -->
<!-- Title: T Pages: 1 -->
<svg width="1097pt" height="607pt"
 viewBox="0.00 0.00 1096.50 607.00" xmlns="http://www.w3.org/2000/svg" xmlns:xlink="http://www.w3.org/1999/xlink">
<g id="graph0" class="graph" transform="scale(1 1) rotate(0) translate(4 603)">
<title>T</title>
<polygon fill="white" stroke="transparent" points="-4,4 -4,-603 1092.5,-603 1092.5,4 -4,4"/>
<!-- node_0x59653cbcf3c0 -->
<g id="node1" class="node">
<title>node_0x59653cbcf3c0</title>
<path fill="#e9f2ff" stroke="#6b8fd6" d="M538,-535.5C538,-535.5 741,-535.5 741,-535.5 747,-535.5 753,-541.5 753,-547.5 753,-547.5 753,-586.5 753,-586.5 753,-592.5 747,-598.5 741,-598.5 741,-598.5 538,-598.5 538,-598.5 532,-598.5 526,-592.5 526,-586.5 526,-586.5 526,-547.5 526,-547.5 526,-541.5 532,-535.5 538,-535.5"/>
<text text-anchor="middle" x="639.5" y="-584.9" font-family="Fira Mono" font-size="12.00">ptr: 0x59653cbcf3c0</text>
<polyline fill="none" stroke="#6b8fd6" points="526,-577.5 753,-577.5 "/>
<text text-anchor="middle" x="639.5" y="-563.9" font-family="Fira Mono" font-size="12.00">val: 0</text>
<polyline fill="none" stroke="#6b8fd6" points="526,-556.5 753,-556.5 "/>
<text text-anchor="middle" x="562.5" y="-542.9" font-family="Fira Mono" font-size="12.00">prev: (nil)</text>
<polyline fill="none" stroke="#6b8fd6" points="599,-535.5 599,-556.5 "/>
<text text-anchor="middle" x="676" y="-542.9" font-family="Fira Mono" font-size="12.00">next: 0x59653cbd2380</text>
</g>
<!-- node_0x59653cbd2380 -->
<g id="node2" class="node">
<title>node_0x59653cbd2380</title>
<path fill="#f1eafd" stroke="#8e6bd6" d="M497.5,-428.5C497.5,-428.5 781.5,-428.5 781.5,-428.5 787.5,-428.5 793.5,-434.5 793.5,-440.5 793.5,-440.5 793.5,-479.5 793.5,-479.5 793.5,-485.5 787.5,-491.5 781.5,-491.5 781.5,-491.5 497.5,-491.5 497.5,-491.5 491.5,-491.5 485.5,-485.5 485.5,-479.5 485.5,-479.5 485.5,-440.5 485.5,-440.5 485.5,-434.5 491.5,-428.5 497.5,-428.5"/>
<text text-anchor="middle" x="639.5" y="-477.9" font-family="Fira Mono" font-size="12.00">ptr: 0x59653cbd2380</text>
<polyline fill="none" stroke="#8e6bd6" points="485.5,-470.5 793.5,-470.5 "/>
<text text-anchor="middle" x="639.5" y="-456.9" font-family="Fira Mono" font-size="12.00">val: +</text>
<polyline fill="none" stroke="#8e6bd6" points="485.5,-449.5 793.5,-449.5 "/>
<text text-anchor="middle" x="562.5" y="-435.9" font-family="Fira Mono" font-size="12.00">prev: 0x59653cbd2090</text>
<polyline fill="none" stroke="#8e6bd6" points="639.5,-428.5 639.5,-449.5 "/>
<text text-anchor="middle" x="716.5" y="-435.9" font-family="Fira Mono" font-size="12.00">next: 0x59653cbd1da0</text>
</g>
<!-- node_0x59653cbcf3c0&#45;&gt;node_0x59653cbd2380 -->
<g id="edge1" class="edge">
<title>node_0x59653cbcf3c0&#45;&gt;node_0x59653cbd2380</title>
<path fill="none" stroke="#999999" d="M639.5,-535.35C639.5,-524.78 639.5,-512.78 639.5,-501.54"/>
<polygon fill="#999999" stroke="#999999" points="643,-501.51 639.5,-491.51 636,-501.51 643,-501.51"/>
</g>
<!-- node_0x59653cbd2090 -->
<g id="node3" class="node">
<title>node_0x59653cbd2090</title>
<path fill="#f1eafd" stroke="#8e6bd6" d="M322.5,-321.5C322.5,-321.5 606.5,-321.5 606.5,-321.5 612.5,-321.5 618.5,-327.5 618.5,-333.5 618.5,-333.5 618.5,-372.5 618.5,-372.5 618.5,-378.5 612.5,-384.5 606.5,-384.5 606.5,-384.5 322.5,-384.5 322.5,-384.5 316.5,-384.5 310.5,-378.5 310.5,-372.5 310.5,-372.5 310.5,-333.5 310.5,-333.5 310.5,-327.5 316.5,-321.5 322.5,-321.5"/>
<text text-anchor="middle" x="464.5" y="-370.9" font-family="Fira Mono" font-size="12.00">ptr: 0x59653cbd2090</text>
<polyline fill="none" stroke="#8e6bd6" points="310.5,-363.5 618.5,-363.5 "/>
<text text-anchor="middle" x="464.5" y="-349.9" font-family="Fira Mono" font-size="12.00">val: *</text>
<polyline fill="none" stroke="#8e6bd6" points="310.5,-342.5 618.5,-342.5 "/>
<text text-anchor="middle" x="387.5" y="-328.9" font-family="Fira Mono" font-size="12.00">prev: 0x59653cbd2060</text>
<polyline fill="none" stroke="#8e6bd6" points="464.5,-321.5 464.5,-342.5 "/>
<text text-anchor="middle" x="541.5" y="-328.9" font-family="Fira Mono" font-size="12.00">next: 0x59653cbd1aa0</text>
</g>
<!-- node_0x59653cbd2380&#45;&gt;node_0x59653cbd2090 -->
<g id="edge2" class="edge">
<title>node_0x59653cbd2380&#45;&gt;node_0x59653cbd2090</title>
<path fill="none" stroke="#999999" d="M588.41,-428.35C568.29,-416.27 545.03,-402.32 524.14,-389.78"/>
<polygon fill="#999999" stroke="#999999" points="525.72,-386.65 515.35,-384.51 522.12,-392.66 525.72,-386.65"/>
</g>
<!-- node_0x59653cbd1da0 -->
<g id="node9" class="node">
<title>node_0x59653cbd1da0</title>
<path fill="#f1eafd" stroke="#8e6bd6" d="M673.5,-321.5C673.5,-321.5 957.5,-321.5 957.5,-321.5 963.5,-321.5 969.5,-327.5 969.5,-333.5 969.5,-333.5 969.5,-372.5 969.5,-372.5 969.5,-378.5 963.5,-384.5 957.5,-384.5 957.5,-384.5 673.5,-384.5 673.5,-384.5 667.5,-384.5 661.5,-378.5 661.5,-372.5 661.5,-372.5 661.5,-333.5 661.5,-333.5 661.5,-327.5 667.5,-321.5 673.5,-321.5"/>
<text text-anchor="middle" x="815.5" y="-370.9" font-family="Fira Mono" font-size="12.00">ptr: 0x59653cbd1da0</text>
<polyline fill="none" stroke="#8e6bd6" points="661.5,-363.5 969.5,-363.5 "/>
<text text-anchor="middle" x="815.5" y="-349.9" font-family="Fira Mono" font-size="12.00">val: *</text>
<polyline fill="none" stroke="#8e6bd6" points="661.5,-342.5 969.5,-342.5 "/>
<text text-anchor="middle" x="738.5" y="-328.9" font-family="Fira Mono" font-size="12.00">prev: 0x59653cbd1a70</text>
<polyline fill="none" stroke="#8e6bd6" points="815.5,-321.5 815.5,-342.5 "/>
<text text-anchor="middle" x="892.5" y="-328.9" font-family="Fira Mono" font-size="12.00">next: 0x59653cbd1ad0</text>
</g>
<!-- node_0x59653cbd2380&#45;&gt;node_0x59653cbd1da0 -->
<g id="edge3" class="edge">
<title>node_0x59653cbd2380&#45;&gt;node_0x59653cbd1da0</title>
<path fill="none" stroke="#999999" d="M690.88,-428.35C711.12,-416.27 734.51,-402.32 755.52,-389.78"/>
<polygon fill="#999999" stroke="#999999" points="757.57,-392.64 764.36,-384.51 753.98,-386.63 757.57,-392.64"/>
</g>
<!-- node_0x59653cbd2060 -->
<g id="node4" class="node">
<title>node_0x59653cbd2060</title>
<path fill="#f1eafd" stroke="#8e6bd6" d="M89.5,-214.5C89.5,-214.5 367.5,-214.5 367.5,-214.5 373.5,-214.5 379.5,-220.5 379.5,-226.5 379.5,-226.5 379.5,-265.5 379.5,-265.5 379.5,-271.5 373.5,-277.5 367.5,-277.5 367.5,-277.5 89.5,-277.5 89.5,-277.5 83.5,-277.5 77.5,-271.5 77.5,-265.5 77.5,-265.5 77.5,-226.5 77.5,-226.5 77.5,-220.5 83.5,-214.5 89.5,-214.5"/>
<text text-anchor="middle" x="228.5" y="-263.9" font-family="Fira Mono" font-size="12.00">ptr: 0x59653cbd2060</text>
<polyline fill="none" stroke="#8e6bd6" points="77.5,-256.5 379.5,-256.5 "/>
<text text-anchor="middle" x="228.5" y="-242.9" font-family="Fira Mono" font-size="12.00">val: *</text>
<polyline fill="none" stroke="#8e6bd6" points="77.5,-235.5 379.5,-235.5 "/>
<text text-anchor="middle" x="153" y="-221.9" font-family="Fira Mono" font-size="12.00">prev: 0x59653cbd1f80</text>
<polyline fill="none" stroke="#8e6bd6" points="228.5,-214.5 228.5,-235.5 "/>
<text text-anchor="middle" x="304" y="-221.9" font-family="Fira Mono" font-size="12.00">next: 0x59653cbd1ef0</text>
</g>
<!-- node_0x59653cbd2090&#45;&gt;node_0x59653cbd2060 -->
<g id="edge4" class="edge">
<title>node_0x59653cbd2090&#45;&gt;node_0x59653cbd2060</title>
<path fill="none" stroke="#999999" d="M395.92,-321.49C367.92,-309.03 335.39,-294.56 306.49,-281.7"/>
<polygon fill="#999999" stroke="#999999" points="307.81,-278.45 297.25,-277.59 304.96,-284.85 307.81,-278.45"/>
</g>
<!-- node_0x59653cbd1aa0 -->
<g id="node8" class="node">
<title>node_0x59653cbd1aa0</title>
<path fill="#e8f9e5" stroke="#c9fbdb" d="M434.5,-214.5C434.5,-214.5 556.5,-214.5 556.5,-214.5 562.5,-214.5 568.5,-220.5 568.5,-226.5 568.5,-226.5 568.5,-265.5 568.5,-265.5 568.5,-271.5 562.5,-277.5 556.5,-277.5 556.5,-277.5 434.5,-277.5 434.5,-277.5 428.5,-277.5 422.5,-271.5 422.5,-265.5 422.5,-265.5 422.5,-226.5 422.5,-226.5 422.5,-220.5 428.5,-214.5 434.5,-214.5"/>
<text text-anchor="middle" x="495.5" y="-263.9" font-family="Fira Mono" font-size="12.00">ptr: 0x59653cbd1aa0</text>
<polyline fill="none" stroke="#c9fbdb" points="422.5,-256.5 568.5,-256.5 "/>
<text text-anchor="middle" x="495.5" y="-242.9" font-family="Fira Mono" font-size="12.00">val: 1</text>
<polyline fill="none" stroke="#c9fbdb" points="422.5,-235.5 568.5,-235.5 "/>
<text text-anchor="middle" x="459" y="-221.9" font-family="Fira Mono" font-size="12.00">prev: (nil)</text>
<polyline fill="none" stroke="#c9fbdb" points="495.5,-214.5 495.5,-235.5 "/>
<text text-anchor="middle" x="532" y="-221.9" font-family="Fira Mono" font-size="12.00">next: (nil)</text>
</g>
<!-- node_0x59653cbd2090&#45;&gt;node_0x59653cbd1aa0 -->
<g id="edge5" class="edge">
<title>node_0x59653cbd2090&#45;&gt;node_0x59653cbd1aa0</title>
<path fill="none" stroke="#999999" d="M473.55,-321.35C476.7,-310.67 480.29,-298.53 483.63,-287.2"/>
<polygon fill="#999999" stroke="#999999" points="487.02,-288.09 486.49,-277.51 480.3,-286.11 487.02,-288.09"/>
</g>
<!-- node_0x59653cbd1f80 -->
<g id="node5" class="node">
<title>node_0x59653cbd1f80</title>
<path fill="#f1eafd" stroke="#8e6bd6" d="M12,-107.5C12,-107.5 215,-107.5 215,-107.5 221,-107.5 227,-113.5 227,-119.5 227,-119.5 227,-158.5 227,-158.5 227,-164.5 221,-170.5 215,-170.5 215,-170.5 12,-170.5 12,-170.5 6,-170.5 0,-164.5 0,-158.5 0,-158.5 0,-119.5 0,-119.5 0,-113.5 6,-107.5 12,-107.5"/>
<text text-anchor="middle" x="113.5" y="-156.9" font-family="Fira Mono" font-size="12.00">ptr: 0x59653cbd1f80</text>
<polyline fill="none" stroke="#8e6bd6" points="0,-149.5 227,-149.5 "/>
<text text-anchor="middle" x="113.5" y="-135.9" font-family="Fira Mono" font-size="12.00">val: cos</text>
<polyline fill="none" stroke="#8e6bd6" points="0,-128.5 227,-128.5 "/>
<text text-anchor="middle" x="77" y="-114.9" font-family="Fira Mono" font-size="12.00">prev: 0x59653cbd1dd0</text>
<polyline fill="none" stroke="#8e6bd6" points="154,-107.5 154,-128.5 "/>
<text text-anchor="middle" x="190.5" y="-114.9" font-family="Fira Mono" font-size="12.00">next: (nil)</text>
</g>
<!-- node_0x59653cbd2060&#45;&gt;node_0x59653cbd1f80 -->
<g id="edge6" class="edge">
<title>node_0x59653cbd2060&#45;&gt;node_0x59653cbd1f80</title>
<path fill="none" stroke="#999999" d="M194.93,-214.35C182.29,-202.81 167.78,-189.56 154.54,-177.47"/>
<polygon fill="#999999" stroke="#999999" points="156.66,-174.67 146.91,-170.51 151.94,-179.84 156.66,-174.67"/>
</g>
<!-- node_0x59653cbd1ef0 -->
<g id="node7" class="node">
<title>node_0x59653cbd1ef0</title>
<path fill="#e8f9e5" stroke="#c9fbdb" d="M282.5,-107.5C282.5,-107.5 404.5,-107.5 404.5,-107.5 410.5,-107.5 416.5,-113.5 416.5,-119.5 416.5,-119.5 416.5,-158.5 416.5,-158.5 416.5,-164.5 410.5,-170.5 404.5,-170.5 404.5,-170.5 282.5,-170.5 282.5,-170.5 276.5,-170.5 270.5,-164.5 270.5,-158.5 270.5,-158.5 270.5,-119.5 270.5,-119.5 270.5,-113.5 276.5,-107.5 282.5,-107.5"/>
<text text-anchor="middle" x="343.5" y="-156.9" font-family="Fira Mono" font-size="12.00">ptr: 0x59653cbd1ef0</text>
<polyline fill="none" stroke="#c9fbdb" points="270.5,-149.5 416.5,-149.5 "/>
<text text-anchor="middle" x="343.5" y="-135.9" font-family="Fira Mono" font-size="12.00">val: 1</text>
<polyline fill="none" stroke="#c9fbdb" points="270.5,-128.5 416.5,-128.5 "/>
<text text-anchor="middle" x="307" y="-114.9" font-family="Fira Mono" font-size="12.00">prev: (nil)</text>
<polyline fill="none" stroke="#c9fbdb" points="343.5,-107.5 343.5,-128.5 "/>
<text text-anchor="middle" x="380" y="-114.9" font-family="Fira Mono" font-size="12.00">next: (nil)</text>
</g>
<!-- node_0x59653cbd2060&#45;&gt;node_0x59653cbd1ef0 -->
<g id="edge7" class="edge">
<title>node_0x59653cbd2060&#45;&gt;node_0x59653cbd1ef0</title>
<path fill="none" stroke="#999999" d="M262.07,-214.35C274.71,-202.81 289.22,-189.56 302.46,-177.47"/>
<polygon fill="#999999" stroke="#999999" points="305.06,-179.84 310.09,-170.51 300.34,-174.67 305.06,-179.84"/>
</g>
<!-- node_0x59653cbd1dd0 -->
<g id="node6" class="node">
<title>node_0x59653cbd1dd0</title>
<path fill="#e8f9e5" stroke="#c9fbdb" d="M52.5,-0.5C52.5,-0.5 174.5,-0.5 174.5,-0.5 180.5,-0.5 186.5,-6.5 186.5,-12.5 186.5,-12.5 186.5,-51.5 186.5,-51.5 186.5,-57.5 180.5,-63.5 174.5,-63.5 174.5,-63.5 52.5,-63.5 52.5,-63.5 46.5,-63.5 40.5,-57.5 40.5,-51.5 40.5,-51.5 40.5,-12.5 40.5,-12.5 40.5,-6.5 46.5,-0.5 52.5,-0.5"/>
<text text-anchor="middle" x="113.5" y="-49.9" font-family="Fira Mono" font-size="12.00">ptr: 0x59653cbd1dd0</text>
<polyline fill="none" stroke="#c9fbdb" points="40.5,-42.5 186.5,-42.5 "/>
<text text-anchor="middle" x="113.5" y="-28.9" font-family="Fira Mono" font-size="12.00">val: x</text>
<polyline fill="none" stroke="#c9fbdb" points="40.5,-21.5 186.5,-21.5 "/>
<text text-anchor="middle" x="77" y="-7.9" font-family="Fira Mono" font-size="12.00">prev: (nil)</text>
<polyline fill="none" stroke="#c9fbdb" points="113.5,-0.5 113.5,-21.5 "/>
<text text-anchor="middle" x="150" y="-7.9" font-family="Fira Mono" font-size="12.00">next: (nil)</text>
</g>
<!-- node_0x59653cbd1f80&#45;&gt;node_0x59653cbd1dd0 -->
<g id="edge8" class="edge">
<title>node_0x59653cbd1f80&#45;&gt;node_0x59653cbd1dd0</title>
<path fill="none" stroke="#999999" d="M113.5,-107.35C113.5,-96.78 113.5,-84.78 113.5,-73.54"/>
<polygon fill="#999999" stroke="#999999" points="117,-73.51 113.5,-63.51 110,-73.51 117,-73.51"/>
</g>
<!-- node_0x59653cbd1a70 -->
<g id="node10" class="node">
<title>node_0x59653cbd1a70</title>
<path fill="#f1eafd" stroke="#8e6bd6" d="M684,-214.5C684,-214.5 887,-214.5 887,-214.5 893,-214.5 899,-220.5 899,-226.5 899,-226.5 899,-265.5 899,-265.5 899,-271.5 893,-277.5 887,-277.5 887,-277.5 684,-277.5 684,-277.5 678,-277.5 672,-271.5 672,-265.5 672,-265.5 672,-226.5 672,-226.5 672,-220.5 678,-214.5 684,-214.5"/>
<text text-anchor="middle" x="785.5" y="-263.9" font-family="Fira Mono" font-size="12.00">ptr: 0x59653cbd1a70</text>
<polyline fill="none" stroke="#8e6bd6" points="672,-256.5 899,-256.5 "/>
<text text-anchor="middle" x="785.5" y="-242.9" font-family="Fira Mono" font-size="12.00">val: sin</text>
<polyline fill="none" stroke="#8e6bd6" points="672,-235.5 899,-235.5 "/>
<text text-anchor="middle" x="749" y="-221.9" font-family="Fira Mono" font-size="12.00">prev: 0x59653cbd0ad0</text>
<polyline fill="none" stroke="#8e6bd6" points="826,-214.5 826,-235.5 "/>
<text text-anchor="middle" x="862.5" y="-221.9" font-family="Fira Mono" font-size="12.00">next: (nil)</text>
</g>
<!-- node_0x59653cbd1da0&#45;&gt;node_0x59653cbd1a70 -->
<g id="edge9" class="edge">
<title>node_0x59653cbd1da0&#45;&gt;node_0x59653cbd1a70</title>
<path fill="none" stroke="#999999" d="M806.74,-321.35C803.69,-310.67 800.22,-298.53 796.99,-287.2"/>
<polygon fill="#999999" stroke="#999999" points="800.33,-286.16 794.22,-277.51 793.6,-288.09 800.33,-286.16"/>
</g>
<!-- node_0x59653cbd1ad0 -->
<g id="node12" class="node">
<title>node_0x59653cbd1ad0</title>
<path fill="#e8f9e5" stroke="#c9fbdb" d="M954.5,-214.5C954.5,-214.5 1076.5,-214.5 1076.5,-214.5 1082.5,-214.5 1088.5,-220.5 1088.5,-226.5 1088.5,-226.5 1088.5,-265.5 1088.5,-265.5 1088.5,-271.5 1082.5,-277.5 1076.5,-277.5 1076.5,-277.5 954.5,-277.5 954.5,-277.5 948.5,-277.5 942.5,-271.5 942.5,-265.5 942.5,-265.5 942.5,-226.5 942.5,-226.5 942.5,-220.5 948.5,-214.5 954.5,-214.5"/>
<text text-anchor="middle" x="1015.5" y="-263.9" font-family="Fira Mono" font-size="12.00">ptr: 0x59653cbd1ad0</text>
<polyline fill="none" stroke="#c9fbdb" points="942.5,-256.5 1088.5,-256.5 "/>
<text text-anchor="middle" x="1015.5" y="-242.9" font-family="Fira Mono" font-size="12.00">val: 0</text>
<polyline fill="none" stroke="#c9fbdb" points="942.5,-235.5 1088.5,-235.5 "/>
<text text-anchor="middle" x="979" y="-221.9" font-family="Fira Mono" font-size="12.00">prev: (nil)</text>
<polyline fill="none" stroke="#c9fbdb" points="1015.5,-214.5 1015.5,-235.5 "/>
<text text-anchor="middle" x="1052" y="-221.9" font-family="Fira Mono" font-size="12.00">next: (nil)</text>
</g>
<!-- node_0x59653cbd1da0&#45;&gt;node_0x59653cbd1ad0 -->
<g id="edge10" class="edge">
<title>node_0x59653cbd1da0&#45;&gt;node_0x59653cbd1ad0</title>
<path fill="none" stroke="#999999" d="M873.62,-321.49C896.93,-309.25 923.96,-295.06 948.13,-282.37"/>
<polygon fill="#999999" stroke="#999999" points="950.01,-285.33 957.24,-277.59 946.76,-279.14 950.01,-285.33"/>
</g>
<!-- node_0x59653cbd0ad0 -->
<g id="node11" class="node">
<title>node_0x59653cbd0ad0</title>
<path fill="#e8f9e5" stroke="#c9fbdb" d="M724.5,-107.5C724.5,-107.5 846.5,-107.5 846.5,-107.5 852.5,-107.5 858.5,-113.5 858.5,-119.5 858.5,-119.5 858.5,-158.5 858.5,-158.5 858.5,-164.5 852.5,-170.5 846.5,-170.5 846.5,-170.5 724.5,-170.5 724.5,-170.5 718.5,-170.5 712.5,-164.5 712.5,-158.5 712.5,-158.5 712.5,-119.5 712.5,-119.5 712.5,-113.5 718.5,-107.5 724.5,-107.5"/>
<text text-anchor="middle" x="785.5" y="-156.9" font-family="Fira Mono" font-size="12.00">ptr: 0x59653cbd0ad0</text>
<polyline fill="none" stroke="#c9fbdb" points="712.5,-149.5 858.5,-149.5 "/>
<text text-anchor="middle" x="785.5" y="-135.9" font-family="Fira Mono" font-size="12.00">val: x</text>
<polyline fill="none" stroke="#c9fbdb" points="712.5,-128.5 858.5,-128.5 "/>
<text text-anchor="middle" x="749" y="-114.9" font-family="Fira Mono" font-size="12.00">prev: (nil)</text>
<polyline fill="none" stroke="#c9fbdb" points="785.5,-107.5 785.5,-128.5 "/>
<text text-anchor="middle" x="822" y="-114.9" font-family="Fira Mono" font-size="12.00">next: (nil)</text>
</g>
<!-- node_0x59653cbd1a70&#45;&gt;node_0x59653cbd0ad0 -->
<g id="edge11" class="edge">
<title>node_0x59653cbd1a70&#45;&gt;node_0x59653cbd0ad0</title>
<path fill="none" stroke="#999999" d="M785.5,-214.35C785.5,-203.78 785.5,-191.78 785.5,-180.54"/>
<polygon fill="#999999" stroke="#999999" points="789,-180.51 785.5,-170.51 782,-180.51 789,-180.51"/>
</g>
</g>
</svg>
