<?xml version="1.0" encoding="UTF-8" standalone="no"?>
<!DOCTYPE svg PUBLIC "-//W3C//DTD SVG 1.1//EN"
 "http://www.w3.org/Graphics/SVG/1.1/DTD/svg11.dtd">
<!-- Generated by graphviz version 2.43.0 (0)
 -->
<!-- Title: T Pages: 1 -->
<svg width="425pt" height="393pt"
 viewBox="0.00 0.00 424.50 393.00" xmlns="http://www.w3.org/2000/svg" xmlns:xlink="http://www.w3.org/1999/xlink">
<g id="graph0" class="graph" transform="scale(1 1) rotate(0) translate(4 389)">
<title>T</title>
<polygon fill="white" stroke="transparent" points="-4,4 -4,-389 420.5,-389 420.5,4 -4,4"/>
<!-- node_0x5c76ad4053c0 -->
<g id="node1" class="node">
<title>node_0x5c76ad4053c0</title>
<path fill="#e9f2ff" stroke="#6b8fd6" d="M127,-321.5C127,-321.5 330,-321.5 330,-321.5 336,-321.5 342,-327.5 342,-333.5 342,-333.5 342,-372.5 342,-372.5 342,-378.5 336,-384.5 330,-384.5 330,-384.5 127,-384.5 127,-384.5 121,-384.5 115,-378.5 115,-372.5 115,-372.5 115,-333.5 115,-333.5 115,-327.5 121,-321.5 127,-321.5"/>
<text text-anchor="middle" x="228.5" y="-370.9" font-family="Fira Mono" font-size="12.00">ptr: 0x5c76ad4053c0</text>
<polyline fill="none" stroke="#6b8fd6" points="115,-363.5 342,-363.5 "/>
<text text-anchor="middle" x="228.5" y="-349.9" font-family="Fira Mono" font-size="12.00">val: 0</text>
<polyline fill="none" stroke="#6b8fd6" points="115,-342.5 342,-342.5 "/>
<text text-anchor="middle" x="151.5" y="-328.9" font-family="Fira Mono" font-size="12.00">prev: (nil)</text>
<polyline fill="none" stroke="#6b8fd6" points="188,-321.5 188,-342.5 "/>
<text text-anchor="middle" x="265" y="-328.9" font-family="Fira Mono" font-size="12.00">next: 0x5c76ad405420</text>
</g>
<!-- node_0x5c76ad405420 -->
<g id="node2" class="node">
<title>node_0x5c76ad405420</title>
<path fill="#e9fbf5" stroke="#5aa99b" d="M86.5,-214.5C86.5,-214.5 370.5,-214.5 370.5,-214.5 376.5,-214.5 382.5,-220.5 382.5,-226.5 382.5,-226.5 382.5,-265.5 382.5,-265.5 382.5,-271.5 376.5,-277.5 370.5,-277.5 370.5,-277.5 86.5,-277.5 86.5,-277.5 80.5,-277.5 74.5,-271.5 74.5,-265.5 74.5,-265.5 74.5,-226.5 74.5,-226.5 74.5,-220.5 80.5,-214.5 86.5,-214.5"/>
<text text-anchor="middle" x="228.5" y="-263.9" font-family="Fira Mono" font-size="12.00">ptr: 0x5c76ad405420</text>
<polyline fill="none" stroke="#5aa99b" points="74.5,-256.5 382.5,-256.5 "/>
<text text-anchor="middle" x="228.5" y="-242.9" font-family="Fira Mono" font-size="12.00">val: *</text>
<polyline fill="none" stroke="#5aa99b" points="74.5,-235.5 382.5,-235.5 "/>
<text text-anchor="middle" x="151.5" y="-221.9" font-family="Fira Mono" font-size="12.00">prev: 0x5c76ad406aa0</text>
<polyline fill="none" stroke="#5aa99b" points="228.5,-214.5 228.5,-235.5 "/>
<text text-anchor="middle" x="305.5" y="-221.9" font-family="Fira Mono" font-size="12.00">next: 0x5c76ad406b20</text>
</g>
<!-- node_0x5c76ad4053c0&#45;&gt;node_0x5c76ad405420 -->
<g id="edge1" class="edge">
<title>node_0x5c76ad4053c0&#45;&gt;node_0x5c76ad405420</title>
<path fill="none" stroke="#999999" d="M228.5,-321.35C228.5,-310.78 228.5,-298.78 228.5,-287.54"/>
<polygon fill="#999999" stroke="#999999" points="232,-287.51 228.5,-277.51 225,-287.51 232,-287.51"/>
</g>
<!-- node_0x5c76ad406aa0 -->
<g id="node3" class="node">
<title>node_0x5c76ad406aa0</title>
<path fill="#f1eafd" stroke="#8e6bd6" d="M12,-107.5C12,-107.5 215,-107.5 215,-107.5 221,-107.5 227,-113.5 227,-119.5 227,-119.5 227,-158.5 227,-158.5 227,-164.5 221,-170.5 215,-170.5 215,-170.5 12,-170.5 12,-170.5 6,-170.5 0,-164.5 0,-158.5 0,-158.5 0,-119.5 0,-119.5 0,-113.5 6,-107.5 12,-107.5"/>
<text text-anchor="middle" x="113.5" y="-156.9" font-family="Fira Mono" font-size="12.00">ptr: 0x5c76ad406aa0</text>
<polyline fill="none" stroke="#8e6bd6" points="0,-149.5 227,-149.5 "/>
<text text-anchor="middle" x="113.5" y="-135.9" font-family="Fira Mono" font-size="12.00">val: sin</text>
<polyline fill="none" stroke="#8e6bd6" points="0,-128.5 227,-128.5 "/>
<text text-anchor="middle" x="77" y="-114.9" font-family="Fira Mono" font-size="12.00">prev: 0x5c76ad406ad0</text>
<polyline fill="none" stroke="#8e6bd6" points="154,-107.5 154,-128.5 "/>
<text text-anchor="middle" x="190.5" y="-114.9" font-family="Fira Mono" font-size="12.00">next: (nil)</text>
</g>
<!-- node_0x5c76ad405420&#45;&gt;node_0x5c76ad406aa0 -->
<g id="edge2" class="edge">
<title>node_0x5c76ad405420&#45;&gt;node_0x5c76ad406aa0</title>
<path fill="none" stroke="#999999" d="M194.93,-214.35C182.29,-202.81 167.78,-189.56 154.54,-177.47"/>
<polygon fill="#999999" stroke="#999999" points="156.66,-174.67 146.91,-170.51 151.94,-179.84 156.66,-174.67"/>
</g>
<!-- node_0x5c76ad406b20 -->
<g id="node5" class="node">
<title>node_0x5c76ad406b20</title>
<path fill="#e8f9e5" stroke="#c9fbdb" d="M282.5,-107.5C282.5,-107.5 404.5,-107.5 404.5,-107.5 410.5,-107.5 416.5,-113.5 416.5,-119.5 416.5,-119.5 416.5,-158.5 416.5,-158.5 416.5,-164.5 410.5,-170.5 404.5,-170.5 404.5,-170.5 282.5,-170.5 282.5,-170.5 276.5,-170.5 270.5,-164.5 270.5,-158.5 270.5,-158.5 270.5,-119.5 270.5,-119.5 270.5,-113.5 276.5,-107.5 282.5,-107.5"/>
<text text-anchor="middle" x="343.5" y="-156.9" font-family="Fira Mono" font-size="12.00">ptr: 0x5c76ad406b20</text>
<polyline fill="none" stroke="#c9fbdb" points="270.5,-149.5 416.5,-149.5 "/>
<text text-anchor="middle" x="343.5" y="-135.9" font-family="Fira Mono" font-size="12.00">val: 1</text>
<polyline fill="none" stroke="#c9fbdb" points="270.5,-128.5 416.5,-128.5 "/>
<text text-anchor="middle" x="307" y="-114.9" font-family="Fira Mono" font-size="12.00">prev: (nil)</text>
<polyline fill="none" stroke="#c9fbdb" points="343.5,-107.5 343.5,-128.5 "/>
<text text-anchor="middle" x="380" y="-114.9" font-family="Fira Mono" font-size="12.00">next: (nil)</text>
</g>
<!-- node_0x5c76ad405420&#45;&gt;node_0x5c76ad406b20 -->
<g id="edge3" class="edge">
<title>node_0x5c76ad405420&#45;&gt;node_0x5c76ad406b20</title>
<path fill="none" stroke="#999999" d="M262.07,-214.35C274.71,-202.81 289.22,-189.56 302.46,-177.47"/>
<polygon fill="#999999" stroke="#999999" points="305.06,-179.84 310.09,-170.51 300.34,-174.67 305.06,-179.84"/>
</g>
<!-- node_0x5c76ad406ad0 -->
<g id="node4" class="node">
<title>node_0x5c76ad406ad0</title>
<path fill="#e8f9e5" stroke="#c9fbdb" d="M52.5,-0.5C52.5,-0.5 174.5,-0.5 174.5,-0.5 180.5,-0.5 186.5,-6.5 186.5,-12.5 186.5,-12.5 186.5,-51.5 186.5,-51.5 186.5,-57.5 180.5,-63.5 174.5,-63.5 174.5,-63.5 52.5,-63.5 52.5,-63.5 46.5,-63.5 40.5,-57.5 40.5,-51.5 40.5,-51.5 40.5,-12.5 40.5,-12.5 40.5,-6.5 46.5,-0.5 52.5,-0.5"/>
<text text-anchor="middle" x="113.5" y="-49.9" font-family="Fira Mono" font-size="12.00">ptr: 0x5c76ad406ad0</text>
<polyline fill="none" stroke="#c9fbdb" points="40.5,-42.5 186.5,-42.5 "/>
<text text-anchor="middle" x="113.5" y="-28.9" font-family="Fira Mono" font-size="12.00">val: x</text>
<polyline fill="none" stroke="#c9fbdb" points="40.5,-21.5 186.5,-21.5 "/>
<text text-anchor="middle" x="77" y="-7.9" font-family="Fira Mono" font-size="12.00">prev: (nil)</text>
<polyline fill="none" stroke="#c9fbdb" points="113.5,-0.5 113.5,-21.5 "/>
<text text-anchor="middle" x="150" y="-7.9" font-family="Fira Mono" font-size="12.00">next: (nil)</text>
</g>
<!-- node_0x5c76ad406aa0&#45;&gt;node_0x5c76ad406ad0 -->
<g id="edge4" class="edge">
<title>node_0x5c76ad406aa0&#45;&gt;node_0x5c76ad406ad0</title>
<path fill="none" stroke="#999999" d="M113.5,-107.35C113.5,-96.78 113.5,-84.78 113.5,-73.54"/>
<polygon fill="#999999" stroke="#999999" points="117,-73.51 113.5,-63.51 110,-73.51 117,-73.51"/>
</g>
</g>
</svg>
