<?xml version="1.0" encoding="UTF-8" standalone="no"?>
<!DOCTYPE svg PUBLIC "-//W3C//DTD SVG 1.1//EN"
 "http://www.w3.org/Graphics/SVG/1.1/DTD/svg11.dtd">
<!-- Generated by graphviz version 2.43.0 (0)
 -->
<!-- Title: T Pages: 1 -->
<svg width="421pt" height="500pt"
 viewBox="0.00 0.00 421.00 500.00" xmlns="http://www.w3.org/2000/svg" xmlns:xlink="http://www.w3.org/1999/xlink">
<g id="graph0" class="graph" transform="scale(1 1) rotate(0) translate(4 496)">
<title>T</title>
<polygon fill="white" stroke="transparent" points="-4,4 -4,-496 417,-496 417,4 -4,4"/>
<!-- node_0x5f3213da1710 -->
<g id="node1" class="node">
<title>node_0x5f3213da1710</title>
<path fill="#e9f2ff" stroke="#6b8fd6" d="M86.5,-428.5C86.5,-428.5 287.5,-428.5 287.5,-428.5 293.5,-428.5 299.5,-434.5 299.5,-440.5 299.5,-440.5 299.5,-479.5 299.5,-479.5 299.5,-485.5 293.5,-491.5 287.5,-491.5 287.5,-491.5 86.5,-491.5 86.5,-491.5 80.5,-491.5 74.5,-485.5 74.5,-479.5 74.5,-479.5 74.5,-440.5 74.5,-440.5 74.5,-434.5 80.5,-428.5 86.5,-428.5"/>
<text text-anchor="middle" x="187" y="-477.9" font-family="Fira Mono" font-size="12.00">ptr: 0x5f3213da1710</text>
<polyline fill="none" stroke="#6b8fd6" points="74.5,-470.5 299.5,-470.5 "/>
<text text-anchor="middle" x="187" y="-456.9" font-family="Fira Mono" font-size="12.00">val: 0</text>
<polyline fill="none" stroke="#6b8fd6" points="74.5,-449.5 299.5,-449.5 "/>
<text text-anchor="middle" x="111" y="-435.9" font-family="Fira Mono" font-size="12.00">prev: (nil)</text>
<polyline fill="none" stroke="#6b8fd6" points="147.5,-428.5 147.5,-449.5 "/>
<text text-anchor="middle" x="223.5" y="-435.9" font-family="Fira Mono" font-size="12.00">next: 0x5f3213da1970</text>
</g>
<!-- node_0x5f3213da1970 -->
<g id="node2" class="node">
<title>node_0x5f3213da1970</title>
<path fill="#e9fbf5" stroke="#5aa99b" d="M86.5,-321.5C86.5,-321.5 287.5,-321.5 287.5,-321.5 293.5,-321.5 299.5,-327.5 299.5,-333.5 299.5,-333.5 299.5,-372.5 299.5,-372.5 299.5,-378.5 293.5,-384.5 287.5,-384.5 287.5,-384.5 86.5,-384.5 86.5,-384.5 80.5,-384.5 74.5,-378.5 74.5,-372.5 74.5,-372.5 74.5,-333.5 74.5,-333.5 74.5,-327.5 80.5,-321.5 86.5,-321.5"/>
<text text-anchor="middle" x="187" y="-370.9" font-family="Fira Mono" font-size="12.00">ptr: 0x5f3213da1970</text>
<polyline fill="none" stroke="#5aa99b" points="74.5,-363.5 299.5,-363.5 "/>
<text text-anchor="middle" x="187" y="-349.9" font-family="Fira Mono" font-size="12.00">val: +</text>
<polyline fill="none" stroke="#5aa99b" points="74.5,-342.5 299.5,-342.5 "/>
<text text-anchor="middle" x="150.5" y="-328.9" font-family="Fira Mono" font-size="12.00">prev: 0x5f3213da1a30</text>
<polyline fill="none" stroke="#5aa99b" points="226.5,-321.5 226.5,-342.5 "/>
<text text-anchor="middle" x="263" y="-328.9" font-family="Fira Mono" font-size="12.00">next: (nil)</text>
</g>
<!-- node_0x5f3213da1710&#45;&gt;node_0x5f3213da1970 -->
<g id="edge1" class="edge">
<title>node_0x5f3213da1710&#45;&gt;node_0x5f3213da1970</title>
<path fill="none" stroke="#999999" d="M187,-428.35C187,-417.78 187,-405.78 187,-394.54"/>
<polygon fill="#999999" stroke="#999999" points="190.5,-394.51 187,-384.51 183.5,-394.51 190.5,-394.51"/>
</g>
<!-- node_0x5f3213da1a30 -->
<g id="node3" class="node">
<title>node_0x5f3213da1a30</title>
<path fill="#f1eafd" stroke="#8e6bd6" d="M48.5,-214.5C48.5,-214.5 325.5,-214.5 325.5,-214.5 331.5,-214.5 337.5,-220.5 337.5,-226.5 337.5,-226.5 337.5,-265.5 337.5,-265.5 337.5,-271.5 331.5,-277.5 325.5,-277.5 325.5,-277.5 48.5,-277.5 48.5,-277.5 42.5,-277.5 36.5,-271.5 36.5,-265.5 36.5,-265.5 36.5,-226.5 36.5,-226.5 36.5,-220.5 42.5,-214.5 48.5,-214.5"/>
<text text-anchor="middle" x="187" y="-263.9" font-family="Fira Mono" font-size="12.00">ptr: 0x5f3213da1a30</text>
<polyline fill="none" stroke="#8e6bd6" points="36.5,-256.5 337.5,-256.5 "/>
<text text-anchor="middle" x="187" y="-242.9" font-family="Fira Mono" font-size="12.00">val: *</text>
<polyline fill="none" stroke="#8e6bd6" points="36.5,-235.5 337.5,-235.5 "/>
<text text-anchor="middle" x="111" y="-221.9" font-family="Fira Mono" font-size="12.00">prev: 0x5f3213da1af0</text>
<polyline fill="none" stroke="#8e6bd6" points="185.5,-214.5 185.5,-235.5 "/>
<text text-anchor="middle" x="261.5" y="-221.9" font-family="Fira Mono" font-size="12.00">next: 0x5f3213da1b90</text>
</g>
<!-- node_0x5f3213da1970&#45;&gt;node_0x5f3213da1a30 -->
<g id="edge2" class="edge">
<title>node_0x5f3213da1970&#45;&gt;node_0x5f3213da1a30</title>
<path fill="none" stroke="#999999" d="M187,-321.35C187,-310.78 187,-298.78 187,-287.54"/>
<polygon fill="#999999" stroke="#999999" points="190.5,-287.51 187,-277.51 183.5,-287.51 190.5,-287.51"/>
</g>
<!-- node_0x5f3213da1af0 -->
<g id="node4" class="node">
<title>node_0x5f3213da1af0</title>
<path fill="#e8f9e5" stroke="#c9fbdb" d="M12,-107.5C12,-107.5 134,-107.5 134,-107.5 140,-107.5 146,-113.5 146,-119.5 146,-119.5 146,-158.5 146,-158.5 146,-164.5 140,-170.5 134,-170.5 134,-170.5 12,-170.5 12,-170.5 6,-170.5 0,-164.5 0,-158.5 0,-158.5 0,-119.5 0,-119.5 0,-113.5 6,-107.5 12,-107.5"/>
<text text-anchor="middle" x="73" y="-156.9" font-family="Fira Mono" font-size="12.00">ptr: 0x5f3213da1af0</text>
<polyline fill="none" stroke="#c9fbdb" points="0,-149.5 146,-149.5 "/>
<text text-anchor="middle" x="73" y="-135.9" font-family="Fira Mono" font-size="12.00">val: 11</text>
<polyline fill="none" stroke="#c9fbdb" points="0,-128.5 146,-128.5 "/>
<text text-anchor="middle" x="36.5" y="-114.9" font-family="Fira Mono" font-size="12.00">prev: (nil)</text>
<polyline fill="none" stroke="#c9fbdb" points="73,-107.5 73,-128.5 "/>
<text text-anchor="middle" x="109.5" y="-114.9" font-family="Fira Mono" font-size="12.00">next: (nil)</text>
</g>
<!-- node_0x5f3213da1a30&#45;&gt;node_0x5f3213da1af0 -->
<g id="edge3" class="edge">
<title>node_0x5f3213da1a30&#45;&gt;node_0x5f3213da1af0</title>
<path fill="none" stroke="#999999" d="M153.72,-214.35C141.19,-202.81 126.81,-189.56 113.68,-177.47"/>
<polygon fill="#999999" stroke="#999999" points="115.85,-174.71 106.12,-170.51 111.11,-179.86 115.85,-174.71"/>
</g>
<!-- node_0x5f3213da1b90 -->
<g id="node5" class="node">
<title>node_0x5f3213da1b90</title>
<path fill="#f1eafd" stroke="#8e6bd6" d="M201,-107.5C201,-107.5 401,-107.5 401,-107.5 407,-107.5 413,-113.5 413,-119.5 413,-119.5 413,-158.5 413,-158.5 413,-164.5 407,-170.5 401,-170.5 401,-170.5 201,-170.5 201,-170.5 195,-170.5 189,-164.5 189,-158.5 189,-158.5 189,-119.5 189,-119.5 189,-113.5 195,-107.5 201,-107.5"/>
<text text-anchor="middle" x="301" y="-156.9" font-family="Fira Mono" font-size="12.00">ptr: 0x5f3213da1b90</text>
<polyline fill="none" stroke="#8e6bd6" points="189,-149.5 413,-149.5 "/>
<text text-anchor="middle" x="301" y="-135.9" font-family="Fira Mono" font-size="12.00">val: &#45;</text>
<polyline fill="none" stroke="#8e6bd6" points="189,-128.5 413,-128.5 "/>
<text text-anchor="middle" x="264.5" y="-114.9" font-family="Fira Mono" font-size="12.00">prev: 0x5f3213da1c30</text>
<polyline fill="none" stroke="#8e6bd6" points="340,-107.5 340,-128.5 "/>
<text text-anchor="middle" x="376.5" y="-114.9" font-family="Fira Mono" font-size="12.00">next: (nil)</text>
</g>
<!-- node_0x5f3213da1a30&#45;&gt;node_0x5f3213da1b90 -->
<g id="edge4" class="edge">
<title>node_0x5f3213da1a30&#45;&gt;node_0x5f3213da1b90</title>
<path fill="none" stroke="#999999" d="M220.28,-214.35C232.81,-202.81 247.19,-189.56 260.32,-177.47"/>
<polygon fill="#999999" stroke="#999999" points="262.89,-179.86 267.88,-170.51 258.15,-174.71 262.89,-179.86"/>
</g>
<!-- node_0x5f3213da1c30 -->
<g id="node6" class="node">
<title>node_0x5f3213da1c30</title>
<path fill="#e8f9e5" stroke="#c9fbdb" d="M240,-0.5C240,-0.5 362,-0.5 362,-0.5 368,-0.5 374,-6.5 374,-12.5 374,-12.5 374,-51.5 374,-51.5 374,-57.5 368,-63.5 362,-63.5 362,-63.5 240,-63.5 240,-63.5 234,-63.5 228,-57.5 228,-51.5 228,-51.5 228,-12.5 228,-12.5 228,-6.5 234,-0.5 240,-0.5"/>
<text text-anchor="middle" x="301" y="-49.9" font-family="Fira Mono" font-size="12.00">ptr: 0x5f3213da1c30</text>
<polyline fill="none" stroke="#c9fbdb" points="228,-42.5 374,-42.5 "/>
<text text-anchor="middle" x="301" y="-28.9" font-family="Fira Mono" font-size="12.00">val: 10</text>
<polyline fill="none" stroke="#c9fbdb" points="228,-21.5 374,-21.5 "/>
<text text-anchor="middle" x="264.5" y="-7.9" font-family="Fira Mono" font-size="12.00">prev: (nil)</text>
<polyline fill="none" stroke="#c9fbdb" points="301,-0.5 301,-21.5 "/>
<text text-anchor="middle" x="337.5" y="-7.9" font-family="Fira Mono" font-size="12.00">next: (nil)</text>
</g>
<!-- node_0x5f3213da1b90&#45;&gt;node_0x5f3213da1c30 -->
<g id="edge5" class="edge">
<title>node_0x5f3213da1b90&#45;&gt;node_0x5f3213da1c30</title>
<path fill="none" stroke="#999999" d="M301,-107.35C301,-96.78 301,-84.78 301,-73.54"/>
<polygon fill="#999999" stroke="#999999" points="304.5,-73.51 301,-63.51 297.5,-73.51 304.5,-73.51"/>
</g>
</g>
</svg>
