<?xml version="1.0" encoding="UTF-8" standalone="no"?>
<!DOCTYPE svg PUBLIC "-//W3C//DTD SVG 1.1//EN"
 "http://www.w3.org/Graphics/SVG/1.1/DTD/svg11.dtd">
<!-- Generated by graphviz version 2.43.0 (0)
 -->
<!-- Title: T Pages: 1 -->
<svg width="232pt" height="179pt"
 viewBox="0.00 0.00 232.00 179.00" xmlns="http://www.w3.org/2000/svg" xmlns:xlink="http://www.w3.org/1999/xlink">
<g id="graph0" class="graph" transform="scale(1 1) rotate(0) translate(4 175)">
<title>T</title>
<polygon fill="white" stroke="transparent" points="-4,4 -4,-175 228,-175 228,4 -4,4"/>
<!-- node_0x59653cbcf3c0 -->
<g id="node1" class="node">
<title>node_0x59653cbcf3c0</title>
<path fill="#e9f2ff" stroke="#6b8fd6" d="M12,-107.5C12,-107.5 212,-107.5 212,-107.5 218,-107.5 224,-113.5 224,-119.5 224,-119.5 224,-158.5 224,-158.5 224,-164.5 218,-170.5 212,-170.5 212,-170.5 12,-170.5 12,-170.5 6,-170.5 0,-164.5 0,-158.5 0,-158.5 0,-119.5 0,-119.5 0,-113.5 6,-107.5 12,-107.5"/>
<text text-anchor="middle" x="112" y="-156.9" font-family="Fira Mono" font-size="12.00">ptr: 0x59653cbcf3c0</text>
<polyline fill="none" stroke="#6b8fd6" points="0,-149.5 224,-149.5 "/>
<text text-anchor="middle" x="112" y="-135.9" font-family="Fira Mono" font-size="12.00">val: 0</text>
<polyline fill="none" stroke="#6b8fd6" points="0,-128.5 224,-128.5 "/>
<text text-anchor="middle" x="36.5" y="-114.9" font-family="Fira Mono" font-size="12.00">prev: (nil)</text>
<polyline fill="none" stroke="#6b8fd6" points="73,-107.5 73,-128.5 "/>
<text text-anchor="middle" x="148.5" y="-114.9" font-family="Fira Mono" font-size="12.00">next: 0x59653cbd1ef0</text>
</g>
<!-- node_0x59653cbd1ef0 -->
<g id="node2" class="node">
<title>node_0x59653cbd1ef0</title>
<path fill="#e9fbf5" stroke="#5aa99b" d="M51,-0.5C51,-0.5 173,-0.5 173,-0.5 179,-0.5 185,-6.5 185,-12.5 185,-12.5 185,-51.5 185,-51.5 185,-57.5 179,-63.5 173,-63.5 173,-63.5 51,-63.5 51,-63.5 45,-63.5 39,-57.5 39,-51.5 39,-51.5 39,-12.5 39,-12.5 39,-6.5 45,-0.5 51,-0.5"/>
<text text-anchor="middle" x="112" y="-49.9" font-family="Fira Mono" font-size="12.00">ptr: 0x59653cbd1ef0</text>
<polyline fill="none" stroke="#5aa99b" points="39,-42.5 185,-42.5 "/>
<text text-anchor="middle" x="112" y="-28.9" font-family="Fira Mono" font-size="12.00">val: 1</text>
<polyline fill="none" stroke="#5aa99b" points="39,-21.5 185,-21.5 "/>
<text text-anchor="middle" x="75.5" y="-7.9" font-family="Fira Mono" font-size="12.00">prev: (nil)</text>
<polyline fill="none" stroke="#5aa99b" points="112,-0.5 112,-21.5 "/>
<text text-anchor="middle" x="148.5" y="-7.9" font-family="Fira Mono" font-size="12.00">next: (nil)</text>
</g>
<!-- node_0x59653cbcf3c0&#45;&gt;node_0x59653cbd1ef0 -->
<g id="edge1" class="edge">
<title>node_0x59653cbcf3c0&#45;&gt;node_0x59653cbd1ef0</title>
<path fill="none" stroke="#999999" d="M112,-107.35C112,-96.78 112,-84.78 112,-73.54"/>
<polygon fill="#999999" stroke="#999999" points="115.5,-73.51 112,-63.51 108.5,-73.51 115.5,-73.51"/>
</g>
</g>
</svg>
