<?xml version="1.0" encoding="UTF-8" standalone="no"?>
<!DOCTYPE svg PUBLIC "-//W3C//DTD SVG 1.1//EN"
 "http://www.w3.org/Graphics/SVG/1.1/DTD/svg11.dtd">
<!-- Generated by graphviz version 2.43.0 (0)
 -->
<!-- Title: T Pages: 1 -->
<svg width="573pt" height="500pt"
 viewBox="0.00 0.00 572.50 500.00" xmlns="http://www.w3.org/2000/svg" xmlns:xlink="http://www.w3.org/1999/xlink">
<g id="graph0" class="graph" transform="scale(1 1) rotate(0) translate(4 496)">
<title>T</title>
<polygon fill="white" stroke="transparent" points="-4,4 -4,-496 568.5,-496 568.5,4 -4,4"/>
<!-- node_0x5f660d70c3c0 -->
<g id="node1" class="node">
<title>node_0x5f660d70c3c0</title>
<path fill="#e9f2ff" stroke="#6b8fd6" d="M259.5,-428.5C259.5,-428.5 457.5,-428.5 457.5,-428.5 463.5,-428.5 469.5,-434.5 469.5,-440.5 469.5,-440.5 469.5,-479.5 469.5,-479.5 469.5,-485.5 463.5,-491.5 457.5,-491.5 457.5,-491.5 259.5,-491.5 259.5,-491.5 253.5,-491.5 247.5,-485.5 247.5,-479.5 247.5,-479.5 247.5,-440.5 247.5,-440.5 247.5,-434.5 253.5,-428.5 259.5,-428.5"/>
<text text-anchor="middle" x="358.5" y="-477.9" font-family="Fira Mono" font-size="12.00">ptr: 0x5f660d70c3c0</text>
<polyline fill="none" stroke="#6b8fd6" points="247.5,-470.5 469.5,-470.5 "/>
<text text-anchor="middle" x="358.5" y="-456.9" font-family="Fira Mono" font-size="12.00">val: 0</text>
<polyline fill="none" stroke="#6b8fd6" points="247.5,-449.5 469.5,-449.5 "/>
<text text-anchor="middle" x="284" y="-435.9" font-family="Fira Mono" font-size="12.00">prev: (nil)</text>
<polyline fill="none" stroke="#6b8fd6" points="320.5,-428.5 320.5,-449.5 "/>
<text text-anchor="middle" x="395" y="-435.9" font-family="Fira Mono" font-size="12.00">next: 0x5f660d70f090</text>
</g>
<!-- node_0x5f660d70f090 -->
<g id="node2" class="node">
<title>node_0x5f660d70f090</title>
<path fill="#e9fbf5" stroke="#5aa99b" d="M220,-321.5C220,-321.5 497,-321.5 497,-321.5 503,-321.5 509,-327.5 509,-333.5 509,-333.5 509,-372.5 509,-372.5 509,-378.5 503,-384.5 497,-384.5 497,-384.5 220,-384.5 220,-384.5 214,-384.5 208,-378.5 208,-372.5 208,-372.5 208,-333.5 208,-333.5 208,-327.5 214,-321.5 220,-321.5"/>
<text text-anchor="middle" x="358.5" y="-370.9" font-family="Fira Mono" font-size="12.00">ptr: 0x5f660d70f090</text>
<polyline fill="none" stroke="#5aa99b" points="208,-363.5 509,-363.5 "/>
<text text-anchor="middle" x="358.5" y="-349.9" font-family="Fira Mono" font-size="12.00">val: *</text>
<polyline fill="none" stroke="#5aa99b" points="208,-342.5 509,-342.5 "/>
<text text-anchor="middle" x="282.5" y="-328.9" font-family="Fira Mono" font-size="12.00">prev: 0x5f660d70f060</text>
<polyline fill="none" stroke="#5aa99b" points="357,-321.5 357,-342.5 "/>
<text text-anchor="middle" x="433" y="-328.9" font-family="Fira Mono" font-size="12.00">next: 0x5f660d70eaa0</text>
</g>
<!-- node_0x5f660d70c3c0&#45;&gt;node_0x5f660d70f090 -->
<g id="edge1" class="edge">
<title>node_0x5f660d70c3c0&#45;&gt;node_0x5f660d70f090</title>
<path fill="none" stroke="#999999" d="M358.5,-428.35C358.5,-417.78 358.5,-405.78 358.5,-394.54"/>
<polygon fill="#999999" stroke="#999999" points="362,-394.51 358.5,-384.51 355,-394.51 362,-394.51"/>
</g>
<!-- node_0x5f660d70f060 -->
<g id="node3" class="node">
<title>node_0x5f660d70f060</title>
<path fill="#f1eafd" stroke="#8e6bd6" d="M89.5,-214.5C89.5,-214.5 363.5,-214.5 363.5,-214.5 369.5,-214.5 375.5,-220.5 375.5,-226.5 375.5,-226.5 375.5,-265.5 375.5,-265.5 375.5,-271.5 369.5,-277.5 363.5,-277.5 363.5,-277.5 89.5,-277.5 89.5,-277.5 83.5,-277.5 77.5,-271.5 77.5,-265.5 77.5,-265.5 77.5,-226.5 77.5,-226.5 77.5,-220.5 83.5,-214.5 89.5,-214.5"/>
<text text-anchor="middle" x="226.5" y="-263.9" font-family="Fira Mono" font-size="12.00">ptr: 0x5f660d70f060</text>
<polyline fill="none" stroke="#8e6bd6" points="77.5,-256.5 375.5,-256.5 "/>
<text text-anchor="middle" x="226.5" y="-242.9" font-family="Fira Mono" font-size="12.00">val: *</text>
<polyline fill="none" stroke="#8e6bd6" points="77.5,-235.5 375.5,-235.5 "/>
<text text-anchor="middle" x="152" y="-221.9" font-family="Fira Mono" font-size="12.00">prev: 0x5f660d70ef80</text>
<polyline fill="none" stroke="#8e6bd6" points="226.5,-214.5 226.5,-235.5 "/>
<text text-anchor="middle" x="301" y="-221.9" font-family="Fira Mono" font-size="12.00">next: 0x5f660d70eef0</text>
</g>
<!-- node_0x5f660d70f090&#45;&gt;node_0x5f660d70f060 -->
<g id="edge2" class="edge">
<title>node_0x5f660d70f090&#45;&gt;node_0x5f660d70f060</title>
<path fill="none" stroke="#999999" d="M319.97,-321.35C305.19,-309.59 288.18,-296.06 272.76,-283.79"/>
<polygon fill="#999999" stroke="#999999" points="274.86,-281 264.85,-277.51 270.5,-286.47 274.86,-281"/>
</g>
<!-- node_0x5f660d70eaa0 -->
<g id="node7" class="node">
<title>node_0x5f660d70eaa0</title>
<path fill="#e8f9e5" stroke="#c9fbdb" d="M430.5,-214.5C430.5,-214.5 552.5,-214.5 552.5,-214.5 558.5,-214.5 564.5,-220.5 564.5,-226.5 564.5,-226.5 564.5,-265.5 564.5,-265.5 564.5,-271.5 558.5,-277.5 552.5,-277.5 552.5,-277.5 430.5,-277.5 430.5,-277.5 424.5,-277.5 418.5,-271.5 418.5,-265.5 418.5,-265.5 418.5,-226.5 418.5,-226.5 418.5,-220.5 424.5,-214.5 430.5,-214.5"/>
<text text-anchor="middle" x="491.5" y="-263.9" font-family="Fira Mono" font-size="12.00">ptr: 0x5f660d70eaa0</text>
<polyline fill="none" stroke="#c9fbdb" points="418.5,-256.5 564.5,-256.5 "/>
<text text-anchor="middle" x="491.5" y="-242.9" font-family="Fira Mono" font-size="12.00">val: 1</text>
<polyline fill="none" stroke="#c9fbdb" points="418.5,-235.5 564.5,-235.5 "/>
<text text-anchor="middle" x="455" y="-221.9" font-family="Fira Mono" font-size="12.00">prev: (nil)</text>
<polyline fill="none" stroke="#c9fbdb" points="491.5,-214.5 491.5,-235.5 "/>
<text text-anchor="middle" x="528" y="-221.9" font-family="Fira Mono" font-size="12.00">next: (nil)</text>
</g>
<!-- node_0x5f660d70f090&#45;&gt;node_0x5f660d70eaa0 -->
<g id="edge3" class="edge">
<title>node_0x5f660d70f090&#45;&gt;node_0x5f660d70eaa0</title>
<path fill="none" stroke="#999999" d="M397.33,-321.35C412.21,-309.59 429.35,-296.06 444.89,-283.79"/>
<polygon fill="#999999" stroke="#999999" points="447.17,-286.45 452.86,-277.51 442.84,-280.96 447.17,-286.45"/>
</g>
<!-- node_0x5f660d70ef80 -->
<g id="node4" class="node">
<title>node_0x5f660d70ef80</title>
<path fill="#f1eafd" stroke="#8e6bd6" d="M12,-107.5C12,-107.5 213,-107.5 213,-107.5 219,-107.5 225,-113.5 225,-119.5 225,-119.5 225,-158.5 225,-158.5 225,-164.5 219,-170.5 213,-170.5 213,-170.5 12,-170.5 12,-170.5 6,-170.5 0,-164.5 0,-158.5 0,-158.5 0,-119.5 0,-119.5 0,-113.5 6,-107.5 12,-107.5"/>
<text text-anchor="middle" x="112.5" y="-156.9" font-family="Fira Mono" font-size="12.00">ptr: 0x5f660d70ef80</text>
<polyline fill="none" stroke="#8e6bd6" points="0,-149.5 225,-149.5 "/>
<text text-anchor="middle" x="112.5" y="-135.9" font-family="Fira Mono" font-size="12.00">val: cos</text>
<polyline fill="none" stroke="#8e6bd6" points="0,-128.5 225,-128.5 "/>
<text text-anchor="middle" x="76" y="-114.9" font-family="Fira Mono" font-size="12.00">prev: 0x5f660d70edd0</text>
<polyline fill="none" stroke="#8e6bd6" points="152,-107.5 152,-128.5 "/>
<text text-anchor="middle" x="188.5" y="-114.9" font-family="Fira Mono" font-size="12.00">next: (nil)</text>
</g>
<!-- node_0x5f660d70f060&#45;&gt;node_0x5f660d70ef80 -->
<g id="edge4" class="edge">
<title>node_0x5f660d70f060&#45;&gt;node_0x5f660d70ef80</title>
<path fill="none" stroke="#999999" d="M193.22,-214.35C180.69,-202.81 166.31,-189.56 153.18,-177.47"/>
<polygon fill="#999999" stroke="#999999" points="155.35,-174.71 145.62,-170.51 150.61,-179.86 155.35,-174.71"/>
</g>
<!-- node_0x5f660d70eef0 -->
<g id="node6" class="node">
<title>node_0x5f660d70eef0</title>
<path fill="#e8f9e5" stroke="#c9fbdb" d="M280.5,-107.5C280.5,-107.5 402.5,-107.5 402.5,-107.5 408.5,-107.5 414.5,-113.5 414.5,-119.5 414.5,-119.5 414.5,-158.5 414.5,-158.5 414.5,-164.5 408.5,-170.5 402.5,-170.5 402.5,-170.5 280.5,-170.5 280.5,-170.5 274.5,-170.5 268.5,-164.5 268.5,-158.5 268.5,-158.5 268.5,-119.5 268.5,-119.5 268.5,-113.5 274.5,-107.5 280.5,-107.5"/>
<text text-anchor="middle" x="341.5" y="-156.9" font-family="Fira Mono" font-size="12.00">ptr: 0x5f660d70eef0</text>
<polyline fill="none" stroke="#c9fbdb" points="268.5,-149.5 414.5,-149.5 "/>
<text text-anchor="middle" x="341.5" y="-135.9" font-family="Fira Mono" font-size="12.00">val: 1</text>
<polyline fill="none" stroke="#c9fbdb" points="268.5,-128.5 414.5,-128.5 "/>
<text text-anchor="middle" x="305" y="-114.9" font-family="Fira Mono" font-size="12.00">prev: (nil)</text>
<polyline fill="none" stroke="#c9fbdb" points="341.5,-107.5 341.5,-128.5 "/>
<text text-anchor="middle" x="378" y="-114.9" font-family="Fira Mono" font-size="12.00">next: (nil)</text>
</g>
<!-- node_0x5f660d70f060&#45;&gt;node_0x5f660d70eef0 -->
<g id="edge5" class="edge">
<title>node_0x5f660d70f060&#45;&gt;node_0x5f660d70eef0</title>
<path fill="none" stroke="#999999" d="M260.07,-214.35C272.71,-202.81 287.22,-189.56 300.46,-177.47"/>
<polygon fill="#999999" stroke="#999999" points="303.06,-179.84 308.09,-170.51 298.34,-174.67 303.06,-179.84"/>
</g>
<!-- node_0x5f660d70edd0 -->
<g id="node5" class="node">
<title>node_0x5f660d70edd0</title>
<path fill="#e8f9e5" stroke="#c9fbdb" d="M51.5,-0.5C51.5,-0.5 173.5,-0.5 173.5,-0.5 179.5,-0.5 185.5,-6.5 185.5,-12.5 185.5,-12.5 185.5,-51.5 185.5,-51.5 185.5,-57.5 179.5,-63.5 173.5,-63.5 173.5,-63.5 51.5,-63.5 51.5,-63.5 45.5,-63.5 39.5,-57.5 39.5,-51.5 39.5,-51.5 39.5,-12.5 39.5,-12.5 39.5,-6.5 45.5,-0.5 51.5,-0.5"/>
<text text-anchor="middle" x="112.5" y="-49.9" font-family="Fira Mono" font-size="12.00">ptr: 0x5f660d70edd0</text>
<polyline fill="none" stroke="#c9fbdb" points="39.5,-42.5 185.5,-42.5 "/>
<text text-anchor="middle" x="112.5" y="-28.9" font-family="Fira Mono" font-size="12.00">val: x</text>
<polyline fill="none" stroke="#c9fbdb" points="39.5,-21.5 185.5,-21.5 "/>
<text text-anchor="middle" x="76" y="-7.9" font-family="Fira Mono" font-size="12.00">prev: (nil)</text>
<polyline fill="none" stroke="#c9fbdb" points="112.5,-0.5 112.5,-21.5 "/>
<text text-anchor="middle" x="149" y="-7.9" font-family="Fira Mono" font-size="12.00">next: (nil)</text>
</g>
<!-- node_0x5f660d70ef80&#45;&gt;node_0x5f660d70edd0 -->
<g id="edge6" class="edge">
<title>node_0x5f660d70ef80&#45;&gt;node_0x5f660d70edd0</title>
<path fill="none" stroke="#999999" d="M112.5,-107.35C112.5,-96.78 112.5,-84.78 112.5,-73.54"/>
<polygon fill="#999999" stroke="#999999" points="116,-73.51 112.5,-63.51 109,-73.51 116,-73.51"/>
</g>
</g>
</svg>
