<?xml version="1.0" encoding="UTF-8" standalone="no"?>
<!DOCTYPE svg PUBLIC "-//W3C//DTD SVG 1.1//EN"
 "http://www.w3.org/Graphics/SVG/1.1/DTD/svg11.dtd">
<!-- Generated by graphviz version 2.43.0 (0)
 -->
<!-- Title: T Pages: 1 -->
<svg width="423pt" height="286pt"
 viewBox="0.00 0.00 423.00 286.00" xmlns="http://www.w3.org/2000/svg" xmlns:xlink="http://www.w3.org/1999/xlink">
<g id="graph0" class="graph" transform="scale(1 1) rotate(0) translate(4 282)">
<title>T</title>
<polygon fill="white" stroke="transparent" points="-4,4 -4,-282 419,-282 419,4 -4,4"/>
<!-- node_0x5cc3a2604a70 -->
<g id="node1" class="node">
<title>node_0x5cc3a2604a70</title>
<path fill="#e9fbf5" stroke="#5aa99b" d="M86,-214.5C86,-214.5 368,-214.5 368,-214.5 374,-214.5 380,-220.5 380,-226.5 380,-226.5 380,-265.5 380,-265.5 380,-271.5 374,-277.5 368,-277.5 368,-277.5 86,-277.5 86,-277.5 80,-277.5 74,-271.5 74,-265.5 74,-265.5 74,-226.5 74,-226.5 74,-220.5 80,-214.5 86,-214.5"/>
<text text-anchor="middle" x="227" y="-263.9" font-family="Fira Mono" font-size="12.00">ptr: 0x5cc3a2604a70</text>
<polyline fill="none" stroke="#5aa99b" points="74,-256.5 380,-256.5 "/>
<text text-anchor="middle" x="227" y="-242.9" font-family="Fira Mono" font-size="12.00">val: +</text>
<polyline fill="none" stroke="#5aa99b" points="74,-235.5 380,-235.5 "/>
<text text-anchor="middle" x="150.5" y="-221.9" font-family="Fira Mono" font-size="12.00">prev: 0x5cc3a2607420</text>
<polyline fill="none" stroke="#5aa99b" points="227,-214.5 227,-235.5 "/>
<text text-anchor="middle" x="303.5" y="-221.9" font-family="Fira Mono" font-size="12.00">next: 0x5cc3a26074e0</text>
</g>
<!-- node_0x5cc3a2607420 -->
<g id="node2" class="node">
<title>node_0x5cc3a2607420</title>
<path fill="#f1eafd" stroke="#8e6bd6" d="M12,-107.5C12,-107.5 214,-107.5 214,-107.5 220,-107.5 226,-113.5 226,-119.5 226,-119.5 226,-158.5 226,-158.5 226,-164.5 220,-170.5 214,-170.5 214,-170.5 12,-170.5 12,-170.5 6,-170.5 0,-164.5 0,-158.5 0,-158.5 0,-119.5 0,-119.5 0,-113.5 6,-107.5 12,-107.5"/>
<text text-anchor="middle" x="113" y="-156.9" font-family="Fira Mono" font-size="12.00">ptr: 0x5cc3a2607420</text>
<polyline fill="none" stroke="#8e6bd6" points="0,-149.5 226,-149.5 "/>
<text text-anchor="middle" x="113" y="-135.9" font-family="Fira Mono" font-size="12.00">val: sin</text>
<polyline fill="none" stroke="#8e6bd6" points="0,-128.5 226,-128.5 "/>
<text text-anchor="middle" x="76.5" y="-114.9" font-family="Fira Mono" font-size="12.00">prev: 0x5cc3a2603e90</text>
<polyline fill="none" stroke="#8e6bd6" points="153,-107.5 153,-128.5 "/>
<text text-anchor="middle" x="189.5" y="-114.9" font-family="Fira Mono" font-size="12.00">next: (nil)</text>
</g>
<!-- node_0x5cc3a2604a70&#45;&gt;node_0x5cc3a2607420 -->
<g id="edge1" class="edge">
<title>node_0x5cc3a2604a70&#45;&gt;node_0x5cc3a2607420</title>
<path fill="none" stroke="#999999" d="M193.72,-214.35C181.19,-202.81 166.81,-189.56 153.68,-177.47"/>
<polygon fill="#999999" stroke="#999999" points="155.85,-174.71 146.12,-170.51 151.11,-179.86 155.85,-174.71"/>
</g>
<!-- node_0x5cc3a26074e0 -->
<g id="node4" class="node">
<title>node_0x5cc3a26074e0</title>
<path fill="#e8f9e5" stroke="#c9fbdb" d="M281,-107.5C281,-107.5 403,-107.5 403,-107.5 409,-107.5 415,-113.5 415,-119.5 415,-119.5 415,-158.5 415,-158.5 415,-164.5 409,-170.5 403,-170.5 403,-170.5 281,-170.5 281,-170.5 275,-170.5 269,-164.5 269,-158.5 269,-158.5 269,-119.5 269,-119.5 269,-113.5 275,-107.5 281,-107.5"/>
<text text-anchor="middle" x="342" y="-156.9" font-family="Fira Mono" font-size="12.00">ptr: 0x5cc3a26074e0</text>
<polyline fill="none" stroke="#c9fbdb" points="269,-149.5 415,-149.5 "/>
<text text-anchor="middle" x="342" y="-135.9" font-family="Fira Mono" font-size="12.00">val: 2.000000</text>
<polyline fill="none" stroke="#c9fbdb" points="269,-128.5 415,-128.5 "/>
<text text-anchor="middle" x="305.5" y="-114.9" font-family="Fira Mono" font-size="12.00">prev: (nil)</text>
<polyline fill="none" stroke="#c9fbdb" points="342,-107.5 342,-128.5 "/>
<text text-anchor="middle" x="378.5" y="-114.9" font-family="Fira Mono" font-size="12.00">next: (nil)</text>
</g>
<!-- node_0x5cc3a2604a70&#45;&gt;node_0x5cc3a26074e0 -->
<g id="edge2" class="edge">
<title>node_0x5cc3a2604a70&#45;&gt;node_0x5cc3a26074e0</title>
<path fill="none" stroke="#999999" d="M260.57,-214.35C273.21,-202.81 287.72,-189.56 300.96,-177.47"/>
<polygon fill="#999999" stroke="#999999" points="303.56,-179.84 308.59,-170.51 298.84,-174.67 303.56,-179.84"/>
</g>
<!-- node_0x5cc3a2603e90 -->
<g id="node3" class="node">
<title>node_0x5cc3a2603e90</title>
<path fill="#e8f9e5" stroke="#c9fbdb" d="M52,-0.5C52,-0.5 174,-0.5 174,-0.5 180,-0.5 186,-6.5 186,-12.5 186,-12.5 186,-51.5 186,-51.5 186,-57.5 180,-63.5 174,-63.5 174,-63.5 52,-63.5 52,-63.5 46,-63.5 40,-57.5 40,-51.5 40,-51.5 40,-12.5 40,-12.5 40,-6.5 46,-0.5 52,-0.5"/>
<text text-anchor="middle" x="113" y="-49.9" font-family="Fira Mono" font-size="12.00">ptr: 0x5cc3a2603e90</text>
<polyline fill="none" stroke="#c9fbdb" points="40,-42.5 186,-42.5 "/>
<text text-anchor="middle" x="113" y="-28.9" font-family="Fira Mono" font-size="12.00">val: 1.000000</text>
<polyline fill="none" stroke="#c9fbdb" points="40,-21.5 186,-21.5 "/>
<text text-anchor="middle" x="76.5" y="-7.9" font-family="Fira Mono" font-size="12.00">prev: (nil)</text>
<polyline fill="none" stroke="#c9fbdb" points="113,-0.5 113,-21.5 "/>
<text text-anchor="middle" x="149.5" y="-7.9" font-family="Fira Mono" font-size="12.00">next: (nil)</text>
</g>
<!-- node_0x5cc3a2607420&#45;&gt;node_0x5cc3a2603e90 -->
<g id="edge3" class="edge">
<title>node_0x5cc3a2607420&#45;&gt;node_0x5cc3a2603e90</title>
<path fill="none" stroke="#999999" d="M113,-107.35C113,-96.78 113,-84.78 113,-73.54"/>
<polygon fill="#999999" stroke="#999999" points="116.5,-73.51 113,-63.51 109.5,-73.51 116.5,-73.51"/>
</g>
</g>
</svg>
