<?xml version="1.0" encoding="UTF-8" standalone="no"?>
<!DOCTYPE svg PUBLIC "-//W3C//DTD SVG 1.1//EN"
 "http://www.w3.org/Graphics/SVG/1.1/DTD/svg11.dtd">
<!-- Generated by graphviz version 2.43.0 (0)
 -->
<!-- Title: T Pages: 1 -->
<svg width="233pt" height="393pt"
 viewBox="0.00 0.00 233.00 393.00" xmlns="http://www.w3.org/2000/svg" xmlns:xlink="http://www.w3.org/1999/xlink">
<g id="graph0" class="graph" transform="scale(1 1) rotate(0) translate(4 389)">
<title>T</title>
<polygon fill="white" stroke="transparent" points="-4,4 -4,-389 229,-389 229,4 -4,4"/>
<!-- node_0x5f660d70c3c0 -->
<g id="node1" class="node">
<title>node_0x5f660d70c3c0</title>
<path fill="#e9f2ff" stroke="#6b8fd6" d="M12.5,-321.5C12.5,-321.5 212.5,-321.5 212.5,-321.5 218.5,-321.5 224.5,-327.5 224.5,-333.5 224.5,-333.5 224.5,-372.5 224.5,-372.5 224.5,-378.5 218.5,-384.5 212.5,-384.5 212.5,-384.5 12.5,-384.5 12.5,-384.5 6.5,-384.5 0.5,-378.5 0.5,-372.5 0.5,-372.5 0.5,-333.5 0.5,-333.5 0.5,-327.5 6.5,-321.5 12.5,-321.5"/>
<text text-anchor="middle" x="112.5" y="-370.9" font-family="Fira Mono" font-size="12.00">ptr: 0x5f660d70c3c0</text>
<polyline fill="none" stroke="#6b8fd6" points="0.5,-363.5 224.5,-363.5 "/>
<text text-anchor="middle" x="112.5" y="-349.9" font-family="Fira Mono" font-size="12.00">val: 0</text>
<polyline fill="none" stroke="#6b8fd6" points="0.5,-342.5 224.5,-342.5 "/>
<text text-anchor="middle" x="37" y="-328.9" font-family="Fira Mono" font-size="12.00">prev: (nil)</text>
<polyline fill="none" stroke="#6b8fd6" points="73.5,-321.5 73.5,-342.5 "/>
<text text-anchor="middle" x="149" y="-328.9" font-family="Fira Mono" font-size="12.00">next: 0x5f660d70c420</text>
</g>
<!-- node_0x5f660d70c420 -->
<g id="node2" class="node">
<title>node_0x5f660d70c420</title>
<path fill="#e9fbf5" stroke="#5aa99b" d="M12,-214.5C12,-214.5 213,-214.5 213,-214.5 219,-214.5 225,-220.5 225,-226.5 225,-226.5 225,-265.5 225,-265.5 225,-271.5 219,-277.5 213,-277.5 213,-277.5 12,-277.5 12,-277.5 6,-277.5 0,-271.5 0,-265.5 0,-265.5 0,-226.5 0,-226.5 0,-220.5 6,-214.5 12,-214.5"/>
<text text-anchor="middle" x="112.5" y="-263.9" font-family="Fira Mono" font-size="12.00">ptr: 0x5f660d70c420</text>
<polyline fill="none" stroke="#5aa99b" points="0,-256.5 225,-256.5 "/>
<text text-anchor="middle" x="112.5" y="-242.9" font-family="Fira Mono" font-size="12.00">val: *</text>
<polyline fill="none" stroke="#5aa99b" points="0,-235.5 225,-235.5 "/>
<text text-anchor="middle" x="76" y="-221.9" font-family="Fira Mono" font-size="12.00">prev: 0x5f660d70daa0</text>
<polyline fill="none" stroke="#5aa99b" points="152,-214.5 152,-235.5 "/>
<text text-anchor="middle" x="188.5" y="-221.9" font-family="Fira Mono" font-size="12.00">next: (nil)</text>
</g>
<!-- node_0x5f660d70c3c0&#45;&gt;node_0x5f660d70c420 -->
<g id="edge1" class="edge">
<title>node_0x5f660d70c3c0&#45;&gt;node_0x5f660d70c420</title>
<path fill="none" stroke="#999999" d="M112.5,-321.35C112.5,-310.78 112.5,-298.78 112.5,-287.54"/>
<polygon fill="#999999" stroke="#999999" points="116,-287.51 112.5,-277.51 109,-287.51 116,-287.51"/>
</g>
<!-- node_0x5f660d70daa0 -->
<g id="node3" class="node">
<title>node_0x5f660d70daa0</title>
<path fill="#f1eafd" stroke="#8e6bd6" d="M12,-107.5C12,-107.5 213,-107.5 213,-107.5 219,-107.5 225,-113.5 225,-119.5 225,-119.5 225,-158.5 225,-158.5 225,-164.5 219,-170.5 213,-170.5 213,-170.5 12,-170.5 12,-170.5 6,-170.5 0,-164.5 0,-158.5 0,-158.5 0,-119.5 0,-119.5 0,-113.5 6,-107.5 12,-107.5"/>
<text text-anchor="middle" x="112.5" y="-156.9" font-family="Fira Mono" font-size="12.00">ptr: 0x5f660d70daa0</text>
<polyline fill="none" stroke="#8e6bd6" points="0,-149.5 225,-149.5 "/>
<text text-anchor="middle" x="112.5" y="-135.9" font-family="Fira Mono" font-size="12.00">val: sin</text>
<polyline fill="none" stroke="#8e6bd6" points="0,-128.5 225,-128.5 "/>
<text text-anchor="middle" x="76" y="-114.9" font-family="Fira Mono" font-size="12.00">prev: 0x5f660d70dad0</text>
<polyline fill="none" stroke="#8e6bd6" points="152,-107.5 152,-128.5 "/>
<text text-anchor="middle" x="188.5" y="-114.9" font-family="Fira Mono" font-size="12.00">next: (nil)</text>
</g>
<!-- node_0x5f660d70c420&#45;&gt;node_0x5f660d70daa0 -->
<g id="edge2" class="edge">
<title>node_0x5f660d70c420&#45;&gt;node_0x5f660d70daa0</title>
<path fill="none" stroke="#999999" d="M112.5,-214.35C112.5,-203.78 112.5,-191.78 112.5,-180.54"/>
<polygon fill="#999999" stroke="#999999" points="116,-180.51 112.5,-170.51 109,-180.51 116,-180.51"/>
</g>
<!-- node_0x5f660d70dad0 -->
<g id="node4" class="node">
<title>node_0x5f660d70dad0</title>
<path fill="#e8f9e5" stroke="#c9fbdb" d="M51.5,-0.5C51.5,-0.5 173.5,-0.5 173.5,-0.5 179.5,-0.5 185.5,-6.5 185.5,-12.5 185.5,-12.5 185.5,-51.5 185.5,-51.5 185.5,-57.5 179.5,-63.5 173.5,-63.5 173.5,-63.5 51.5,-63.5 51.5,-63.5 45.5,-63.5 39.5,-57.5 39.5,-51.5 39.5,-51.5 39.5,-12.5 39.5,-12.5 39.5,-6.5 45.5,-0.5 51.5,-0.5"/>
<text text-anchor="middle" x="112.5" y="-49.9" font-family="Fira Mono" font-size="12.00">ptr: 0x5f660d70dad0</text>
<polyline fill="none" stroke="#c9fbdb" points="39.5,-42.5 185.5,-42.5 "/>
<text text-anchor="middle" x="112.5" y="-28.9" font-family="Fira Mono" font-size="12.00">val: x</text>
<polyline fill="none" stroke="#c9fbdb" points="39.5,-21.5 185.5,-21.5 "/>
<text text-anchor="middle" x="76" y="-7.9" font-family="Fira Mono" font-size="12.00">prev: (nil)</text>
<polyline fill="none" stroke="#c9fbdb" points="112.5,-0.5 112.5,-21.5 "/>
<text text-anchor="middle" x="149" y="-7.9" font-family="Fira Mono" font-size="12.00">next: (nil)</text>
</g>
<!-- node_0x5f660d70daa0&#45;&gt;node_0x5f660d70dad0 -->
<g id="edge3" class="edge">
<title>node_0x5f660d70daa0&#45;&gt;node_0x5f660d70dad0</title>
<path fill="none" stroke="#999999" d="M112.5,-107.35C112.5,-96.78 112.5,-84.78 112.5,-73.54"/>
<polygon fill="#999999" stroke="#999999" points="116,-73.51 112.5,-63.51 109,-73.51 116,-73.51"/>
</g>
</g>
</svg>
