<?xml version="1.0" encoding="UTF-8" standalone="no"?>
<!DOCTYPE svg PUBLIC "-//W3C//DTD SVG 1.1//EN"
 "http://www.w3.org/Graphics/SVG/1.1/DTD/svg11.dtd">
<!-- Generated by graphviz version 2.43.0 (0)
 -->
<!-- Title: T Pages: 1 -->
<svg width="421pt" height="286pt"
 viewBox="0.00 0.00 421.00 286.00" xmlns="http://www.w3.org/2000/svg" xmlns:xlink="http://www.w3.org/1999/xlink">
<g id="graph0" class="graph" transform="scale(1 1) rotate(0) translate(4 282)">
<title>T</title>
<polygon fill="white" stroke="transparent" points="-4,4 -4,-282 417,-282 417,4 -4,4"/>
<!-- node_0x62e738f7da70 -->
<g id="node1" class="node">
<title>node_0x62e738f7da70</title>
<path fill="#e9fbf5" stroke="#5aa99b" d="M86,-214.5C86,-214.5 366,-214.5 366,-214.5 372,-214.5 378,-220.5 378,-226.5 378,-226.5 378,-265.5 378,-265.5 378,-271.5 372,-277.5 366,-277.5 366,-277.5 86,-277.5 86,-277.5 80,-277.5 74,-271.5 74,-265.5 74,-265.5 74,-226.5 74,-226.5 74,-220.5 80,-214.5 86,-214.5"/>
<text text-anchor="middle" x="226" y="-263.9" font-family="Fira Mono" font-size="12.00">ptr: 0x62e738f7da70</text>
<polyline fill="none" stroke="#5aa99b" points="74,-256.5 378,-256.5 "/>
<text text-anchor="middle" x="226" y="-242.9" font-family="Fira Mono" font-size="12.00">val: +</text>
<polyline fill="none" stroke="#5aa99b" points="74,-235.5 378,-235.5 "/>
<text text-anchor="middle" x="150" y="-221.9" font-family="Fira Mono" font-size="12.00">prev: 0x62e738f80420</text>
<polyline fill="none" stroke="#5aa99b" points="226,-214.5 226,-235.5 "/>
<text text-anchor="middle" x="302" y="-221.9" font-family="Fira Mono" font-size="12.00">next: 0x62e738f804e0</text>
</g>
<!-- node_0x62e738f80420 -->
<g id="node2" class="node">
<title>node_0x62e738f80420</title>
<path fill="#f1eafd" stroke="#8e6bd6" d="M12,-107.5C12,-107.5 212,-107.5 212,-107.5 218,-107.5 224,-113.5 224,-119.5 224,-119.5 224,-158.5 224,-158.5 224,-164.5 218,-170.5 212,-170.5 212,-170.5 12,-170.5 12,-170.5 6,-170.5 0,-164.5 0,-158.5 0,-158.5 0,-119.5 0,-119.5 0,-113.5 6,-107.5 12,-107.5"/>
<text text-anchor="middle" x="112" y="-156.9" font-family="Fira Mono" font-size="12.00">ptr: 0x62e738f80420</text>
<polyline fill="none" stroke="#8e6bd6" points="0,-149.5 224,-149.5 "/>
<text text-anchor="middle" x="112" y="-135.9" font-family="Fira Mono" font-size="12.00">val: sin</text>
<polyline fill="none" stroke="#8e6bd6" points="0,-128.5 224,-128.5 "/>
<text text-anchor="middle" x="75.5" y="-114.9" font-family="Fira Mono" font-size="12.00">prev: 0x62e738f7ce90</text>
<polyline fill="none" stroke="#8e6bd6" points="151,-107.5 151,-128.5 "/>
<text text-anchor="middle" x="187.5" y="-114.9" font-family="Fira Mono" font-size="12.00">next: (nil)</text>
</g>
<!-- node_0x62e738f7da70&#45;&gt;node_0x62e738f80420 -->
<g id="edge1" class="edge">
<title>node_0x62e738f7da70&#45;&gt;node_0x62e738f80420</title>
<path fill="none" stroke="#999999" d="M192.72,-214.35C180.19,-202.81 165.81,-189.56 152.68,-177.47"/>
<polygon fill="#999999" stroke="#999999" points="154.85,-174.71 145.12,-170.51 150.11,-179.86 154.85,-174.71"/>
</g>
<!-- node_0x62e738f804e0 -->
<g id="node4" class="node">
<title>node_0x62e738f804e0</title>
<path fill="#e8f9e5" stroke="#c9fbdb" d="M279,-107.5C279,-107.5 401,-107.5 401,-107.5 407,-107.5 413,-113.5 413,-119.5 413,-119.5 413,-158.5 413,-158.5 413,-164.5 407,-170.5 401,-170.5 401,-170.5 279,-170.5 279,-170.5 273,-170.5 267,-164.5 267,-158.5 267,-158.5 267,-119.5 267,-119.5 267,-113.5 273,-107.5 279,-107.5"/>
<text text-anchor="middle" x="340" y="-156.9" font-family="Fira Mono" font-size="12.00">ptr: 0x62e738f804e0</text>
<polyline fill="none" stroke="#c9fbdb" points="267,-149.5 413,-149.5 "/>
<text text-anchor="middle" x="340" y="-135.9" font-family="Fira Mono" font-size="12.00">val: 2.000000</text>
<polyline fill="none" stroke="#c9fbdb" points="267,-128.5 413,-128.5 "/>
<text text-anchor="middle" x="303.5" y="-114.9" font-family="Fira Mono" font-size="12.00">prev: (nil)</text>
<polyline fill="none" stroke="#c9fbdb" points="340,-107.5 340,-128.5 "/>
<text text-anchor="middle" x="376.5" y="-114.9" font-family="Fira Mono" font-size="12.00">next: (nil)</text>
</g>
<!-- node_0x62e738f7da70&#45;&gt;node_0x62e738f804e0 -->
<g id="edge2" class="edge">
<title>node_0x62e738f7da70&#45;&gt;node_0x62e738f804e0</title>
<path fill="none" stroke="#999999" d="M259.28,-214.35C271.81,-202.81 286.19,-189.56 299.32,-177.47"/>
<polygon fill="#999999" stroke="#999999" points="301.89,-179.86 306.88,-170.51 297.15,-174.71 301.89,-179.86"/>
</g>
<!-- node_0x62e738f7ce90 -->
<g id="node3" class="node">
<title>node_0x62e738f7ce90</title>
<path fill="#e8f9e5" stroke="#c9fbdb" d="M51,-0.5C51,-0.5 173,-0.5 173,-0.5 179,-0.5 185,-6.5 185,-12.5 185,-12.5 185,-51.5 185,-51.5 185,-57.5 179,-63.5 173,-63.5 173,-63.5 51,-63.5 51,-63.5 45,-63.5 39,-57.5 39,-51.5 39,-51.5 39,-12.5 39,-12.5 39,-6.5 45,-0.5 51,-0.5"/>
<text text-anchor="middle" x="112" y="-49.9" font-family="Fira Mono" font-size="12.00">ptr: 0x62e738f7ce90</text>
<polyline fill="none" stroke="#c9fbdb" points="39,-42.5 185,-42.5 "/>
<text text-anchor="middle" x="112" y="-28.9" font-family="Fira Mono" font-size="12.00">val: 1.000000</text>
<polyline fill="none" stroke="#c9fbdb" points="39,-21.5 185,-21.5 "/>
<text text-anchor="middle" x="75.5" y="-7.9" font-family="Fira Mono" font-size="12.00">prev: (nil)</text>
<polyline fill="none" stroke="#c9fbdb" points="112,-0.5 112,-21.5 "/>
<text text-anchor="middle" x="148.5" y="-7.9" font-family="Fira Mono" font-size="12.00">next: (nil)</text>
</g>
<!-- node_0x62e738f80420&#45;&gt;node_0x62e738f7ce90 -->
<g id="edge3" class="edge">
<title>node_0x62e738f80420&#45;&gt;node_0x62e738f7ce90</title>
<path fill="none" stroke="#999999" d="M112,-107.35C112,-96.78 112,-84.78 112,-73.54"/>
<polygon fill="#999999" stroke="#999999" points="115.5,-73.51 112,-63.51 108.5,-73.51 115.5,-73.51"/>
</g>
</g>
</svg>
