<?xml version="1.0" encoding="UTF-8" standalone="no"?>
<!DOCTYPE svg PUBLIC "-//W3C//DTD SVG 1.1//EN"
 "http://www.w3.org/Graphics/SVG/1.1/DTD/svg11.dtd">
<!-- Generated by graphviz version 2.43.0 (0)
 -->
<!-- Title: T Pages: 1 -->
<svg width="577pt" height="500pt"
 viewBox="0.00 0.00 576.50 500.00" xmlns="http://www.w3.org/2000/svg" xmlns:xlink="http://www.w3.org/1999/xlink">
<g id="graph0" class="graph" transform="scale(1 1) rotate(0) translate(4 496)">
<title>T</title>
<polygon fill="white" stroke="transparent" points="-4,4 -4,-496 572.5,-496 572.5,4 -4,4"/>
<!-- node_0x59653cbcf3c0 -->
<g id="node1" class="node">
<title>node_0x59653cbcf3c0</title>
<path fill="#e9f2ff" stroke="#6b8fd6" d="M260,-428.5C260,-428.5 463,-428.5 463,-428.5 469,-428.5 475,-434.5 475,-440.5 475,-440.5 475,-479.5 475,-479.5 475,-485.5 469,-491.5 463,-491.5 463,-491.5 260,-491.5 260,-491.5 254,-491.5 248,-485.5 248,-479.5 248,-479.5 248,-440.5 248,-440.5 248,-434.5 254,-428.5 260,-428.5"/>
<text text-anchor="middle" x="361.5" y="-477.9" font-family="Fira Mono" font-size="12.00">ptr: 0x59653cbcf3c0</text>
<polyline fill="none" stroke="#6b8fd6" points="248,-470.5 475,-470.5 "/>
<text text-anchor="middle" x="361.5" y="-456.9" font-family="Fira Mono" font-size="12.00">val: 0</text>
<polyline fill="none" stroke="#6b8fd6" points="248,-449.5 475,-449.5 "/>
<text text-anchor="middle" x="284.5" y="-435.9" font-family="Fira Mono" font-size="12.00">prev: (nil)</text>
<polyline fill="none" stroke="#6b8fd6" points="321,-428.5 321,-449.5 "/>
<text text-anchor="middle" x="398" y="-435.9" font-family="Fira Mono" font-size="12.00">next: 0x59653cbd2090</text>
</g>
<!-- node_0x59653cbd2090 -->
<g id="node2" class="node">
<title>node_0x59653cbd2090</title>
<path fill="#e9fbf5" stroke="#5aa99b" d="M219.5,-321.5C219.5,-321.5 503.5,-321.5 503.5,-321.5 509.5,-321.5 515.5,-327.5 515.5,-333.5 515.5,-333.5 515.5,-372.5 515.5,-372.5 515.5,-378.5 509.5,-384.5 503.5,-384.5 503.5,-384.5 219.5,-384.5 219.5,-384.5 213.5,-384.5 207.5,-378.5 207.5,-372.5 207.5,-372.5 207.5,-333.5 207.5,-333.5 207.5,-327.5 213.5,-321.5 219.5,-321.5"/>
<text text-anchor="middle" x="361.5" y="-370.9" font-family="Fira Mono" font-size="12.00">ptr: 0x59653cbd2090</text>
<polyline fill="none" stroke="#5aa99b" points="207.5,-363.5 515.5,-363.5 "/>
<text text-anchor="middle" x="361.5" y="-349.9" font-family="Fira Mono" font-size="12.00">val: *</text>
<polyline fill="none" stroke="#5aa99b" points="207.5,-342.5 515.5,-342.5 "/>
<text text-anchor="middle" x="284.5" y="-328.9" font-family="Fira Mono" font-size="12.00">prev: 0x59653cbd2060</text>
<polyline fill="none" stroke="#5aa99b" points="361.5,-321.5 361.5,-342.5 "/>
<text text-anchor="middle" x="438.5" y="-328.9" font-family="Fira Mono" font-size="12.00">next: 0x59653cbd1aa0</text>
</g>
<!-- node_0x59653cbcf3c0&#45;&gt;node_0x59653cbd2090 -->
<g id="edge1" class="edge">
<title>node_0x59653cbcf3c0&#45;&gt;node_0x59653cbd2090</title>
<path fill="none" stroke="#999999" d="M361.5,-428.35C361.5,-417.78 361.5,-405.78 361.5,-394.54"/>
<polygon fill="#999999" stroke="#999999" points="365,-394.51 361.5,-384.51 358,-394.51 365,-394.51"/>
</g>
<!-- node_0x59653cbd2060 -->
<g id="node3" class="node">
<title>node_0x59653cbd2060</title>
<path fill="#f1eafd" stroke="#8e6bd6" d="M89.5,-214.5C89.5,-214.5 367.5,-214.5 367.5,-214.5 373.5,-214.5 379.5,-220.5 379.5,-226.5 379.5,-226.5 379.5,-265.5 379.5,-265.5 379.5,-271.5 373.5,-277.5 367.5,-277.5 367.5,-277.5 89.5,-277.5 89.5,-277.5 83.5,-277.5 77.5,-271.5 77.5,-265.5 77.5,-265.5 77.5,-226.5 77.5,-226.5 77.5,-220.5 83.5,-214.5 89.5,-214.5"/>
<text text-anchor="middle" x="228.5" y="-263.9" font-family="Fira Mono" font-size="12.00">ptr: 0x59653cbd2060</text>
<polyline fill="none" stroke="#8e6bd6" points="77.5,-256.5 379.5,-256.5 "/>
<text text-anchor="middle" x="228.5" y="-242.9" font-family="Fira Mono" font-size="12.00">val: *</text>
<polyline fill="none" stroke="#8e6bd6" points="77.5,-235.5 379.5,-235.5 "/>
<text text-anchor="middle" x="153" y="-221.9" font-family="Fira Mono" font-size="12.00">prev: 0x59653cbd1f80</text>
<polyline fill="none" stroke="#8e6bd6" points="228.5,-214.5 228.5,-235.5 "/>
<text text-anchor="middle" x="304" y="-221.9" font-family="Fira Mono" font-size="12.00">next: 0x59653cbd1ef0</text>
</g>
<!-- node_0x59653cbd2090&#45;&gt;node_0x59653cbd2060 -->
<g id="edge2" class="edge">
<title>node_0x59653cbd2090&#45;&gt;node_0x59653cbd2060</title>
<path fill="none" stroke="#999999" d="M322.67,-321.35C307.79,-309.59 290.65,-296.06 275.11,-283.79"/>
<polygon fill="#999999" stroke="#999999" points="277.16,-280.96 267.14,-277.51 272.83,-286.45 277.16,-280.96"/>
</g>
<!-- node_0x59653cbd1aa0 -->
<g id="node7" class="node">
<title>node_0x59653cbd1aa0</title>
<path fill="#e8f9e5" stroke="#c9fbdb" d="M434.5,-214.5C434.5,-214.5 556.5,-214.5 556.5,-214.5 562.5,-214.5 568.5,-220.5 568.5,-226.5 568.5,-226.5 568.5,-265.5 568.5,-265.5 568.5,-271.5 562.5,-277.5 556.5,-277.5 556.5,-277.5 434.5,-277.5 434.5,-277.5 428.5,-277.5 422.5,-271.5 422.5,-265.5 422.5,-265.5 422.5,-226.5 422.5,-226.5 422.5,-220.5 428.5,-214.5 434.5,-214.5"/>
<text text-anchor="middle" x="495.5" y="-263.9" font-family="Fira Mono" font-size="12.00">ptr: 0x59653cbd1aa0</text>
<polyline fill="none" stroke="#c9fbdb" points="422.5,-256.5 568.5,-256.5 "/>
<text text-anchor="middle" x="495.5" y="-242.9" font-family="Fira Mono" font-size="12.00">val: 1</text>
<polyline fill="none" stroke="#c9fbdb" points="422.5,-235.5 568.5,-235.5 "/>
<text text-anchor="middle" x="459" y="-221.9" font-family="Fira Mono" font-size="12.00">prev: (nil)</text>
<polyline fill="none" stroke="#c9fbdb" points="495.5,-214.5 495.5,-235.5 "/>
<text text-anchor="middle" x="532" y="-221.9" font-family="Fira Mono" font-size="12.00">next: (nil)</text>
</g>
<!-- node_0x59653cbd2090&#45;&gt;node_0x59653cbd1aa0 -->
<g id="edge3" class="edge">
<title>node_0x59653cbd2090&#45;&gt;node_0x59653cbd1aa0</title>
<path fill="none" stroke="#999999" d="M400.62,-321.35C415.62,-309.59 432.88,-296.06 448.54,-283.79"/>
<polygon fill="#999999" stroke="#999999" points="450.85,-286.43 456.56,-277.51 446.53,-280.92 450.85,-286.43"/>
</g>
<!-- node_0x59653cbd1f80 -->
<g id="node4" class="node">
<title>node_0x59653cbd1f80</title>
<path fill="#f1eafd" stroke="#8e6bd6" d="M12,-107.5C12,-107.5 215,-107.5 215,-107.5 221,-107.5 227,-113.5 227,-119.5 227,-119.5 227,-158.5 227,-158.5 227,-164.5 221,-170.5 215,-170.5 215,-170.5 12,-170.5 12,-170.5 6,-170.5 0,-164.5 0,-158.5 0,-158.5 0,-119.5 0,-119.5 0,-113.5 6,-107.5 12,-107.5"/>
<text text-anchor="middle" x="113.5" y="-156.9" font-family="Fira Mono" font-size="12.00">ptr: 0x59653cbd1f80</text>
<polyline fill="none" stroke="#8e6bd6" points="0,-149.5 227,-149.5 "/>
<text text-anchor="middle" x="113.5" y="-135.9" font-family="Fira Mono" font-size="12.00">val: cos</text>
<polyline fill="none" stroke="#8e6bd6" points="0,-128.5 227,-128.5 "/>
<text text-anchor="middle" x="77" y="-114.9" font-family="Fira Mono" font-size="12.00">prev: 0x59653cbd1dd0</text>
<polyline fill="none" stroke="#8e6bd6" points="154,-107.5 154,-128.5 "/>
<text text-anchor="middle" x="190.5" y="-114.9" font-family="Fira Mono" font-size="12.00">next: (nil)</text>
</g>
<!-- node_0x59653cbd2060&#45;&gt;node_0x59653cbd1f80 -->
<g id="edge4" class="edge">
<title>node_0x59653cbd2060&#45;&gt;node_0x59653cbd1f80</title>
<path fill="none" stroke="#999999" d="M194.93,-214.35C182.29,-202.81 167.78,-189.56 154.54,-177.47"/>
<polygon fill="#999999" stroke="#999999" points="156.66,-174.67 146.91,-170.51 151.94,-179.84 156.66,-174.67"/>
</g>
<!-- node_0x59653cbd1ef0 -->
<g id="node6" class="node">
<title>node_0x59653cbd1ef0</title>
<path fill="#e8f9e5" stroke="#c9fbdb" d="M282.5,-107.5C282.5,-107.5 404.5,-107.5 404.5,-107.5 410.5,-107.5 416.5,-113.5 416.5,-119.5 416.5,-119.5 416.5,-158.5 416.5,-158.5 416.5,-164.5 410.5,-170.5 404.5,-170.5 404.5,-170.5 282.5,-170.5 282.5,-170.5 276.5,-170.5 270.5,-164.5 270.5,-158.5 270.5,-158.5 270.5,-119.5 270.5,-119.5 270.5,-113.5 276.5,-107.5 282.5,-107.5"/>
<text text-anchor="middle" x="343.5" y="-156.9" font-family="Fira Mono" font-size="12.00">ptr: 0x59653cbd1ef0</text>
<polyline fill="none" stroke="#c9fbdb" points="270.5,-149.5 416.5,-149.5 "/>
<text text-anchor="middle" x="343.5" y="-135.9" font-family="Fira Mono" font-size="12.00">val: 1</text>
<polyline fill="none" stroke="#c9fbdb" points="270.5,-128.5 416.5,-128.5 "/>
<text text-anchor="middle" x="307" y="-114.9" font-family="Fira Mono" font-size="12.00">prev: (nil)</text>
<polyline fill="none" stroke="#c9fbdb" points="343.5,-107.5 343.5,-128.5 "/>
<text text-anchor="middle" x="380" y="-114.9" font-family="Fira Mono" font-size="12.00">next: (nil)</text>
</g>
<!-- node_0x59653cbd2060&#45;&gt;node_0x59653cbd1ef0 -->
<g id="edge5" class="edge">
<title>node_0x59653cbd2060&#45;&gt;node_0x59653cbd1ef0</title>
<path fill="none" stroke="#999999" d="M262.07,-214.35C274.71,-202.81 289.22,-189.56 302.46,-177.47"/>
<polygon fill="#999999" stroke="#999999" points="305.06,-179.84 310.09,-170.51 300.34,-174.67 305.06,-179.84"/>
</g>
<!-- node_0x59653cbd1dd0 -->
<g id="node5" class="node">
<title>node_0x59653cbd1dd0</title>
<path fill="#e8f9e5" stroke="#c9fbdb" d="M52.5,-0.5C52.5,-0.5 174.5,-0.5 174.5,-0.5 180.5,-0.5 186.5,-6.5 186.5,-12.5 186.5,-12.5 186.5,-51.5 186.5,-51.5 186.5,-57.5 180.5,-63.5 174.5,-63.5 174.5,-63.5 52.5,-63.5 52.5,-63.5 46.5,-63.5 40.5,-57.5 40.5,-51.5 40.5,-51.5 40.5,-12.5 40.5,-12.5 40.5,-6.5 46.5,-0.5 52.5,-0.5"/>
<text text-anchor="middle" x="113.5" y="-49.9" font-family="Fira Mono" font-size="12.00">ptr: 0x59653cbd1dd0</text>
<polyline fill="none" stroke="#c9fbdb" points="40.5,-42.5 186.5,-42.5 "/>
<text text-anchor="middle" x="113.5" y="-28.9" font-family="Fira Mono" font-size="12.00">val: x</text>
<polyline fill="none" stroke="#c9fbdb" points="40.5,-21.5 186.5,-21.5 "/>
<text text-anchor="middle" x="77" y="-7.9" font-family="Fira Mono" font-size="12.00">prev: (nil)</text>
<polyline fill="none" stroke="#c9fbdb" points="113.5,-0.5 113.5,-21.5 "/>
<text text-anchor="middle" x="150" y="-7.9" font-family="Fira Mono" font-size="12.00">next: (nil)</text>
</g>
<!-- node_0x59653cbd1f80&#45;&gt;node_0x59653cbd1dd0 -->
<g id="edge6" class="edge">
<title>node_0x59653cbd1f80&#45;&gt;node_0x59653cbd1dd0</title>
<path fill="none" stroke="#999999" d="M113.5,-107.35C113.5,-96.78 113.5,-84.78 113.5,-73.54"/>
<polygon fill="#999999" stroke="#999999" points="117,-73.51 113.5,-63.51 110,-73.51 117,-73.51"/>
</g>
</g>
</svg>
