<?xml version="1.0" encoding="UTF-8" standalone="no"?>
<!DOCTYPE svg PUBLIC "-//W3C//DTD SVG 1.1//EN"
 "http://www.w3.org/Graphics/SVG/1.1/DTD/svg11.dtd">
<!-- Generated by graphviz version 2.43.0 (0)
 -->
<!-- Title: T Pages: 1 -->
<svg width="1089pt" height="607pt"
 viewBox="0.00 0.00 1088.50 607.00" xmlns="http://www.w3.org/2000/svg" xmlns:xlink="http://www.w3.org/1999/xlink">
<g id="graph0" class="graph" transform="scale(1 1) rotate(0) translate(4 603)">
<title>T</title>
<polygon fill="white" stroke="transparent" points="-4,4 -4,-603 1084.5,-603 1084.5,4 -4,4"/>
<!-- node_0x5f660d70c3c0 -->
<g id="node1" class="node">
<title>node_0x5f660d70c3c0</title>
<path fill="#e9f2ff" stroke="#6b8fd6" d="M535.5,-535.5C535.5,-535.5 733.5,-535.5 733.5,-535.5 739.5,-535.5 745.5,-541.5 745.5,-547.5 745.5,-547.5 745.5,-586.5 745.5,-586.5 745.5,-592.5 739.5,-598.5 733.5,-598.5 733.5,-598.5 535.5,-598.5 535.5,-598.5 529.5,-598.5 523.5,-592.5 523.5,-586.5 523.5,-586.5 523.5,-547.5 523.5,-547.5 523.5,-541.5 529.5,-535.5 535.5,-535.5"/>
<text text-anchor="middle" x="634.5" y="-584.9" font-family="Fira Mono" font-size="12.00">ptr: 0x5f660d70c3c0</text>
<polyline fill="none" stroke="#6b8fd6" points="523.5,-577.5 745.5,-577.5 "/>
<text text-anchor="middle" x="634.5" y="-563.9" font-family="Fira Mono" font-size="12.00">val: 0</text>
<polyline fill="none" stroke="#6b8fd6" points="523.5,-556.5 745.5,-556.5 "/>
<text text-anchor="middle" x="560" y="-542.9" font-family="Fira Mono" font-size="12.00">prev: (nil)</text>
<polyline fill="none" stroke="#6b8fd6" points="596.5,-535.5 596.5,-556.5 "/>
<text text-anchor="middle" x="671" y="-542.9" font-family="Fira Mono" font-size="12.00">next: 0x5f660d70f380</text>
</g>
<!-- node_0x5f660d70f380 -->
<g id="node2" class="node">
<title>node_0x5f660d70f380</title>
<path fill="#e9fbf5" stroke="#5aa99b" d="M496,-428.5C496,-428.5 773,-428.5 773,-428.5 779,-428.5 785,-434.5 785,-440.5 785,-440.5 785,-479.5 785,-479.5 785,-485.5 779,-491.5 773,-491.5 773,-491.5 496,-491.5 496,-491.5 490,-491.5 484,-485.5 484,-479.5 484,-479.5 484,-440.5 484,-440.5 484,-434.5 490,-428.5 496,-428.5"/>
<text text-anchor="middle" x="634.5" y="-477.9" font-family="Fira Mono" font-size="12.00">ptr: 0x5f660d70f380</text>
<polyline fill="none" stroke="#5aa99b" points="484,-470.5 785,-470.5 "/>
<text text-anchor="middle" x="634.5" y="-456.9" font-family="Fira Mono" font-size="12.00">val: +</text>
<polyline fill="none" stroke="#5aa99b" points="484,-449.5 785,-449.5 "/>
<text text-anchor="middle" x="558.5" y="-435.9" font-family="Fira Mono" font-size="12.00">prev: 0x5f660d70f090</text>
<polyline fill="none" stroke="#5aa99b" points="633,-428.5 633,-449.5 "/>
<text text-anchor="middle" x="709" y="-435.9" font-family="Fira Mono" font-size="12.00">next: 0x5f660d70eda0</text>
</g>
<!-- node_0x5f660d70c3c0&#45;&gt;node_0x5f660d70f380 -->
<g id="edge1" class="edge">
<title>node_0x5f660d70c3c0&#45;&gt;node_0x5f660d70f380</title>
<path fill="none" stroke="#999999" d="M634.5,-535.35C634.5,-524.78 634.5,-512.78 634.5,-501.54"/>
<polygon fill="#999999" stroke="#999999" points="638,-501.51 634.5,-491.51 631,-501.51 638,-501.51"/>
</g>
<!-- node_0x5f660d70f090 -->
<g id="node3" class="node">
<title>node_0x5f660d70f090</title>
<path fill="#f1eafd" stroke="#8e6bd6" d="M323,-321.5C323,-321.5 600,-321.5 600,-321.5 606,-321.5 612,-327.5 612,-333.5 612,-333.5 612,-372.5 612,-372.5 612,-378.5 606,-384.5 600,-384.5 600,-384.5 323,-384.5 323,-384.5 317,-384.5 311,-378.5 311,-372.5 311,-372.5 311,-333.5 311,-333.5 311,-327.5 317,-321.5 323,-321.5"/>
<text text-anchor="middle" x="461.5" y="-370.9" font-family="Fira Mono" font-size="12.00">ptr: 0x5f660d70f090</text>
<polyline fill="none" stroke="#8e6bd6" points="311,-363.5 612,-363.5 "/>
<text text-anchor="middle" x="461.5" y="-349.9" font-family="Fira Mono" font-size="12.00">val: *</text>
<polyline fill="none" stroke="#8e6bd6" points="311,-342.5 612,-342.5 "/>
<text text-anchor="middle" x="385.5" y="-328.9" font-family="Fira Mono" font-size="12.00">prev: 0x5f660d70f060</text>
<polyline fill="none" stroke="#8e6bd6" points="460,-321.5 460,-342.5 "/>
<text text-anchor="middle" x="536" y="-328.9" font-family="Fira Mono" font-size="12.00">next: 0x5f660d70eaa0</text>
</g>
<!-- node_0x5f660d70f380&#45;&gt;node_0x5f660d70f090 -->
<g id="edge2" class="edge">
<title>node_0x5f660d70f380&#45;&gt;node_0x5f660d70f090</title>
<path fill="none" stroke="#999999" d="M584,-428.35C564.1,-416.27 541.11,-402.32 520.46,-389.78"/>
<polygon fill="#999999" stroke="#999999" points="522.13,-386.71 511.77,-384.51 518.5,-392.69 522.13,-386.71"/>
</g>
<!-- node_0x5f660d70eda0 -->
<g id="node9" class="node">
<title>node_0x5f660d70eda0</title>
<path fill="#f1eafd" stroke="#8e6bd6" d="M667.5,-321.5C667.5,-321.5 947.5,-321.5 947.5,-321.5 953.5,-321.5 959.5,-327.5 959.5,-333.5 959.5,-333.5 959.5,-372.5 959.5,-372.5 959.5,-378.5 953.5,-384.5 947.5,-384.5 947.5,-384.5 667.5,-384.5 667.5,-384.5 661.5,-384.5 655.5,-378.5 655.5,-372.5 655.5,-372.5 655.5,-333.5 655.5,-333.5 655.5,-327.5 661.5,-321.5 667.5,-321.5"/>
<text text-anchor="middle" x="807.5" y="-370.9" font-family="Fira Mono" font-size="12.00">ptr: 0x5f660d70eda0</text>
<polyline fill="none" stroke="#8e6bd6" points="655.5,-363.5 959.5,-363.5 "/>
<text text-anchor="middle" x="807.5" y="-349.9" font-family="Fira Mono" font-size="12.00">val: *</text>
<polyline fill="none" stroke="#8e6bd6" points="655.5,-342.5 959.5,-342.5 "/>
<text text-anchor="middle" x="731.5" y="-328.9" font-family="Fira Mono" font-size="12.00">prev: 0x5f660d70ea70</text>
<polyline fill="none" stroke="#8e6bd6" points="807.5,-321.5 807.5,-342.5 "/>
<text text-anchor="middle" x="883.5" y="-328.9" font-family="Fira Mono" font-size="12.00">next: 0x5f660d70ead0</text>
</g>
<!-- node_0x5f660d70f380&#45;&gt;node_0x5f660d70eda0 -->
<g id="edge3" class="edge">
<title>node_0x5f660d70f380&#45;&gt;node_0x5f660d70eda0</title>
<path fill="none" stroke="#999999" d="M685,-428.35C704.9,-416.27 727.89,-402.32 748.54,-389.78"/>
<polygon fill="#999999" stroke="#999999" points="750.5,-392.69 757.23,-384.51 746.87,-386.71 750.5,-392.69"/>
</g>
<!-- node_0x5f660d70f060 -->
<g id="node4" class="node">
<title>node_0x5f660d70f060</title>
<path fill="#f1eafd" stroke="#8e6bd6" d="M89.5,-214.5C89.5,-214.5 363.5,-214.5 363.5,-214.5 369.5,-214.5 375.5,-220.5 375.5,-226.5 375.5,-226.5 375.5,-265.5 375.5,-265.5 375.5,-271.5 369.5,-277.5 363.5,-277.5 363.5,-277.5 89.5,-277.5 89.5,-277.5 83.5,-277.5 77.5,-271.5 77.5,-265.5 77.5,-265.5 77.5,-226.5 77.5,-226.5 77.5,-220.5 83.5,-214.5 89.5,-214.5"/>
<text text-anchor="middle" x="226.5" y="-263.9" font-family="Fira Mono" font-size="12.00">ptr: 0x5f660d70f060</text>
<polyline fill="none" stroke="#8e6bd6" points="77.5,-256.5 375.5,-256.5 "/>
<text text-anchor="middle" x="226.5" y="-242.9" font-family="Fira Mono" font-size="12.00">val: *</text>
<polyline fill="none" stroke="#8e6bd6" points="77.5,-235.5 375.5,-235.5 "/>
<text text-anchor="middle" x="152" y="-221.9" font-family="Fira Mono" font-size="12.00">prev: 0x5f660d70ef80</text>
<polyline fill="none" stroke="#8e6bd6" points="226.5,-214.5 226.5,-235.5 "/>
<text text-anchor="middle" x="301" y="-221.9" font-family="Fira Mono" font-size="12.00">next: 0x5f660d70eef0</text>
</g>
<!-- node_0x5f660d70f090&#45;&gt;node_0x5f660d70f060 -->
<g id="edge4" class="edge">
<title>node_0x5f660d70f090&#45;&gt;node_0x5f660d70f060</title>
<path fill="none" stroke="#999999" d="M393.21,-321.49C365.33,-309.03 332.94,-294.56 304.16,-281.7"/>
<polygon fill="#999999" stroke="#999999" points="305.52,-278.47 294.96,-277.59 302.66,-284.86 305.52,-278.47"/>
</g>
<!-- node_0x5f660d70eaa0 -->
<g id="node8" class="node">
<title>node_0x5f660d70eaa0</title>
<path fill="#e8f9e5" stroke="#c9fbdb" d="M430.5,-214.5C430.5,-214.5 552.5,-214.5 552.5,-214.5 558.5,-214.5 564.5,-220.5 564.5,-226.5 564.5,-226.5 564.5,-265.5 564.5,-265.5 564.5,-271.5 558.5,-277.5 552.5,-277.5 552.5,-277.5 430.5,-277.5 430.5,-277.5 424.5,-277.5 418.5,-271.5 418.5,-265.5 418.5,-265.5 418.5,-226.5 418.5,-226.5 418.5,-220.5 424.5,-214.5 430.5,-214.5"/>
<text text-anchor="middle" x="491.5" y="-263.9" font-family="Fira Mono" font-size="12.00">ptr: 0x5f660d70eaa0</text>
<polyline fill="none" stroke="#c9fbdb" points="418.5,-256.5 564.5,-256.5 "/>
<text text-anchor="middle" x="491.5" y="-242.9" font-family="Fira Mono" font-size="12.00">val: 1</text>
<polyline fill="none" stroke="#c9fbdb" points="418.5,-235.5 564.5,-235.5 "/>
<text text-anchor="middle" x="455" y="-221.9" font-family="Fira Mono" font-size="12.00">prev: (nil)</text>
<polyline fill="none" stroke="#c9fbdb" points="491.5,-214.5 491.5,-235.5 "/>
<text text-anchor="middle" x="528" y="-221.9" font-family="Fira Mono" font-size="12.00">next: (nil)</text>
</g>
<!-- node_0x5f660d70f090&#45;&gt;node_0x5f660d70eaa0 -->
<g id="edge5" class="edge">
<title>node_0x5f660d70f090&#45;&gt;node_0x5f660d70eaa0</title>
<path fill="none" stroke="#999999" d="M470.26,-321.35C473.31,-310.67 476.78,-298.53 480.01,-287.2"/>
<polygon fill="#999999" stroke="#999999" points="483.4,-288.09 482.78,-277.51 476.67,-286.16 483.4,-288.09"/>
</g>
<!-- node_0x5f660d70ef80 -->
<g id="node5" class="node">
<title>node_0x5f660d70ef80</title>
<path fill="#f1eafd" stroke="#8e6bd6" d="M12,-107.5C12,-107.5 213,-107.5 213,-107.5 219,-107.5 225,-113.5 225,-119.5 225,-119.5 225,-158.5 225,-158.5 225,-164.5 219,-170.5 213,-170.5 213,-170.5 12,-170.5 12,-170.5 6,-170.5 0,-164.5 0,-158.5 0,-158.5 0,-119.5 0,-119.5 0,-113.5 6,-107.5 12,-107.5"/>
<text text-anchor="middle" x="112.5" y="-156.9" font-family="Fira Mono" font-size="12.00">ptr: 0x5f660d70ef80</text>
<polyline fill="none" stroke="#8e6bd6" points="0,-149.5 225,-149.5 "/>
<text text-anchor="middle" x="112.5" y="-135.9" font-family="Fira Mono" font-size="12.00">val: cos</text>
<polyline fill="none" stroke="#8e6bd6" points="0,-128.5 225,-128.5 "/>
<text text-anchor="middle" x="76" y="-114.9" font-family="Fira Mono" font-size="12.00">prev: 0x5f660d70edd0</text>
<polyline fill="none" stroke="#8e6bd6" points="152,-107.5 152,-128.5 "/>
<text text-anchor="middle" x="188.5" y="-114.9" font-family="Fira Mono" font-size="12.00">next: (nil)</text>
</g>
<!-- node_0x5f660d70f060&#45;&gt;node_0x5f660d70ef80 -->
<g id="edge6" class="edge">
<title>node_0x5f660d70f060&#45;&gt;node_0x5f660d70ef80</title>
<path fill="none" stroke="#999999" d="M193.22,-214.35C180.69,-202.81 166.31,-189.56 153.18,-177.47"/>
<polygon fill="#999999" stroke="#999999" points="155.35,-174.71 145.62,-170.51 150.61,-179.86 155.35,-174.71"/>
</g>
<!-- node_0x5f660d70eef0 -->
<g id="node7" class="node">
<title>node_0x5f660d70eef0</title>
<path fill="#e8f9e5" stroke="#c9fbdb" d="M280.5,-107.5C280.5,-107.5 402.5,-107.5 402.5,-107.5 408.5,-107.5 414.5,-113.5 414.5,-119.5 414.5,-119.5 414.5,-158.5 414.5,-158.5 414.5,-164.5 408.5,-170.5 402.5,-170.5 402.5,-170.5 280.5,-170.5 280.5,-170.5 274.5,-170.5 268.5,-164.5 268.5,-158.5 268.5,-158.5 268.5,-119.5 268.5,-119.5 268.5,-113.5 274.5,-107.5 280.5,-107.5"/>
<text text-anchor="middle" x="341.5" y="-156.9" font-family="Fira Mono" font-size="12.00">ptr: 0x5f660d70eef0</text>
<polyline fill="none" stroke="#c9fbdb" points="268.5,-149.5 414.5,-149.5 "/>
<text text-anchor="middle" x="341.5" y="-135.9" font-family="Fira Mono" font-size="12.00">val: 1</text>
<polyline fill="none" stroke="#c9fbdb" points="268.5,-128.5 414.5,-128.5 "/>
<text text-anchor="middle" x="305" y="-114.9" font-family="Fira Mono" font-size="12.00">prev: (nil)</text>
<polyline fill="none" stroke="#c9fbdb" points="341.5,-107.5 341.5,-128.5 "/>
<text text-anchor="middle" x="378" y="-114.9" font-family="Fira Mono" font-size="12.00">next: (nil)</text>
</g>
<!-- node_0x5f660d70f060&#45;&gt;node_0x5f660d70eef0 -->
<g id="edge7" class="edge">
<title>node_0x5f660d70f060&#45;&gt;node_0x5f660d70eef0</title>
<path fill="none" stroke="#999999" d="M260.07,-214.35C272.71,-202.81 287.22,-189.56 300.46,-177.47"/>
<polygon fill="#999999" stroke="#999999" points="303.06,-179.84 308.09,-170.51 298.34,-174.67 303.06,-179.84"/>
</g>
<!-- node_0x5f660d70edd0 -->
<g id="node6" class="node">
<title>node_0x5f660d70edd0</title>
<path fill="#e8f9e5" stroke="#c9fbdb" d="M51.5,-0.5C51.5,-0.5 173.5,-0.5 173.5,-0.5 179.5,-0.5 185.5,-6.5 185.5,-12.5 185.5,-12.5 185.5,-51.5 185.5,-51.5 185.5,-57.5 179.5,-63.5 173.5,-63.5 173.5,-63.5 51.5,-63.5 51.5,-63.5 45.5,-63.5 39.5,-57.5 39.5,-51.5 39.5,-51.5 39.5,-12.5 39.5,-12.5 39.5,-6.5 45.5,-0.5 51.5,-0.5"/>
<text text-anchor="middle" x="112.5" y="-49.9" font-family="Fira Mono" font-size="12.00">ptr: 0x5f660d70edd0</text>
<polyline fill="none" stroke="#c9fbdb" points="39.5,-42.5 185.5,-42.5 "/>
<text text-anchor="middle" x="112.5" y="-28.9" font-family="Fira Mono" font-size="12.00">val: x</text>
<polyline fill="none" stroke="#c9fbdb" points="39.5,-21.5 185.5,-21.5 "/>
<text text-anchor="middle" x="76" y="-7.9" font-family="Fira Mono" font-size="12.00">prev: (nil)</text>
<polyline fill="none" stroke="#c9fbdb" points="112.5,-0.5 112.5,-21.5 "/>
<text text-anchor="middle" x="149" y="-7.9" font-family="Fira Mono" font-size="12.00">next: (nil)</text>
</g>
<!-- node_0x5f660d70ef80&#45;&gt;node_0x5f660d70edd0 -->
<g id="edge8" class="edge">
<title>node_0x5f660d70ef80&#45;&gt;node_0x5f660d70edd0</title>
<path fill="none" stroke="#999999" d="M112.5,-107.35C112.5,-96.78 112.5,-84.78 112.5,-73.54"/>
<polygon fill="#999999" stroke="#999999" points="116,-73.51 112.5,-63.51 109,-73.51 116,-73.51"/>
</g>
<!-- node_0x5f660d70ea70 -->
<g id="node10" class="node">
<title>node_0x5f660d70ea70</title>
<path fill="#f1eafd" stroke="#8e6bd6" d="M678,-214.5C678,-214.5 879,-214.5 879,-214.5 885,-214.5 891,-220.5 891,-226.5 891,-226.5 891,-265.5 891,-265.5 891,-271.5 885,-277.5 879,-277.5 879,-277.5 678,-277.5 678,-277.5 672,-277.5 666,-271.5 666,-265.5 666,-265.5 666,-226.5 666,-226.5 666,-220.5 672,-214.5 678,-214.5"/>
<text text-anchor="middle" x="778.5" y="-263.9" font-family="Fira Mono" font-size="12.00">ptr: 0x5f660d70ea70</text>
<polyline fill="none" stroke="#8e6bd6" points="666,-256.5 891,-256.5 "/>
<text text-anchor="middle" x="778.5" y="-242.9" font-family="Fira Mono" font-size="12.00">val: sin</text>
<polyline fill="none" stroke="#8e6bd6" points="666,-235.5 891,-235.5 "/>
<text text-anchor="middle" x="742" y="-221.9" font-family="Fira Mono" font-size="12.00">prev: 0x5f660d70dad0</text>
<polyline fill="none" stroke="#8e6bd6" points="818,-214.5 818,-235.5 "/>
<text text-anchor="middle" x="854.5" y="-221.9" font-family="Fira Mono" font-size="12.00">next: (nil)</text>
</g>
<!-- node_0x5f660d70eda0&#45;&gt;node_0x5f660d70ea70 -->
<g id="edge9" class="edge">
<title>node_0x5f660d70eda0&#45;&gt;node_0x5f660d70ea70</title>
<path fill="none" stroke="#999999" d="M799.03,-321.35C796.09,-310.67 792.73,-298.53 789.6,-287.2"/>
<polygon fill="#999999" stroke="#999999" points="792.96,-286.22 786.93,-277.51 786.21,-288.08 792.96,-286.22"/>
</g>
<!-- node_0x5f660d70ead0 -->
<g id="node12" class="node">
<title>node_0x5f660d70ead0</title>
<path fill="#e8f9e5" stroke="#c9fbdb" d="M946.5,-214.5C946.5,-214.5 1068.5,-214.5 1068.5,-214.5 1074.5,-214.5 1080.5,-220.5 1080.5,-226.5 1080.5,-226.5 1080.5,-265.5 1080.5,-265.5 1080.5,-271.5 1074.5,-277.5 1068.5,-277.5 1068.5,-277.5 946.5,-277.5 946.5,-277.5 940.5,-277.5 934.5,-271.5 934.5,-265.5 934.5,-265.5 934.5,-226.5 934.5,-226.5 934.5,-220.5 940.5,-214.5 946.5,-214.5"/>
<text text-anchor="middle" x="1007.5" y="-263.9" font-family="Fira Mono" font-size="12.00">ptr: 0x5f660d70ead0</text>
<polyline fill="none" stroke="#c9fbdb" points="934.5,-256.5 1080.5,-256.5 "/>
<text text-anchor="middle" x="1007.5" y="-242.9" font-family="Fira Mono" font-size="12.00">val: 0</text>
<polyline fill="none" stroke="#c9fbdb" points="934.5,-235.5 1080.5,-235.5 "/>
<text text-anchor="middle" x="971" y="-221.9" font-family="Fira Mono" font-size="12.00">prev: (nil)</text>
<polyline fill="none" stroke="#c9fbdb" points="1007.5,-214.5 1007.5,-235.5 "/>
<text text-anchor="middle" x="1044" y="-221.9" font-family="Fira Mono" font-size="12.00">next: (nil)</text>
</g>
<!-- node_0x5f660d70eda0&#45;&gt;node_0x5f660d70ead0 -->
<g id="edge10" class="edge">
<title>node_0x5f660d70eda0&#45;&gt;node_0x5f660d70ead0</title>
<path fill="none" stroke="#999999" d="M865.62,-321.49C888.93,-309.25 915.96,-295.06 940.13,-282.37"/>
<polygon fill="#999999" stroke="#999999" points="942.01,-285.33 949.24,-277.59 938.76,-279.14 942.01,-285.33"/>
</g>
<!-- node_0x5f660d70dad0 -->
<g id="node11" class="node">
<title>node_0x5f660d70dad0</title>
<path fill="#e8f9e5" stroke="#c9fbdb" d="M717.5,-107.5C717.5,-107.5 839.5,-107.5 839.5,-107.5 845.5,-107.5 851.5,-113.5 851.5,-119.5 851.5,-119.5 851.5,-158.5 851.5,-158.5 851.5,-164.5 845.5,-170.5 839.5,-170.5 839.5,-170.5 717.5,-170.5 717.5,-170.5 711.5,-170.5 705.5,-164.5 705.5,-158.5 705.5,-158.5 705.5,-119.5 705.5,-119.5 705.5,-113.5 711.5,-107.5 717.5,-107.5"/>
<text text-anchor="middle" x="778.5" y="-156.9" font-family="Fira Mono" font-size="12.00">ptr: 0x5f660d70dad0</text>
<polyline fill="none" stroke="#c9fbdb" points="705.5,-149.5 851.5,-149.5 "/>
<text text-anchor="middle" x="778.5" y="-135.9" font-family="Fira Mono" font-size="12.00">val: x</text>
<polyline fill="none" stroke="#c9fbdb" points="705.5,-128.5 851.5,-128.5 "/>
<text text-anchor="middle" x="742" y="-114.9" font-family="Fira Mono" font-size="12.00">prev: (nil)</text>
<polyline fill="none" stroke="#c9fbdb" points="778.5,-107.5 778.5,-128.5 "/>
<text text-anchor="middle" x="815" y="-114.9" font-family="Fira Mono" font-size="12.00">next: (nil)</text>
</g>
<!-- node_0x5f660d70ea70&#45;&gt;node_0x5f660d70dad0 -->
<g id="edge11" class="edge">
<title>node_0x5f660d70ea70&#45;&gt;node_0x5f660d70dad0</title>
<path fill="none" stroke="#999999" d="M778.5,-214.35C778.5,-203.78 778.5,-191.78 778.5,-180.54"/>
<polygon fill="#999999" stroke="#999999" points="782,-180.51 778.5,-170.51 775,-180.51 782,-180.51"/>
</g>
</g>
</svg>
