<?xml version="1.0" encoding="UTF-8" standalone="no"?>
<!DOCTYPE svg PUBLIC "-//W3C//DTD SVG 1.1//EN"
 "http://www.w3.org/Graphics/SVG/1.1/DTD/svg11.dtd">
<!-- Generated by graphviz version 2.43.0 (0)
 -->
<!-- Title: G Pages: 1 -->
<svg width="1983pt" height="272pt"
 viewBox="0.00 0.00 1983.00 272.30" xmlns="http://www.w3.org/2000/svg" xmlns:xlink="http://www.w3.org/1999/xlink">
<g id="graph0" class="graph" transform="scale(1 1) rotate(0) translate(4 268.3)">
<title>G</title>
<polygon fill="white" stroke="transparent" points="-4,4 -4,-268.3 1979,-268.3 1979,4 -4,4"/>
<!-- node_0 -->
<g id="node1" class="node">
<title>node_0</title>
<path fill="#e9f2ff" stroke="#6b8fd6" stroke-width="2" d="M12,-175C12,-175 102,-175 102,-175 108,-175 114,-181 114,-187 114,-187 114,-223 114,-223 114,-229 108,-235 102,-235 102,-235 12,-235 12,-235 6,-235 0,-229 0,-223 0,-223 0,-187 0,-187 0,-181 6,-175 12,-175"/>
<text text-anchor="middle" x="57" y="-222.2" font-family="Fira Mono" font-size="11.00">ind: 0</text>
<polyline fill="none" stroke="#6b8fd6" stroke-width="2" points="0,-215 114,-215 "/>
<text text-anchor="middle" x="57" y="-202.2" font-family="Fira Mono" font-size="11.00">val: 3.73593e+09</text>
<polyline fill="none" stroke="#6b8fd6" stroke-width="2" points="0,-195 114,-195 "/>
<text text-anchor="middle" x="28" y="-182.2" font-family="Fira Mono" font-size="11.00">prev: 1</text>
<polyline fill="none" stroke="#6b8fd6" stroke-width="2" points="56,-175 56,-195 "/>
<text text-anchor="middle" x="85" y="-182.2" font-family="Fira Mono" font-size="11.00">next: 2</text>
</g>
<!-- node_1 -->
<g id="node2" class="node">
<title>node_1</title>
<path fill="#f1eafd" stroke="#8e6bd6" d="M180,-175C180,-175 267,-175 267,-175 273,-175 279,-181 279,-187 279,-187 279,-223 279,-223 279,-229 273,-235 267,-235 267,-235 180,-235 180,-235 174,-235 168,-229 168,-223 168,-223 168,-187 168,-187 168,-181 174,-175 180,-175"/>
<text text-anchor="middle" x="223.5" y="-222.2" font-family="Fira Mono" font-size="11.00">ind: 1 (TAIL)</text>
<polyline fill="none" stroke="#8e6bd6" points="168,-215 279,-215 "/>
<text text-anchor="middle" x="223.5" y="-202.2" font-family="Fira Mono" font-size="11.00">val: 15</text>
<polyline fill="none" stroke="#8e6bd6" points="168,-195 279,-195 "/>
<text text-anchor="middle" x="195.5" y="-182.2" font-family="Fira Mono" font-size="11.00">prev: 6</text>
<polyline fill="none" stroke="#8e6bd6" points="223,-175 223,-195 "/>
<text text-anchor="middle" x="251" y="-182.2" font-family="Fira Mono" font-size="11.00">next: 0</text>
</g>
<!-- node_0&#45;&gt;node_1 -->
<!-- node_2 -->
<g id="node3" class="node">
<title>node_2</title>
<path fill="#e9fbf5" stroke="#5aa99b" d="M345,-175C345,-175 432,-175 432,-175 438,-175 444,-181 444,-187 444,-187 444,-223 444,-223 444,-229 438,-235 432,-235 432,-235 345,-235 345,-235 339,-235 333,-229 333,-223 333,-223 333,-187 333,-187 333,-181 339,-175 345,-175"/>
<text text-anchor="middle" x="388.5" y="-222.2" font-family="Fira Mono" font-size="11.00">ind: 2 (HEAD)</text>
<polyline fill="none" stroke="#5aa99b" points="333,-215 444,-215 "/>
<text text-anchor="middle" x="388.5" y="-202.2" font-family="Fira Mono" font-size="11.00">val: 40</text>
<polyline fill="none" stroke="#5aa99b" points="333,-195 444,-195 "/>
<text text-anchor="middle" x="360.5" y="-182.2" font-family="Fira Mono" font-size="11.00">prev: 0</text>
<polyline fill="none" stroke="#5aa99b" points="388,-175 388,-195 "/>
<text text-anchor="middle" x="416" y="-182.2" font-family="Fira Mono" font-size="11.00">next: 3</text>
</g>
<!-- node_0&#45;&gt;node_2 -->
<g id="edge12" class="edge">
<title>node_0&#45;&gt;node_2</title>
<path fill="none" stroke="#999999" d="M104,-164.86C104,-164.86 104,-141.75 104,-141.75 104,-141.75 389,-141.75 389,-141.75 389,-141.75 389,-164.86 389,-164.86"/>
<polygon fill="#999999" stroke="#999999" points="100.5,-164.86 104,-174.86 107.5,-164.86 100.5,-164.86"/>
<polygon fill="#999999" stroke="#999999" points="385.5,-164.86 389,-174.86 392.5,-164.86 385.5,-164.86"/>
</g>
<!-- node_1&#45;&gt;node_0 -->
<g id="edge13" class="edge">
<title>node_1&#45;&gt;node_0</title>
<path fill="none" stroke="#999999" d="M157.59,-215.17C157.59,-215.17 124.18,-215.17 124.18,-215.17"/>
<polygon fill="#999999" stroke="#999999" points="124.18,-211.67 114.18,-215.17 124.18,-218.67 124.18,-211.67"/>
<polygon fill="#999999" stroke="#999999" points="157.59,-218.67 167.59,-215.17 157.59,-211.67 157.59,-218.67"/>
</g>
<!-- node_1&#45;&gt;node_2 -->
<!-- node_3 -->
<g id="node4" class="node">
<title>node_3</title>
<path fill="#fff3e0" stroke="#000000" d="M510,-175C510,-175 610,-175 610,-175 616,-175 622,-181 622,-187 622,-187 622,-223 622,-223 622,-229 616,-235 610,-235 610,-235 510,-235 510,-235 504,-235 498,-229 498,-223 498,-223 498,-187 498,-187 498,-181 504,-175 510,-175"/>
<text text-anchor="middle" x="560" y="-222.2" font-family="Fira Mono" font-size="11.00">ind: 3</text>
<polyline fill="none" stroke="#000000" points="498,-215 622,-215 "/>
<text text-anchor="middle" x="560" y="-202.2" font-family="Fira Mono" font-size="11.00">val: 2</text>
<polyline fill="none" stroke="#000000" points="498,-195 622,-195 "/>
<text text-anchor="middle" x="532" y="-182.2" font-family="Fira Mono" font-size="11.00">prev: 150</text>
<polyline fill="none" stroke="#000000" points="566,-175 566,-195 "/>
<text text-anchor="middle" x="594" y="-182.2" font-family="Fira Mono" font-size="11.00">next: 4</text>
</g>
<!-- node_2&#45;&gt;node_3 -->
<!-- node_2&#45;&gt;node_3 -->
<g id="edge14" class="edge">
<title>node_2&#45;&gt;node_3</title>
<path fill="none" stroke="#ff0000" stroke-width="2.2" d="M444.18,-215.17C444.18,-215.17 487.77,-215.17 487.77,-215.17"/>
<polygon fill="#ff0000" stroke="#ff0000" stroke-width="2.2" points="487.77,-218.67 497.77,-215.17 487.77,-211.67 487.77,-218.67"/>
</g>
<!-- node_4 -->
<g id="node5" class="node">
<title>node_4</title>
<path fill="#fff3e0" stroke="#000000" d="M688,-175C688,-175 775,-175 775,-175 781,-175 787,-181 787,-187 787,-187 787,-223 787,-223 787,-229 781,-235 775,-235 775,-235 688,-235 688,-235 682,-235 676,-229 676,-223 676,-223 676,-187 676,-187 676,-181 682,-175 688,-175"/>
<text text-anchor="middle" x="731.5" y="-222.2" font-family="Fira Mono" font-size="11.00">ind: 4</text>
<polyline fill="none" stroke="#000000" points="676,-215 787,-215 "/>
<text text-anchor="middle" x="731.5" y="-202.2" font-family="Fira Mono" font-size="11.00">val: 20</text>
<polyline fill="none" stroke="#000000" points="676,-195 787,-195 "/>
<text text-anchor="middle" x="703.5" y="-182.2" font-family="Fira Mono" font-size="11.00">prev: 3</text>
<polyline fill="none" stroke="#000000" points="731,-175 731,-195 "/>
<text text-anchor="middle" x="759" y="-182.2" font-family="Fira Mono" font-size="11.00">next: 7</text>
</g>
<!-- node_3&#45;&gt;node_4 -->
<!-- node_3&#45;&gt;node_4 -->
<g id="edge15" class="edge">
<title>node_3&#45;&gt;node_4</title>
<path fill="none" stroke="#999999" d="M632.4,-215.17C632.4,-215.17 665.96,-215.17 665.96,-215.17"/>
<polygon fill="#999999" stroke="#999999" points="665.96,-218.67 675.96,-215.17 665.96,-211.67 665.96,-218.67"/>
<polygon fill="#999999" stroke="#999999" points="632.4,-211.67 622.4,-215.17 632.4,-218.67 632.4,-211.67"/>
</g>
<!-- node_bad_p_3 -->
<g id="node13" class="node">
<title>node_bad_p_3</title>
<path fill="#ffecec" stroke="#d66d66" d="M576.5,-109C576.5,-109 543.5,-109 543.5,-109 537.5,-109 531.5,-103 531.5,-97 531.5,-97 531.5,-85 531.5,-85 531.5,-79 537.5,-73 543.5,-73 543.5,-73 576.5,-73 576.5,-73 582.5,-73 588.5,-79 588.5,-85 588.5,-85 588.5,-97 588.5,-97 588.5,-103 582.5,-109 576.5,-109"/>
<text text-anchor="middle" x="560" y="-94.2" font-family="Fira Mono" font-size="11.00">idx 150</text>
<text text-anchor="middle" x="560" y="-82.2" font-family="Fira Mono" font-size="11.00">(N/A)</text>
</g>
<!-- node_3&#45;&gt;node_bad_p_3 -->
<!-- node_5 -->
<g id="node6" class="node">
<title>node_5</title>
<path fill="#ffecec" stroke="#d66d66" d="M853,-175C853,-175 947,-175 947,-175 953,-175 959,-181 959,-187 959,-187 959,-223 959,-223 959,-229 953,-235 947,-235 947,-235 853,-235 853,-235 847,-235 841,-229 841,-223 841,-223 841,-187 841,-187 841,-181 847,-175 853,-175"/>
<text text-anchor="middle" x="900" y="-222.2" font-family="Fira Mono" font-size="11.00">ind: 5</text>
<polyline fill="none" stroke="#d66d66" points="841,-215 959,-215 "/>
<text text-anchor="middle" x="900" y="-202.2" font-family="Fira Mono" font-size="11.00">val: &#45;100</text>
<polyline fill="none" stroke="#d66d66" points="841,-195 959,-195 "/>
<text text-anchor="middle" x="870.5" y="-182.2" font-family="Fira Mono" font-size="11.00">prev: &#45;1</text>
<polyline fill="none" stroke="#d66d66" points="900,-175 900,-195 "/>
<text text-anchor="middle" x="929.5" y="-182.2" font-family="Fira Mono" font-size="11.00">next: &#45;1</text>
</g>
<!-- node_4&#45;&gt;node_5 -->
<!-- node_7 -->
<g id="node8" class="node">
<title>node_7</title>
<path fill="#fff3e0" stroke="#000000" d="M1197,-175C1197,-175 1284,-175 1284,-175 1290,-175 1296,-181 1296,-187 1296,-187 1296,-223 1296,-223 1296,-229 1290,-235 1284,-235 1284,-235 1197,-235 1197,-235 1191,-235 1185,-229 1185,-223 1185,-223 1185,-187 1185,-187 1185,-181 1191,-175 1197,-175"/>
<text text-anchor="middle" x="1240.5" y="-222.2" font-family="Fira Mono" font-size="11.00">ind: 7</text>
<polyline fill="none" stroke="#000000" points="1185,-215 1296,-215 "/>
<text text-anchor="middle" x="1240.5" y="-202.2" font-family="Fira Mono" font-size="11.00">val: 5</text>
<polyline fill="none" stroke="#000000" points="1185,-195 1296,-195 "/>
<text text-anchor="middle" x="1212.5" y="-182.2" font-family="Fira Mono" font-size="11.00">prev: 4</text>
<polyline fill="none" stroke="#000000" points="1240,-175 1240,-195 "/>
<text text-anchor="middle" x="1268" y="-182.2" font-family="Fira Mono" font-size="11.00">next: 8</text>
</g>
<!-- node_4&#45;&gt;node_7 -->
<g id="edge16" class="edge">
<title>node_4&#45;&gt;node_7</title>
<path fill="none" stroke="#999999" d="M732,-245C732,-245 732,-257.1 732,-257.1 732,-257.1 1241,-257.1 1241,-257.1 1241,-257.1 1241,-245 1241,-245"/>
<polygon fill="#999999" stroke="#999999" points="735.5,-245 732,-235 728.5,-245 735.5,-245"/>
<polygon fill="#999999" stroke="#999999" points="1244.5,-245 1241,-235 1237.5,-245 1244.5,-245"/>
</g>
<!-- node_6 -->
<g id="node7" class="node">
<title>node_6</title>
<path fill="#fff3e0" stroke="#000000" d="M1025,-175C1025,-175 1119,-175 1119,-175 1125,-175 1131,-181 1131,-187 1131,-187 1131,-223 1131,-223 1131,-229 1125,-235 1119,-235 1119,-235 1025,-235 1025,-235 1019,-235 1013,-229 1013,-223 1013,-223 1013,-187 1013,-187 1013,-181 1019,-175 1025,-175"/>
<text text-anchor="middle" x="1072" y="-222.2" font-family="Fira Mono" font-size="11.00">ind: 6</text>
<polyline fill="none" stroke="#000000" points="1013,-215 1131,-215 "/>
<text text-anchor="middle" x="1072" y="-202.2" font-family="Fira Mono" font-size="11.00">val: 22</text>
<polyline fill="none" stroke="#000000" points="1013,-195 1131,-195 "/>
<text text-anchor="middle" x="1044" y="-182.2" font-family="Fira Mono" font-size="11.00">prev: 11</text>
<polyline fill="none" stroke="#000000" points="1075,-175 1075,-195 "/>
<text text-anchor="middle" x="1103" y="-182.2" font-family="Fira Mono" font-size="11.00">next: 1</text>
</g>
<!-- node_5&#45;&gt;node_6 -->
<!-- node_6&#45;&gt;node_1 -->
<g id="edge17" class="edge">
<title>node_6&#45;&gt;node_1</title>
<path fill="none" stroke="#999999" d="M1053,-241.94C1053,-241.94 1053,-242.7 1053,-242.7 1053,-242.7 224,-242.7 224,-242.7 224,-242.7 224,-241.94 224,-241.94"/>
<polygon fill="#999999" stroke="#999999" points="1056.5,-245.07 1053,-235.07 1049.5,-245.07 1056.5,-245.07"/>
<polygon fill="#999999" stroke="#999999" points="227.5,-245.07 224,-235.07 220.5,-245.07 227.5,-245.07"/>
</g>
<!-- node_6&#45;&gt;node_7 -->
<!-- node_8 -->
<g id="node9" class="node">
<title>node_8</title>
<path fill="#fff3e0" stroke="#000000" d="M1362,-175C1362,-175 1449,-175 1449,-175 1455,-175 1461,-181 1461,-187 1461,-187 1461,-223 1461,-223 1461,-229 1455,-235 1449,-235 1449,-235 1362,-235 1362,-235 1356,-235 1350,-229 1350,-223 1350,-223 1350,-187 1350,-187 1350,-181 1356,-175 1362,-175"/>
<text text-anchor="middle" x="1405.5" y="-222.2" font-family="Fira Mono" font-size="11.00">ind: 8</text>
<polyline fill="none" stroke="#000000" points="1350,-215 1461,-215 "/>
<text text-anchor="middle" x="1405.5" y="-202.2" font-family="Fira Mono" font-size="11.00">val: 4</text>
<polyline fill="none" stroke="#000000" points="1350,-195 1461,-195 "/>
<text text-anchor="middle" x="1377.5" y="-182.2" font-family="Fira Mono" font-size="11.00">prev: 7</text>
<polyline fill="none" stroke="#000000" points="1405,-175 1405,-195 "/>
<text text-anchor="middle" x="1433" y="-182.2" font-family="Fira Mono" font-size="11.00">next: 5</text>
</g>
<!-- node_7&#45;&gt;node_8 -->
<!-- node_7&#45;&gt;node_8 -->
<g id="edge18" class="edge">
<title>node_7&#45;&gt;node_8</title>
<path fill="none" stroke="#999999" d="M1306.36,-215.17C1306.36,-215.17 1339.98,-215.17 1339.98,-215.17"/>
<polygon fill="#999999" stroke="#999999" points="1339.98,-218.67 1349.98,-215.17 1339.98,-211.67 1339.98,-218.67"/>
<polygon fill="#999999" stroke="#999999" points="1306.36,-211.67 1296.36,-215.17 1306.36,-218.67 1306.36,-211.67"/>
</g>
<!-- node_8&#45;&gt;node_5 -->
<g id="edge19" class="edge">
<title>node_8&#45;&gt;node_5</title>
<path fill="none" stroke="#ff0000" stroke-width="2.2" d="M1406,-235.34C1406,-249.93 1406,-264.3 1406,-264.3 1406,-264.3 900,-264.3 900,-264.3 900,-264.3 900,-245.34 900,-245.34"/>
<polygon fill="#ff0000" stroke="#ff0000" stroke-width="2.2" points="903.5,-245.34 900,-235.34 896.5,-245.34 903.5,-245.34"/>
</g>
<!-- node_9 -->
<g id="node10" class="node">
<title>node_9</title>
<path fill="#fff3e0" stroke="#000000" d="M1527,-175C1527,-175 1620,-175 1620,-175 1626,-175 1632,-181 1632,-187 1632,-187 1632,-223 1632,-223 1632,-229 1626,-235 1620,-235 1620,-235 1527,-235 1527,-235 1521,-235 1515,-229 1515,-223 1515,-223 1515,-187 1515,-187 1515,-181 1521,-175 1527,-175"/>
<text text-anchor="middle" x="1573.5" y="-222.2" font-family="Fira Mono" font-size="11.00">ind: 9</text>
<polyline fill="none" stroke="#000000" points="1515,-215 1632,-215 "/>
<text text-anchor="middle" x="1573.5" y="-202.2" font-family="Fira Mono" font-size="11.00">val: 5</text>
<polyline fill="none" stroke="#000000" points="1515,-195 1632,-195 "/>
<text text-anchor="middle" x="1542.5" y="-182.2" font-family="Fira Mono" font-size="11.00">prev: 8</text>
<polyline fill="none" stroke="#000000" points="1570,-175 1570,-195 "/>
<text text-anchor="middle" x="1601" y="-182.2" font-family="Fira Mono" font-size="11.00">next: 10</text>
</g>
<!-- node_8&#45;&gt;node_9 -->
<!-- node_8&#45;&gt;node_9 -->
<g id="edge25" class="edge">
<title>node_8&#45;&gt;node_9</title>
<path fill="none" stroke="#ff0000" stroke-width="2.2" d="M1461.44,-215.17C1461.44,-215.17 1504.93,-215.17 1504.93,-215.17"/>
<polygon fill="#ff0000" stroke="#ff0000" stroke-width="2.2" points="1504.93,-218.67 1514.93,-215.17 1504.93,-211.67 1504.93,-218.67"/>
</g>
<!-- node_10 -->
<g id="node11" class="node">
<title>node_10</title>
<path fill="#fff3e0" stroke="#000000" d="M1698,-175C1698,-175 1791,-175 1791,-175 1797,-175 1803,-181 1803,-187 1803,-187 1803,-223 1803,-223 1803,-229 1797,-235 1791,-235 1791,-235 1698,-235 1698,-235 1692,-235 1686,-229 1686,-223 1686,-223 1686,-187 1686,-187 1686,-181 1692,-175 1698,-175"/>
<text text-anchor="middle" x="1744.5" y="-222.2" font-family="Fira Mono" font-size="11.00">ind: 10</text>
<polyline fill="none" stroke="#000000" points="1686,-215 1803,-215 "/>
<text text-anchor="middle" x="1744.5" y="-202.2" font-family="Fira Mono" font-size="11.00">val: 4</text>
<polyline fill="none" stroke="#000000" points="1686,-195 1803,-195 "/>
<text text-anchor="middle" x="1713.5" y="-182.2" font-family="Fira Mono" font-size="11.00">prev: 9</text>
<polyline fill="none" stroke="#000000" points="1741,-175 1741,-195 "/>
<text text-anchor="middle" x="1772" y="-182.2" font-family="Fira Mono" font-size="11.00">next: 11</text>
</g>
<!-- node_9&#45;&gt;node_10 -->
<!-- node_9&#45;&gt;node_10 -->
<g id="edge20" class="edge">
<title>node_9&#45;&gt;node_10</title>
<path fill="none" stroke="#999999" d="M1642.35,-215.17C1642.35,-215.17 1675.83,-215.17 1675.83,-215.17"/>
<polygon fill="#999999" stroke="#999999" points="1675.83,-218.67 1685.83,-215.17 1675.83,-211.67 1675.83,-218.67"/>
<polygon fill="#999999" stroke="#999999" points="1642.35,-211.67 1632.35,-215.17 1642.35,-218.67 1642.35,-211.67"/>
</g>
<!-- node_11 -->
<g id="node12" class="node">
<title>node_11</title>
<path fill="#fff3e0" stroke="#000000" d="M1869,-175C1869,-175 1963,-175 1963,-175 1969,-175 1975,-181 1975,-187 1975,-187 1975,-223 1975,-223 1975,-229 1969,-235 1963,-235 1963,-235 1869,-235 1869,-235 1863,-235 1857,-229 1857,-223 1857,-223 1857,-187 1857,-187 1857,-181 1863,-175 1869,-175"/>
<text text-anchor="middle" x="1916" y="-222.2" font-family="Fira Mono" font-size="11.00">ind: 11</text>
<polyline fill="none" stroke="#000000" points="1857,-215 1975,-215 "/>
<text text-anchor="middle" x="1916" y="-202.2" font-family="Fira Mono" font-size="11.00">val: 3</text>
<polyline fill="none" stroke="#000000" points="1857,-195 1975,-195 "/>
<text text-anchor="middle" x="1888" y="-182.2" font-family="Fira Mono" font-size="11.00">prev: 10</text>
<polyline fill="none" stroke="#000000" points="1919,-175 1919,-195 "/>
<text text-anchor="middle" x="1947" y="-182.2" font-family="Fira Mono" font-size="11.00">next: 6</text>
</g>
<!-- node_10&#45;&gt;node_11 -->
<!-- node_10&#45;&gt;node_11 -->
<g id="edge21" class="edge">
<title>node_10&#45;&gt;node_11</title>
<path fill="none" stroke="#999999" d="M1813.04,-215.17C1813.04,-215.17 1846.85,-215.17 1846.85,-215.17"/>
<polygon fill="#999999" stroke="#999999" points="1846.85,-218.67 1856.85,-215.17 1846.85,-211.67 1846.85,-218.67"/>
<polygon fill="#999999" stroke="#999999" points="1813.04,-211.67 1803.04,-215.17 1813.04,-218.67 1813.04,-211.67"/>
</g>
<!-- node_11&#45;&gt;node_6 -->
<g id="edge22" class="edge">
<title>node_11&#45;&gt;node_6</title>
<path fill="none" stroke="#999999" d="M1916,-245.2C1916,-245.2 1916,-249.9 1916,-249.9 1916,-249.9 1092,-249.9 1092,-249.9 1092,-249.9 1092,-245.2 1092,-245.2"/>
<polygon fill="#999999" stroke="#999999" points="1919.5,-245.2 1916,-235.2 1912.5,-245.2 1919.5,-245.2"/>
<polygon fill="#999999" stroke="#999999" points="1095.5,-245.2 1092,-235.2 1088.5,-245.2 1095.5,-245.2"/>
</g>
<!-- node_bad_p_3&#45;&gt;node_3 -->
<g id="edge23" class="edge">
<title>node_bad_p_3&#45;&gt;node_3</title>
<path fill="none" stroke="#d66d66" stroke-width="2" d="M570,-109.06C570,-109.06 570,-164.59 570,-164.59"/>
<polygon fill="#d66d66" stroke="#d66d66" stroke-width="2" points="566.5,-164.59 570,-174.59 573.5,-164.59 566.5,-164.59"/>
</g>
<!-- node_free -->
<g id="node14" class="node">
<title>node_free</title>
<path fill="#ffecec" stroke="#d66d66" d="M80.5,-36C80.5,-36 33.5,-36 33.5,-36 27.5,-36 21.5,-30 21.5,-24 21.5,-24 21.5,-12 21.5,-12 21.5,-6 27.5,0 33.5,0 33.5,0 80.5,0 80.5,0 86.5,0 92.5,-6 92.5,-12 92.5,-12 92.5,-24 92.5,-24 92.5,-30 86.5,-36 80.5,-36"/>
<text text-anchor="middle" x="57" y="-15.2" font-family="Fira Mono" font-size="11.00">free_head</text>
</g>
<!-- node_free&#45;&gt;node_5 -->
<g id="edge26" class="edge">
<title>node_free&#45;&gt;node_5</title>
<path fill="none" stroke="#d88d88" stroke-dasharray="5,2" d="M92.68,-18C253.14,-18 900,-18 900,-18 900,-18 900,-164.96 900,-164.96"/>
<polygon fill="#d88d88" stroke="#d88d88" points="896.5,-164.96 900,-174.96 903.5,-164.96 896.5,-164.96"/>
</g>
</g>
</svg>
