<?xml version="1.0" encoding="UTF-8" standalone="no"?>
<!DOCTYPE svg PUBLIC "-//W3C//DTD SVG 1.1//EN"
 "http://www.w3.org/Graphics/SVG/1.1/DTD/svg11.dtd">
<!-- Generated by graphviz version 2.43.0 (0)
 -->
<!-- Title: G Pages: 1 -->
<svg width="3374pt" height="336pt"
 viewBox="0.00 0.00 3374.00 335.50" xmlns="http://www.w3.org/2000/svg" xmlns:xlink="http://www.w3.org/1999/xlink">
<g id="graph0" class="graph" transform="scale(1 1) rotate(0) translate(4 331.5)">
<title>G</title>
<polygon fill="white" stroke="transparent" points="-4,4 -4,-331.5 3370,-331.5 3370,4 -4,4"/>
<!-- node_0 -->
<g id="node1" class="node">
<title>node_0</title>
<path fill="#e9f2ff" stroke="#6b8fd6" stroke-width="2" d="M12,-240C12,-240 106,-240 106,-240 112,-240 118,-246 118,-252 118,-252 118,-288 118,-288 118,-294 112,-300 106,-300 106,-300 12,-300 12,-300 6,-300 0,-294 0,-288 0,-288 0,-252 0,-252 0,-246 6,-240 12,-240"/>
<text text-anchor="middle" x="59" y="-287.2" font-family="Fira Mono" font-size="11.00">ind: 0</text>
<polyline fill="none" stroke="#6b8fd6" stroke-width="2" points="0,-280 118,-280 "/>
<text text-anchor="middle" x="59" y="-267.2" font-family="Fira Mono" font-size="11.00">val: 10101</text>
<polyline fill="none" stroke="#6b8fd6" stroke-width="2" points="0,-260 118,-260 "/>
<text text-anchor="middle" x="31" y="-247.2" font-family="Fira Mono" font-size="11.00">prev: 10</text>
<polyline fill="none" stroke="#6b8fd6" stroke-width="2" points="62,-240 62,-260 "/>
<text text-anchor="middle" x="90" y="-247.2" font-family="Fira Mono" font-size="11.00">next: 1</text>
</g>
<!-- node_1 -->
<g id="node2" class="node">
<title>node_1</title>
<path fill="#e9fbf5" stroke="#5aa99b" d="M184,-240C184,-240 271,-240 271,-240 277,-240 283,-246 283,-252 283,-252 283,-288 283,-288 283,-294 277,-300 271,-300 271,-300 184,-300 184,-300 178,-300 172,-294 172,-288 172,-288 172,-252 172,-252 172,-246 178,-240 184,-240"/>
<text text-anchor="middle" x="227.5" y="-287.2" font-family="Fira Mono" font-size="11.00">ind: 1 (HEAD)</text>
<polyline fill="none" stroke="#5aa99b" points="172,-280 283,-280 "/>
<text text-anchor="middle" x="227.5" y="-267.2" font-family="Fira Mono" font-size="11.00">val: 10</text>
<polyline fill="none" stroke="#5aa99b" points="172,-260 283,-260 "/>
<text text-anchor="middle" x="199.5" y="-247.2" font-family="Fira Mono" font-size="11.00">prev: 0</text>
<polyline fill="none" stroke="#5aa99b" points="227,-240 227,-260 "/>
<text text-anchor="middle" x="255" y="-247.2" font-family="Fira Mono" font-size="11.00">next: 1</text>
</g>
<!-- node_0&#45;&gt;node_1 -->
<!-- node_0&#45;&gt;node_1 -->
<g id="edge28" class="edge">
<title>node_0&#45;&gt;node_1</title>
<path fill="none" stroke="#999999" d="M128.41,-270C128.41,-270 161.73,-270 161.73,-270"/>
<polygon fill="#999999" stroke="#999999" points="161.73,-273.5 171.73,-270 161.73,-266.5 161.73,-273.5"/>
<polygon fill="#999999" stroke="#999999" points="128.41,-266.5 118.41,-270 128.41,-273.5 128.41,-266.5"/>
</g>
<!-- node_1&#45;&gt;node_1 -->
<g id="edge29" class="edge">
<title>node_1&#45;&gt;node_1</title>
<path fill="none" stroke="#ff0000" stroke-width="2.2" d="M171.56,-285.25C156.84,-285.25 145,-285.25 145,-285.25 145,-285.25 145,-327.5 145,-327.5 145,-327.5 310,-327.5 310,-327.5 310,-327.5 310,-285.25 310,-285.25 310,-285.25 293.44,-285.25 293.44,-285.25"/>
<polygon fill="#ff0000" stroke="#ff0000" stroke-width="2.2" points="293.44,-281.75 283.44,-285.25 293.44,-288.75 293.44,-281.75"/>
</g>
<!-- node_2 -->
<g id="node3" class="node">
<title>node_2</title>
<path fill="#fff3e0" stroke="#000000" d="M349,-240C349,-240 436,-240 436,-240 442,-240 448,-246 448,-252 448,-252 448,-288 448,-288 448,-294 442,-300 436,-300 436,-300 349,-300 349,-300 343,-300 337,-294 337,-288 337,-288 337,-252 337,-252 337,-246 343,-240 349,-240"/>
<text text-anchor="middle" x="392.5" y="-287.2" font-family="Fira Mono" font-size="11.00">ind: 2</text>
<polyline fill="none" stroke="#000000" points="337,-280 448,-280 "/>
<text text-anchor="middle" x="392.5" y="-267.2" font-family="Fira Mono" font-size="11.00">val: 2</text>
<polyline fill="none" stroke="#000000" points="337,-260 448,-260 "/>
<text text-anchor="middle" x="364.5" y="-247.2" font-family="Fira Mono" font-size="11.00">prev: 1</text>
<polyline fill="none" stroke="#000000" points="392,-240 392,-260 "/>
<text text-anchor="middle" x="420" y="-247.2" font-family="Fira Mono" font-size="11.00">next: 3</text>
</g>
<!-- node_1&#45;&gt;node_2 -->
<!-- node_1&#45;&gt;node_2 -->
<g id="edge39" class="edge">
<title>node_1&#45;&gt;node_2</title>
<path fill="none" stroke="#ff0000" stroke-width="2.2" d="M283.36,-270C283.36,-270 326.98,-270 326.98,-270"/>
<polygon fill="#ff0000" stroke="#ff0000" stroke-width="2.2" points="326.98,-273.5 336.98,-270 326.98,-266.5 326.98,-273.5"/>
</g>
<!-- node_3 -->
<g id="node4" class="node">
<title>node_3</title>
<path fill="#fff3e0" stroke="#000000" d="M514,-240C514,-240 614,-240 614,-240 620,-240 626,-246 626,-252 626,-252 626,-288 626,-288 626,-294 620,-300 614,-300 614,-300 514,-300 514,-300 508,-300 502,-294 502,-288 502,-288 502,-252 502,-252 502,-246 508,-240 514,-240"/>
<text text-anchor="middle" x="564" y="-287.2" font-family="Fira Mono" font-size="11.00">ind: 3</text>
<polyline fill="none" stroke="#000000" points="502,-280 626,-280 "/>
<text text-anchor="middle" x="564" y="-267.2" font-family="Fira Mono" font-size="11.00">val: 20</text>
<polyline fill="none" stroke="#000000" points="502,-260 626,-260 "/>
<text text-anchor="middle" x="536" y="-247.2" font-family="Fira Mono" font-size="11.00">prev: 150</text>
<polyline fill="none" stroke="#000000" points="570,-240 570,-260 "/>
<text text-anchor="middle" x="598" y="-247.2" font-family="Fira Mono" font-size="11.00">next: 4</text>
</g>
<!-- node_2&#45;&gt;node_3 -->
<!-- node_2&#45;&gt;node_3 -->
<g id="edge30" class="edge">
<title>node_2&#45;&gt;node_3</title>
<path fill="none" stroke="#ff0000" stroke-width="2.2" d="M448.18,-280.17C448.18,-280.17 491.77,-280.17 491.77,-280.17"/>
<polygon fill="#ff0000" stroke="#ff0000" stroke-width="2.2" points="491.77,-283.67 501.77,-280.17 491.77,-276.67 491.77,-283.67"/>
</g>
<!-- node_4 -->
<g id="node5" class="node">
<title>node_4</title>
<path fill="#fff3e0" stroke="#000000" d="M692,-240C692,-240 779,-240 779,-240 785,-240 791,-246 791,-252 791,-252 791,-288 791,-288 791,-294 785,-300 779,-300 779,-300 692,-300 692,-300 686,-300 680,-294 680,-288 680,-288 680,-252 680,-252 680,-246 686,-240 692,-240"/>
<text text-anchor="middle" x="735.5" y="-287.2" font-family="Fira Mono" font-size="11.00">ind: 4</text>
<polyline fill="none" stroke="#000000" points="680,-280 791,-280 "/>
<text text-anchor="middle" x="735.5" y="-267.2" font-family="Fira Mono" font-size="11.00">val: 1</text>
<polyline fill="none" stroke="#000000" points="680,-260 791,-260 "/>
<text text-anchor="middle" x="707.5" y="-247.2" font-family="Fira Mono" font-size="11.00">prev: 3</text>
<polyline fill="none" stroke="#000000" points="735,-240 735,-260 "/>
<text text-anchor="middle" x="763" y="-247.2" font-family="Fira Mono" font-size="11.00">next: 5</text>
</g>
<!-- node_3&#45;&gt;node_4 -->
<!-- node_3&#45;&gt;node_4 -->
<g id="edge31" class="edge">
<title>node_3&#45;&gt;node_4</title>
<path fill="none" stroke="#999999" d="M636.4,-280.17C636.4,-280.17 669.96,-280.17 669.96,-280.17"/>
<polygon fill="#999999" stroke="#999999" points="669.96,-283.67 679.96,-280.17 669.96,-276.67 669.96,-283.67"/>
<polygon fill="#999999" stroke="#999999" points="636.4,-276.67 626.4,-280.17 636.4,-283.67 636.4,-276.67"/>
</g>
<!-- node_bad_p_3 -->
<g id="node21" class="node">
<title>node_bad_p_3</title>
<path fill="#d88d88" stroke="#d66d66" d="M580.5,-174C580.5,-174 547.5,-174 547.5,-174 541.5,-174 535.5,-168 535.5,-162 535.5,-162 535.5,-150 535.5,-150 535.5,-144 541.5,-138 547.5,-138 547.5,-138 580.5,-138 580.5,-138 586.5,-138 592.5,-144 592.5,-150 592.5,-150 592.5,-162 592.5,-162 592.5,-168 586.5,-174 580.5,-174"/>
<text text-anchor="middle" x="564" y="-159.2" font-family="Fira Mono" font-size="11.00">idx 150</text>
<text text-anchor="middle" x="564" y="-147.2" font-family="Fira Mono" font-size="11.00">(N/A)</text>
</g>
<!-- node_3&#45;&gt;node_bad_p_3 -->
<!-- node_5 -->
<g id="node6" class="node">
<title>node_5</title>
<path fill="#fff3e0" stroke="#000000" d="M857,-240C857,-240 944,-240 944,-240 950,-240 956,-246 956,-252 956,-252 956,-288 956,-288 956,-294 950,-300 944,-300 944,-300 857,-300 857,-300 851,-300 845,-294 845,-288 845,-288 845,-252 845,-252 845,-246 851,-240 857,-240"/>
<text text-anchor="middle" x="900.5" y="-287.2" font-family="Fira Mono" font-size="11.00">ind: 5</text>
<polyline fill="none" stroke="#000000" points="845,-280 956,-280 "/>
<text text-anchor="middle" x="900.5" y="-267.2" font-family="Fira Mono" font-size="11.00">val: 30</text>
<polyline fill="none" stroke="#000000" points="845,-260 956,-260 "/>
<text text-anchor="middle" x="872.5" y="-247.2" font-family="Fira Mono" font-size="11.00">prev: 4</text>
<polyline fill="none" stroke="#000000" points="900,-240 900,-260 "/>
<text text-anchor="middle" x="928" y="-247.2" font-family="Fira Mono" font-size="11.00">next: 6</text>
</g>
<!-- node_4&#45;&gt;node_5 -->
<!-- node_4&#45;&gt;node_5 -->
<g id="edge32" class="edge">
<title>node_4&#45;&gt;node_5</title>
<path fill="none" stroke="#999999" d="M801.36,-280.17C801.36,-280.17 834.98,-280.17 834.98,-280.17"/>
<polygon fill="#999999" stroke="#999999" points="834.98,-283.67 844.98,-280.17 834.98,-276.67 834.98,-283.67"/>
<polygon fill="#999999" stroke="#999999" points="801.36,-276.67 791.36,-280.17 801.36,-283.67 801.36,-276.67"/>
</g>
<!-- node_6 -->
<g id="node7" class="node">
<title>node_6</title>
<path fill="#fff3e0" stroke="#000000" d="M1022,-240C1022,-240 1116,-240 1116,-240 1122,-240 1128,-246 1128,-252 1128,-252 1128,-288 1128,-288 1128,-294 1122,-300 1116,-300 1116,-300 1022,-300 1022,-300 1016,-300 1010,-294 1010,-288 1010,-288 1010,-252 1010,-252 1010,-246 1016,-240 1022,-240"/>
<text text-anchor="middle" x="1069" y="-287.2" font-family="Fira Mono" font-size="11.00">ind: 6</text>
<polyline fill="none" stroke="#000000" points="1010,-280 1128,-280 "/>
<text text-anchor="middle" x="1069" y="-267.2" font-family="Fira Mono" font-size="11.00">val: 5</text>
<polyline fill="none" stroke="#000000" points="1010,-260 1128,-260 "/>
<text text-anchor="middle" x="1041" y="-247.2" font-family="Fira Mono" font-size="11.00">prev: 10</text>
<polyline fill="none" stroke="#000000" points="1072,-240 1072,-260 "/>
<text text-anchor="middle" x="1100" y="-247.2" font-family="Fira Mono" font-size="11.00">next: 4</text>
</g>
<!-- node_5&#45;&gt;node_6 -->
<!-- node_5&#45;&gt;node_6 -->
<g id="edge33" class="edge">
<title>node_5&#45;&gt;node_6</title>
<path fill="none" stroke="#ff0000" stroke-width="2.2" d="M956.14,-280.17C956.14,-280.17 999.94,-280.17 999.94,-280.17"/>
<polygon fill="#ff0000" stroke="#ff0000" stroke-width="2.2" points="999.94,-283.67 1009.94,-280.17 999.94,-276.67 999.94,-283.67"/>
</g>
<!-- node_6&#45;&gt;node_4 -->
<g id="edge34" class="edge">
<title>node_6&#45;&gt;node_4</title>
<path fill="none" stroke="#ff0000" stroke-width="2.2" d="M1050,-300.16C1050,-310.03 1050,-318.5 1050,-318.5 1050,-318.5 736,-318.5 736,-318.5 736,-318.5 736,-310.16 736,-310.16"/>
<polygon fill="#ff0000" stroke="#ff0000" stroke-width="2.2" points="739.5,-310.16 736,-300.16 732.5,-310.16 739.5,-310.16"/>
</g>
<!-- node_7 -->
<g id="node8" class="node">
<title>node_7</title>
<path fill="#fff3e0" stroke="#000000" d="M1194,-240C1194,-240 1281,-240 1281,-240 1287,-240 1293,-246 1293,-252 1293,-252 1293,-288 1293,-288 1293,-294 1287,-300 1281,-300 1281,-300 1194,-300 1194,-300 1188,-300 1182,-294 1182,-288 1182,-288 1182,-252 1182,-252 1182,-246 1188,-240 1194,-240"/>
<text text-anchor="middle" x="1237.5" y="-287.2" font-family="Fira Mono" font-size="11.00">ind: 7</text>
<polyline fill="none" stroke="#000000" points="1182,-280 1293,-280 "/>
<text text-anchor="middle" x="1237.5" y="-267.2" font-family="Fira Mono" font-size="11.00">val: 4</text>
<polyline fill="none" stroke="#000000" points="1182,-260 1293,-260 "/>
<text text-anchor="middle" x="1209.5" y="-247.2" font-family="Fira Mono" font-size="11.00">prev: 6</text>
<polyline fill="none" stroke="#000000" points="1237,-240 1237,-260 "/>
<text text-anchor="middle" x="1265" y="-247.2" font-family="Fira Mono" font-size="11.00">next: 8</text>
</g>
<!-- node_6&#45;&gt;node_7 -->
<!-- node_6&#45;&gt;node_7 -->
<g id="edge43" class="edge">
<title>node_6&#45;&gt;node_7</title>
<path fill="none" stroke="#ff0000" stroke-width="2.2" d="M1128.41,-280.17C1128.41,-280.17 1171.73,-280.17 1171.73,-280.17"/>
<polygon fill="#ff0000" stroke="#ff0000" stroke-width="2.2" points="1171.73,-283.67 1181.73,-280.17 1171.73,-276.67 1171.73,-283.67"/>
</g>
<!-- node_8 -->
<g id="node9" class="node">
<title>node_8</title>
<path fill="#fff3e0" stroke="#000000" d="M1359,-240C1359,-240 1446,-240 1446,-240 1452,-240 1458,-246 1458,-252 1458,-252 1458,-288 1458,-288 1458,-294 1452,-300 1446,-300 1446,-300 1359,-300 1359,-300 1353,-300 1347,-294 1347,-288 1347,-288 1347,-252 1347,-252 1347,-246 1353,-240 1359,-240"/>
<text text-anchor="middle" x="1402.5" y="-287.2" font-family="Fira Mono" font-size="11.00">ind: 8</text>
<polyline fill="none" stroke="#000000" points="1347,-280 1458,-280 "/>
<text text-anchor="middle" x="1402.5" y="-267.2" font-family="Fira Mono" font-size="11.00">val: 5</text>
<polyline fill="none" stroke="#000000" points="1347,-260 1458,-260 "/>
<text text-anchor="middle" x="1374.5" y="-247.2" font-family="Fira Mono" font-size="11.00">prev: 7</text>
<polyline fill="none" stroke="#000000" points="1402,-240 1402,-260 "/>
<text text-anchor="middle" x="1430" y="-247.2" font-family="Fira Mono" font-size="11.00">next: 9</text>
</g>
<!-- node_7&#45;&gt;node_8 -->
<!-- node_7&#45;&gt;node_8 -->
<g id="edge35" class="edge">
<title>node_7&#45;&gt;node_8</title>
<path fill="none" stroke="#999999" d="M1303.36,-280.17C1303.36,-280.17 1336.98,-280.17 1336.98,-280.17"/>
<polygon fill="#999999" stroke="#999999" points="1336.98,-283.67 1346.98,-280.17 1336.98,-276.67 1336.98,-283.67"/>
<polygon fill="#999999" stroke="#999999" points="1303.36,-276.67 1293.36,-280.17 1303.36,-283.67 1303.36,-276.67"/>
</g>
<!-- node_9 -->
<g id="node10" class="node">
<title>node_9</title>
<path fill="#fff3e0" stroke="#000000" d="M1524,-240C1524,-240 1617,-240 1617,-240 1623,-240 1629,-246 1629,-252 1629,-252 1629,-288 1629,-288 1629,-294 1623,-300 1617,-300 1617,-300 1524,-300 1524,-300 1518,-300 1512,-294 1512,-288 1512,-288 1512,-252 1512,-252 1512,-246 1518,-240 1524,-240"/>
<text text-anchor="middle" x="1570.5" y="-287.2" font-family="Fira Mono" font-size="11.00">ind: 9</text>
<polyline fill="none" stroke="#000000" points="1512,-280 1629,-280 "/>
<text text-anchor="middle" x="1570.5" y="-267.2" font-family="Fira Mono" font-size="11.00">val: 4</text>
<polyline fill="none" stroke="#000000" points="1512,-260 1629,-260 "/>
<text text-anchor="middle" x="1539.5" y="-247.2" font-family="Fira Mono" font-size="11.00">prev: 8</text>
<polyline fill="none" stroke="#000000" points="1567,-240 1567,-260 "/>
<text text-anchor="middle" x="1598" y="-247.2" font-family="Fira Mono" font-size="11.00">next: 10</text>
</g>
<!-- node_8&#45;&gt;node_9 -->
<!-- node_8&#45;&gt;node_9 -->
<g id="edge36" class="edge">
<title>node_8&#45;&gt;node_9</title>
<path fill="none" stroke="#999999" d="M1468.44,-280.17C1468.44,-280.17 1501.93,-280.17 1501.93,-280.17"/>
<polygon fill="#999999" stroke="#999999" points="1501.93,-283.67 1511.93,-280.17 1501.93,-276.67 1501.93,-283.67"/>
<polygon fill="#999999" stroke="#999999" points="1468.44,-276.67 1458.44,-280.17 1468.44,-283.67 1468.44,-276.67"/>
</g>
<!-- node_10 -->
<g id="node11" class="node">
<title>node_10</title>
<path fill="#f1eafd" stroke="#8e6bd6" d="M1695,-240C1695,-240 1782,-240 1782,-240 1788,-240 1794,-246 1794,-252 1794,-252 1794,-288 1794,-288 1794,-294 1788,-300 1782,-300 1782,-300 1695,-300 1695,-300 1689,-300 1683,-294 1683,-288 1683,-288 1683,-252 1683,-252 1683,-246 1689,-240 1695,-240"/>
<text text-anchor="middle" x="1738.5" y="-287.2" font-family="Fira Mono" font-size="11.00">ind: 10 (TAIL)</text>
<polyline fill="none" stroke="#8e6bd6" points="1683,-280 1794,-280 "/>
<text text-anchor="middle" x="1738.5" y="-267.2" font-family="Fira Mono" font-size="11.00">val: 3</text>
<polyline fill="none" stroke="#8e6bd6" points="1683,-260 1794,-260 "/>
<text text-anchor="middle" x="1710.5" y="-247.2" font-family="Fira Mono" font-size="11.00">prev: 9</text>
<polyline fill="none" stroke="#8e6bd6" points="1738,-240 1738,-260 "/>
<text text-anchor="middle" x="1766" y="-247.2" font-family="Fira Mono" font-size="11.00">next: 0</text>
</g>
<!-- node_9&#45;&gt;node_10 -->
<!-- node_9&#45;&gt;node_10 -->
<g id="edge37" class="edge">
<title>node_9&#45;&gt;node_10</title>
<path fill="none" stroke="#999999" d="M1639.26,-280.17C1639.26,-280.17 1672.88,-280.17 1672.88,-280.17"/>
<polygon fill="#999999" stroke="#999999" points="1672.88,-283.67 1682.88,-280.17 1672.88,-276.67 1672.88,-283.67"/>
<polygon fill="#999999" stroke="#999999" points="1639.26,-276.67 1629.26,-280.17 1639.26,-283.67 1639.26,-276.67"/>
</g>
<!-- node_10&#45;&gt;node_0 -->
<g id="edge38" class="edge">
<title>node_10&#45;&gt;node_0</title>
<path fill="none" stroke="#999999" d="M1739,-229.86C1739,-229.86 1739,-206.75 1739,-206.75 1739,-206.75 107,-206.75 107,-206.75 107,-206.75 107,-229.86 107,-229.86"/>
<polygon fill="#999999" stroke="#999999" points="1735.5,-229.86 1739,-239.86 1742.5,-229.86 1735.5,-229.86"/>
<polygon fill="#999999" stroke="#999999" points="103.5,-229.86 107,-239.86 110.5,-229.86 103.5,-229.86"/>
</g>
<!-- node_10&#45;&gt;node_6 -->
<g id="edge42" class="edge">
<title>node_10&#45;&gt;node_6</title>
<path fill="none" stroke="#ff0000" stroke-width="2.2" d="M1739,-300.34C1739,-305.64 1739,-309.5 1739,-309.5 1739,-309.5 1089,-309.5 1089,-309.5 1089,-309.5 1089,-308.58 1089,-308.58"/>
<polygon fill="#ff0000" stroke="#ff0000" stroke-width="2.2" points="1092.5,-310.34 1089,-300.34 1085.5,-310.34 1092.5,-310.34"/>
</g>
<!-- node_11 -->
<g id="node12" class="node">
<title>node_11</title>
<path fill="#ffecec" stroke="#d66d66" d="M1860,-240C1860,-240 1957,-240 1957,-240 1963,-240 1969,-246 1969,-252 1969,-252 1969,-288 1969,-288 1969,-294 1963,-300 1957,-300 1957,-300 1860,-300 1860,-300 1854,-300 1848,-294 1848,-288 1848,-288 1848,-252 1848,-252 1848,-246 1854,-240 1860,-240"/>
<text text-anchor="middle" x="1908.5" y="-287.2" font-family="Fira Mono" font-size="11.00">ind: 11</text>
<polyline fill="none" stroke="#d66d66" points="1848,-280 1969,-280 "/>
<text text-anchor="middle" x="1908.5" y="-267.2" font-family="Fira Mono" font-size="11.00">val: &#45;100</text>
<polyline fill="none" stroke="#d66d66" points="1848,-260 1969,-260 "/>
<text text-anchor="middle" x="1877.5" y="-247.2" font-family="Fira Mono" font-size="11.00">prev: &#45;1</text>
<polyline fill="none" stroke="#d66d66" points="1907,-240 1907,-260 "/>
<text text-anchor="middle" x="1938" y="-247.2" font-family="Fira Mono" font-size="11.00">next: 12</text>
</g>
<!-- node_10&#45;&gt;node_11 -->
<!-- node_12 -->
<g id="node13" class="node">
<title>node_12</title>
<path fill="#ffecec" stroke="#d66d66" d="M2035,-240C2035,-240 2132,-240 2132,-240 2138,-240 2144,-246 2144,-252 2144,-252 2144,-288 2144,-288 2144,-294 2138,-300 2132,-300 2132,-300 2035,-300 2035,-300 2029,-300 2023,-294 2023,-288 2023,-288 2023,-252 2023,-252 2023,-246 2029,-240 2035,-240"/>
<text text-anchor="middle" x="2083.5" y="-287.2" font-family="Fira Mono" font-size="11.00">ind: 12</text>
<polyline fill="none" stroke="#d66d66" points="2023,-280 2144,-280 "/>
<text text-anchor="middle" x="2083.5" y="-267.2" font-family="Fira Mono" font-size="11.00">val: &#45;100</text>
<polyline fill="none" stroke="#d66d66" points="2023,-260 2144,-260 "/>
<text text-anchor="middle" x="2052.5" y="-247.2" font-family="Fira Mono" font-size="11.00">prev: &#45;1</text>
<polyline fill="none" stroke="#d66d66" points="2082,-240 2082,-260 "/>
<text text-anchor="middle" x="2113" y="-247.2" font-family="Fira Mono" font-size="11.00">next: 13</text>
</g>
<!-- node_11&#45;&gt;node_12 -->
<!-- node_11&#45;&gt;node_12 -->
<g id="edge20" class="edge">
<title>node_11&#45;&gt;node_12</title>
<path fill="none" stroke="#d88d88" stroke-dasharray="5,2" d="M1969.22,-280.17C1969.22,-280.17 2012.89,-280.17 2012.89,-280.17"/>
<polygon fill="#d88d88" stroke="#d88d88" points="2012.89,-283.67 2022.89,-280.17 2012.89,-276.67 2012.89,-283.67"/>
</g>
<!-- node_13 -->
<g id="node14" class="node">
<title>node_13</title>
<path fill="#ffecec" stroke="#d66d66" d="M2210,-240C2210,-240 2307,-240 2307,-240 2313,-240 2319,-246 2319,-252 2319,-252 2319,-288 2319,-288 2319,-294 2313,-300 2307,-300 2307,-300 2210,-300 2210,-300 2204,-300 2198,-294 2198,-288 2198,-288 2198,-252 2198,-252 2198,-246 2204,-240 2210,-240"/>
<text text-anchor="middle" x="2258.5" y="-287.2" font-family="Fira Mono" font-size="11.00">ind: 13</text>
<polyline fill="none" stroke="#d66d66" points="2198,-280 2319,-280 "/>
<text text-anchor="middle" x="2258.5" y="-267.2" font-family="Fira Mono" font-size="11.00">val: &#45;100</text>
<polyline fill="none" stroke="#d66d66" points="2198,-260 2319,-260 "/>
<text text-anchor="middle" x="2227.5" y="-247.2" font-family="Fira Mono" font-size="11.00">prev: &#45;1</text>
<polyline fill="none" stroke="#d66d66" points="2257,-240 2257,-260 "/>
<text text-anchor="middle" x="2288" y="-247.2" font-family="Fira Mono" font-size="11.00">next: 14</text>
</g>
<!-- node_12&#45;&gt;node_13 -->
<!-- node_12&#45;&gt;node_13 -->
<g id="edge21" class="edge">
<title>node_12&#45;&gt;node_13</title>
<path fill="none" stroke="#d88d88" stroke-dasharray="5,2" d="M2144.22,-280.17C2144.22,-280.17 2187.89,-280.17 2187.89,-280.17"/>
<polygon fill="#d88d88" stroke="#d88d88" points="2187.89,-283.67 2197.89,-280.17 2187.89,-276.67 2187.89,-283.67"/>
</g>
<!-- node_14 -->
<g id="node15" class="node">
<title>node_14</title>
<path fill="#ffecec" stroke="#d66d66" d="M2385,-240C2385,-240 2482,-240 2482,-240 2488,-240 2494,-246 2494,-252 2494,-252 2494,-288 2494,-288 2494,-294 2488,-300 2482,-300 2482,-300 2385,-300 2385,-300 2379,-300 2373,-294 2373,-288 2373,-288 2373,-252 2373,-252 2373,-246 2379,-240 2385,-240"/>
<text text-anchor="middle" x="2433.5" y="-287.2" font-family="Fira Mono" font-size="11.00">ind: 14</text>
<polyline fill="none" stroke="#d66d66" points="2373,-280 2494,-280 "/>
<text text-anchor="middle" x="2433.5" y="-267.2" font-family="Fira Mono" font-size="11.00">val: &#45;100</text>
<polyline fill="none" stroke="#d66d66" points="2373,-260 2494,-260 "/>
<text text-anchor="middle" x="2402.5" y="-247.2" font-family="Fira Mono" font-size="11.00">prev: &#45;1</text>
<polyline fill="none" stroke="#d66d66" points="2432,-240 2432,-260 "/>
<text text-anchor="middle" x="2463" y="-247.2" font-family="Fira Mono" font-size="11.00">next: 15</text>
</g>
<!-- node_13&#45;&gt;node_14 -->
<!-- node_13&#45;&gt;node_14 -->
<g id="edge22" class="edge">
<title>node_13&#45;&gt;node_14</title>
<path fill="none" stroke="#d88d88" stroke-dasharray="5,2" d="M2319.22,-280.17C2319.22,-280.17 2362.89,-280.17 2362.89,-280.17"/>
<polygon fill="#d88d88" stroke="#d88d88" points="2362.89,-283.67 2372.89,-280.17 2362.89,-276.67 2362.89,-283.67"/>
</g>
<!-- node_15 -->
<g id="node16" class="node">
<title>node_15</title>
<path fill="#ffecec" stroke="#d66d66" d="M2560,-240C2560,-240 2657,-240 2657,-240 2663,-240 2669,-246 2669,-252 2669,-252 2669,-288 2669,-288 2669,-294 2663,-300 2657,-300 2657,-300 2560,-300 2560,-300 2554,-300 2548,-294 2548,-288 2548,-288 2548,-252 2548,-252 2548,-246 2554,-240 2560,-240"/>
<text text-anchor="middle" x="2608.5" y="-287.2" font-family="Fira Mono" font-size="11.00">ind: 15</text>
<polyline fill="none" stroke="#d66d66" points="2548,-280 2669,-280 "/>
<text text-anchor="middle" x="2608.5" y="-267.2" font-family="Fira Mono" font-size="11.00">val: &#45;100</text>
<polyline fill="none" stroke="#d66d66" points="2548,-260 2669,-260 "/>
<text text-anchor="middle" x="2577.5" y="-247.2" font-family="Fira Mono" font-size="11.00">prev: &#45;1</text>
<polyline fill="none" stroke="#d66d66" points="2607,-240 2607,-260 "/>
<text text-anchor="middle" x="2638" y="-247.2" font-family="Fira Mono" font-size="11.00">next: 16</text>
</g>
<!-- node_14&#45;&gt;node_15 -->
<!-- node_14&#45;&gt;node_15 -->
<g id="edge23" class="edge">
<title>node_14&#45;&gt;node_15</title>
<path fill="none" stroke="#d88d88" stroke-dasharray="5,2" d="M2494.22,-280.17C2494.22,-280.17 2537.89,-280.17 2537.89,-280.17"/>
<polygon fill="#d88d88" stroke="#d88d88" points="2537.89,-283.67 2547.89,-280.17 2537.89,-276.67 2537.89,-283.67"/>
</g>
<!-- node_16 -->
<g id="node17" class="node">
<title>node_16</title>
<path fill="#ffecec" stroke="#d66d66" d="M2735,-240C2735,-240 2832,-240 2832,-240 2838,-240 2844,-246 2844,-252 2844,-252 2844,-288 2844,-288 2844,-294 2838,-300 2832,-300 2832,-300 2735,-300 2735,-300 2729,-300 2723,-294 2723,-288 2723,-288 2723,-252 2723,-252 2723,-246 2729,-240 2735,-240"/>
<text text-anchor="middle" x="2783.5" y="-287.2" font-family="Fira Mono" font-size="11.00">ind: 16</text>
<polyline fill="none" stroke="#d66d66" points="2723,-280 2844,-280 "/>
<text text-anchor="middle" x="2783.5" y="-267.2" font-family="Fira Mono" font-size="11.00">val: &#45;100</text>
<polyline fill="none" stroke="#d66d66" points="2723,-260 2844,-260 "/>
<text text-anchor="middle" x="2752.5" y="-247.2" font-family="Fira Mono" font-size="11.00">prev: &#45;1</text>
<polyline fill="none" stroke="#d66d66" points="2782,-240 2782,-260 "/>
<text text-anchor="middle" x="2813" y="-247.2" font-family="Fira Mono" font-size="11.00">next: 17</text>
</g>
<!-- node_15&#45;&gt;node_16 -->
<!-- node_15&#45;&gt;node_16 -->
<g id="edge24" class="edge">
<title>node_15&#45;&gt;node_16</title>
<path fill="none" stroke="#d88d88" stroke-dasharray="5,2" d="M2669.22,-280.17C2669.22,-280.17 2712.89,-280.17 2712.89,-280.17"/>
<polygon fill="#d88d88" stroke="#d88d88" points="2712.89,-283.67 2722.89,-280.17 2712.89,-276.67 2712.89,-283.67"/>
</g>
<!-- node_17 -->
<g id="node18" class="node">
<title>node_17</title>
<path fill="#ffecec" stroke="#d66d66" d="M2910,-240C2910,-240 3007,-240 3007,-240 3013,-240 3019,-246 3019,-252 3019,-252 3019,-288 3019,-288 3019,-294 3013,-300 3007,-300 3007,-300 2910,-300 2910,-300 2904,-300 2898,-294 2898,-288 2898,-288 2898,-252 2898,-252 2898,-246 2904,-240 2910,-240"/>
<text text-anchor="middle" x="2958.5" y="-287.2" font-family="Fira Mono" font-size="11.00">ind: 17</text>
<polyline fill="none" stroke="#d66d66" points="2898,-280 3019,-280 "/>
<text text-anchor="middle" x="2958.5" y="-267.2" font-family="Fira Mono" font-size="11.00">val: &#45;100</text>
<polyline fill="none" stroke="#d66d66" points="2898,-260 3019,-260 "/>
<text text-anchor="middle" x="2927.5" y="-247.2" font-family="Fira Mono" font-size="11.00">prev: &#45;1</text>
<polyline fill="none" stroke="#d66d66" points="2957,-240 2957,-260 "/>
<text text-anchor="middle" x="2988" y="-247.2" font-family="Fira Mono" font-size="11.00">next: 18</text>
</g>
<!-- node_16&#45;&gt;node_17 -->
<!-- node_16&#45;&gt;node_17 -->
<g id="edge25" class="edge">
<title>node_16&#45;&gt;node_17</title>
<path fill="none" stroke="#d88d88" stroke-dasharray="5,2" d="M2844.22,-280.17C2844.22,-280.17 2887.89,-280.17 2887.89,-280.17"/>
<polygon fill="#d88d88" stroke="#d88d88" points="2887.89,-283.67 2897.89,-280.17 2887.89,-276.67 2887.89,-283.67"/>
</g>
<!-- node_18 -->
<g id="node19" class="node">
<title>node_18</title>
<path fill="#ffecec" stroke="#d66d66" d="M3085,-240C3085,-240 3182,-240 3182,-240 3188,-240 3194,-246 3194,-252 3194,-252 3194,-288 3194,-288 3194,-294 3188,-300 3182,-300 3182,-300 3085,-300 3085,-300 3079,-300 3073,-294 3073,-288 3073,-288 3073,-252 3073,-252 3073,-246 3079,-240 3085,-240"/>
<text text-anchor="middle" x="3133.5" y="-287.2" font-family="Fira Mono" font-size="11.00">ind: 18</text>
<polyline fill="none" stroke="#d66d66" points="3073,-280 3194,-280 "/>
<text text-anchor="middle" x="3133.5" y="-267.2" font-family="Fira Mono" font-size="11.00">val: &#45;100</text>
<polyline fill="none" stroke="#d66d66" points="3073,-260 3194,-260 "/>
<text text-anchor="middle" x="3102.5" y="-247.2" font-family="Fira Mono" font-size="11.00">prev: &#45;1</text>
<polyline fill="none" stroke="#d66d66" points="3132,-240 3132,-260 "/>
<text text-anchor="middle" x="3163" y="-247.2" font-family="Fira Mono" font-size="11.00">next: 19</text>
</g>
<!-- node_17&#45;&gt;node_18 -->
<!-- node_17&#45;&gt;node_18 -->
<g id="edge26" class="edge">
<title>node_17&#45;&gt;node_18</title>
<path fill="none" stroke="#d88d88" stroke-dasharray="5,2" d="M3019.22,-280.17C3019.22,-280.17 3062.89,-280.17 3062.89,-280.17"/>
<polygon fill="#d88d88" stroke="#d88d88" points="3062.89,-283.67 3072.89,-280.17 3062.89,-276.67 3062.89,-283.67"/>
</g>
<!-- node_19 -->
<g id="node20" class="node">
<title>node_19</title>
<path fill="#ffecec" stroke="#d66d66" d="M3260,-240C3260,-240 3354,-240 3354,-240 3360,-240 3366,-246 3366,-252 3366,-252 3366,-288 3366,-288 3366,-294 3360,-300 3354,-300 3354,-300 3260,-300 3260,-300 3254,-300 3248,-294 3248,-288 3248,-288 3248,-252 3248,-252 3248,-246 3254,-240 3260,-240"/>
<text text-anchor="middle" x="3307" y="-287.2" font-family="Fira Mono" font-size="11.00">ind: 19</text>
<polyline fill="none" stroke="#d66d66" points="3248,-280 3366,-280 "/>
<text text-anchor="middle" x="3307" y="-267.2" font-family="Fira Mono" font-size="11.00">val: &#45;100</text>
<polyline fill="none" stroke="#d66d66" points="3248,-260 3366,-260 "/>
<text text-anchor="middle" x="3277.5" y="-247.2" font-family="Fira Mono" font-size="11.00">prev: &#45;1</text>
<polyline fill="none" stroke="#d66d66" points="3307,-240 3307,-260 "/>
<text text-anchor="middle" x="3336.5" y="-247.2" font-family="Fira Mono" font-size="11.00">next: &#45;1</text>
</g>
<!-- node_18&#45;&gt;node_19 -->
<!-- node_18&#45;&gt;node_19 -->
<g id="edge27" class="edge">
<title>node_18&#45;&gt;node_19</title>
<path fill="none" stroke="#d88d88" stroke-dasharray="5,2" d="M3194.18,-280.17C3194.18,-280.17 3237.81,-280.17 3237.81,-280.17"/>
<polygon fill="#d88d88" stroke="#d88d88" points="3237.81,-283.67 3247.81,-280.17 3237.81,-276.67 3237.81,-283.67"/>
</g>
<!-- node_bad_p_3&#45;&gt;node_3 -->
<g id="edge40" class="edge">
<title>node_bad_p_3&#45;&gt;node_3</title>
<path fill="none" stroke="#ffecec" stroke-width="2" d="M574,-174.06C574,-174.06 574,-229.59 574,-229.59"/>
<polygon fill="#ffecec" stroke="#ffecec" stroke-width="2" points="570.5,-229.59 574,-239.59 577.5,-229.59 570.5,-229.59"/>
</g>
<!-- node_free -->
<g id="node22" class="node">
<title>node_free</title>
<path fill="#ffecec" stroke="#d66d66" d="M82.5,-36C82.5,-36 35.5,-36 35.5,-36 29.5,-36 23.5,-30 23.5,-24 23.5,-24 23.5,-12 23.5,-12 23.5,-6 29.5,0 35.5,0 35.5,0 82.5,0 82.5,0 88.5,0 94.5,-6 94.5,-12 94.5,-12 94.5,-24 94.5,-24 94.5,-30 88.5,-36 82.5,-36"/>
<text text-anchor="middle" x="59" y="-15.2" font-family="Fira Mono" font-size="11.00">free_head</text>
</g>
<!-- node_free&#45;&gt;node_11 -->
<g id="edge44" class="edge">
<title>node_free&#45;&gt;node_11</title>
<path fill="none" stroke="#d88d88" stroke-dasharray="5,2" d="M94.71,-18C351.72,-18 1909,-18 1909,-18 1909,-18 1909,-229.6 1909,-229.6"/>
<polygon fill="#d88d88" stroke="#d88d88" points="1905.5,-229.6 1909,-239.6 1912.5,-229.6 1905.5,-229.6"/>
</g>
</g>
</svg>
