<?xml version="1.0" encoding="UTF-8" standalone="no"?>
<!DOCTYPE svg PUBLIC "-//W3C//DTD SVG 1.1//EN"
 "http://www.w3.org/Graphics/SVG/1.1/DTD/svg11.dtd">
<!-- Generated by graphviz version 2.43.0 (0)
 -->
<!-- Title: G Pages: 1 -->
<svg width="3361pt" height="337pt"
 viewBox="0.00 0.00 3361.00 337.30" xmlns="http://www.w3.org/2000/svg" xmlns:xlink="http://www.w3.org/1999/xlink">
<g id="graph0" class="graph" transform="scale(1 1) rotate(0) translate(4 333.3)">
<title>G</title>
<polygon fill="white" stroke="transparent" points="-4,4 -4,-333.3 3357,-333.3 3357,4 -4,4"/>
<!-- node_0 -->
<g id="node1" class="node">
<title>node_0</title>
<path fill="#e9f2ff" stroke="#6b8fd6" stroke-width="2" d="M12,-240C12,-240 106,-240 106,-240 112,-240 118,-246 118,-252 118,-252 118,-288 118,-288 118,-294 112,-300 106,-300 106,-300 12,-300 12,-300 6,-300 0,-294 0,-288 0,-288 0,-252 0,-252 0,-246 6,-240 12,-240"/>
<text text-anchor="middle" x="59" y="-287.2" font-family="Fira Mono" font-size="11.00">ind: 0</text>
<polyline fill="none" stroke="#6b8fd6" stroke-width="2" points="0,-280 118,-280 "/>
<text text-anchor="middle" x="59" y="-267.2" font-family="Fira Mono" font-size="11.00">val: 10101</text>
<polyline fill="none" stroke="#6b8fd6" stroke-width="2" points="0,-260 118,-260 "/>
<text text-anchor="middle" x="31" y="-247.2" font-family="Fira Mono" font-size="11.00">prev: 10</text>
<polyline fill="none" stroke="#6b8fd6" stroke-width="2" points="62,-240 62,-260 "/>
<text text-anchor="middle" x="90" y="-247.2" font-family="Fira Mono" font-size="11.00">next: 1</text>
</g>
<!-- node_1 -->
<g id="node2" class="node">
<title>node_1</title>
<path fill="#e9fbf5" stroke="#5aa99b" d="M184,-240C184,-240 271,-240 271,-240 277,-240 283,-246 283,-252 283,-252 283,-288 283,-288 283,-294 277,-300 271,-300 271,-300 184,-300 184,-300 178,-300 172,-294 172,-288 172,-288 172,-252 172,-252 172,-246 178,-240 184,-240"/>
<text text-anchor="middle" x="227.5" y="-287.2" font-family="Fira Mono" font-size="11.00">ind: 1 (HEAD)</text>
<polyline fill="none" stroke="#5aa99b" points="172,-280 283,-280 "/>
<text text-anchor="middle" x="227.5" y="-267.2" font-family="Fira Mono" font-size="11.00">val: 10</text>
<polyline fill="none" stroke="#5aa99b" points="172,-260 283,-260 "/>
<text text-anchor="middle" x="199.5" y="-247.2" font-family="Fira Mono" font-size="11.00">prev: 0</text>
<polyline fill="none" stroke="#5aa99b" points="227,-240 227,-260 "/>
<text text-anchor="middle" x="255" y="-247.2" font-family="Fira Mono" font-size="11.00">next: 1</text>
</g>
<!-- node_0&#45;&gt;node_1 -->
<!-- node_0&#45;&gt;node_1 -->
<g id="edge28" class="edge">
<title>node_0&#45;&gt;node_1</title>
<path fill="none" stroke="#999999" d="M128.41,-270C128.41,-270 161.73,-270 161.73,-270"/>
<polygon fill="#999999" stroke="#999999" points="161.73,-273.5 171.73,-270 161.73,-266.5 161.73,-273.5"/>
<polygon fill="#999999" stroke="#999999" points="128.41,-266.5 118.41,-270 128.41,-273.5 128.41,-266.5"/>
</g>
<!-- node_1&#45;&gt;node_1 -->
<g id="edge29" class="edge">
<title>node_1&#45;&gt;node_1</title>
<path fill="none" stroke="#ff0000" stroke-width="2.2" d="M171.56,-285.25C156.84,-285.25 145,-285.25 145,-285.25 145,-285.25 145,-322.1 145,-322.1 145,-322.1 310,-322.1 310,-322.1 310,-322.1 310,-285.25 310,-285.25 310,-285.25 293.44,-285.25 293.44,-285.25"/>
<polygon fill="#ff0000" stroke="#ff0000" stroke-width="2.2" points="293.44,-281.75 283.44,-285.25 293.44,-288.75 293.44,-281.75"/>
</g>
<!-- node_2 -->
<g id="node3" class="node">
<title>node_2</title>
<path fill="#fff3e0" stroke="#000000" d="M349,-240C349,-240 436,-240 436,-240 442,-240 448,-246 448,-252 448,-252 448,-288 448,-288 448,-294 442,-300 436,-300 436,-300 349,-300 349,-300 343,-300 337,-294 337,-288 337,-288 337,-252 337,-252 337,-246 343,-240 349,-240"/>
<text text-anchor="middle" x="392.5" y="-287.2" font-family="Fira Mono" font-size="11.00">ind: 2</text>
<polyline fill="none" stroke="#000000" points="337,-280 448,-280 "/>
<text text-anchor="middle" x="392.5" y="-267.2" font-family="Fira Mono" font-size="11.00">val: 2</text>
<polyline fill="none" stroke="#000000" points="337,-260 448,-260 "/>
<text text-anchor="middle" x="364.5" y="-247.2" font-family="Fira Mono" font-size="11.00">prev: 1</text>
<polyline fill="none" stroke="#000000" points="392,-240 392,-260 "/>
<text text-anchor="middle" x="420" y="-247.2" font-family="Fira Mono" font-size="11.00">next: 3</text>
</g>
<!-- node_1&#45;&gt;node_2 -->
<!-- node_1&#45;&gt;node_2 -->
<g id="edge39" class="edge">
<title>node_1&#45;&gt;node_2</title>
<path fill="none" stroke="#ff0000" stroke-width="2.2" d="M283.36,-270C283.36,-270 326.98,-270 326.98,-270"/>
<polygon fill="#ff0000" stroke="#ff0000" stroke-width="2.2" points="326.98,-273.5 336.98,-270 326.98,-266.5 326.98,-273.5"/>
</g>
<!-- node_3 -->
<g id="node4" class="node">
<title>node_3</title>
<path fill="#fff3e0" stroke="#000000" d="M514,-240C514,-240 601,-240 601,-240 607,-240 613,-246 613,-252 613,-252 613,-288 613,-288 613,-294 607,-300 601,-300 601,-300 514,-300 514,-300 508,-300 502,-294 502,-288 502,-288 502,-252 502,-252 502,-246 508,-240 514,-240"/>
<text text-anchor="middle" x="557.5" y="-287.2" font-family="Fira Mono" font-size="11.00">ind: 3</text>
<polyline fill="none" stroke="#000000" points="502,-280 613,-280 "/>
<text text-anchor="middle" x="557.5" y="-267.2" font-family="Fira Mono" font-size="11.00">val: 20</text>
<polyline fill="none" stroke="#000000" points="502,-260 613,-260 "/>
<text text-anchor="middle" x="529.5" y="-247.2" font-family="Fira Mono" font-size="11.00">prev: 2</text>
<polyline fill="none" stroke="#000000" points="557,-240 557,-260 "/>
<text text-anchor="middle" x="585" y="-247.2" font-family="Fira Mono" font-size="11.00">next: 4</text>
</g>
<!-- node_2&#45;&gt;node_3 -->
<!-- node_2&#45;&gt;node_3 -->
<g id="edge30" class="edge">
<title>node_2&#45;&gt;node_3</title>
<path fill="none" stroke="#999999" d="M458.36,-280.17C458.36,-280.17 491.98,-280.17 491.98,-280.17"/>
<polygon fill="#999999" stroke="#999999" points="491.98,-283.67 501.98,-280.17 491.98,-276.67 491.98,-283.67"/>
<polygon fill="#999999" stroke="#999999" points="458.36,-276.67 448.36,-280.17 458.36,-283.67 458.36,-276.67"/>
</g>
<!-- node_4 -->
<g id="node5" class="node">
<title>node_4</title>
<path fill="#fff3e0" stroke="#000000" d="M679,-240C679,-240 766,-240 766,-240 772,-240 778,-246 778,-252 778,-252 778,-288 778,-288 778,-294 772,-300 766,-300 766,-300 679,-300 679,-300 673,-300 667,-294 667,-288 667,-288 667,-252 667,-252 667,-246 673,-240 679,-240"/>
<text text-anchor="middle" x="722.5" y="-287.2" font-family="Fira Mono" font-size="11.00">ind: 4</text>
<polyline fill="none" stroke="#000000" points="667,-280 778,-280 "/>
<text text-anchor="middle" x="722.5" y="-267.2" font-family="Fira Mono" font-size="11.00">val: 1</text>
<polyline fill="none" stroke="#000000" points="667,-260 778,-260 "/>
<text text-anchor="middle" x="694.5" y="-247.2" font-family="Fira Mono" font-size="11.00">prev: 3</text>
<polyline fill="none" stroke="#000000" points="722,-240 722,-260 "/>
<text text-anchor="middle" x="750" y="-247.2" font-family="Fira Mono" font-size="11.00">next: 5</text>
</g>
<!-- node_3&#45;&gt;node_4 -->
<!-- node_3&#45;&gt;node_4 -->
<g id="edge31" class="edge">
<title>node_3&#45;&gt;node_4</title>
<path fill="none" stroke="#999999" d="M623.36,-280.17C623.36,-280.17 656.98,-280.17 656.98,-280.17"/>
<polygon fill="#999999" stroke="#999999" points="656.98,-283.67 666.98,-280.17 656.98,-276.67 656.98,-283.67"/>
<polygon fill="#999999" stroke="#999999" points="623.36,-276.67 613.36,-280.17 623.36,-283.67 623.36,-276.67"/>
</g>
<!-- node_5 -->
<g id="node6" class="node">
<title>node_5</title>
<path fill="#fff3e0" stroke="#000000" d="M844,-240C844,-240 931,-240 931,-240 937,-240 943,-246 943,-252 943,-252 943,-288 943,-288 943,-294 937,-300 931,-300 931,-300 844,-300 844,-300 838,-300 832,-294 832,-288 832,-288 832,-252 832,-252 832,-246 838,-240 844,-240"/>
<text text-anchor="middle" x="887.5" y="-287.2" font-family="Fira Mono" font-size="11.00">ind: 5</text>
<polyline fill="none" stroke="#000000" points="832,-280 943,-280 "/>
<text text-anchor="middle" x="887.5" y="-267.2" font-family="Fira Mono" font-size="11.00">val: 30</text>
<polyline fill="none" stroke="#000000" points="832,-260 943,-260 "/>
<text text-anchor="middle" x="859.5" y="-247.2" font-family="Fira Mono" font-size="11.00">prev: 4</text>
<polyline fill="none" stroke="#000000" points="887,-240 887,-260 "/>
<text text-anchor="middle" x="915" y="-247.2" font-family="Fira Mono" font-size="11.00">next: 6</text>
</g>
<!-- node_4&#45;&gt;node_5 -->
<!-- node_4&#45;&gt;node_5 -->
<g id="edge32" class="edge">
<title>node_4&#45;&gt;node_5</title>
<path fill="none" stroke="#999999" d="M788.36,-280.17C788.36,-280.17 821.98,-280.17 821.98,-280.17"/>
<polygon fill="#999999" stroke="#999999" points="821.98,-283.67 831.98,-280.17 821.98,-276.67 821.98,-283.67"/>
<polygon fill="#999999" stroke="#999999" points="788.36,-276.67 778.36,-280.17 788.36,-283.67 788.36,-276.67"/>
</g>
<!-- node_6 -->
<g id="node7" class="node">
<title>node_6</title>
<path fill="#fff3e0" stroke="#000000" d="M1009,-240C1009,-240 1103,-240 1103,-240 1109,-240 1115,-246 1115,-252 1115,-252 1115,-288 1115,-288 1115,-294 1109,-300 1103,-300 1103,-300 1009,-300 1009,-300 1003,-300 997,-294 997,-288 997,-288 997,-252 997,-252 997,-246 1003,-240 1009,-240"/>
<text text-anchor="middle" x="1056" y="-287.2" font-family="Fira Mono" font-size="11.00">ind: 6</text>
<polyline fill="none" stroke="#000000" points="997,-280 1115,-280 "/>
<text text-anchor="middle" x="1056" y="-267.2" font-family="Fira Mono" font-size="11.00">val: 5</text>
<polyline fill="none" stroke="#000000" points="997,-260 1115,-260 "/>
<text text-anchor="middle" x="1028" y="-247.2" font-family="Fira Mono" font-size="11.00">prev: 10</text>
<polyline fill="none" stroke="#000000" points="1059,-240 1059,-260 "/>
<text text-anchor="middle" x="1087" y="-247.2" font-family="Fira Mono" font-size="11.00">next: 4</text>
</g>
<!-- node_5&#45;&gt;node_6 -->
<!-- node_5&#45;&gt;node_6 -->
<g id="edge33" class="edge">
<title>node_5&#45;&gt;node_6</title>
<path fill="none" stroke="#ff0000" stroke-width="2.2" d="M943.14,-280.17C943.14,-280.17 986.94,-280.17 986.94,-280.17"/>
<polygon fill="#ff0000" stroke="#ff0000" stroke-width="2.2" points="986.94,-283.67 996.94,-280.17 986.94,-276.67 986.94,-283.67"/>
</g>
<!-- node_6&#45;&gt;node_4 -->
<g id="edge34" class="edge">
<title>node_6&#45;&gt;node_4</title>
<path fill="none" stroke="#ff0000" stroke-width="2.2" d="M1037,-300.2C1037,-308.32 1037,-314.9 1037,-314.9 1037,-314.9 723,-314.9 723,-314.9 723,-314.9 723,-310.2 723,-310.2"/>
<polygon fill="#ff0000" stroke="#ff0000" stroke-width="2.2" points="726.5,-310.2 723,-300.2 719.5,-310.2 726.5,-310.2"/>
</g>
<!-- node_7 -->
<g id="node8" class="node">
<title>node_7</title>
<path fill="#fff3e0" stroke="#000000" d="M1181,-240C1181,-240 1268,-240 1268,-240 1274,-240 1280,-246 1280,-252 1280,-252 1280,-288 1280,-288 1280,-294 1274,-300 1268,-300 1268,-300 1181,-300 1181,-300 1175,-300 1169,-294 1169,-288 1169,-288 1169,-252 1169,-252 1169,-246 1175,-240 1181,-240"/>
<text text-anchor="middle" x="1224.5" y="-287.2" font-family="Fira Mono" font-size="11.00">ind: 7</text>
<polyline fill="none" stroke="#000000" points="1169,-280 1280,-280 "/>
<text text-anchor="middle" x="1224.5" y="-267.2" font-family="Fira Mono" font-size="11.00">val: 4</text>
<polyline fill="none" stroke="#000000" points="1169,-260 1280,-260 "/>
<text text-anchor="middle" x="1196.5" y="-247.2" font-family="Fira Mono" font-size="11.00">prev: 6</text>
<polyline fill="none" stroke="#000000" points="1224,-240 1224,-260 "/>
<text text-anchor="middle" x="1252" y="-247.2" font-family="Fira Mono" font-size="11.00">next: 8</text>
</g>
<!-- node_6&#45;&gt;node_7 -->
<!-- node_6&#45;&gt;node_7 -->
<g id="edge41" class="edge">
<title>node_6&#45;&gt;node_7</title>
<path fill="none" stroke="#ff0000" stroke-width="2.2" d="M1115.41,-280.17C1115.41,-280.17 1158.73,-280.17 1158.73,-280.17"/>
<polygon fill="#ff0000" stroke="#ff0000" stroke-width="2.2" points="1158.73,-283.67 1168.73,-280.17 1158.73,-276.67 1158.73,-283.67"/>
</g>
<!-- node_8 -->
<g id="node9" class="node">
<title>node_8</title>
<path fill="#fff3e0" stroke="#000000" d="M1346,-240C1346,-240 1433,-240 1433,-240 1439,-240 1445,-246 1445,-252 1445,-252 1445,-288 1445,-288 1445,-294 1439,-300 1433,-300 1433,-300 1346,-300 1346,-300 1340,-300 1334,-294 1334,-288 1334,-288 1334,-252 1334,-252 1334,-246 1340,-240 1346,-240"/>
<text text-anchor="middle" x="1389.5" y="-287.2" font-family="Fira Mono" font-size="11.00">ind: 8</text>
<polyline fill="none" stroke="#000000" points="1334,-280 1445,-280 "/>
<text text-anchor="middle" x="1389.5" y="-267.2" font-family="Fira Mono" font-size="11.00">val: 5</text>
<polyline fill="none" stroke="#000000" points="1334,-260 1445,-260 "/>
<text text-anchor="middle" x="1361.5" y="-247.2" font-family="Fira Mono" font-size="11.00">prev: 7</text>
<polyline fill="none" stroke="#000000" points="1389,-240 1389,-260 "/>
<text text-anchor="middle" x="1417" y="-247.2" font-family="Fira Mono" font-size="11.00">next: 9</text>
</g>
<!-- node_7&#45;&gt;node_8 -->
<!-- node_7&#45;&gt;node_8 -->
<g id="edge35" class="edge">
<title>node_7&#45;&gt;node_8</title>
<path fill="none" stroke="#999999" d="M1290.36,-280.17C1290.36,-280.17 1323.98,-280.17 1323.98,-280.17"/>
<polygon fill="#999999" stroke="#999999" points="1323.98,-283.67 1333.98,-280.17 1323.98,-276.67 1323.98,-283.67"/>
<polygon fill="#999999" stroke="#999999" points="1290.36,-276.67 1280.36,-280.17 1290.36,-283.67 1290.36,-276.67"/>
</g>
<!-- node_9 -->
<g id="node10" class="node">
<title>node_9</title>
<path fill="#fff3e0" stroke="#000000" d="M1511,-240C1511,-240 1604,-240 1604,-240 1610,-240 1616,-246 1616,-252 1616,-252 1616,-288 1616,-288 1616,-294 1610,-300 1604,-300 1604,-300 1511,-300 1511,-300 1505,-300 1499,-294 1499,-288 1499,-288 1499,-252 1499,-252 1499,-246 1505,-240 1511,-240"/>
<text text-anchor="middle" x="1557.5" y="-287.2" font-family="Fira Mono" font-size="11.00">ind: 9</text>
<polyline fill="none" stroke="#000000" points="1499,-280 1616,-280 "/>
<text text-anchor="middle" x="1557.5" y="-267.2" font-family="Fira Mono" font-size="11.00">val: 4</text>
<polyline fill="none" stroke="#000000" points="1499,-260 1616,-260 "/>
<text text-anchor="middle" x="1526.5" y="-247.2" font-family="Fira Mono" font-size="11.00">prev: 8</text>
<polyline fill="none" stroke="#000000" points="1554,-240 1554,-260 "/>
<text text-anchor="middle" x="1585" y="-247.2" font-family="Fira Mono" font-size="11.00">next: 10</text>
</g>
<!-- node_8&#45;&gt;node_9 -->
<!-- node_8&#45;&gt;node_9 -->
<g id="edge36" class="edge">
<title>node_8&#45;&gt;node_9</title>
<path fill="none" stroke="#999999" d="M1455.44,-280.17C1455.44,-280.17 1488.93,-280.17 1488.93,-280.17"/>
<polygon fill="#999999" stroke="#999999" points="1488.93,-283.67 1498.93,-280.17 1488.93,-276.67 1488.93,-283.67"/>
<polygon fill="#999999" stroke="#999999" points="1455.44,-276.67 1445.44,-280.17 1455.44,-283.67 1455.44,-276.67"/>
</g>
<!-- node_10 -->
<g id="node11" class="node">
<title>node_10</title>
<path fill="#f1eafd" stroke="#8e6bd6" d="M1682,-240C1682,-240 1769,-240 1769,-240 1775,-240 1781,-246 1781,-252 1781,-252 1781,-288 1781,-288 1781,-294 1775,-300 1769,-300 1769,-300 1682,-300 1682,-300 1676,-300 1670,-294 1670,-288 1670,-288 1670,-252 1670,-252 1670,-246 1676,-240 1682,-240"/>
<text text-anchor="middle" x="1725.5" y="-287.2" font-family="Fira Mono" font-size="11.00">ind: 10 (TAIL)</text>
<polyline fill="none" stroke="#8e6bd6" points="1670,-280 1781,-280 "/>
<text text-anchor="middle" x="1725.5" y="-267.2" font-family="Fira Mono" font-size="11.00">val: 3</text>
<polyline fill="none" stroke="#8e6bd6" points="1670,-260 1781,-260 "/>
<text text-anchor="middle" x="1697.5" y="-247.2" font-family="Fira Mono" font-size="11.00">prev: 9</text>
<polyline fill="none" stroke="#8e6bd6" points="1725,-240 1725,-260 "/>
<text text-anchor="middle" x="1753" y="-247.2" font-family="Fira Mono" font-size="11.00">next: 0</text>
</g>
<!-- node_9&#45;&gt;node_10 -->
<!-- node_9&#45;&gt;node_10 -->
<g id="edge37" class="edge">
<title>node_9&#45;&gt;node_10</title>
<path fill="none" stroke="#999999" d="M1626.26,-280.17C1626.26,-280.17 1659.88,-280.17 1659.88,-280.17"/>
<polygon fill="#999999" stroke="#999999" points="1659.88,-283.67 1669.88,-280.17 1659.88,-276.67 1659.88,-283.67"/>
<polygon fill="#999999" stroke="#999999" points="1626.26,-276.67 1616.26,-280.17 1626.26,-283.67 1626.26,-276.67"/>
</g>
<!-- node_10&#45;&gt;node_0 -->
<g id="edge38" class="edge">
<title>node_10&#45;&gt;node_0</title>
<path fill="none" stroke="#999999" d="M1744,-310.34C1744,-310.34 1744,-329.3 1744,-329.3 1744,-329.3 59,-329.3 59,-329.3 59,-329.3 59,-310.34 59,-310.34"/>
<polygon fill="#999999" stroke="#999999" points="1747.5,-310.34 1744,-300.34 1740.5,-310.34 1747.5,-310.34"/>
<polygon fill="#999999" stroke="#999999" points="62.5,-310.34 59,-300.34 55.5,-310.34 62.5,-310.34"/>
</g>
<!-- node_10&#45;&gt;node_6 -->
<g id="edge40" class="edge">
<title>node_10&#45;&gt;node_6</title>
<path fill="none" stroke="#ff0000" stroke-width="2.2" d="M1707,-300.07C1707,-304.55 1707,-307.7 1707,-307.7 1707,-307.7 1076,-307.7 1076,-307.7 1076,-307.7 1076,-306.94 1076,-306.94"/>
<polygon fill="#ff0000" stroke="#ff0000" stroke-width="2.2" points="1079.5,-310.07 1076,-300.07 1072.5,-310.07 1079.5,-310.07"/>
</g>
<!-- node_11 -->
<g id="node12" class="node">
<title>node_11</title>
<path fill="#ffecec" stroke="#d66d66" d="M1847,-240C1847,-240 1944,-240 1944,-240 1950,-240 1956,-246 1956,-252 1956,-252 1956,-288 1956,-288 1956,-294 1950,-300 1944,-300 1944,-300 1847,-300 1847,-300 1841,-300 1835,-294 1835,-288 1835,-288 1835,-252 1835,-252 1835,-246 1841,-240 1847,-240"/>
<text text-anchor="middle" x="1895.5" y="-287.2" font-family="Fira Mono" font-size="11.00">ind: 11</text>
<polyline fill="none" stroke="#d66d66" points="1835,-280 1956,-280 "/>
<text text-anchor="middle" x="1895.5" y="-267.2" font-family="Fira Mono" font-size="11.00">val: &#45;100</text>
<polyline fill="none" stroke="#d66d66" points="1835,-260 1956,-260 "/>
<text text-anchor="middle" x="1864.5" y="-247.2" font-family="Fira Mono" font-size="11.00">prev: &#45;1</text>
<polyline fill="none" stroke="#d66d66" points="1894,-240 1894,-260 "/>
<text text-anchor="middle" x="1925" y="-247.2" font-family="Fira Mono" font-size="11.00">next: 12</text>
</g>
<!-- node_10&#45;&gt;node_11 -->
<!-- node_12 -->
<g id="node13" class="node">
<title>node_12</title>
<path fill="#ffecec" stroke="#d66d66" d="M2022,-240C2022,-240 2119,-240 2119,-240 2125,-240 2131,-246 2131,-252 2131,-252 2131,-288 2131,-288 2131,-294 2125,-300 2119,-300 2119,-300 2022,-300 2022,-300 2016,-300 2010,-294 2010,-288 2010,-288 2010,-252 2010,-252 2010,-246 2016,-240 2022,-240"/>
<text text-anchor="middle" x="2070.5" y="-287.2" font-family="Fira Mono" font-size="11.00">ind: 12</text>
<polyline fill="none" stroke="#d66d66" points="2010,-280 2131,-280 "/>
<text text-anchor="middle" x="2070.5" y="-267.2" font-family="Fira Mono" font-size="11.00">val: &#45;100</text>
<polyline fill="none" stroke="#d66d66" points="2010,-260 2131,-260 "/>
<text text-anchor="middle" x="2039.5" y="-247.2" font-family="Fira Mono" font-size="11.00">prev: &#45;1</text>
<polyline fill="none" stroke="#d66d66" points="2069,-240 2069,-260 "/>
<text text-anchor="middle" x="2100" y="-247.2" font-family="Fira Mono" font-size="11.00">next: 13</text>
</g>
<!-- node_11&#45;&gt;node_12 -->
<!-- node_11&#45;&gt;node_12 -->
<g id="edge20" class="edge">
<title>node_11&#45;&gt;node_12</title>
<path fill="none" stroke="#d88d88" stroke-dasharray="5,2" d="M1956.22,-280.17C1956.22,-280.17 1999.89,-280.17 1999.89,-280.17"/>
<polygon fill="#d88d88" stroke="#d88d88" points="1999.89,-283.67 2009.89,-280.17 1999.89,-276.67 1999.89,-283.67"/>
</g>
<!-- node_13 -->
<g id="node14" class="node">
<title>node_13</title>
<path fill="#ffecec" stroke="#d66d66" d="M2197,-240C2197,-240 2294,-240 2294,-240 2300,-240 2306,-246 2306,-252 2306,-252 2306,-288 2306,-288 2306,-294 2300,-300 2294,-300 2294,-300 2197,-300 2197,-300 2191,-300 2185,-294 2185,-288 2185,-288 2185,-252 2185,-252 2185,-246 2191,-240 2197,-240"/>
<text text-anchor="middle" x="2245.5" y="-287.2" font-family="Fira Mono" font-size="11.00">ind: 13</text>
<polyline fill="none" stroke="#d66d66" points="2185,-280 2306,-280 "/>
<text text-anchor="middle" x="2245.5" y="-267.2" font-family="Fira Mono" font-size="11.00">val: &#45;100</text>
<polyline fill="none" stroke="#d66d66" points="2185,-260 2306,-260 "/>
<text text-anchor="middle" x="2214.5" y="-247.2" font-family="Fira Mono" font-size="11.00">prev: &#45;1</text>
<polyline fill="none" stroke="#d66d66" points="2244,-240 2244,-260 "/>
<text text-anchor="middle" x="2275" y="-247.2" font-family="Fira Mono" font-size="11.00">next: 14</text>
</g>
<!-- node_12&#45;&gt;node_13 -->
<!-- node_12&#45;&gt;node_13 -->
<g id="edge21" class="edge">
<title>node_12&#45;&gt;node_13</title>
<path fill="none" stroke="#d88d88" stroke-dasharray="5,2" d="M2131.22,-280.17C2131.22,-280.17 2174.89,-280.17 2174.89,-280.17"/>
<polygon fill="#d88d88" stroke="#d88d88" points="2174.89,-283.67 2184.89,-280.17 2174.89,-276.67 2174.89,-283.67"/>
</g>
<!-- node_14 -->
<g id="node15" class="node">
<title>node_14</title>
<path fill="#ffecec" stroke="#d66d66" d="M2372,-240C2372,-240 2469,-240 2469,-240 2475,-240 2481,-246 2481,-252 2481,-252 2481,-288 2481,-288 2481,-294 2475,-300 2469,-300 2469,-300 2372,-300 2372,-300 2366,-300 2360,-294 2360,-288 2360,-288 2360,-252 2360,-252 2360,-246 2366,-240 2372,-240"/>
<text text-anchor="middle" x="2420.5" y="-287.2" font-family="Fira Mono" font-size="11.00">ind: 14</text>
<polyline fill="none" stroke="#d66d66" points="2360,-280 2481,-280 "/>
<text text-anchor="middle" x="2420.5" y="-267.2" font-family="Fira Mono" font-size="11.00">val: &#45;100</text>
<polyline fill="none" stroke="#d66d66" points="2360,-260 2481,-260 "/>
<text text-anchor="middle" x="2389.5" y="-247.2" font-family="Fira Mono" font-size="11.00">prev: &#45;1</text>
<polyline fill="none" stroke="#d66d66" points="2419,-240 2419,-260 "/>
<text text-anchor="middle" x="2450" y="-247.2" font-family="Fira Mono" font-size="11.00">next: 15</text>
</g>
<!-- node_13&#45;&gt;node_14 -->
<!-- node_13&#45;&gt;node_14 -->
<g id="edge22" class="edge">
<title>node_13&#45;&gt;node_14</title>
<path fill="none" stroke="#d88d88" stroke-dasharray="5,2" d="M2306.22,-280.17C2306.22,-280.17 2349.89,-280.17 2349.89,-280.17"/>
<polygon fill="#d88d88" stroke="#d88d88" points="2349.89,-283.67 2359.89,-280.17 2349.89,-276.67 2349.89,-283.67"/>
</g>
<!-- node_15 -->
<g id="node16" class="node">
<title>node_15</title>
<path fill="#ffecec" stroke="#d66d66" d="M2547,-240C2547,-240 2644,-240 2644,-240 2650,-240 2656,-246 2656,-252 2656,-252 2656,-288 2656,-288 2656,-294 2650,-300 2644,-300 2644,-300 2547,-300 2547,-300 2541,-300 2535,-294 2535,-288 2535,-288 2535,-252 2535,-252 2535,-246 2541,-240 2547,-240"/>
<text text-anchor="middle" x="2595.5" y="-287.2" font-family="Fira Mono" font-size="11.00">ind: 15</text>
<polyline fill="none" stroke="#d66d66" points="2535,-280 2656,-280 "/>
<text text-anchor="middle" x="2595.5" y="-267.2" font-family="Fira Mono" font-size="11.00">val: &#45;100</text>
<polyline fill="none" stroke="#d66d66" points="2535,-260 2656,-260 "/>
<text text-anchor="middle" x="2564.5" y="-247.2" font-family="Fira Mono" font-size="11.00">prev: &#45;1</text>
<polyline fill="none" stroke="#d66d66" points="2594,-240 2594,-260 "/>
<text text-anchor="middle" x="2625" y="-247.2" font-family="Fira Mono" font-size="11.00">next: 16</text>
</g>
<!-- node_14&#45;&gt;node_15 -->
<!-- node_14&#45;&gt;node_15 -->
<g id="edge23" class="edge">
<title>node_14&#45;&gt;node_15</title>
<path fill="none" stroke="#d88d88" stroke-dasharray="5,2" d="M2481.22,-280.17C2481.22,-280.17 2524.89,-280.17 2524.89,-280.17"/>
<polygon fill="#d88d88" stroke="#d88d88" points="2524.89,-283.67 2534.89,-280.17 2524.89,-276.67 2524.89,-283.67"/>
</g>
<!-- node_16 -->
<g id="node17" class="node">
<title>node_16</title>
<path fill="#ffecec" stroke="#d66d66" d="M2722,-240C2722,-240 2819,-240 2819,-240 2825,-240 2831,-246 2831,-252 2831,-252 2831,-288 2831,-288 2831,-294 2825,-300 2819,-300 2819,-300 2722,-300 2722,-300 2716,-300 2710,-294 2710,-288 2710,-288 2710,-252 2710,-252 2710,-246 2716,-240 2722,-240"/>
<text text-anchor="middle" x="2770.5" y="-287.2" font-family="Fira Mono" font-size="11.00">ind: 16</text>
<polyline fill="none" stroke="#d66d66" points="2710,-280 2831,-280 "/>
<text text-anchor="middle" x="2770.5" y="-267.2" font-family="Fira Mono" font-size="11.00">val: &#45;100</text>
<polyline fill="none" stroke="#d66d66" points="2710,-260 2831,-260 "/>
<text text-anchor="middle" x="2739.5" y="-247.2" font-family="Fira Mono" font-size="11.00">prev: &#45;1</text>
<polyline fill="none" stroke="#d66d66" points="2769,-240 2769,-260 "/>
<text text-anchor="middle" x="2800" y="-247.2" font-family="Fira Mono" font-size="11.00">next: 17</text>
</g>
<!-- node_15&#45;&gt;node_16 -->
<!-- node_15&#45;&gt;node_16 -->
<g id="edge24" class="edge">
<title>node_15&#45;&gt;node_16</title>
<path fill="none" stroke="#d88d88" stroke-dasharray="5,2" d="M2656.22,-280.17C2656.22,-280.17 2699.89,-280.17 2699.89,-280.17"/>
<polygon fill="#d88d88" stroke="#d88d88" points="2699.89,-283.67 2709.89,-280.17 2699.89,-276.67 2699.89,-283.67"/>
</g>
<!-- node_17 -->
<g id="node18" class="node">
<title>node_17</title>
<path fill="#ffecec" stroke="#d66d66" d="M2897,-240C2897,-240 2994,-240 2994,-240 3000,-240 3006,-246 3006,-252 3006,-252 3006,-288 3006,-288 3006,-294 3000,-300 2994,-300 2994,-300 2897,-300 2897,-300 2891,-300 2885,-294 2885,-288 2885,-288 2885,-252 2885,-252 2885,-246 2891,-240 2897,-240"/>
<text text-anchor="middle" x="2945.5" y="-287.2" font-family="Fira Mono" font-size="11.00">ind: 17</text>
<polyline fill="none" stroke="#d66d66" points="2885,-280 3006,-280 "/>
<text text-anchor="middle" x="2945.5" y="-267.2" font-family="Fira Mono" font-size="11.00">val: &#45;100</text>
<polyline fill="none" stroke="#d66d66" points="2885,-260 3006,-260 "/>
<text text-anchor="middle" x="2914.5" y="-247.2" font-family="Fira Mono" font-size="11.00">prev: &#45;1</text>
<polyline fill="none" stroke="#d66d66" points="2944,-240 2944,-260 "/>
<text text-anchor="middle" x="2975" y="-247.2" font-family="Fira Mono" font-size="11.00">next: 18</text>
</g>
<!-- node_16&#45;&gt;node_17 -->
<!-- node_16&#45;&gt;node_17 -->
<g id="edge25" class="edge">
<title>node_16&#45;&gt;node_17</title>
<path fill="none" stroke="#d88d88" stroke-dasharray="5,2" d="M2831.22,-280.17C2831.22,-280.17 2874.89,-280.17 2874.89,-280.17"/>
<polygon fill="#d88d88" stroke="#d88d88" points="2874.89,-283.67 2884.89,-280.17 2874.89,-276.67 2874.89,-283.67"/>
</g>
<!-- node_18 -->
<g id="node19" class="node">
<title>node_18</title>
<path fill="#ffecec" stroke="#d66d66" d="M3072,-240C3072,-240 3169,-240 3169,-240 3175,-240 3181,-246 3181,-252 3181,-252 3181,-288 3181,-288 3181,-294 3175,-300 3169,-300 3169,-300 3072,-300 3072,-300 3066,-300 3060,-294 3060,-288 3060,-288 3060,-252 3060,-252 3060,-246 3066,-240 3072,-240"/>
<text text-anchor="middle" x="3120.5" y="-287.2" font-family="Fira Mono" font-size="11.00">ind: 18</text>
<polyline fill="none" stroke="#d66d66" points="3060,-280 3181,-280 "/>
<text text-anchor="middle" x="3120.5" y="-267.2" font-family="Fira Mono" font-size="11.00">val: &#45;100</text>
<polyline fill="none" stroke="#d66d66" points="3060,-260 3181,-260 "/>
<text text-anchor="middle" x="3089.5" y="-247.2" font-family="Fira Mono" font-size="11.00">prev: &#45;1</text>
<polyline fill="none" stroke="#d66d66" points="3119,-240 3119,-260 "/>
<text text-anchor="middle" x="3150" y="-247.2" font-family="Fira Mono" font-size="11.00">next: 19</text>
</g>
<!-- node_17&#45;&gt;node_18 -->
<!-- node_17&#45;&gt;node_18 -->
<g id="edge26" class="edge">
<title>node_17&#45;&gt;node_18</title>
<path fill="none" stroke="#d88d88" stroke-dasharray="5,2" d="M3006.22,-280.17C3006.22,-280.17 3049.89,-280.17 3049.89,-280.17"/>
<polygon fill="#d88d88" stroke="#d88d88" points="3049.89,-283.67 3059.89,-280.17 3049.89,-276.67 3049.89,-283.67"/>
</g>
<!-- node_19 -->
<g id="node20" class="node">
<title>node_19</title>
<path fill="#ffecec" stroke="#d66d66" d="M3247,-240C3247,-240 3341,-240 3341,-240 3347,-240 3353,-246 3353,-252 3353,-252 3353,-288 3353,-288 3353,-294 3347,-300 3341,-300 3341,-300 3247,-300 3247,-300 3241,-300 3235,-294 3235,-288 3235,-288 3235,-252 3235,-252 3235,-246 3241,-240 3247,-240"/>
<text text-anchor="middle" x="3294" y="-287.2" font-family="Fira Mono" font-size="11.00">ind: 19</text>
<polyline fill="none" stroke="#d66d66" points="3235,-280 3353,-280 "/>
<text text-anchor="middle" x="3294" y="-267.2" font-family="Fira Mono" font-size="11.00">val: &#45;100</text>
<polyline fill="none" stroke="#d66d66" points="3235,-260 3353,-260 "/>
<text text-anchor="middle" x="3264.5" y="-247.2" font-family="Fira Mono" font-size="11.00">prev: &#45;1</text>
<polyline fill="none" stroke="#d66d66" points="3294,-240 3294,-260 "/>
<text text-anchor="middle" x="3323.5" y="-247.2" font-family="Fira Mono" font-size="11.00">next: &#45;1</text>
</g>
<!-- node_18&#45;&gt;node_19 -->
<!-- node_18&#45;&gt;node_19 -->
<g id="edge27" class="edge">
<title>node_18&#45;&gt;node_19</title>
<path fill="none" stroke="#d88d88" stroke-dasharray="5,2" d="M3181.18,-280.17C3181.18,-280.17 3224.81,-280.17 3224.81,-280.17"/>
<polygon fill="#d88d88" stroke="#d88d88" points="3224.81,-283.67 3234.81,-280.17 3224.81,-276.67 3224.81,-283.67"/>
</g>
<!-- node_free -->
<g id="node21" class="node">
<title>node_free</title>
<path fill="#ffecec" stroke="#d66d66" d="M82.5,-36C82.5,-36 35.5,-36 35.5,-36 29.5,-36 23.5,-30 23.5,-24 23.5,-24 23.5,-12 23.5,-12 23.5,-6 29.5,0 35.5,0 35.5,0 82.5,0 82.5,0 88.5,0 94.5,-6 94.5,-12 94.5,-12 94.5,-24 94.5,-24 94.5,-30 88.5,-36 82.5,-36"/>
<text text-anchor="middle" x="59" y="-15.2" font-family="Fira Mono" font-size="11.00">free_head</text>
</g>
<!-- node_free&#45;&gt;node_11 -->
<g id="edge42" class="edge">
<title>node_free&#45;&gt;node_11</title>
<path fill="none" stroke="#d88d88" stroke-dasharray="5,2" d="M94.87,-18C351.31,-18 1896,-18 1896,-18 1896,-18 1896,-229.6 1896,-229.6"/>
<polygon fill="#d88d88" stroke="#d88d88" points="1892.5,-229.6 1896,-239.6 1899.5,-229.6 1892.5,-229.6"/>
</g>
</g>
</svg>
