<?xml version="1.0" encoding="UTF-8" standalone="no"?>
<!DOCTYPE svg PUBLIC "-//W3C//DTD SVG 1.1//EN"
 "http://www.w3.org/Graphics/SVG/1.1/DTD/svg11.dtd">
<!-- Generated by graphviz version 2.43.0 (0)
 -->
<!-- Title: G Pages: 1 -->
<svg width="1615pt" height="272pt"
 viewBox="0.00 0.00 1615.00 272.30" xmlns="http://www.w3.org/2000/svg" xmlns:xlink="http://www.w3.org/1999/xlink">
<g id="graph0" class="graph" transform="scale(1 1) rotate(0) translate(4 268.3)">
<title>G</title>
<polygon fill="white" stroke="transparent" points="-4,4 -4,-268.3 1611,-268.3 1611,4 -4,4"/>
<!-- node_0 -->
<g id="node1" class="node">
<title>node_0</title>
<path fill="#e9f2ff" stroke="#6b8fd6" stroke-width="2" d="M12,-175C12,-175 99,-175 99,-175 105,-175 111,-181 111,-187 111,-187 111,-223 111,-223 111,-229 105,-235 99,-235 99,-235 12,-235 12,-235 6,-235 0,-229 0,-223 0,-223 0,-187 0,-187 0,-181 6,-175 12,-175"/>
<text text-anchor="middle" x="55.5" y="-222.2" font-family="Fira Mono" font-size="11.00">ind: 0</text>
<polyline fill="none" stroke="#6b8fd6" stroke-width="2" points="0,-215 111,-215 "/>
<text text-anchor="middle" x="55.5" y="-202.2" font-family="Fira Mono" font-size="11.00">val: 10101</text>
<polyline fill="none" stroke="#6b8fd6" stroke-width="2" points="0,-195 111,-195 "/>
<text text-anchor="middle" x="27.5" y="-182.2" font-family="Fira Mono" font-size="11.00">prev: 3</text>
<polyline fill="none" stroke="#6b8fd6" stroke-width="2" points="55,-175 55,-195 "/>
<text text-anchor="middle" x="83" y="-182.2" font-family="Fira Mono" font-size="11.00">next: 1</text>
</g>
<!-- node_1 -->
<g id="node2" class="node">
<title>node_1</title>
<path fill="#e9fbf5" stroke="#5aa99b" d="M177,-175C177,-175 264,-175 264,-175 270,-175 276,-181 276,-187 276,-187 276,-223 276,-223 276,-229 270,-235 264,-235 264,-235 177,-235 177,-235 171,-235 165,-229 165,-223 165,-223 165,-187 165,-187 165,-181 171,-175 177,-175"/>
<text text-anchor="middle" x="220.5" y="-222.2" font-family="Fira Mono" font-size="11.00">ind: 1 (HEAD)</text>
<polyline fill="none" stroke="#5aa99b" points="165,-215 276,-215 "/>
<text text-anchor="middle" x="220.5" y="-202.2" font-family="Fira Mono" font-size="11.00">val: 2</text>
<polyline fill="none" stroke="#5aa99b" points="165,-195 276,-195 "/>
<text text-anchor="middle" x="192.5" y="-182.2" font-family="Fira Mono" font-size="11.00">prev: 0</text>
<polyline fill="none" stroke="#5aa99b" points="220,-175 220,-195 "/>
<text text-anchor="middle" x="248" y="-182.2" font-family="Fira Mono" font-size="11.00">next: 2</text>
</g>
<!-- node_0&#45;&gt;node_1 -->
<!-- node_0&#45;&gt;node_1 -->
<g id="edge11" class="edge">
<title>node_0&#45;&gt;node_1</title>
<path fill="none" stroke="#999999" d="M121.36,-215.17C121.36,-215.17 154.98,-215.17 154.98,-215.17"/>
<polygon fill="#999999" stroke="#999999" points="154.98,-218.67 164.98,-215.17 154.98,-211.67 154.98,-218.67"/>
<polygon fill="#999999" stroke="#999999" points="121.36,-211.67 111.36,-215.17 121.36,-218.67 121.36,-211.67"/>
</g>
<!-- node_2 -->
<g id="node3" class="node">
<title>node_2</title>
<path fill="#fff3e0" stroke="#000000" d="M342,-175C342,-175 429,-175 429,-175 435,-175 441,-181 441,-187 441,-187 441,-223 441,-223 441,-229 435,-235 429,-235 429,-235 342,-235 342,-235 336,-235 330,-229 330,-223 330,-223 330,-187 330,-187 330,-181 336,-175 342,-175"/>
<text text-anchor="middle" x="385.5" y="-222.2" font-family="Fira Mono" font-size="11.00">ind: 2</text>
<polyline fill="none" stroke="#000000" points="330,-215 441,-215 "/>
<text text-anchor="middle" x="385.5" y="-202.2" font-family="Fira Mono" font-size="11.00">val: 1</text>
<polyline fill="none" stroke="#000000" points="330,-195 441,-195 "/>
<text text-anchor="middle" x="357.5" y="-182.2" font-family="Fira Mono" font-size="11.00">prev: 1</text>
<polyline fill="none" stroke="#000000" points="385,-175 385,-195 "/>
<text text-anchor="middle" x="413" y="-182.2" font-family="Fira Mono" font-size="11.00">next: 5</text>
</g>
<!-- node_1&#45;&gt;node_2 -->
<!-- node_1&#45;&gt;node_2 -->
<g id="edge12" class="edge">
<title>node_1&#45;&gt;node_2</title>
<path fill="none" stroke="#999999" d="M286.36,-215.17C286.36,-215.17 319.98,-215.17 319.98,-215.17"/>
<polygon fill="#999999" stroke="#999999" points="319.98,-218.67 329.98,-215.17 319.98,-211.67 319.98,-218.67"/>
<polygon fill="#999999" stroke="#999999" points="286.36,-211.67 276.36,-215.17 286.36,-218.67 286.36,-211.67"/>
</g>
<!-- node_3 -->
<g id="node4" class="node">
<title>node_3</title>
<path fill="#f1eafd" stroke="#8e6bd6" d="M507,-175C507,-175 594,-175 594,-175 600,-175 606,-181 606,-187 606,-187 606,-223 606,-223 606,-229 600,-235 594,-235 594,-235 507,-235 507,-235 501,-235 495,-229 495,-223 495,-223 495,-187 495,-187 495,-181 501,-175 507,-175"/>
<text text-anchor="middle" x="550.5" y="-222.2" font-family="Fira Mono" font-size="11.00">ind: 3 (TAIL)</text>
<polyline fill="none" stroke="#8e6bd6" points="495,-215 606,-215 "/>
<text text-anchor="middle" x="550.5" y="-202.2" font-family="Fira Mono" font-size="11.00">val: 3</text>
<polyline fill="none" stroke="#8e6bd6" points="495,-195 606,-195 "/>
<text text-anchor="middle" x="522.5" y="-182.2" font-family="Fira Mono" font-size="11.00">prev: 6</text>
<polyline fill="none" stroke="#8e6bd6" points="550,-175 550,-195 "/>
<text text-anchor="middle" x="578" y="-182.2" font-family="Fira Mono" font-size="11.00">next: 0</text>
</g>
<!-- node_2&#45;&gt;node_3 -->
<!-- node_5 -->
<g id="node6" class="node">
<title>node_5</title>
<path fill="#fff3e0" stroke="#000000" d="M837,-175C837,-175 924,-175 924,-175 930,-175 936,-181 936,-187 936,-187 936,-223 936,-223 936,-229 930,-235 924,-235 924,-235 837,-235 837,-235 831,-235 825,-229 825,-223 825,-223 825,-187 825,-187 825,-181 831,-175 837,-175"/>
<text text-anchor="middle" x="880.5" y="-222.2" font-family="Fira Mono" font-size="11.00">ind: 5</text>
<polyline fill="none" stroke="#000000" points="825,-215 936,-215 "/>
<text text-anchor="middle" x="880.5" y="-202.2" font-family="Fira Mono" font-size="11.00">val: 5</text>
<polyline fill="none" stroke="#000000" points="825,-195 936,-195 "/>
<text text-anchor="middle" x="852.5" y="-182.2" font-family="Fira Mono" font-size="11.00">prev: 2</text>
<polyline fill="none" stroke="#000000" points="880,-175 880,-195 "/>
<text text-anchor="middle" x="908" y="-182.2" font-family="Fira Mono" font-size="11.00">next: 4</text>
</g>
<!-- node_2&#45;&gt;node_5 -->
<g id="edge13" class="edge">
<title>node_2&#45;&gt;node_5</title>
<path fill="none" stroke="#999999" d="M386,-245.34C386,-245.34 386,-264.3 386,-264.3 386,-264.3 881,-264.3 881,-264.3 881,-264.3 881,-245.34 881,-245.34"/>
<polygon fill="#999999" stroke="#999999" points="389.5,-245.34 386,-235.34 382.5,-245.34 389.5,-245.34"/>
<polygon fill="#999999" stroke="#999999" points="884.5,-245.34 881,-235.34 877.5,-245.34 884.5,-245.34"/>
</g>
<!-- node_3&#45;&gt;node_0 -->
<g id="edge14" class="edge">
<title>node_3&#45;&gt;node_0</title>
<path fill="none" stroke="#999999" d="M532,-245C532,-245 532,-257.1 532,-257.1 532,-257.1 56,-257.1 56,-257.1 56,-257.1 56,-245 56,-245"/>
<polygon fill="#999999" stroke="#999999" points="535.5,-245 532,-235 528.5,-245 535.5,-245"/>
<polygon fill="#999999" stroke="#999999" points="59.5,-245 56,-235 52.5,-245 59.5,-245"/>
</g>
<!-- node_4 -->
<g id="node5" class="node">
<title>node_4</title>
<path fill="#fff3e0" stroke="#000000" d="M672,-175C672,-175 759,-175 759,-175 765,-175 771,-181 771,-187 771,-187 771,-223 771,-223 771,-229 765,-235 759,-235 759,-235 672,-235 672,-235 666,-235 660,-229 660,-223 660,-223 660,-187 660,-187 660,-181 666,-175 672,-175"/>
<text text-anchor="middle" x="715.5" y="-222.2" font-family="Fira Mono" font-size="11.00">ind: 4</text>
<polyline fill="none" stroke="#000000" points="660,-215 771,-215 "/>
<text text-anchor="middle" x="715.5" y="-202.2" font-family="Fira Mono" font-size="11.00">val: 4</text>
<polyline fill="none" stroke="#000000" points="660,-195 771,-195 "/>
<text text-anchor="middle" x="687.5" y="-182.2" font-family="Fira Mono" font-size="11.00">prev: 5</text>
<polyline fill="none" stroke="#000000" points="715,-175 715,-195 "/>
<text text-anchor="middle" x="743" y="-182.2" font-family="Fira Mono" font-size="11.00">next: 7</text>
</g>
<!-- node_3&#45;&gt;node_4 -->
<!-- node_4&#45;&gt;node_5 -->
<!-- node_7 -->
<g id="node8" class="node">
<title>node_7</title>
<path fill="#fff3e0" stroke="#000000" d="M1167,-175C1167,-175 1254,-175 1254,-175 1260,-175 1266,-181 1266,-187 1266,-187 1266,-223 1266,-223 1266,-229 1260,-235 1254,-235 1254,-235 1167,-235 1167,-235 1161,-235 1155,-229 1155,-223 1155,-223 1155,-187 1155,-187 1155,-181 1161,-175 1167,-175"/>
<text text-anchor="middle" x="1210.5" y="-222.2" font-family="Fira Mono" font-size="11.00">ind: 7</text>
<polyline fill="none" stroke="#000000" points="1155,-215 1266,-215 "/>
<text text-anchor="middle" x="1210.5" y="-202.2" font-family="Fira Mono" font-size="11.00">val: 5</text>
<polyline fill="none" stroke="#000000" points="1155,-195 1266,-195 "/>
<text text-anchor="middle" x="1182.5" y="-182.2" font-family="Fira Mono" font-size="11.00">prev: 4</text>
<polyline fill="none" stroke="#000000" points="1210,-175 1210,-195 "/>
<text text-anchor="middle" x="1238" y="-182.2" font-family="Fira Mono" font-size="11.00">next: 6</text>
</g>
<!-- node_4&#45;&gt;node_7 -->
<g id="edge15" class="edge">
<title>node_4&#45;&gt;node_7</title>
<path fill="none" stroke="#999999" d="M716,-245.2C716,-245.2 716,-249.9 716,-249.9 716,-249.9 1211,-249.9 1211,-249.9 1211,-249.9 1211,-245.2 1211,-245.2"/>
<polygon fill="#999999" stroke="#999999" points="719.5,-245.2 716,-235.2 712.5,-245.2 719.5,-245.2"/>
<polygon fill="#999999" stroke="#999999" points="1214.5,-245.2 1211,-235.2 1207.5,-245.2 1214.5,-245.2"/>
</g>
<!-- node_5&#45;&gt;node_4 -->
<g id="edge16" class="edge">
<title>node_5&#45;&gt;node_4</title>
<path fill="none" stroke="#999999" d="M814.64,-215.17C814.64,-215.17 781.02,-215.17 781.02,-215.17"/>
<polygon fill="#999999" stroke="#999999" points="781.02,-211.67 771.02,-215.17 781.02,-218.67 781.02,-211.67"/>
<polygon fill="#999999" stroke="#999999" points="814.64,-218.67 824.64,-215.17 814.64,-211.67 814.64,-218.67"/>
</g>
<!-- node_6 -->
<g id="node7" class="node">
<title>node_6</title>
<path fill="#fff3e0" stroke="#000000" d="M1002,-175C1002,-175 1089,-175 1089,-175 1095,-175 1101,-181 1101,-187 1101,-187 1101,-223 1101,-223 1101,-229 1095,-235 1089,-235 1089,-235 1002,-235 1002,-235 996,-235 990,-229 990,-223 990,-223 990,-187 990,-187 990,-181 996,-175 1002,-175"/>
<text text-anchor="middle" x="1045.5" y="-222.2" font-family="Fira Mono" font-size="11.00">ind: 6</text>
<polyline fill="none" stroke="#000000" points="990,-215 1101,-215 "/>
<text text-anchor="middle" x="1045.5" y="-202.2" font-family="Fira Mono" font-size="11.00">val: 4</text>
<polyline fill="none" stroke="#000000" points="990,-195 1101,-195 "/>
<text text-anchor="middle" x="1017.5" y="-182.2" font-family="Fira Mono" font-size="11.00">prev: 7</text>
<polyline fill="none" stroke="#000000" points="1045,-175 1045,-195 "/>
<text text-anchor="middle" x="1073" y="-182.2" font-family="Fira Mono" font-size="11.00">next: 3</text>
</g>
<!-- node_5&#45;&gt;node_6 -->
<!-- node_6&#45;&gt;node_3 -->
<g id="edge17" class="edge">
<title>node_6&#45;&gt;node_3</title>
<path fill="none" stroke="#999999" d="M1046,-241.94C1046,-241.94 1046,-242.7 1046,-242.7 1046,-242.7 569,-242.7 569,-242.7 569,-242.7 569,-241.94 569,-241.94"/>
<polygon fill="#999999" stroke="#999999" points="1049.5,-245.07 1046,-235.07 1042.5,-245.07 1049.5,-245.07"/>
<polygon fill="#999999" stroke="#999999" points="572.5,-245.07 569,-235.07 565.5,-245.07 572.5,-245.07"/>
</g>
<!-- node_6&#45;&gt;node_7 -->
<!-- node_7&#45;&gt;node_6 -->
<g id="edge18" class="edge">
<title>node_7&#45;&gt;node_6</title>
<path fill="none" stroke="#999999" d="M1144.64,-215.17C1144.64,-215.17 1111.02,-215.17 1111.02,-215.17"/>
<polygon fill="#999999" stroke="#999999" points="1111.02,-211.67 1101.02,-215.17 1111.02,-218.67 1111.02,-211.67"/>
<polygon fill="#999999" stroke="#999999" points="1144.64,-218.67 1154.64,-215.17 1144.64,-211.67 1144.64,-218.67"/>
</g>
<!-- node_8 -->
<g id="node9" class="node">
<title>node_8</title>
<path fill="#ffecec" stroke="#d66d66" d="M1332,-175C1332,-175 1423,-175 1423,-175 1429,-175 1435,-181 1435,-187 1435,-187 1435,-223 1435,-223 1435,-229 1429,-235 1423,-235 1423,-235 1332,-235 1332,-235 1326,-235 1320,-229 1320,-223 1320,-223 1320,-187 1320,-187 1320,-181 1326,-175 1332,-175"/>
<text text-anchor="middle" x="1377.5" y="-222.2" font-family="Fira Mono" font-size="11.00">ind: 8</text>
<polyline fill="none" stroke="#d66d66" points="1320,-215 1435,-215 "/>
<text text-anchor="middle" x="1377.5" y="-202.2" font-family="Fira Mono" font-size="11.00">val: &#45;100</text>
<polyline fill="none" stroke="#d66d66" points="1320,-195 1435,-195 "/>
<text text-anchor="middle" x="1349.5" y="-182.2" font-family="Fira Mono" font-size="11.00">prev: &#45;1</text>
<polyline fill="none" stroke="#d66d66" points="1379,-175 1379,-195 "/>
<text text-anchor="middle" x="1407" y="-182.2" font-family="Fira Mono" font-size="11.00">next: 9</text>
</g>
<!-- node_7&#45;&gt;node_8 -->
<!-- node_9 -->
<g id="node10" class="node">
<title>node_9</title>
<path fill="#ffecec" stroke="#d66d66" d="M1501,-175C1501,-175 1595,-175 1595,-175 1601,-175 1607,-181 1607,-187 1607,-187 1607,-223 1607,-223 1607,-229 1601,-235 1595,-235 1595,-235 1501,-235 1501,-235 1495,-235 1489,-229 1489,-223 1489,-223 1489,-187 1489,-187 1489,-181 1495,-175 1501,-175"/>
<text text-anchor="middle" x="1548" y="-222.2" font-family="Fira Mono" font-size="11.00">ind: 9</text>
<polyline fill="none" stroke="#d66d66" points="1489,-215 1607,-215 "/>
<text text-anchor="middle" x="1548" y="-202.2" font-family="Fira Mono" font-size="11.00">val: &#45;100</text>
<polyline fill="none" stroke="#d66d66" points="1489,-195 1607,-195 "/>
<text text-anchor="middle" x="1518.5" y="-182.2" font-family="Fira Mono" font-size="11.00">prev: &#45;1</text>
<polyline fill="none" stroke="#d66d66" points="1548,-175 1548,-195 "/>
<text text-anchor="middle" x="1577.5" y="-182.2" font-family="Fira Mono" font-size="11.00">next: &#45;1</text>
</g>
<!-- node_8&#45;&gt;node_9 -->
<!-- node_8&#45;&gt;node_9 -->
<g id="edge10" class="edge">
<title>node_8&#45;&gt;node_9</title>
<path fill="none" stroke="#d88d88" stroke-dasharray="5,2" d="M1435.22,-215.17C1435.22,-215.17 1478.88,-215.17 1478.88,-215.17"/>
<polygon fill="#d88d88" stroke="#d88d88" points="1478.88,-218.67 1488.88,-215.17 1478.88,-211.67 1478.88,-218.67"/>
</g>
<!-- node_free -->
<g id="node11" class="node">
<title>node_free</title>
<path fill="#ffecec" stroke="#d66d66" d="M79,-36C79,-36 32,-36 32,-36 26,-36 20,-30 20,-24 20,-24 20,-12 20,-12 20,-6 26,0 32,0 32,0 79,0 79,0 85,0 91,-6 91,-12 91,-12 91,-24 91,-24 91,-30 85,-36 79,-36"/>
<text text-anchor="middle" x="55.5" y="-15.2" font-family="Fira Mono" font-size="11.00">free_head</text>
</g>
<!-- node_free&#45;&gt;node_8 -->
<g id="edge19" class="edge">
<title>node_free&#45;&gt;node_8</title>
<path fill="none" stroke="#d88d88" stroke-dasharray="5,2" d="M91.22,-18C302.35,-18 1378,-18 1378,-18 1378,-18 1378,-164.96 1378,-164.96"/>
<polygon fill="#d88d88" stroke="#d88d88" points="1374.5,-164.96 1378,-174.96 1381.5,-164.96 1374.5,-164.96"/>
</g>
</g>
</svg>
