<?xml version="1.0" encoding="UTF-8" standalone="no"?>
<!DOCTYPE svg PUBLIC "-//W3C//DTD SVG 1.1//EN"
 "http://www.w3.org/Graphics/SVG/1.1/DTD/svg11.dtd">
<!-- Generated by graphviz version 2.43.0 (0)
 -->
<!-- Title: G Pages: 1 -->
<svg width="1960pt" height="273pt"
 viewBox="0.00 0.00 1960.00 273.00" xmlns="http://www.w3.org/2000/svg" xmlns:xlink="http://www.w3.org/1999/xlink">
<g id="graph0" class="graph" transform="scale(1 1) rotate(0) translate(4 269)">
<title>G</title>
<polygon fill="white" stroke="transparent" points="-4,4 -4,-269 1956,-269 1956,4 -4,4"/>
<!-- node_0 -->
<g id="node1" class="node">
<title>node_0</title>
<path fill="#e9f2ff" stroke="#6b8fd6" stroke-width="2" d="M12,-0.5C12,-0.5 106,-0.5 106,-0.5 112,-0.5 118,-6.5 118,-12.5 118,-12.5 118,-48.5 118,-48.5 118,-54.5 112,-60.5 106,-60.5 106,-60.5 12,-60.5 12,-60.5 6,-60.5 0,-54.5 0,-48.5 0,-48.5 0,-12.5 0,-12.5 0,-6.5 6,-0.5 12,-0.5"/>
<text text-anchor="middle" x="59" y="-47.7" font-family="Fira Mono" font-size="11.00">ind: 0</text>
<polyline fill="none" stroke="#6b8fd6" stroke-width="2" points="0,-40.5 118,-40.5 "/>
<text text-anchor="middle" x="59" y="-27.7" font-family="Fira Mono" font-size="11.00">val: 3.73593e+09</text>
<polyline fill="none" stroke="#6b8fd6" stroke-width="2" points="0,-20.5 118,-20.5 "/>
<text text-anchor="middle" x="31" y="-7.7" font-family="Fira Mono" font-size="11.00">prev: 11</text>
<polyline fill="none" stroke="#6b8fd6" stroke-width="2" points="62,-0.5 62,-20.5 "/>
<text text-anchor="middle" x="90" y="-7.7" font-family="Fira Mono" font-size="11.00">next: 1</text>
</g>
<!-- node_1 -->
<g id="node2" class="node">
<title>node_1</title>
<path fill="#e9fbf5" stroke="#5aa99b" d="M184,-0.5C184,-0.5 271,-0.5 271,-0.5 277,-0.5 283,-6.5 283,-12.5 283,-12.5 283,-48.5 283,-48.5 283,-54.5 277,-60.5 271,-60.5 271,-60.5 184,-60.5 184,-60.5 178,-60.5 172,-54.5 172,-48.5 172,-48.5 172,-12.5 172,-12.5 172,-6.5 178,-0.5 184,-0.5"/>
<text text-anchor="middle" x="227.5" y="-47.7" font-family="Fira Mono" font-size="11.00">ind: 1 (HEAD)</text>
<polyline fill="none" stroke="#5aa99b" points="172,-40.5 283,-40.5 "/>
<text text-anchor="middle" x="227.5" y="-27.7" font-family="Fira Mono" font-size="11.00">val: 10</text>
<polyline fill="none" stroke="#5aa99b" points="172,-20.5 283,-20.5 "/>
<text text-anchor="middle" x="199.5" y="-7.7" font-family="Fira Mono" font-size="11.00">prev: 0</text>
<polyline fill="none" stroke="#5aa99b" points="227,-0.5 227,-20.5 "/>
<text text-anchor="middle" x="255" y="-7.7" font-family="Fira Mono" font-size="11.00">next: 2</text>
</g>
<!-- node_0&#45;&gt;node_1 -->
<!-- node_0&#45;&gt;node_1 -->
<g id="edge12" class="edge">
<title>node_0&#45;&gt;node_1</title>
<path fill="none" stroke="#999999" d="M128.41,-40.67C128.41,-40.67 161.73,-40.67 161.73,-40.67"/>
<polygon fill="#999999" stroke="#999999" points="161.73,-44.17 171.73,-40.67 161.73,-37.17 161.73,-44.17"/>
<polygon fill="#999999" stroke="#999999" points="128.41,-37.17 118.41,-40.67 128.41,-44.17 128.41,-37.17"/>
</g>
<!-- node_2 -->
<g id="node3" class="node">
<title>node_2</title>
<path fill="#fff3e0" stroke="#000000" d="M349,-0.5C349,-0.5 436,-0.5 436,-0.5 442,-0.5 448,-6.5 448,-12.5 448,-12.5 448,-48.5 448,-48.5 448,-54.5 442,-60.5 436,-60.5 436,-60.5 349,-60.5 349,-60.5 343,-60.5 337,-54.5 337,-48.5 337,-48.5 337,-12.5 337,-12.5 337,-6.5 343,-0.5 349,-0.5"/>
<text text-anchor="middle" x="392.5" y="-47.7" font-family="Fira Mono" font-size="11.00">ind: 2</text>
<polyline fill="none" stroke="#000000" points="337,-40.5 448,-40.5 "/>
<text text-anchor="middle" x="392.5" y="-27.7" font-family="Fira Mono" font-size="11.00">val: 40</text>
<polyline fill="none" stroke="#000000" points="337,-20.5 448,-20.5 "/>
<text text-anchor="middle" x="364.5" y="-7.7" font-family="Fira Mono" font-size="11.00">prev: 1</text>
<polyline fill="none" stroke="#000000" points="392,-0.5 392,-20.5 "/>
<text text-anchor="middle" x="420" y="-7.7" font-family="Fira Mono" font-size="11.00">next: 3</text>
</g>
<!-- node_1&#45;&gt;node_2 -->
<!-- node_1&#45;&gt;node_2 -->
<g id="edge13" class="edge">
<title>node_1&#45;&gt;node_2</title>
<path fill="none" stroke="#999999" d="M293.36,-40.67C293.36,-40.67 326.98,-40.67 326.98,-40.67"/>
<polygon fill="#999999" stroke="#999999" points="326.98,-44.17 336.98,-40.67 326.98,-37.17 326.98,-44.17"/>
<polygon fill="#999999" stroke="#999999" points="293.36,-37.17 283.36,-40.67 293.36,-44.17 293.36,-37.17"/>
</g>
<!-- node_3 -->
<g id="node4" class="node">
<title>node_3</title>
<path fill="#fff3e0" stroke="#000000" d="M514,-0.5C514,-0.5 601,-0.5 601,-0.5 607,-0.5 613,-6.5 613,-12.5 613,-12.5 613,-48.5 613,-48.5 613,-54.5 607,-60.5 601,-60.5 601,-60.5 514,-60.5 514,-60.5 508,-60.5 502,-54.5 502,-48.5 502,-48.5 502,-12.5 502,-12.5 502,-6.5 508,-0.5 514,-0.5"/>
<text text-anchor="middle" x="557.5" y="-47.7" font-family="Fira Mono" font-size="11.00">ind: 3</text>
<polyline fill="none" stroke="#000000" points="502,-40.5 613,-40.5 "/>
<text text-anchor="middle" x="557.5" y="-27.7" font-family="Fira Mono" font-size="11.00">val: 2</text>
<polyline fill="none" stroke="#000000" points="502,-20.5 613,-20.5 "/>
<text text-anchor="middle" x="529.5" y="-7.7" font-family="Fira Mono" font-size="11.00">prev: 2</text>
<polyline fill="none" stroke="#000000" points="557,-0.5 557,-20.5 "/>
<text text-anchor="middle" x="585" y="-7.7" font-family="Fira Mono" font-size="11.00">next: 4</text>
</g>
<!-- node_2&#45;&gt;node_3 -->
<!-- node_2&#45;&gt;node_3 -->
<g id="edge14" class="edge">
<title>node_2&#45;&gt;node_3</title>
<path fill="none" stroke="#999999" d="M458.36,-40.67C458.36,-40.67 491.98,-40.67 491.98,-40.67"/>
<polygon fill="#999999" stroke="#999999" points="491.98,-44.17 501.98,-40.67 491.98,-37.17 491.98,-44.17"/>
<polygon fill="#999999" stroke="#999999" points="458.36,-37.17 448.36,-40.67 458.36,-44.17 458.36,-37.17"/>
</g>
<!-- node_4 -->
<g id="node5" class="node">
<title>node_4</title>
<path fill="#fff3e0" stroke="#000000" d="M679,-0.5C679,-0.5 766,-0.5 766,-0.5 772,-0.5 778,-6.5 778,-12.5 778,-12.5 778,-48.5 778,-48.5 778,-54.5 772,-60.5 766,-60.5 766,-60.5 679,-60.5 679,-60.5 673,-60.5 667,-54.5 667,-48.5 667,-48.5 667,-12.5 667,-12.5 667,-6.5 673,-0.5 679,-0.5"/>
<text text-anchor="middle" x="722.5" y="-47.7" font-family="Fira Mono" font-size="11.00">ind: 4</text>
<polyline fill="none" stroke="#000000" points="667,-40.5 778,-40.5 "/>
<text text-anchor="middle" x="722.5" y="-27.7" font-family="Fira Mono" font-size="11.00">val: 20</text>
<polyline fill="none" stroke="#000000" points="667,-20.5 778,-20.5 "/>
<text text-anchor="middle" x="694.5" y="-7.7" font-family="Fira Mono" font-size="11.00">prev: 3</text>
<polyline fill="none" stroke="#000000" points="722,-0.5 722,-20.5 "/>
<text text-anchor="middle" x="750" y="-7.7" font-family="Fira Mono" font-size="11.00">next: 5</text>
</g>
<!-- node_3&#45;&gt;node_4 -->
<!-- node_3&#45;&gt;node_4 -->
<g id="edge15" class="edge">
<title>node_3&#45;&gt;node_4</title>
<path fill="none" stroke="#999999" d="M623.36,-40.67C623.36,-40.67 656.98,-40.67 656.98,-40.67"/>
<polygon fill="#999999" stroke="#999999" points="656.98,-44.17 666.98,-40.67 656.98,-37.17 656.98,-44.17"/>
<polygon fill="#999999" stroke="#999999" points="623.36,-37.17 613.36,-40.67 623.36,-44.17 623.36,-37.17"/>
</g>
<!-- node_5 -->
<g id="node6" class="node">
<title>node_5</title>
<path fill="#fff3e0" stroke="#000000" d="M844,-0.5C844,-0.5 931,-0.5 931,-0.5 937,-0.5 943,-6.5 943,-12.5 943,-12.5 943,-48.5 943,-48.5 943,-54.5 937,-60.5 931,-60.5 931,-60.5 844,-60.5 844,-60.5 838,-60.5 832,-54.5 832,-48.5 832,-48.5 832,-12.5 832,-12.5 832,-6.5 838,-0.5 844,-0.5"/>
<text text-anchor="middle" x="887.5" y="-47.7" font-family="Fira Mono" font-size="11.00">ind: 5</text>
<polyline fill="none" stroke="#000000" points="832,-40.5 943,-40.5 "/>
<text text-anchor="middle" x="887.5" y="-27.7" font-family="Fira Mono" font-size="11.00">val: 1</text>
<polyline fill="none" stroke="#000000" points="832,-20.5 943,-20.5 "/>
<text text-anchor="middle" x="859.5" y="-7.7" font-family="Fira Mono" font-size="11.00">prev: 4</text>
<polyline fill="none" stroke="#000000" points="887,-0.5 887,-20.5 "/>
<text text-anchor="middle" x="915" y="-7.7" font-family="Fira Mono" font-size="11.00">next: 6</text>
</g>
<!-- node_4&#45;&gt;node_5 -->
<!-- node_4&#45;&gt;node_5 -->
<g id="edge16" class="edge">
<title>node_4&#45;&gt;node_5</title>
<path fill="none" stroke="#999999" d="M788.36,-40.67C788.36,-40.67 821.98,-40.67 821.98,-40.67"/>
<polygon fill="#999999" stroke="#999999" points="821.98,-44.17 831.98,-40.67 821.98,-37.17 821.98,-44.17"/>
<polygon fill="#999999" stroke="#999999" points="788.36,-37.17 778.36,-40.67 788.36,-44.17 788.36,-37.17"/>
</g>
<!-- node_6 -->
<g id="node7" class="node">
<title>node_6</title>
<path fill="#fff3e0" stroke="#000000" d="M1009,-0.5C1009,-0.5 1096,-0.5 1096,-0.5 1102,-0.5 1108,-6.5 1108,-12.5 1108,-12.5 1108,-48.5 1108,-48.5 1108,-54.5 1102,-60.5 1096,-60.5 1096,-60.5 1009,-60.5 1009,-60.5 1003,-60.5 997,-54.5 997,-48.5 997,-48.5 997,-12.5 997,-12.5 997,-6.5 1003,-0.5 1009,-0.5"/>
<text text-anchor="middle" x="1052.5" y="-47.7" font-family="Fira Mono" font-size="11.00">ind: 6</text>
<polyline fill="none" stroke="#000000" points="997,-40.5 1108,-40.5 "/>
<text text-anchor="middle" x="1052.5" y="-27.7" font-family="Fira Mono" font-size="11.00">val: 30</text>
<polyline fill="none" stroke="#000000" points="997,-20.5 1108,-20.5 "/>
<text text-anchor="middle" x="1024.5" y="-7.7" font-family="Fira Mono" font-size="11.00">prev: 5</text>
<polyline fill="none" stroke="#000000" points="1052,-0.5 1052,-20.5 "/>
<text text-anchor="middle" x="1080" y="-7.7" font-family="Fira Mono" font-size="11.00">next: 7</text>
</g>
<!-- node_5&#45;&gt;node_6 -->
<!-- node_5&#45;&gt;node_6 -->
<g id="edge17" class="edge">
<title>node_5&#45;&gt;node_6</title>
<path fill="none" stroke="#999999" d="M953.36,-40.67C953.36,-40.67 986.98,-40.67 986.98,-40.67"/>
<polygon fill="#999999" stroke="#999999" points="986.98,-44.17 996.98,-40.67 986.98,-37.17 986.98,-44.17"/>
<polygon fill="#999999" stroke="#999999" points="953.36,-37.17 943.36,-40.67 953.36,-44.17 953.36,-37.17"/>
</g>
<!-- node_7 -->
<g id="node8" class="node">
<title>node_7</title>
<path fill="#fff3e0" stroke="#000000" d="M1174,-0.5C1174,-0.5 1261,-0.5 1261,-0.5 1267,-0.5 1273,-6.5 1273,-12.5 1273,-12.5 1273,-48.5 1273,-48.5 1273,-54.5 1267,-60.5 1261,-60.5 1261,-60.5 1174,-60.5 1174,-60.5 1168,-60.5 1162,-54.5 1162,-48.5 1162,-48.5 1162,-12.5 1162,-12.5 1162,-6.5 1168,-0.5 1174,-0.5"/>
<text text-anchor="middle" x="1217.5" y="-47.7" font-family="Fira Mono" font-size="11.00">ind: 7</text>
<polyline fill="none" stroke="#000000" points="1162,-40.5 1273,-40.5 "/>
<text text-anchor="middle" x="1217.5" y="-27.7" font-family="Fira Mono" font-size="11.00">val: 5</text>
<polyline fill="none" stroke="#000000" points="1162,-20.5 1273,-20.5 "/>
<text text-anchor="middle" x="1189.5" y="-7.7" font-family="Fira Mono" font-size="11.00">prev: 6</text>
<polyline fill="none" stroke="#000000" points="1217,-0.5 1217,-20.5 "/>
<text text-anchor="middle" x="1245" y="-7.7" font-family="Fira Mono" font-size="11.00">next: 8</text>
</g>
<!-- node_6&#45;&gt;node_7 -->
<!-- node_6&#45;&gt;node_7 -->
<g id="edge18" class="edge">
<title>node_6&#45;&gt;node_7</title>
<path fill="none" stroke="#999999" d="M1118.36,-40.67C1118.36,-40.67 1151.98,-40.67 1151.98,-40.67"/>
<polygon fill="#999999" stroke="#999999" points="1151.98,-44.17 1161.98,-40.67 1151.98,-37.17 1151.98,-44.17"/>
<polygon fill="#999999" stroke="#999999" points="1118.36,-37.17 1108.36,-40.67 1118.36,-44.17 1118.36,-37.17"/>
</g>
<!-- node_8 -->
<g id="node9" class="node">
<title>node_8</title>
<path fill="#fff3e0" stroke="#000000" d="M1339,-0.5C1339,-0.5 1426,-0.5 1426,-0.5 1432,-0.5 1438,-6.5 1438,-12.5 1438,-12.5 1438,-48.5 1438,-48.5 1438,-54.5 1432,-60.5 1426,-60.5 1426,-60.5 1339,-60.5 1339,-60.5 1333,-60.5 1327,-54.5 1327,-48.5 1327,-48.5 1327,-12.5 1327,-12.5 1327,-6.5 1333,-0.5 1339,-0.5"/>
<text text-anchor="middle" x="1382.5" y="-47.7" font-family="Fira Mono" font-size="11.00">ind: 8</text>
<polyline fill="none" stroke="#000000" points="1327,-40.5 1438,-40.5 "/>
<text text-anchor="middle" x="1382.5" y="-27.7" font-family="Fira Mono" font-size="11.00">val: 4</text>
<polyline fill="none" stroke="#000000" points="1327,-20.5 1438,-20.5 "/>
<text text-anchor="middle" x="1354.5" y="-7.7" font-family="Fira Mono" font-size="11.00">prev: 7</text>
<polyline fill="none" stroke="#000000" points="1382,-0.5 1382,-20.5 "/>
<text text-anchor="middle" x="1410" y="-7.7" font-family="Fira Mono" font-size="11.00">next: 9</text>
</g>
<!-- node_7&#45;&gt;node_8 -->
<!-- node_7&#45;&gt;node_8 -->
<g id="edge19" class="edge">
<title>node_7&#45;&gt;node_8</title>
<path fill="none" stroke="#999999" d="M1283.36,-40.67C1283.36,-40.67 1316.98,-40.67 1316.98,-40.67"/>
<polygon fill="#999999" stroke="#999999" points="1316.98,-44.17 1326.98,-40.67 1316.98,-37.17 1316.98,-44.17"/>
<polygon fill="#999999" stroke="#999999" points="1283.36,-37.17 1273.36,-40.67 1283.36,-44.17 1283.36,-37.17"/>
</g>
<!-- node_9 -->
<g id="node10" class="node">
<title>node_9</title>
<path fill="#fff3e0" stroke="#000000" d="M1504,-0.5C1504,-0.5 1597,-0.5 1597,-0.5 1603,-0.5 1609,-6.5 1609,-12.5 1609,-12.5 1609,-48.5 1609,-48.5 1609,-54.5 1603,-60.5 1597,-60.5 1597,-60.5 1504,-60.5 1504,-60.5 1498,-60.5 1492,-54.5 1492,-48.5 1492,-48.5 1492,-12.5 1492,-12.5 1492,-6.5 1498,-0.5 1504,-0.5"/>
<text text-anchor="middle" x="1550.5" y="-47.7" font-family="Fira Mono" font-size="11.00">ind: 9</text>
<polyline fill="none" stroke="#000000" points="1492,-40.5 1609,-40.5 "/>
<text text-anchor="middle" x="1550.5" y="-27.7" font-family="Fira Mono" font-size="11.00">val: 5</text>
<polyline fill="none" stroke="#000000" points="1492,-20.5 1609,-20.5 "/>
<text text-anchor="middle" x="1519.5" y="-7.7" font-family="Fira Mono" font-size="11.00">prev: 8</text>
<polyline fill="none" stroke="#000000" points="1547,-0.5 1547,-20.5 "/>
<text text-anchor="middle" x="1578" y="-7.7" font-family="Fira Mono" font-size="11.00">next: 10</text>
</g>
<!-- node_8&#45;&gt;node_9 -->
<!-- node_8&#45;&gt;node_9 -->
<g id="edge20" class="edge">
<title>node_8&#45;&gt;node_9</title>
<path fill="none" stroke="#999999" d="M1448.44,-40.67C1448.44,-40.67 1481.93,-40.67 1481.93,-40.67"/>
<polygon fill="#999999" stroke="#999999" points="1481.93,-44.17 1491.93,-40.67 1481.93,-37.17 1481.93,-44.17"/>
<polygon fill="#999999" stroke="#999999" points="1448.44,-37.17 1438.44,-40.67 1448.44,-44.17 1448.44,-37.17"/>
</g>
<!-- node_10 -->
<g id="node11" class="node">
<title>node_10</title>
<path fill="#fff3e0" stroke="#000000" d="M1675,-0.5C1675,-0.5 1768,-0.5 1768,-0.5 1774,-0.5 1780,-6.5 1780,-12.5 1780,-12.5 1780,-48.5 1780,-48.5 1780,-54.5 1774,-60.5 1768,-60.5 1768,-60.5 1675,-60.5 1675,-60.5 1669,-60.5 1663,-54.5 1663,-48.5 1663,-48.5 1663,-12.5 1663,-12.5 1663,-6.5 1669,-0.5 1675,-0.5"/>
<text text-anchor="middle" x="1721.5" y="-47.7" font-family="Fira Mono" font-size="11.00">ind: 10</text>
<polyline fill="none" stroke="#000000" points="1663,-40.5 1780,-40.5 "/>
<text text-anchor="middle" x="1721.5" y="-27.7" font-family="Fira Mono" font-size="11.00">val: 4</text>
<polyline fill="none" stroke="#000000" points="1663,-20.5 1780,-20.5 "/>
<text text-anchor="middle" x="1690.5" y="-7.7" font-family="Fira Mono" font-size="11.00">prev: 9</text>
<polyline fill="none" stroke="#000000" points="1718,-0.5 1718,-20.5 "/>
<text text-anchor="middle" x="1749" y="-7.7" font-family="Fira Mono" font-size="11.00">next: 11</text>
</g>
<!-- node_9&#45;&gt;node_10 -->
<!-- node_9&#45;&gt;node_10 -->
<g id="edge21" class="edge">
<title>node_9&#45;&gt;node_10</title>
<path fill="none" stroke="#999999" d="M1619.35,-40.67C1619.35,-40.67 1652.83,-40.67 1652.83,-40.67"/>
<polygon fill="#999999" stroke="#999999" points="1652.83,-44.17 1662.83,-40.67 1652.83,-37.17 1652.83,-44.17"/>
<polygon fill="#999999" stroke="#999999" points="1619.35,-37.17 1609.35,-40.67 1619.35,-44.17 1619.35,-37.17"/>
</g>
<!-- node_11 -->
<g id="node12" class="node">
<title>node_11</title>
<path fill="#f1eafd" stroke="#8e6bd6" d="M1846,-0.5C1846,-0.5 1940,-0.5 1940,-0.5 1946,-0.5 1952,-6.5 1952,-12.5 1952,-12.5 1952,-48.5 1952,-48.5 1952,-54.5 1946,-60.5 1940,-60.5 1940,-60.5 1846,-60.5 1846,-60.5 1840,-60.5 1834,-54.5 1834,-48.5 1834,-48.5 1834,-12.5 1834,-12.5 1834,-6.5 1840,-0.5 1846,-0.5"/>
<text text-anchor="middle" x="1893" y="-47.7" font-family="Fira Mono" font-size="11.00">ind: 11 (TAIL)</text>
<polyline fill="none" stroke="#8e6bd6" points="1834,-40.5 1952,-40.5 "/>
<text text-anchor="middle" x="1893" y="-27.7" font-family="Fira Mono" font-size="11.00">val: 3</text>
<polyline fill="none" stroke="#8e6bd6" points="1834,-20.5 1952,-20.5 "/>
<text text-anchor="middle" x="1865" y="-7.7" font-family="Fira Mono" font-size="11.00">prev: 10</text>
<polyline fill="none" stroke="#8e6bd6" points="1896,-0.5 1896,-20.5 "/>
<text text-anchor="middle" x="1924" y="-7.7" font-family="Fira Mono" font-size="11.00">next: 0</text>
</g>
<!-- node_10&#45;&gt;node_11 -->
<!-- node_10&#45;&gt;node_11 -->
<g id="edge22" class="edge">
<title>node_10&#45;&gt;node_11</title>
<path fill="none" stroke="#999999" d="M1790.04,-40.67C1790.04,-40.67 1823.85,-40.67 1823.85,-40.67"/>
<polygon fill="#999999" stroke="#999999" points="1823.85,-44.17 1833.85,-40.67 1823.85,-37.17 1823.85,-44.17"/>
<polygon fill="#999999" stroke="#999999" points="1790.04,-37.17 1780.04,-40.67 1790.04,-44.17 1790.04,-37.17"/>
</g>
<!-- node_11&#45;&gt;node_0 -->
<g id="edge23" class="edge">
<title>node_11&#45;&gt;node_0</title>
<path fill="none" stroke="#999999" d="M1893,-70.52C1893,-70.52 1893,-93.5 1893,-93.5 1893,-93.5 107,-93.5 107,-93.5 107,-93.5 107,-70.52 107,-70.52"/>
<polygon fill="#999999" stroke="#999999" points="1896.5,-70.52 1893,-60.52 1889.5,-70.52 1896.5,-70.52"/>
<polygon fill="#999999" stroke="#999999" points="110.5,-70.52 107,-60.52 103.5,-70.52 110.5,-70.52"/>
</g>
<!-- node_free -->
<g id="node13" class="node">
<title>node_free</title>
<path fill="#ffecec" stroke="#d66d66" d="M82.5,-162.5C82.5,-162.5 35.5,-162.5 35.5,-162.5 29.5,-162.5 23.5,-156.5 23.5,-150.5 23.5,-150.5 23.5,-138.5 23.5,-138.5 23.5,-132.5 29.5,-126.5 35.5,-126.5 35.5,-126.5 82.5,-126.5 82.5,-126.5 88.5,-126.5 94.5,-132.5 94.5,-138.5 94.5,-138.5 94.5,-150.5 94.5,-150.5 94.5,-156.5 88.5,-162.5 82.5,-162.5"/>
<text text-anchor="middle" x="59" y="-141.7" font-family="Fira Mono" font-size="11.00">free_head</text>
</g>
<!-- node_ -->
<g id="node14" class="node">
<title>node_</title>
<path fill="lightgrey" stroke="black" d="M212.5,-126.5C212.5,-126.5 242.5,-126.5 242.5,-126.5 248.5,-126.5 254.5,-132.5 254.5,-138.5 254.5,-138.5 254.5,-150.5 254.5,-150.5 254.5,-156.5 248.5,-162.5 242.5,-162.5 242.5,-162.5 212.5,-162.5 212.5,-162.5 206.5,-162.5 200.5,-156.5 200.5,-150.5 200.5,-150.5 200.5,-138.5 200.5,-138.5 200.5,-132.5 206.5,-126.5 212.5,-126.5"/>
<text text-anchor="middle" x="227.5" y="-141.7" font-family="Fira Mono" font-size="11.00">node_</text>
</g>
<!-- node_free&#45;&gt;node_ -->
<g id="edge24" class="edge">
<title>node_free&#45;&gt;node_</title>
<path fill="none" stroke="black" d="M94.73,-144.5C94.73,-144.5 190.4,-144.5 190.4,-144.5"/>
<polygon fill="black" stroke="black" points="190.4,-148 200.4,-144.5 190.4,-141 190.4,-148"/>
</g>
<!-- &#45;1 -->
<g id="node15" class="node">
<title>&#45;1</title>
<polygon fill="none" stroke="#d88d88" stroke-dasharray="5,2" points="32,-228.5 32,-264.5 86,-264.5 86,-228.5 32,-228.5"/>
<text text-anchor="middle" x="59" y="-243.7" font-family="Fira Mono" font-size="11.00">&#45;1</text>
</g>
</g>
</svg>
