<?xml version="1.0" encoding="UTF-8" standalone="no"?>
<!DOCTYPE svg PUBLIC "-//W3C//DTD SVG 1.1//EN"
 "http://www.w3.org/Graphics/SVG/1.1/DTD/svg11.dtd">
<!-- Generated by graphviz version 2.43.0 (0)
 -->
<!-- Title: G Pages: 1 -->
<svg width="1996pt" height="337pt"
 viewBox="0.00 0.00 1996.00 337.30" xmlns="http://www.w3.org/2000/svg" xmlns:xlink="http://www.w3.org/1999/xlink">
<g id="graph0" class="graph" transform="scale(1 1) rotate(0) translate(4 333.3)">
<title>G</title>
<polygon fill="white" stroke="transparent" points="-4,4 -4,-333.3 1992,-333.3 1992,4 -4,4"/>
<!-- node_0 -->
<g id="node1" class="node">
<title>node_0</title>
<path fill="#e9f2ff" stroke="#6b8fd6" stroke-width="2" d="M12,-240C12,-240 102,-240 102,-240 108,-240 114,-246 114,-252 114,-252 114,-288 114,-288 114,-294 108,-300 102,-300 102,-300 12,-300 12,-300 6,-300 0,-294 0,-288 0,-288 0,-252 0,-252 0,-246 6,-240 12,-240"/>
<text text-anchor="middle" x="57" y="-287.2" font-family="Fira Mono" font-size="11.00">ind: 0</text>
<polyline fill="none" stroke="#6b8fd6" stroke-width="2" points="0,-280 114,-280 "/>
<text text-anchor="middle" x="57" y="-267.2" font-family="Fira Mono" font-size="11.00">val: 3.73593e+09</text>
<polyline fill="none" stroke="#6b8fd6" stroke-width="2" points="0,-260 114,-260 "/>
<text text-anchor="middle" x="28" y="-247.2" font-family="Fira Mono" font-size="11.00">prev: 1</text>
<polyline fill="none" stroke="#6b8fd6" stroke-width="2" points="56,-240 56,-260 "/>
<text text-anchor="middle" x="85" y="-247.2" font-family="Fira Mono" font-size="11.00">next: 3</text>
</g>
<!-- node_1 -->
<g id="node2" class="node">
<title>node_1</title>
<path fill="#f1eafd" stroke="#8e6bd6" d="M180,-240C180,-240 267,-240 267,-240 273,-240 279,-246 279,-252 279,-252 279,-288 279,-288 279,-294 273,-300 267,-300 267,-300 180,-300 180,-300 174,-300 168,-294 168,-288 168,-288 168,-252 168,-252 168,-246 174,-240 180,-240"/>
<text text-anchor="middle" x="223.5" y="-287.2" font-family="Fira Mono" font-size="11.00">ind: 1 (TAIL)</text>
<polyline fill="none" stroke="#8e6bd6" points="168,-280 279,-280 "/>
<text text-anchor="middle" x="223.5" y="-267.2" font-family="Fira Mono" font-size="11.00">val: 15</text>
<polyline fill="none" stroke="#8e6bd6" points="168,-260 279,-260 "/>
<text text-anchor="middle" x="195.5" y="-247.2" font-family="Fira Mono" font-size="11.00">prev: 6</text>
<polyline fill="none" stroke="#8e6bd6" points="223,-240 223,-260 "/>
<text text-anchor="middle" x="251" y="-247.2" font-family="Fira Mono" font-size="11.00">next: 0</text>
</g>
<!-- node_0&#45;&gt;node_1 -->
<!-- node_2 -->
<g id="node3" class="node">
<title>node_2</title>
<path fill="#e9fbf5" stroke="#5aa99b" d="M345,-240C345,-240 432,-240 432,-240 438,-240 444,-246 444,-252 444,-252 444,-288 444,-288 444,-294 438,-300 432,-300 432,-300 345,-300 345,-300 339,-300 333,-294 333,-288 333,-288 333,-252 333,-252 333,-246 339,-240 345,-240"/>
<text text-anchor="middle" x="388.5" y="-287.2" font-family="Fira Mono" font-size="11.00">ind: 2 (HEAD)</text>
<polyline fill="none" stroke="#5aa99b" points="333,-280 444,-280 "/>
<text text-anchor="middle" x="388.5" y="-267.2" font-family="Fira Mono" font-size="11.00">val: 40</text>
<polyline fill="none" stroke="#5aa99b" points="333,-260 444,-260 "/>
<text text-anchor="middle" x="360.5" y="-247.2" font-family="Fira Mono" font-size="11.00">prev: 0</text>
<polyline fill="none" stroke="#5aa99b" points="388,-240 388,-260 "/>
<text text-anchor="middle" x="416" y="-247.2" font-family="Fira Mono" font-size="11.00">next: 3</text>
</g>
<!-- node_0&#45;&gt;node_2 -->
<g id="edge24" class="edge">
<title>node_0&#45;&gt;node_2</title>
<path fill="none" stroke="#ff0000" stroke-width="2.2" d="M107,-239.86C107,-228.23 107,-217.67 107,-217.67 107,-217.67 389,-217.67 389,-217.67 389,-217.67 389,-229.86 389,-229.86"/>
<polygon fill="#ff0000" stroke="#ff0000" stroke-width="2.2" points="385.5,-229.86 389,-239.86 392.5,-229.86 385.5,-229.86"/>
</g>
<!-- node_3 -->
<g id="node4" class="node">
<title>node_3</title>
<path fill="#fff3e0" stroke="#000000" d="M510,-240C510,-240 623,-240 623,-240 629,-240 635,-246 635,-252 635,-252 635,-288 635,-288 635,-294 629,-300 623,-300 623,-300 510,-300 510,-300 504,-300 498,-294 498,-288 498,-288 498,-252 498,-252 498,-246 504,-240 510,-240"/>
<text text-anchor="middle" x="566.5" y="-287.2" font-family="Fira Mono" font-size="11.00">ind: 3</text>
<polyline fill="none" stroke="#000000" points="498,-280 635,-280 "/>
<text text-anchor="middle" x="566.5" y="-267.2" font-family="Fira Mono" font-size="11.00">val: 2</text>
<polyline fill="none" stroke="#000000" points="498,-260 635,-260 "/>
<text text-anchor="middle" x="532" y="-247.2" font-family="Fira Mono" font-size="11.00">prev: 150</text>
<polyline fill="none" stroke="#000000" points="566,-240 566,-260 "/>
<text text-anchor="middle" x="600.5" y="-247.2" font-family="Fira Mono" font-size="11.00">next: 150</text>
</g>
<!-- node_0&#45;&gt;node_3 -->
<g id="edge12" class="edge">
<title>node_0&#45;&gt;node_3</title>
<path fill="none" stroke="#ff0000" stroke-width="2.2" d="M100,-239.83C100,-219.3 100,-195.83 100,-195.83 100,-195.83 508,-195.83 508,-195.83 508,-195.83 508,-229.83 508,-229.83"/>
<polygon fill="#ff0000" stroke="#ff0000" stroke-width="2.2" points="504.5,-229.83 508,-239.83 511.5,-229.83 504.5,-229.83"/>
</g>
<!-- node_1&#45;&gt;node_0 -->
<g id="edge13" class="edge">
<title>node_1&#45;&gt;node_0</title>
<path fill="none" stroke="#999999" d="M157.59,-280.17C157.59,-280.17 124.18,-280.17 124.18,-280.17"/>
<polygon fill="#999999" stroke="#999999" points="124.18,-276.67 114.18,-280.17 124.18,-283.67 124.18,-276.67"/>
<polygon fill="#999999" stroke="#999999" points="157.59,-283.67 167.59,-280.17 157.59,-276.67 157.59,-283.67"/>
</g>
<!-- node_1&#45;&gt;node_2 -->
<!-- node_2&#45;&gt;node_3 -->
<!-- node_2&#45;&gt;node_3 -->
<g id="edge14" class="edge">
<title>node_2&#45;&gt;node_3</title>
<path fill="none" stroke="#ff0000" stroke-width="2.2" d="M444.33,-280.17C444.33,-280.17 487.72,-280.17 487.72,-280.17"/>
<polygon fill="#ff0000" stroke="#ff0000" stroke-width="2.2" points="487.72,-283.67 497.72,-280.17 487.72,-276.67 487.72,-283.67"/>
</g>
<!-- node_4 -->
<g id="node5" class="node">
<title>node_4</title>
<path fill="#fff3e0" stroke="#000000" d="M701,-240C701,-240 788,-240 788,-240 794,-240 800,-246 800,-252 800,-252 800,-288 800,-288 800,-294 794,-300 788,-300 788,-300 701,-300 701,-300 695,-300 689,-294 689,-288 689,-288 689,-252 689,-252 689,-246 695,-240 701,-240"/>
<text text-anchor="middle" x="744.5" y="-287.2" font-family="Fira Mono" font-size="11.00">ind: 4</text>
<polyline fill="none" stroke="#000000" points="689,-280 800,-280 "/>
<text text-anchor="middle" x="744.5" y="-267.2" font-family="Fira Mono" font-size="11.00">val: 20</text>
<polyline fill="none" stroke="#000000" points="689,-260 800,-260 "/>
<text text-anchor="middle" x="716.5" y="-247.2" font-family="Fira Mono" font-size="11.00">prev: 3</text>
<polyline fill="none" stroke="#000000" points="744,-240 744,-260 "/>
<text text-anchor="middle" x="772" y="-247.2" font-family="Fira Mono" font-size="11.00">next: 7</text>
</g>
<!-- node_3&#45;&gt;node_4 -->
<!-- node_3&#45;&gt;node_4 -->
<g id="edge27" class="edge">
<title>node_3&#45;&gt;node_4</title>
<path fill="none" stroke="#ff0000" stroke-width="2.2" d="M635.06,-280.17C635.06,-280.17 678.93,-280.17 678.93,-280.17"/>
<polygon fill="#ff0000" stroke="#ff0000" stroke-width="2.2" points="678.93,-283.67 688.93,-280.17 678.93,-276.67 678.93,-283.67"/>
</g>
<!-- node_bad_n_3 -->
<g id="node13" class="node">
<title>node_bad_n_3</title>
<path fill="#ffecec" stroke="#d66d66" d="M583,-73C583,-73 550,-73 550,-73 544,-73 538,-67 538,-61 538,-61 538,-49 538,-49 538,-43 544,-37 550,-37 550,-37 583,-37 583,-37 589,-37 595,-43 595,-49 595,-49 595,-61 595,-61 595,-67 589,-73 583,-73"/>
<text text-anchor="middle" x="566.5" y="-58.2" font-family="Fira Mono" font-size="11.00">idx 150</text>
<text text-anchor="middle" x="566.5" y="-46.2" font-family="Fira Mono" font-size="11.00">(N/A)</text>
</g>
<!-- node_3&#45;&gt;node_bad_n_3 -->
<g id="edge15" class="edge">
<title>node_3&#45;&gt;node_bad_n_3</title>
<path fill="none" stroke="#d66d66" stroke-width="2" d="M518,-239.73C518,-179.21 518,-49 518,-49 518,-49 527.73,-49 527.73,-49"/>
<polygon fill="#d66d66" stroke="#d66d66" stroke-width="2" points="527.73,-52.5 537.73,-49 527.73,-45.5 527.73,-52.5"/>
</g>
<!-- node_3&#45;&gt;node_bad_n_3 -->
<!-- node_bad_p_3 -->
<g id="node14" class="node">
<title>node_bad_p_3</title>
<path fill="#ffecec" stroke="#d66d66" d="M583,-174C583,-174 550,-174 550,-174 544,-174 538,-168 538,-162 538,-162 538,-150 538,-150 538,-144 544,-138 550,-138 550,-138 583,-138 583,-138 589,-138 595,-144 595,-150 595,-150 595,-162 595,-162 595,-168 589,-174 583,-174"/>
<text text-anchor="middle" x="566.5" y="-159.2" font-family="Fira Mono" font-size="11.00">idx 150</text>
<text text-anchor="middle" x="566.5" y="-147.2" font-family="Fira Mono" font-size="11.00">(N/A)</text>
</g>
<!-- node_3&#45;&gt;node_bad_p_3 -->
<!-- node_5 -->
<g id="node6" class="node">
<title>node_5</title>
<path fill="#ffecec" stroke="#d66d66" d="M866,-240C866,-240 960,-240 960,-240 966,-240 972,-246 972,-252 972,-252 972,-288 972,-288 972,-294 966,-300 960,-300 960,-300 866,-300 866,-300 860,-300 854,-294 854,-288 854,-288 854,-252 854,-252 854,-246 860,-240 866,-240"/>
<text text-anchor="middle" x="913" y="-287.2" font-family="Fira Mono" font-size="11.00">ind: 5</text>
<polyline fill="none" stroke="#d66d66" points="854,-280 972,-280 "/>
<text text-anchor="middle" x="913" y="-267.2" font-family="Fira Mono" font-size="11.00">val: &#45;100</text>
<polyline fill="none" stroke="#d66d66" points="854,-260 972,-260 "/>
<text text-anchor="middle" x="883.5" y="-247.2" font-family="Fira Mono" font-size="11.00">prev: &#45;1</text>
<polyline fill="none" stroke="#d66d66" points="913,-240 913,-260 "/>
<text text-anchor="middle" x="942.5" y="-247.2" font-family="Fira Mono" font-size="11.00">next: &#45;1</text>
</g>
<!-- node_4&#45;&gt;node_5 -->
<!-- node_7 -->
<g id="node8" class="node">
<title>node_7</title>
<path fill="#fff3e0" stroke="#000000" d="M1210,-240C1210,-240 1297,-240 1297,-240 1303,-240 1309,-246 1309,-252 1309,-252 1309,-288 1309,-288 1309,-294 1303,-300 1297,-300 1297,-300 1210,-300 1210,-300 1204,-300 1198,-294 1198,-288 1198,-288 1198,-252 1198,-252 1198,-246 1204,-240 1210,-240"/>
<text text-anchor="middle" x="1253.5" y="-287.2" font-family="Fira Mono" font-size="11.00">ind: 7</text>
<polyline fill="none" stroke="#000000" points="1198,-280 1309,-280 "/>
<text text-anchor="middle" x="1253.5" y="-267.2" font-family="Fira Mono" font-size="11.00">val: 5</text>
<polyline fill="none" stroke="#000000" points="1198,-260 1309,-260 "/>
<text text-anchor="middle" x="1225.5" y="-247.2" font-family="Fira Mono" font-size="11.00">prev: 4</text>
<polyline fill="none" stroke="#000000" points="1253,-240 1253,-260 "/>
<text text-anchor="middle" x="1281" y="-247.2" font-family="Fira Mono" font-size="11.00">next: 8</text>
</g>
<!-- node_4&#45;&gt;node_7 -->
<g id="edge17" class="edge">
<title>node_4&#45;&gt;node_7</title>
<path fill="none" stroke="#999999" d="M745,-310C745,-310 745,-322.1 745,-322.1 745,-322.1 1254,-322.1 1254,-322.1 1254,-322.1 1254,-310 1254,-310"/>
<polygon fill="#999999" stroke="#999999" points="748.5,-310 745,-300 741.5,-310 748.5,-310"/>
<polygon fill="#999999" stroke="#999999" points="1257.5,-310 1254,-300 1250.5,-310 1257.5,-310"/>
</g>
<!-- node_6 -->
<g id="node7" class="node">
<title>node_6</title>
<path fill="#fff3e0" stroke="#000000" d="M1038,-240C1038,-240 1132,-240 1132,-240 1138,-240 1144,-246 1144,-252 1144,-252 1144,-288 1144,-288 1144,-294 1138,-300 1132,-300 1132,-300 1038,-300 1038,-300 1032,-300 1026,-294 1026,-288 1026,-288 1026,-252 1026,-252 1026,-246 1032,-240 1038,-240"/>
<text text-anchor="middle" x="1085" y="-287.2" font-family="Fira Mono" font-size="11.00">ind: 6</text>
<polyline fill="none" stroke="#000000" points="1026,-280 1144,-280 "/>
<text text-anchor="middle" x="1085" y="-267.2" font-family="Fira Mono" font-size="11.00">val: 22</text>
<polyline fill="none" stroke="#000000" points="1026,-260 1144,-260 "/>
<text text-anchor="middle" x="1057" y="-247.2" font-family="Fira Mono" font-size="11.00">prev: 11</text>
<polyline fill="none" stroke="#000000" points="1088,-240 1088,-260 "/>
<text text-anchor="middle" x="1116" y="-247.2" font-family="Fira Mono" font-size="11.00">next: 1</text>
</g>
<!-- node_5&#45;&gt;node_6 -->
<!-- node_6&#45;&gt;node_1 -->
<g id="edge18" class="edge">
<title>node_6&#45;&gt;node_1</title>
<path fill="none" stroke="#999999" d="M1066,-306.94C1066,-306.94 1066,-307.7 1066,-307.7 1066,-307.7 224,-307.7 224,-307.7 224,-307.7 224,-306.94 224,-306.94"/>
<polygon fill="#999999" stroke="#999999" points="1069.5,-310.07 1066,-300.07 1062.5,-310.07 1069.5,-310.07"/>
<polygon fill="#999999" stroke="#999999" points="227.5,-310.07 224,-300.07 220.5,-310.07 227.5,-310.07"/>
</g>
<!-- node_6&#45;&gt;node_7 -->
<!-- node_8 -->
<g id="node9" class="node">
<title>node_8</title>
<path fill="#fff3e0" stroke="#000000" d="M1375,-240C1375,-240 1462,-240 1462,-240 1468,-240 1474,-246 1474,-252 1474,-252 1474,-288 1474,-288 1474,-294 1468,-300 1462,-300 1462,-300 1375,-300 1375,-300 1369,-300 1363,-294 1363,-288 1363,-288 1363,-252 1363,-252 1363,-246 1369,-240 1375,-240"/>
<text text-anchor="middle" x="1418.5" y="-287.2" font-family="Fira Mono" font-size="11.00">ind: 8</text>
<polyline fill="none" stroke="#000000" points="1363,-280 1474,-280 "/>
<text text-anchor="middle" x="1418.5" y="-267.2" font-family="Fira Mono" font-size="11.00">val: 4</text>
<polyline fill="none" stroke="#000000" points="1363,-260 1474,-260 "/>
<text text-anchor="middle" x="1390.5" y="-247.2" font-family="Fira Mono" font-size="11.00">prev: 7</text>
<polyline fill="none" stroke="#000000" points="1418,-240 1418,-260 "/>
<text text-anchor="middle" x="1446" y="-247.2" font-family="Fira Mono" font-size="11.00">next: 5</text>
</g>
<!-- node_7&#45;&gt;node_8 -->
<!-- node_7&#45;&gt;node_8 -->
<g id="edge19" class="edge">
<title>node_7&#45;&gt;node_8</title>
<path fill="none" stroke="#999999" d="M1319.36,-280.17C1319.36,-280.17 1352.98,-280.17 1352.98,-280.17"/>
<polygon fill="#999999" stroke="#999999" points="1352.98,-283.67 1362.98,-280.17 1352.98,-276.67 1352.98,-283.67"/>
<polygon fill="#999999" stroke="#999999" points="1319.36,-276.67 1309.36,-280.17 1319.36,-283.67 1319.36,-276.67"/>
</g>
<!-- node_8&#45;&gt;node_5 -->
<g id="edge20" class="edge">
<title>node_8&#45;&gt;node_5</title>
<path fill="none" stroke="#ff0000" stroke-width="2.2" d="M1419,-300.34C1419,-314.93 1419,-329.3 1419,-329.3 1419,-329.3 913,-329.3 913,-329.3 913,-329.3 913,-310.34 913,-310.34"/>
<polygon fill="#ff0000" stroke="#ff0000" stroke-width="2.2" points="916.5,-310.34 913,-300.34 909.5,-310.34 916.5,-310.34"/>
</g>
<!-- node_9 -->
<g id="node10" class="node">
<title>node_9</title>
<path fill="#fff3e0" stroke="#000000" d="M1540,-240C1540,-240 1633,-240 1633,-240 1639,-240 1645,-246 1645,-252 1645,-252 1645,-288 1645,-288 1645,-294 1639,-300 1633,-300 1633,-300 1540,-300 1540,-300 1534,-300 1528,-294 1528,-288 1528,-288 1528,-252 1528,-252 1528,-246 1534,-240 1540,-240"/>
<text text-anchor="middle" x="1586.5" y="-287.2" font-family="Fira Mono" font-size="11.00">ind: 9</text>
<polyline fill="none" stroke="#000000" points="1528,-280 1645,-280 "/>
<text text-anchor="middle" x="1586.5" y="-267.2" font-family="Fira Mono" font-size="11.00">val: 5</text>
<polyline fill="none" stroke="#000000" points="1528,-260 1645,-260 "/>
<text text-anchor="middle" x="1555.5" y="-247.2" font-family="Fira Mono" font-size="11.00">prev: 8</text>
<polyline fill="none" stroke="#000000" points="1583,-240 1583,-260 "/>
<text text-anchor="middle" x="1614" y="-247.2" font-family="Fira Mono" font-size="11.00">next: 10</text>
</g>
<!-- node_8&#45;&gt;node_9 -->
<!-- node_8&#45;&gt;node_9 -->
<g id="edge28" class="edge">
<title>node_8&#45;&gt;node_9</title>
<path fill="none" stroke="#ff0000" stroke-width="2.2" d="M1474.44,-280.17C1474.44,-280.17 1517.93,-280.17 1517.93,-280.17"/>
<polygon fill="#ff0000" stroke="#ff0000" stroke-width="2.2" points="1517.93,-283.67 1527.93,-280.17 1517.93,-276.67 1517.93,-283.67"/>
</g>
<!-- node_10 -->
<g id="node11" class="node">
<title>node_10</title>
<path fill="#fff3e0" stroke="#000000" d="M1711,-240C1711,-240 1804,-240 1804,-240 1810,-240 1816,-246 1816,-252 1816,-252 1816,-288 1816,-288 1816,-294 1810,-300 1804,-300 1804,-300 1711,-300 1711,-300 1705,-300 1699,-294 1699,-288 1699,-288 1699,-252 1699,-252 1699,-246 1705,-240 1711,-240"/>
<text text-anchor="middle" x="1757.5" y="-287.2" font-family="Fira Mono" font-size="11.00">ind: 10</text>
<polyline fill="none" stroke="#000000" points="1699,-280 1816,-280 "/>
<text text-anchor="middle" x="1757.5" y="-267.2" font-family="Fira Mono" font-size="11.00">val: 4</text>
<polyline fill="none" stroke="#000000" points="1699,-260 1816,-260 "/>
<text text-anchor="middle" x="1726.5" y="-247.2" font-family="Fira Mono" font-size="11.00">prev: 9</text>
<polyline fill="none" stroke="#000000" points="1754,-240 1754,-260 "/>
<text text-anchor="middle" x="1785" y="-247.2" font-family="Fira Mono" font-size="11.00">next: 11</text>
</g>
<!-- node_9&#45;&gt;node_10 -->
<!-- node_9&#45;&gt;node_10 -->
<g id="edge21" class="edge">
<title>node_9&#45;&gt;node_10</title>
<path fill="none" stroke="#999999" d="M1655.35,-280.17C1655.35,-280.17 1688.83,-280.17 1688.83,-280.17"/>
<polygon fill="#999999" stroke="#999999" points="1688.83,-283.67 1698.83,-280.17 1688.83,-276.67 1688.83,-283.67"/>
<polygon fill="#999999" stroke="#999999" points="1655.35,-276.67 1645.35,-280.17 1655.35,-283.67 1655.35,-276.67"/>
</g>
<!-- node_11 -->
<g id="node12" class="node">
<title>node_11</title>
<path fill="#fff3e0" stroke="#000000" d="M1882,-240C1882,-240 1976,-240 1976,-240 1982,-240 1988,-246 1988,-252 1988,-252 1988,-288 1988,-288 1988,-294 1982,-300 1976,-300 1976,-300 1882,-300 1882,-300 1876,-300 1870,-294 1870,-288 1870,-288 1870,-252 1870,-252 1870,-246 1876,-240 1882,-240"/>
<text text-anchor="middle" x="1929" y="-287.2" font-family="Fira Mono" font-size="11.00">ind: 11</text>
<polyline fill="none" stroke="#000000" points="1870,-280 1988,-280 "/>
<text text-anchor="middle" x="1929" y="-267.2" font-family="Fira Mono" font-size="11.00">val: 3</text>
<polyline fill="none" stroke="#000000" points="1870,-260 1988,-260 "/>
<text text-anchor="middle" x="1901" y="-247.2" font-family="Fira Mono" font-size="11.00">prev: 10</text>
<polyline fill="none" stroke="#000000" points="1932,-240 1932,-260 "/>
<text text-anchor="middle" x="1960" y="-247.2" font-family="Fira Mono" font-size="11.00">next: 6</text>
</g>
<!-- node_10&#45;&gt;node_11 -->
<!-- node_10&#45;&gt;node_11 -->
<g id="edge22" class="edge">
<title>node_10&#45;&gt;node_11</title>
<path fill="none" stroke="#999999" d="M1826.04,-280.17C1826.04,-280.17 1859.85,-280.17 1859.85,-280.17"/>
<polygon fill="#999999" stroke="#999999" points="1859.85,-283.67 1869.85,-280.17 1859.85,-276.67 1859.85,-283.67"/>
<polygon fill="#999999" stroke="#999999" points="1826.04,-276.67 1816.04,-280.17 1826.04,-283.67 1826.04,-276.67"/>
</g>
<!-- node_11&#45;&gt;node_6 -->
<g id="edge23" class="edge">
<title>node_11&#45;&gt;node_6</title>
<path fill="none" stroke="#999999" d="M1929,-310.2C1929,-310.2 1929,-314.9 1929,-314.9 1929,-314.9 1105,-314.9 1105,-314.9 1105,-314.9 1105,-310.2 1105,-310.2"/>
<polygon fill="#999999" stroke="#999999" points="1932.5,-310.2 1929,-300.2 1925.5,-310.2 1932.5,-310.2"/>
<polygon fill="#999999" stroke="#999999" points="1108.5,-310.2 1105,-300.2 1101.5,-310.2 1108.5,-310.2"/>
</g>
<!-- node_bad_p_3&#45;&gt;node_3 -->
<g id="edge25" class="edge">
<title>node_bad_p_3&#45;&gt;node_3</title>
<path fill="none" stroke="#d66d66" stroke-width="2" d="M576,-174.06C576,-174.06 576,-229.59 576,-229.59"/>
<polygon fill="#d66d66" stroke="#d66d66" stroke-width="2" points="572.5,-229.59 576,-239.59 579.5,-229.59 572.5,-229.59"/>
</g>
<!-- node_free -->
<g id="node15" class="node">
<title>node_free</title>
<path fill="#ffecec" stroke="#d66d66" d="M80.5,-36C80.5,-36 33.5,-36 33.5,-36 27.5,-36 21.5,-30 21.5,-24 21.5,-24 21.5,-12 21.5,-12 21.5,-6 27.5,0 33.5,0 33.5,0 80.5,0 80.5,0 86.5,0 92.5,-6 92.5,-12 92.5,-12 92.5,-24 92.5,-24 92.5,-30 86.5,-36 80.5,-36"/>
<text text-anchor="middle" x="57" y="-15.2" font-family="Fira Mono" font-size="11.00">free_head</text>
</g>
<!-- node_free&#45;&gt;node_5 -->
<g id="edge29" class="edge">
<title>node_free&#45;&gt;node_5</title>
<path fill="none" stroke="#d88d88" stroke-dasharray="5,2" d="M92.69,-18C254.7,-18 913,-18 913,-18 913,-18 913,-229.6 913,-229.6"/>
<polygon fill="#d88d88" stroke="#d88d88" points="909.5,-229.6 913,-239.6 916.5,-229.6 909.5,-229.6"/>
</g>
</g>
</svg>
