<?xml version="1.0" encoding="UTF-8" standalone="no"?>
<!DOCTYPE svg PUBLIC "-//W3C//DTD SVG 1.1//EN"
 "http://www.w3.org/Graphics/SVG/1.1/DTD/svg11.dtd">
<!-- Generated by graphviz version 2.43.0 (0)
 -->
<!-- Title: G Pages: 1 -->
<svg width="3357pt" height="271pt"
 viewBox="0.00 0.00 3357.00 270.50" xmlns="http://www.w3.org/2000/svg" xmlns:xlink="http://www.w3.org/1999/xlink">
<g id="graph0" class="graph" transform="scale(1 1) rotate(0) translate(4 266.5)">
<title>G</title>
<polygon fill="white" stroke="transparent" points="-4,4 -4,-266.5 3353,-266.5 3353,4 -4,4"/>
<!-- node_0 -->
<g id="node1" class="node">
<title>node_0</title>
<path fill="#e9f2ff" stroke="#6b8fd6" stroke-width="2" d="M12,-175C12,-175 106,-175 106,-175 112,-175 118,-181 118,-187 118,-187 118,-223 118,-223 118,-229 112,-235 106,-235 106,-235 12,-235 12,-235 6,-235 0,-229 0,-223 0,-223 0,-187 0,-187 0,-181 6,-175 12,-175"/>
<text text-anchor="middle" x="59" y="-222.2" font-family="Fira Mono" font-size="11.00">ind: 0</text>
<polyline fill="none" stroke="#6b8fd6" stroke-width="2" points="0,-215 118,-215 "/>
<text text-anchor="middle" x="59" y="-202.2" font-family="Fira Mono" font-size="11.00">val: 3.73593e+09</text>
<polyline fill="none" stroke="#6b8fd6" stroke-width="2" points="0,-195 118,-195 "/>
<text text-anchor="middle" x="31" y="-182.2" font-family="Fira Mono" font-size="11.00">prev: 10</text>
<polyline fill="none" stroke="#6b8fd6" stroke-width="2" points="62,-175 62,-195 "/>
<text text-anchor="middle" x="90" y="-182.2" font-family="Fira Mono" font-size="11.00">next: 1</text>
</g>
<!-- node_1 -->
<g id="node2" class="node">
<title>node_1</title>
<path fill="#e9fbf5" stroke="#5aa99b" d="M184,-175C184,-175 277,-175 277,-175 283,-175 289,-181 289,-187 289,-187 289,-223 289,-223 289,-229 283,-235 277,-235 277,-235 184,-235 184,-235 178,-235 172,-229 172,-223 172,-223 172,-187 172,-187 172,-181 178,-175 184,-175"/>
<text text-anchor="middle" x="230.5" y="-222.2" font-family="Fira Mono" font-size="11.00">ind: 1 (HEAD)</text>
<polyline fill="none" stroke="#5aa99b" points="172,-215 289,-215 "/>
<text text-anchor="middle" x="230.5" y="-202.2" font-family="Fira Mono" font-size="11.00">val: 10</text>
<polyline fill="none" stroke="#5aa99b" points="172,-195 289,-195 "/>
<text text-anchor="middle" x="199.5" y="-182.2" font-family="Fira Mono" font-size="11.00">prev: 0</text>
<polyline fill="none" stroke="#5aa99b" points="227,-175 227,-195 "/>
<text text-anchor="middle" x="258" y="-182.2" font-family="Fira Mono" font-size="11.00">next: 11</text>
</g>
<!-- node_0&#45;&gt;node_1 -->
<!-- node_0&#45;&gt;node_1 -->
<g id="edge27" class="edge">
<title>node_0&#45;&gt;node_1</title>
<path fill="none" stroke="#999999" d="M128.02,-215.17C128.02,-215.17 161.95,-215.17 161.95,-215.17"/>
<polygon fill="#999999" stroke="#999999" points="161.95,-218.67 171.95,-215.17 161.95,-211.67 161.95,-218.67"/>
<polygon fill="#999999" stroke="#999999" points="128.02,-211.67 118.02,-215.17 128.02,-218.67 128.02,-211.67"/>
</g>
<!-- node_2 -->
<g id="node3" class="node">
<title>node_2</title>
<path fill="#fff3e0" stroke="#000000" d="M355,-175C355,-175 449,-175 449,-175 455,-175 461,-181 461,-187 461,-187 461,-223 461,-223 461,-229 455,-235 449,-235 449,-235 355,-235 355,-235 349,-235 343,-229 343,-223 343,-223 343,-187 343,-187 343,-181 349,-175 355,-175"/>
<text text-anchor="middle" x="402" y="-222.2" font-family="Fira Mono" font-size="11.00">ind: 2</text>
<polyline fill="none" stroke="#000000" points="343,-215 461,-215 "/>
<text text-anchor="middle" x="402" y="-202.2" font-family="Fira Mono" font-size="11.00">val: 2</text>
<polyline fill="none" stroke="#000000" points="343,-195 461,-195 "/>
<text text-anchor="middle" x="374" y="-182.2" font-family="Fira Mono" font-size="11.00">prev: 11</text>
<polyline fill="none" stroke="#000000" points="405,-175 405,-195 "/>
<text text-anchor="middle" x="433" y="-182.2" font-family="Fira Mono" font-size="11.00">next: 3</text>
</g>
<!-- node_1&#45;&gt;node_2 -->
<!-- node_11 -->
<g id="node12" class="node">
<title>node_11</title>
<path fill="#fff3e0" stroke="#000000" d="M1853,-175C1853,-175 1940,-175 1940,-175 1946,-175 1952,-181 1952,-187 1952,-187 1952,-223 1952,-223 1952,-229 1946,-235 1940,-235 1940,-235 1853,-235 1853,-235 1847,-235 1841,-229 1841,-223 1841,-223 1841,-187 1841,-187 1841,-181 1847,-175 1853,-175"/>
<text text-anchor="middle" x="1896.5" y="-222.2" font-family="Fira Mono" font-size="11.00">ind: 11</text>
<polyline fill="none" stroke="#000000" points="1841,-215 1952,-215 "/>
<text text-anchor="middle" x="1896.5" y="-202.2" font-family="Fira Mono" font-size="11.00">val: 40</text>
<polyline fill="none" stroke="#000000" points="1841,-195 1952,-195 "/>
<text text-anchor="middle" x="1868.5" y="-182.2" font-family="Fira Mono" font-size="11.00">prev: 1</text>
<polyline fill="none" stroke="#000000" points="1896,-175 1896,-195 "/>
<text text-anchor="middle" x="1924" y="-182.2" font-family="Fira Mono" font-size="11.00">next: 2</text>
</g>
<!-- node_1&#45;&gt;node_11 -->
<g id="edge28" class="edge">
<title>node_1&#45;&gt;node_11</title>
<path fill="none" stroke="#999999" d="M231,-245.1C231,-245.1 231,-262.5 231,-262.5 231,-262.5 1878,-262.5 1878,-262.5 1878,-262.5 1878,-245.1 1878,-245.1"/>
<polygon fill="#999999" stroke="#999999" points="234.5,-245.1 231,-235.1 227.5,-245.1 234.5,-245.1"/>
<polygon fill="#999999" stroke="#999999" points="1881.5,-245.1 1878,-235.1 1874.5,-245.1 1881.5,-245.1"/>
</g>
<!-- node_3 -->
<g id="node4" class="node">
<title>node_3</title>
<path fill="#fff3e0" stroke="#000000" d="M527,-175C527,-175 614,-175 614,-175 620,-175 626,-181 626,-187 626,-187 626,-223 626,-223 626,-229 620,-235 614,-235 614,-235 527,-235 527,-235 521,-235 515,-229 515,-223 515,-223 515,-187 515,-187 515,-181 521,-175 527,-175"/>
<text text-anchor="middle" x="570.5" y="-222.2" font-family="Fira Mono" font-size="11.00">ind: 3</text>
<polyline fill="none" stroke="#000000" points="515,-215 626,-215 "/>
<text text-anchor="middle" x="570.5" y="-202.2" font-family="Fira Mono" font-size="11.00">val: 20</text>
<polyline fill="none" stroke="#000000" points="515,-195 626,-195 "/>
<text text-anchor="middle" x="542.5" y="-182.2" font-family="Fira Mono" font-size="11.00">prev: 2</text>
<polyline fill="none" stroke="#000000" points="570,-175 570,-195 "/>
<text text-anchor="middle" x="598" y="-182.2" font-family="Fira Mono" font-size="11.00">next: 4</text>
</g>
<!-- node_2&#45;&gt;node_3 -->
<!-- node_2&#45;&gt;node_3 -->
<g id="edge29" class="edge">
<title>node_2&#45;&gt;node_3</title>
<path fill="none" stroke="#999999" d="M471.41,-215.17C471.41,-215.17 504.73,-215.17 504.73,-215.17"/>
<polygon fill="#999999" stroke="#999999" points="504.73,-218.67 514.73,-215.17 504.73,-211.67 504.73,-218.67"/>
<polygon fill="#999999" stroke="#999999" points="471.41,-211.67 461.41,-215.17 471.41,-218.67 471.41,-211.67"/>
</g>
<!-- node_4 -->
<g id="node5" class="node">
<title>node_4</title>
<path fill="#fff3e0" stroke="#000000" d="M692,-175C692,-175 779,-175 779,-175 785,-175 791,-181 791,-187 791,-187 791,-223 791,-223 791,-229 785,-235 779,-235 779,-235 692,-235 692,-235 686,-235 680,-229 680,-223 680,-223 680,-187 680,-187 680,-181 686,-175 692,-175"/>
<text text-anchor="middle" x="735.5" y="-222.2" font-family="Fira Mono" font-size="11.00">ind: 4</text>
<polyline fill="none" stroke="#000000" points="680,-215 791,-215 "/>
<text text-anchor="middle" x="735.5" y="-202.2" font-family="Fira Mono" font-size="11.00">val: 1</text>
<polyline fill="none" stroke="#000000" points="680,-195 791,-195 "/>
<text text-anchor="middle" x="707.5" y="-182.2" font-family="Fira Mono" font-size="11.00">prev: 3</text>
<polyline fill="none" stroke="#000000" points="735,-175 735,-195 "/>
<text text-anchor="middle" x="763" y="-182.2" font-family="Fira Mono" font-size="11.00">next: 5</text>
</g>
<!-- node_3&#45;&gt;node_4 -->
<!-- node_3&#45;&gt;node_4 -->
<g id="edge30" class="edge">
<title>node_3&#45;&gt;node_4</title>
<path fill="none" stroke="#999999" d="M636.36,-215.17C636.36,-215.17 669.98,-215.17 669.98,-215.17"/>
<polygon fill="#999999" stroke="#999999" points="669.98,-218.67 679.98,-215.17 669.98,-211.67 669.98,-218.67"/>
<polygon fill="#999999" stroke="#999999" points="636.36,-211.67 626.36,-215.17 636.36,-218.67 636.36,-211.67"/>
</g>
<!-- node_5 -->
<g id="node6" class="node">
<title>node_5</title>
<path fill="#fff3e0" stroke="#000000" d="M857,-175C857,-175 944,-175 944,-175 950,-175 956,-181 956,-187 956,-187 956,-223 956,-223 956,-229 950,-235 944,-235 944,-235 857,-235 857,-235 851,-235 845,-229 845,-223 845,-223 845,-187 845,-187 845,-181 851,-175 857,-175"/>
<text text-anchor="middle" x="900.5" y="-222.2" font-family="Fira Mono" font-size="11.00">ind: 5</text>
<polyline fill="none" stroke="#000000" points="845,-215 956,-215 "/>
<text text-anchor="middle" x="900.5" y="-202.2" font-family="Fira Mono" font-size="11.00">val: 30</text>
<polyline fill="none" stroke="#000000" points="845,-195 956,-195 "/>
<text text-anchor="middle" x="872.5" y="-182.2" font-family="Fira Mono" font-size="11.00">prev: 4</text>
<polyline fill="none" stroke="#000000" points="900,-175 900,-195 "/>
<text text-anchor="middle" x="928" y="-182.2" font-family="Fira Mono" font-size="11.00">next: 6</text>
</g>
<!-- node_4&#45;&gt;node_5 -->
<!-- node_4&#45;&gt;node_5 -->
<g id="edge31" class="edge">
<title>node_4&#45;&gt;node_5</title>
<path fill="none" stroke="#999999" d="M801.36,-215.17C801.36,-215.17 834.98,-215.17 834.98,-215.17"/>
<polygon fill="#999999" stroke="#999999" points="834.98,-218.67 844.98,-215.17 834.98,-211.67 834.98,-218.67"/>
<polygon fill="#999999" stroke="#999999" points="801.36,-211.67 791.36,-215.17 801.36,-218.67 801.36,-211.67"/>
</g>
<!-- node_6 -->
<g id="node7" class="node">
<title>node_6</title>
<path fill="#fff3e0" stroke="#000000" d="M1022,-175C1022,-175 1109,-175 1109,-175 1115,-175 1121,-181 1121,-187 1121,-187 1121,-223 1121,-223 1121,-229 1115,-235 1109,-235 1109,-235 1022,-235 1022,-235 1016,-235 1010,-229 1010,-223 1010,-223 1010,-187 1010,-187 1010,-181 1016,-175 1022,-175"/>
<text text-anchor="middle" x="1065.5" y="-222.2" font-family="Fira Mono" font-size="11.00">ind: 6</text>
<polyline fill="none" stroke="#000000" points="1010,-215 1121,-215 "/>
<text text-anchor="middle" x="1065.5" y="-202.2" font-family="Fira Mono" font-size="11.00">val: 5</text>
<polyline fill="none" stroke="#000000" points="1010,-195 1121,-195 "/>
<text text-anchor="middle" x="1037.5" y="-182.2" font-family="Fira Mono" font-size="11.00">prev: 5</text>
<polyline fill="none" stroke="#000000" points="1065,-175 1065,-195 "/>
<text text-anchor="middle" x="1093" y="-182.2" font-family="Fira Mono" font-size="11.00">next: 7</text>
</g>
<!-- node_5&#45;&gt;node_6 -->
<!-- node_5&#45;&gt;node_6 -->
<g id="edge32" class="edge">
<title>node_5&#45;&gt;node_6</title>
<path fill="none" stroke="#999999" d="M966.36,-215.17C966.36,-215.17 999.98,-215.17 999.98,-215.17"/>
<polygon fill="#999999" stroke="#999999" points="999.98,-218.67 1009.98,-215.17 999.98,-211.67 999.98,-218.67"/>
<polygon fill="#999999" stroke="#999999" points="966.36,-211.67 956.36,-215.17 966.36,-218.67 966.36,-211.67"/>
</g>
<!-- node_7 -->
<g id="node8" class="node">
<title>node_7</title>
<path fill="#fff3e0" stroke="#000000" d="M1187,-175C1187,-175 1274,-175 1274,-175 1280,-175 1286,-181 1286,-187 1286,-187 1286,-223 1286,-223 1286,-229 1280,-235 1274,-235 1274,-235 1187,-235 1187,-235 1181,-235 1175,-229 1175,-223 1175,-223 1175,-187 1175,-187 1175,-181 1181,-175 1187,-175"/>
<text text-anchor="middle" x="1230.5" y="-222.2" font-family="Fira Mono" font-size="11.00">ind: 7</text>
<polyline fill="none" stroke="#000000" points="1175,-215 1286,-215 "/>
<text text-anchor="middle" x="1230.5" y="-202.2" font-family="Fira Mono" font-size="11.00">val: 4</text>
<polyline fill="none" stroke="#000000" points="1175,-195 1286,-195 "/>
<text text-anchor="middle" x="1202.5" y="-182.2" font-family="Fira Mono" font-size="11.00">prev: 6</text>
<polyline fill="none" stroke="#000000" points="1230,-175 1230,-195 "/>
<text text-anchor="middle" x="1258" y="-182.2" font-family="Fira Mono" font-size="11.00">next: 8</text>
</g>
<!-- node_6&#45;&gt;node_7 -->
<!-- node_6&#45;&gt;node_7 -->
<g id="edge33" class="edge">
<title>node_6&#45;&gt;node_7</title>
<path fill="none" stroke="#999999" d="M1131.36,-215.17C1131.36,-215.17 1164.98,-215.17 1164.98,-215.17"/>
<polygon fill="#999999" stroke="#999999" points="1164.98,-218.67 1174.98,-215.17 1164.98,-211.67 1164.98,-218.67"/>
<polygon fill="#999999" stroke="#999999" points="1131.36,-211.67 1121.36,-215.17 1131.36,-218.67 1131.36,-211.67"/>
</g>
<!-- node_8 -->
<g id="node9" class="node">
<title>node_8</title>
<path fill="#fff3e0" stroke="#000000" d="M1352,-175C1352,-175 1439,-175 1439,-175 1445,-175 1451,-181 1451,-187 1451,-187 1451,-223 1451,-223 1451,-229 1445,-235 1439,-235 1439,-235 1352,-235 1352,-235 1346,-235 1340,-229 1340,-223 1340,-223 1340,-187 1340,-187 1340,-181 1346,-175 1352,-175"/>
<text text-anchor="middle" x="1395.5" y="-222.2" font-family="Fira Mono" font-size="11.00">ind: 8</text>
<polyline fill="none" stroke="#000000" points="1340,-215 1451,-215 "/>
<text text-anchor="middle" x="1395.5" y="-202.2" font-family="Fira Mono" font-size="11.00">val: 5</text>
<polyline fill="none" stroke="#000000" points="1340,-195 1451,-195 "/>
<text text-anchor="middle" x="1367.5" y="-182.2" font-family="Fira Mono" font-size="11.00">prev: 7</text>
<polyline fill="none" stroke="#000000" points="1395,-175 1395,-195 "/>
<text text-anchor="middle" x="1423" y="-182.2" font-family="Fira Mono" font-size="11.00">next: 9</text>
</g>
<!-- node_7&#45;&gt;node_8 -->
<!-- node_7&#45;&gt;node_8 -->
<g id="edge34" class="edge">
<title>node_7&#45;&gt;node_8</title>
<path fill="none" stroke="#999999" d="M1296.36,-215.17C1296.36,-215.17 1329.98,-215.17 1329.98,-215.17"/>
<polygon fill="#999999" stroke="#999999" points="1329.98,-218.67 1339.98,-215.17 1329.98,-211.67 1329.98,-218.67"/>
<polygon fill="#999999" stroke="#999999" points="1296.36,-211.67 1286.36,-215.17 1296.36,-218.67 1296.36,-211.67"/>
</g>
<!-- node_9 -->
<g id="node10" class="node">
<title>node_9</title>
<path fill="#fff3e0" stroke="#000000" d="M1517,-175C1517,-175 1610,-175 1610,-175 1616,-175 1622,-181 1622,-187 1622,-187 1622,-223 1622,-223 1622,-229 1616,-235 1610,-235 1610,-235 1517,-235 1517,-235 1511,-235 1505,-229 1505,-223 1505,-223 1505,-187 1505,-187 1505,-181 1511,-175 1517,-175"/>
<text text-anchor="middle" x="1563.5" y="-222.2" font-family="Fira Mono" font-size="11.00">ind: 9</text>
<polyline fill="none" stroke="#000000" points="1505,-215 1622,-215 "/>
<text text-anchor="middle" x="1563.5" y="-202.2" font-family="Fira Mono" font-size="11.00">val: 4</text>
<polyline fill="none" stroke="#000000" points="1505,-195 1622,-195 "/>
<text text-anchor="middle" x="1532.5" y="-182.2" font-family="Fira Mono" font-size="11.00">prev: 8</text>
<polyline fill="none" stroke="#000000" points="1560,-175 1560,-195 "/>
<text text-anchor="middle" x="1591" y="-182.2" font-family="Fira Mono" font-size="11.00">next: 10</text>
</g>
<!-- node_8&#45;&gt;node_9 -->
<!-- node_8&#45;&gt;node_9 -->
<g id="edge35" class="edge">
<title>node_8&#45;&gt;node_9</title>
<path fill="none" stroke="#999999" d="M1461.44,-215.17C1461.44,-215.17 1494.93,-215.17 1494.93,-215.17"/>
<polygon fill="#999999" stroke="#999999" points="1494.93,-218.67 1504.93,-215.17 1494.93,-211.67 1494.93,-218.67"/>
<polygon fill="#999999" stroke="#999999" points="1461.44,-211.67 1451.44,-215.17 1461.44,-218.67 1461.44,-211.67"/>
</g>
<!-- node_10 -->
<g id="node11" class="node">
<title>node_10</title>
<path fill="#f1eafd" stroke="#8e6bd6" d="M1688,-175C1688,-175 1775,-175 1775,-175 1781,-175 1787,-181 1787,-187 1787,-187 1787,-223 1787,-223 1787,-229 1781,-235 1775,-235 1775,-235 1688,-235 1688,-235 1682,-235 1676,-229 1676,-223 1676,-223 1676,-187 1676,-187 1676,-181 1682,-175 1688,-175"/>
<text text-anchor="middle" x="1731.5" y="-222.2" font-family="Fira Mono" font-size="11.00">ind: 10 (TAIL)</text>
<polyline fill="none" stroke="#8e6bd6" points="1676,-215 1787,-215 "/>
<text text-anchor="middle" x="1731.5" y="-202.2" font-family="Fira Mono" font-size="11.00">val: 3</text>
<polyline fill="none" stroke="#8e6bd6" points="1676,-195 1787,-195 "/>
<text text-anchor="middle" x="1703.5" y="-182.2" font-family="Fira Mono" font-size="11.00">prev: 9</text>
<polyline fill="none" stroke="#8e6bd6" points="1731,-175 1731,-195 "/>
<text text-anchor="middle" x="1759" y="-182.2" font-family="Fira Mono" font-size="11.00">next: 0</text>
</g>
<!-- node_9&#45;&gt;node_10 -->
<!-- node_9&#45;&gt;node_10 -->
<g id="edge36" class="edge">
<title>node_9&#45;&gt;node_10</title>
<path fill="none" stroke="#999999" d="M1632.26,-215.17C1632.26,-215.17 1665.88,-215.17 1665.88,-215.17"/>
<polygon fill="#999999" stroke="#999999" points="1665.88,-218.67 1675.88,-215.17 1665.88,-211.67 1665.88,-218.67"/>
<polygon fill="#999999" stroke="#999999" points="1632.26,-211.67 1622.26,-215.17 1632.26,-218.67 1632.26,-211.67"/>
</g>
<!-- node_10&#45;&gt;node_0 -->
<g id="edge37" class="edge">
<title>node_10&#45;&gt;node_0</title>
<path fill="none" stroke="#999999" d="M1732,-243.58C1732,-243.58 1732,-244.5 1732,-244.5 1732,-244.5 59,-244.5 59,-244.5 59,-244.5 59,-243.58 59,-243.58"/>
<polygon fill="#999999" stroke="#999999" points="1735.5,-245.34 1732,-235.34 1728.5,-245.34 1735.5,-245.34"/>
<polygon fill="#999999" stroke="#999999" points="62.5,-245.34 59,-235.34 55.5,-245.34 62.5,-245.34"/>
</g>
<!-- node_10&#45;&gt;node_11 -->
<!-- node_11&#45;&gt;node_2 -->
<g id="edge38" class="edge">
<title>node_11&#45;&gt;node_2</title>
<path fill="none" stroke="#999999" d="M1915,-245.16C1915,-245.16 1915,-253.5 1915,-253.5 1915,-253.5 402,-253.5 402,-253.5 402,-253.5 402,-245.16 402,-245.16"/>
<polygon fill="#999999" stroke="#999999" points="1918.5,-245.16 1915,-235.16 1911.5,-245.16 1918.5,-245.16"/>
<polygon fill="#999999" stroke="#999999" points="405.5,-245.16 402,-235.16 398.5,-245.16 405.5,-245.16"/>
</g>
<!-- node_12 -->
<g id="node13" class="node">
<title>node_12</title>
<path fill="#ffecec" stroke="#d66d66" d="M2018,-175C2018,-175 2115,-175 2115,-175 2121,-175 2127,-181 2127,-187 2127,-187 2127,-223 2127,-223 2127,-229 2121,-235 2115,-235 2115,-235 2018,-235 2018,-235 2012,-235 2006,-229 2006,-223 2006,-223 2006,-187 2006,-187 2006,-181 2012,-175 2018,-175"/>
<text text-anchor="middle" x="2066.5" y="-222.2" font-family="Fira Mono" font-size="11.00">ind: 12</text>
<polyline fill="none" stroke="#d66d66" points="2006,-215 2127,-215 "/>
<text text-anchor="middle" x="2066.5" y="-202.2" font-family="Fira Mono" font-size="11.00">val: &#45;100</text>
<polyline fill="none" stroke="#d66d66" points="2006,-195 2127,-195 "/>
<text text-anchor="middle" x="2035.5" y="-182.2" font-family="Fira Mono" font-size="11.00">prev: &#45;1</text>
<polyline fill="none" stroke="#d66d66" points="2065,-175 2065,-195 "/>
<text text-anchor="middle" x="2096" y="-182.2" font-family="Fira Mono" font-size="11.00">next: 13</text>
</g>
<!-- node_11&#45;&gt;node_12 -->
<!-- node_13 -->
<g id="node14" class="node">
<title>node_13</title>
<path fill="#ffecec" stroke="#d66d66" d="M2193,-175C2193,-175 2290,-175 2290,-175 2296,-175 2302,-181 2302,-187 2302,-187 2302,-223 2302,-223 2302,-229 2296,-235 2290,-235 2290,-235 2193,-235 2193,-235 2187,-235 2181,-229 2181,-223 2181,-223 2181,-187 2181,-187 2181,-181 2187,-175 2193,-175"/>
<text text-anchor="middle" x="2241.5" y="-222.2" font-family="Fira Mono" font-size="11.00">ind: 13</text>
<polyline fill="none" stroke="#d66d66" points="2181,-215 2302,-215 "/>
<text text-anchor="middle" x="2241.5" y="-202.2" font-family="Fira Mono" font-size="11.00">val: &#45;100</text>
<polyline fill="none" stroke="#d66d66" points="2181,-195 2302,-195 "/>
<text text-anchor="middle" x="2210.5" y="-182.2" font-family="Fira Mono" font-size="11.00">prev: &#45;1</text>
<polyline fill="none" stroke="#d66d66" points="2240,-175 2240,-195 "/>
<text text-anchor="middle" x="2271" y="-182.2" font-family="Fira Mono" font-size="11.00">next: 14</text>
</g>
<!-- node_12&#45;&gt;node_13 -->
<!-- node_12&#45;&gt;node_13 -->
<g id="edge20" class="edge">
<title>node_12&#45;&gt;node_13</title>
<path fill="none" stroke="#d88d88" stroke-dasharray="5,2" d="M2127.22,-215.17C2127.22,-215.17 2170.89,-215.17 2170.89,-215.17"/>
<polygon fill="#d88d88" stroke="#d88d88" points="2170.89,-218.67 2180.89,-215.17 2170.89,-211.67 2170.89,-218.67"/>
</g>
<!-- node_14 -->
<g id="node15" class="node">
<title>node_14</title>
<path fill="#ffecec" stroke="#d66d66" d="M2368,-175C2368,-175 2465,-175 2465,-175 2471,-175 2477,-181 2477,-187 2477,-187 2477,-223 2477,-223 2477,-229 2471,-235 2465,-235 2465,-235 2368,-235 2368,-235 2362,-235 2356,-229 2356,-223 2356,-223 2356,-187 2356,-187 2356,-181 2362,-175 2368,-175"/>
<text text-anchor="middle" x="2416.5" y="-222.2" font-family="Fira Mono" font-size="11.00">ind: 14</text>
<polyline fill="none" stroke="#d66d66" points="2356,-215 2477,-215 "/>
<text text-anchor="middle" x="2416.5" y="-202.2" font-family="Fira Mono" font-size="11.00">val: &#45;100</text>
<polyline fill="none" stroke="#d66d66" points="2356,-195 2477,-195 "/>
<text text-anchor="middle" x="2385.5" y="-182.2" font-family="Fira Mono" font-size="11.00">prev: &#45;1</text>
<polyline fill="none" stroke="#d66d66" points="2415,-175 2415,-195 "/>
<text text-anchor="middle" x="2446" y="-182.2" font-family="Fira Mono" font-size="11.00">next: 15</text>
</g>
<!-- node_13&#45;&gt;node_14 -->
<!-- node_13&#45;&gt;node_14 -->
<g id="edge21" class="edge">
<title>node_13&#45;&gt;node_14</title>
<path fill="none" stroke="#d88d88" stroke-dasharray="5,2" d="M2302.22,-215.17C2302.22,-215.17 2345.89,-215.17 2345.89,-215.17"/>
<polygon fill="#d88d88" stroke="#d88d88" points="2345.89,-218.67 2355.89,-215.17 2345.89,-211.67 2345.89,-218.67"/>
</g>
<!-- node_15 -->
<g id="node16" class="node">
<title>node_15</title>
<path fill="#ffecec" stroke="#d66d66" d="M2543,-175C2543,-175 2640,-175 2640,-175 2646,-175 2652,-181 2652,-187 2652,-187 2652,-223 2652,-223 2652,-229 2646,-235 2640,-235 2640,-235 2543,-235 2543,-235 2537,-235 2531,-229 2531,-223 2531,-223 2531,-187 2531,-187 2531,-181 2537,-175 2543,-175"/>
<text text-anchor="middle" x="2591.5" y="-222.2" font-family="Fira Mono" font-size="11.00">ind: 15</text>
<polyline fill="none" stroke="#d66d66" points="2531,-215 2652,-215 "/>
<text text-anchor="middle" x="2591.5" y="-202.2" font-family="Fira Mono" font-size="11.00">val: &#45;100</text>
<polyline fill="none" stroke="#d66d66" points="2531,-195 2652,-195 "/>
<text text-anchor="middle" x="2560.5" y="-182.2" font-family="Fira Mono" font-size="11.00">prev: &#45;1</text>
<polyline fill="none" stroke="#d66d66" points="2590,-175 2590,-195 "/>
<text text-anchor="middle" x="2621" y="-182.2" font-family="Fira Mono" font-size="11.00">next: 16</text>
</g>
<!-- node_14&#45;&gt;node_15 -->
<!-- node_14&#45;&gt;node_15 -->
<g id="edge22" class="edge">
<title>node_14&#45;&gt;node_15</title>
<path fill="none" stroke="#d88d88" stroke-dasharray="5,2" d="M2477.22,-215.17C2477.22,-215.17 2520.89,-215.17 2520.89,-215.17"/>
<polygon fill="#d88d88" stroke="#d88d88" points="2520.89,-218.67 2530.89,-215.17 2520.89,-211.67 2520.89,-218.67"/>
</g>
<!-- node_16 -->
<g id="node17" class="node">
<title>node_16</title>
<path fill="#ffecec" stroke="#d66d66" d="M2718,-175C2718,-175 2815,-175 2815,-175 2821,-175 2827,-181 2827,-187 2827,-187 2827,-223 2827,-223 2827,-229 2821,-235 2815,-235 2815,-235 2718,-235 2718,-235 2712,-235 2706,-229 2706,-223 2706,-223 2706,-187 2706,-187 2706,-181 2712,-175 2718,-175"/>
<text text-anchor="middle" x="2766.5" y="-222.2" font-family="Fira Mono" font-size="11.00">ind: 16</text>
<polyline fill="none" stroke="#d66d66" points="2706,-215 2827,-215 "/>
<text text-anchor="middle" x="2766.5" y="-202.2" font-family="Fira Mono" font-size="11.00">val: &#45;100</text>
<polyline fill="none" stroke="#d66d66" points="2706,-195 2827,-195 "/>
<text text-anchor="middle" x="2735.5" y="-182.2" font-family="Fira Mono" font-size="11.00">prev: &#45;1</text>
<polyline fill="none" stroke="#d66d66" points="2765,-175 2765,-195 "/>
<text text-anchor="middle" x="2796" y="-182.2" font-family="Fira Mono" font-size="11.00">next: 17</text>
</g>
<!-- node_15&#45;&gt;node_16 -->
<!-- node_15&#45;&gt;node_16 -->
<g id="edge23" class="edge">
<title>node_15&#45;&gt;node_16</title>
<path fill="none" stroke="#d88d88" stroke-dasharray="5,2" d="M2652.22,-215.17C2652.22,-215.17 2695.89,-215.17 2695.89,-215.17"/>
<polygon fill="#d88d88" stroke="#d88d88" points="2695.89,-218.67 2705.89,-215.17 2695.89,-211.67 2695.89,-218.67"/>
</g>
<!-- node_17 -->
<g id="node18" class="node">
<title>node_17</title>
<path fill="#ffecec" stroke="#d66d66" d="M2893,-175C2893,-175 2990,-175 2990,-175 2996,-175 3002,-181 3002,-187 3002,-187 3002,-223 3002,-223 3002,-229 2996,-235 2990,-235 2990,-235 2893,-235 2893,-235 2887,-235 2881,-229 2881,-223 2881,-223 2881,-187 2881,-187 2881,-181 2887,-175 2893,-175"/>
<text text-anchor="middle" x="2941.5" y="-222.2" font-family="Fira Mono" font-size="11.00">ind: 17</text>
<polyline fill="none" stroke="#d66d66" points="2881,-215 3002,-215 "/>
<text text-anchor="middle" x="2941.5" y="-202.2" font-family="Fira Mono" font-size="11.00">val: &#45;100</text>
<polyline fill="none" stroke="#d66d66" points="2881,-195 3002,-195 "/>
<text text-anchor="middle" x="2910.5" y="-182.2" font-family="Fira Mono" font-size="11.00">prev: &#45;1</text>
<polyline fill="none" stroke="#d66d66" points="2940,-175 2940,-195 "/>
<text text-anchor="middle" x="2971" y="-182.2" font-family="Fira Mono" font-size="11.00">next: 18</text>
</g>
<!-- node_16&#45;&gt;node_17 -->
<!-- node_16&#45;&gt;node_17 -->
<g id="edge24" class="edge">
<title>node_16&#45;&gt;node_17</title>
<path fill="none" stroke="#d88d88" stroke-dasharray="5,2" d="M2827.22,-215.17C2827.22,-215.17 2870.89,-215.17 2870.89,-215.17"/>
<polygon fill="#d88d88" stroke="#d88d88" points="2870.89,-218.67 2880.89,-215.17 2870.89,-211.67 2870.89,-218.67"/>
</g>
<!-- node_18 -->
<g id="node19" class="node">
<title>node_18</title>
<path fill="#ffecec" stroke="#d66d66" d="M3068,-175C3068,-175 3165,-175 3165,-175 3171,-175 3177,-181 3177,-187 3177,-187 3177,-223 3177,-223 3177,-229 3171,-235 3165,-235 3165,-235 3068,-235 3068,-235 3062,-235 3056,-229 3056,-223 3056,-223 3056,-187 3056,-187 3056,-181 3062,-175 3068,-175"/>
<text text-anchor="middle" x="3116.5" y="-222.2" font-family="Fira Mono" font-size="11.00">ind: 18</text>
<polyline fill="none" stroke="#d66d66" points="3056,-215 3177,-215 "/>
<text text-anchor="middle" x="3116.5" y="-202.2" font-family="Fira Mono" font-size="11.00">val: &#45;100</text>
<polyline fill="none" stroke="#d66d66" points="3056,-195 3177,-195 "/>
<text text-anchor="middle" x="3085.5" y="-182.2" font-family="Fira Mono" font-size="11.00">prev: &#45;1</text>
<polyline fill="none" stroke="#d66d66" points="3115,-175 3115,-195 "/>
<text text-anchor="middle" x="3146" y="-182.2" font-family="Fira Mono" font-size="11.00">next: 19</text>
</g>
<!-- node_17&#45;&gt;node_18 -->
<!-- node_17&#45;&gt;node_18 -->
<g id="edge25" class="edge">
<title>node_17&#45;&gt;node_18</title>
<path fill="none" stroke="#d88d88" stroke-dasharray="5,2" d="M3002.22,-215.17C3002.22,-215.17 3045.89,-215.17 3045.89,-215.17"/>
<polygon fill="#d88d88" stroke="#d88d88" points="3045.89,-218.67 3055.89,-215.17 3045.89,-211.67 3045.89,-218.67"/>
</g>
<!-- node_19 -->
<g id="node20" class="node">
<title>node_19</title>
<path fill="#ffecec" stroke="#d66d66" d="M3243,-175C3243,-175 3337,-175 3337,-175 3343,-175 3349,-181 3349,-187 3349,-187 3349,-223 3349,-223 3349,-229 3343,-235 3337,-235 3337,-235 3243,-235 3243,-235 3237,-235 3231,-229 3231,-223 3231,-223 3231,-187 3231,-187 3231,-181 3237,-175 3243,-175"/>
<text text-anchor="middle" x="3290" y="-222.2" font-family="Fira Mono" font-size="11.00">ind: 19</text>
<polyline fill="none" stroke="#d66d66" points="3231,-215 3349,-215 "/>
<text text-anchor="middle" x="3290" y="-202.2" font-family="Fira Mono" font-size="11.00">val: &#45;100</text>
<polyline fill="none" stroke="#d66d66" points="3231,-195 3349,-195 "/>
<text text-anchor="middle" x="3260.5" y="-182.2" font-family="Fira Mono" font-size="11.00">prev: &#45;1</text>
<polyline fill="none" stroke="#d66d66" points="3290,-175 3290,-195 "/>
<text text-anchor="middle" x="3319.5" y="-182.2" font-family="Fira Mono" font-size="11.00">next: &#45;1</text>
</g>
<!-- node_18&#45;&gt;node_19 -->
<!-- node_18&#45;&gt;node_19 -->
<g id="edge26" class="edge">
<title>node_18&#45;&gt;node_19</title>
<path fill="none" stroke="#d88d88" stroke-dasharray="5,2" d="M3177.18,-215.17C3177.18,-215.17 3220.81,-215.17 3220.81,-215.17"/>
<polygon fill="#d88d88" stroke="#d88d88" points="3220.81,-218.67 3230.81,-215.17 3220.81,-211.67 3220.81,-218.67"/>
</g>
<!-- node_free -->
<g id="node21" class="node">
<title>node_free</title>
<path fill="#ffecec" stroke="#d66d66" d="M82.5,-36C82.5,-36 35.5,-36 35.5,-36 29.5,-36 23.5,-30 23.5,-24 23.5,-24 23.5,-12 23.5,-12 23.5,-6 29.5,0 35.5,0 35.5,0 82.5,0 82.5,0 88.5,0 94.5,-6 94.5,-12 94.5,-12 94.5,-24 94.5,-24 94.5,-30 88.5,-36 82.5,-36"/>
<text text-anchor="middle" x="59" y="-15.2" font-family="Fira Mono" font-size="11.00">free_head</text>
</g>
<!-- node_free&#45;&gt;node_12 -->
<g id="edge39" class="edge">
<title>node_free&#45;&gt;node_12</title>
<path fill="none" stroke="#d88d88" stroke-dasharray="5,2" d="M94.7,-18C364.11,-18 2067,-18 2067,-18 2067,-18 2067,-164.96 2067,-164.96"/>
<polygon fill="#d88d88" stroke="#d88d88" points="2063.5,-164.96 2067,-174.96 2070.5,-164.96 2063.5,-164.96"/>
</g>
</g>
</svg>
