<?xml version="1.0" encoding="UTF-8" standalone="no"?>
<!DOCTYPE svg PUBLIC "-//W3C//DTD SVG 1.1//EN"
 "http://www.w3.org/Graphics/SVG/1.1/DTD/svg11.dtd">
<!-- Generated by graphviz version 2.43.0 (0)
 -->
<!-- Title: G Pages: 1 -->
<svg width="3357pt" height="472pt"
 viewBox="0.00 0.00 3357.00 471.90" xmlns="http://www.w3.org/2000/svg" xmlns:xlink="http://www.w3.org/1999/xlink">
<g id="graph0" class="graph" transform="scale(1 1) rotate(0) translate(4 467.9)">
<title>G</title>
<polygon fill="white" stroke="transparent" points="-4,4 -4,-467.9 3353,-467.9 3353,4 -4,4"/>
<!-- node_0 -->
<g id="node1" class="node">
<title>node_0</title>
<path fill="#e9f2ff" stroke="#6b8fd6" stroke-width="2" d="M12,-371C12,-371 102,-371 102,-371 108,-371 114,-377 114,-383 114,-383 114,-419 114,-419 114,-425 108,-431 102,-431 102,-431 12,-431 12,-431 6,-431 0,-425 0,-419 0,-419 0,-383 0,-383 0,-377 6,-371 12,-371"/>
<text text-anchor="middle" x="57" y="-418.2" font-family="Fira Mono" font-size="11.00">ind: 0</text>
<polyline fill="none" stroke="#6b8fd6" stroke-width="2" points="0,-411 114,-411 "/>
<text text-anchor="middle" x="57" y="-398.2" font-family="Fira Mono" font-size="11.00">val: 3.73593e+09</text>
<polyline fill="none" stroke="#6b8fd6" stroke-width="2" points="0,-391 114,-391 "/>
<text text-anchor="middle" x="28" y="-378.2" font-family="Fira Mono" font-size="11.00">prev: 3</text>
<polyline fill="none" stroke="#6b8fd6" stroke-width="2" points="56,-371 56,-391 "/>
<text text-anchor="middle" x="85" y="-378.2" font-family="Fira Mono" font-size="11.00">next: 8</text>
</g>
<!-- node_1 -->
<g id="node2" class="node">
<title>node_1</title>
<path fill="#fff3e0" stroke="#000000" d="M180,-371C180,-371 267,-371 267,-371 273,-371 279,-377 279,-383 279,-383 279,-419 279,-419 279,-425 273,-431 267,-431 267,-431 180,-431 180,-431 174,-431 168,-425 168,-419 168,-419 168,-383 168,-383 168,-377 174,-371 180,-371"/>
<text text-anchor="middle" x="223.5" y="-418.2" font-family="Fira Mono" font-size="11.00">ind: 1</text>
<polyline fill="none" stroke="#000000" points="168,-411 279,-411 "/>
<text text-anchor="middle" x="223.5" y="-398.2" font-family="Fira Mono" font-size="11.00">val: 2</text>
<polyline fill="none" stroke="#000000" points="168,-391 279,-391 "/>
<text text-anchor="middle" x="195.5" y="-378.2" font-family="Fira Mono" font-size="11.00">prev: 8</text>
<polyline fill="none" stroke="#000000" points="223,-371 223,-391 "/>
<text text-anchor="middle" x="251" y="-378.2" font-family="Fira Mono" font-size="11.00">next: 9</text>
</g>
<!-- node_0&#45;&gt;node_1 -->
<!-- node_8 -->
<g id="node9" class="node">
<title>node_8</title>
<path fill="#e9fbf5" stroke="#5aa99b" d="M1348,-371C1348,-371 1435,-371 1435,-371 1441,-371 1447,-377 1447,-383 1447,-383 1447,-419 1447,-419 1447,-425 1441,-431 1435,-431 1435,-431 1348,-431 1348,-431 1342,-431 1336,-425 1336,-419 1336,-419 1336,-383 1336,-383 1336,-377 1342,-371 1348,-371"/>
<text text-anchor="middle" x="1391.5" y="-418.2" font-family="Fira Mono" font-size="11.00">ind: 8 (HEAD)</text>
<polyline fill="none" stroke="#5aa99b" points="1336,-411 1447,-411 "/>
<text text-anchor="middle" x="1391.5" y="-398.2" font-family="Fira Mono" font-size="11.00">val: 10</text>
<polyline fill="none" stroke="#5aa99b" points="1336,-391 1447,-391 "/>
<text text-anchor="middle" x="1363.5" y="-378.2" font-family="Fira Mono" font-size="11.00">prev: 0</text>
<polyline fill="none" stroke="#5aa99b" points="1391,-371 1391,-391 "/>
<text text-anchor="middle" x="1419" y="-378.2" font-family="Fira Mono" font-size="11.00">next: 1</text>
</g>
<!-- node_0&#45;&gt;node_8 -->
<g id="edge28" class="edge">
<title>node_0&#45;&gt;node_8</title>
<path fill="none" stroke="#999999" d="M38,-441C38,-441 38,-453.1 38,-453.1 38,-453.1 1373,-453.1 1373,-453.1 1373,-453.1 1373,-441 1373,-441"/>
<polygon fill="#999999" stroke="#999999" points="41.5,-441 38,-431 34.5,-441 41.5,-441"/>
<polygon fill="#999999" stroke="#999999" points="1376.5,-441 1373,-431 1369.5,-441 1376.5,-441"/>
</g>
<!-- node_2 -->
<g id="node3" class="node">
<title>node_2</title>
<path fill="#fff3e0" stroke="#000000" d="M345,-371C345,-371 438,-371 438,-371 444,-371 450,-377 450,-383 450,-383 450,-419 450,-419 450,-425 444,-431 438,-431 438,-431 345,-431 345,-431 339,-431 333,-425 333,-419 333,-419 333,-383 333,-383 333,-377 339,-371 345,-371"/>
<text text-anchor="middle" x="391.5" y="-418.2" font-family="Fira Mono" font-size="11.00">ind: 2</text>
<polyline fill="none" stroke="#000000" points="333,-411 450,-411 "/>
<text text-anchor="middle" x="391.5" y="-398.2" font-family="Fira Mono" font-size="11.00">val: 1</text>
<polyline fill="none" stroke="#000000" points="333,-391 450,-391 "/>
<text text-anchor="middle" x="360.5" y="-378.2" font-family="Fira Mono" font-size="11.00">prev: 9</text>
<polyline fill="none" stroke="#000000" points="388,-371 388,-391 "/>
<text text-anchor="middle" x="419" y="-378.2" font-family="Fira Mono" font-size="11.00">next: 10</text>
</g>
<!-- node_1&#45;&gt;node_2 -->
<!-- node_9 -->
<g id="node10" class="node">
<title>node_9</title>
<path fill="#fff3e0" stroke="#000000" d="M1513,-371C1513,-371 1600,-371 1600,-371 1606,-371 1612,-377 1612,-383 1612,-383 1612,-419 1612,-419 1612,-425 1606,-431 1600,-431 1600,-431 1513,-431 1513,-431 1507,-431 1501,-425 1501,-419 1501,-419 1501,-383 1501,-383 1501,-377 1507,-371 1513,-371"/>
<text text-anchor="middle" x="1556.5" y="-418.2" font-family="Fira Mono" font-size="11.00">ind: 9</text>
<polyline fill="none" stroke="#000000" points="1501,-411 1612,-411 "/>
<text text-anchor="middle" x="1556.5" y="-398.2" font-family="Fira Mono" font-size="11.00">val: 20</text>
<polyline fill="none" stroke="#000000" points="1501,-391 1612,-391 "/>
<text text-anchor="middle" x="1528.5" y="-378.2" font-family="Fira Mono" font-size="11.00">prev: 1</text>
<polyline fill="none" stroke="#000000" points="1556,-371 1556,-391 "/>
<text text-anchor="middle" x="1584" y="-378.2" font-family="Fira Mono" font-size="11.00">next: 2</text>
</g>
<!-- node_1&#45;&gt;node_9 -->
<g id="edge29" class="edge">
<title>node_1&#45;&gt;node_9</title>
<path fill="none" stroke="#999999" d="M205,-441.34C205,-441.34 205,-460.3 205,-460.3 205,-460.3 1538,-460.3 1538,-460.3 1538,-460.3 1538,-441.34 1538,-441.34"/>
<polygon fill="#999999" stroke="#999999" points="208.5,-441.34 205,-431.34 201.5,-441.34 208.5,-441.34"/>
<polygon fill="#999999" stroke="#999999" points="1541.5,-441.34 1538,-431.34 1534.5,-441.34 1541.5,-441.34"/>
</g>
<!-- node_3 -->
<g id="node4" class="node">
<title>node_3</title>
<path fill="#f1eafd" stroke="#8e6bd6" d="M516,-371C516,-371 603,-371 603,-371 609,-371 615,-377 615,-383 615,-383 615,-419 615,-419 615,-425 609,-431 603,-431 603,-431 516,-431 516,-431 510,-431 504,-425 504,-419 504,-419 504,-383 504,-383 504,-377 510,-371 516,-371"/>
<text text-anchor="middle" x="559.5" y="-418.2" font-family="Fira Mono" font-size="11.00">ind: 3 (TAIL)</text>
<polyline fill="none" stroke="#8e6bd6" points="504,-411 615,-411 "/>
<text text-anchor="middle" x="559.5" y="-398.2" font-family="Fira Mono" font-size="11.00">val: 3</text>
<polyline fill="none" stroke="#8e6bd6" points="504,-391 615,-391 "/>
<text text-anchor="middle" x="531.5" y="-378.2" font-family="Fira Mono" font-size="11.00">prev: 6</text>
<polyline fill="none" stroke="#8e6bd6" points="559,-371 559,-391 "/>
<text text-anchor="middle" x="587" y="-378.2" font-family="Fira Mono" font-size="11.00">next: 0</text>
</g>
<!-- node_2&#45;&gt;node_3 -->
<!-- node_10 -->
<g id="node11" class="node">
<title>node_10</title>
<path fill="#fff3e0" stroke="#000000" d="M1678,-371C1678,-371 1765,-371 1765,-371 1771,-371 1777,-377 1777,-383 1777,-383 1777,-419 1777,-419 1777,-425 1771,-431 1765,-431 1765,-431 1678,-431 1678,-431 1672,-431 1666,-425 1666,-419 1666,-419 1666,-383 1666,-383 1666,-377 1672,-371 1678,-371"/>
<text text-anchor="middle" x="1721.5" y="-418.2" font-family="Fira Mono" font-size="11.00">ind: 10</text>
<polyline fill="none" stroke="#000000" points="1666,-411 1777,-411 "/>
<text text-anchor="middle" x="1721.5" y="-398.2" font-family="Fira Mono" font-size="11.00">val: 30</text>
<polyline fill="none" stroke="#000000" points="1666,-391 1777,-391 "/>
<text text-anchor="middle" x="1693.5" y="-378.2" font-family="Fira Mono" font-size="11.00">prev: 2</text>
<polyline fill="none" stroke="#000000" points="1721,-371 1721,-391 "/>
<text text-anchor="middle" x="1749" y="-378.2" font-family="Fira Mono" font-size="11.00">next: 5</text>
</g>
<!-- node_2&#45;&gt;node_10 -->
<g id="edge30" class="edge">
<title>node_2&#45;&gt;node_10</title>
<path fill="none" stroke="#999999" d="M372,-441.34C372,-441.34 372,-463.9 372,-463.9 372,-463.9 1703,-463.9 1703,-463.9 1703,-463.9 1703,-441.34 1703,-441.34"/>
<polygon fill="#999999" stroke="#999999" points="375.5,-441.34 372,-431.34 368.5,-441.34 375.5,-441.34"/>
<polygon fill="#999999" stroke="#999999" points="1706.5,-441.34 1703,-431.34 1699.5,-441.34 1706.5,-441.34"/>
</g>
<!-- node_3&#45;&gt;node_0 -->
<g id="edge31" class="edge">
<title>node_3&#45;&gt;node_0</title>
<path fill="none" stroke="#999999" d="M541,-437.94C541,-437.94 541,-438.7 541,-438.7 541,-438.7 76,-438.7 76,-438.7 76,-438.7 76,-437.94 76,-437.94"/>
<polygon fill="#999999" stroke="#999999" points="544.5,-441.07 541,-431.07 537.5,-441.07 544.5,-441.07"/>
<polygon fill="#999999" stroke="#999999" points="79.5,-441.07 76,-431.07 72.5,-441.07 79.5,-441.07"/>
</g>
<!-- node_4 -->
<g id="node5" class="node">
<title>node_4</title>
<path fill="#fff3e0" stroke="#000000" d="M681,-371C681,-371 768,-371 768,-371 774,-371 780,-377 780,-383 780,-383 780,-419 780,-419 780,-425 774,-431 768,-431 768,-431 681,-431 681,-431 675,-431 669,-425 669,-419 669,-419 669,-383 669,-383 669,-377 675,-371 681,-371"/>
<text text-anchor="middle" x="724.5" y="-418.2" font-family="Fira Mono" font-size="11.00">ind: 4</text>
<polyline fill="none" stroke="#000000" points="669,-411 780,-411 "/>
<text text-anchor="middle" x="724.5" y="-398.2" font-family="Fira Mono" font-size="11.00">val: 4</text>
<polyline fill="none" stroke="#000000" points="669,-391 780,-391 "/>
<text text-anchor="middle" x="696.5" y="-378.2" font-family="Fira Mono" font-size="11.00">prev: 5</text>
<polyline fill="none" stroke="#000000" points="724,-371 724,-391 "/>
<text text-anchor="middle" x="752" y="-378.2" font-family="Fira Mono" font-size="11.00">next: 7</text>
</g>
<!-- node_3&#45;&gt;node_4 -->
<!-- node_5 -->
<g id="node6" class="node">
<title>node_5</title>
<path fill="#fff3e0" stroke="#000000" d="M846,-371C846,-371 940,-371 940,-371 946,-371 952,-377 952,-383 952,-383 952,-419 952,-419 952,-425 946,-431 940,-431 940,-431 846,-431 846,-431 840,-431 834,-425 834,-419 834,-419 834,-383 834,-383 834,-377 840,-371 846,-371"/>
<text text-anchor="middle" x="893" y="-418.2" font-family="Fira Mono" font-size="11.00">ind: 5</text>
<polyline fill="none" stroke="#000000" points="834,-411 952,-411 "/>
<text text-anchor="middle" x="893" y="-398.2" font-family="Fira Mono" font-size="11.00">val: 5</text>
<polyline fill="none" stroke="#000000" points="834,-391 952,-391 "/>
<text text-anchor="middle" x="865" y="-378.2" font-family="Fira Mono" font-size="11.00">prev: 10</text>
<polyline fill="none" stroke="#000000" points="896,-371 896,-391 "/>
<text text-anchor="middle" x="924" y="-378.2" font-family="Fira Mono" font-size="11.00">next: 4</text>
</g>
<!-- node_4&#45;&gt;node_5 -->
<!-- node_7 -->
<g id="node8" class="node">
<title>node_7</title>
<path fill="#fff3e0" stroke="#000000" d="M1183,-371C1183,-371 1270,-371 1270,-371 1276,-371 1282,-377 1282,-383 1282,-383 1282,-419 1282,-419 1282,-425 1276,-431 1270,-431 1270,-431 1183,-431 1183,-431 1177,-431 1171,-425 1171,-419 1171,-419 1171,-383 1171,-383 1171,-377 1177,-371 1183,-371"/>
<text text-anchor="middle" x="1226.5" y="-418.2" font-family="Fira Mono" font-size="11.00">ind: 7</text>
<polyline fill="none" stroke="#000000" points="1171,-411 1282,-411 "/>
<text text-anchor="middle" x="1226.5" y="-398.2" font-family="Fira Mono" font-size="11.00">val: 5</text>
<polyline fill="none" stroke="#000000" points="1171,-391 1282,-391 "/>
<text text-anchor="middle" x="1198.5" y="-378.2" font-family="Fira Mono" font-size="11.00">prev: 4</text>
<polyline fill="none" stroke="#000000" points="1226,-371 1226,-391 "/>
<text text-anchor="middle" x="1254" y="-378.2" font-family="Fira Mono" font-size="11.00">next: 6</text>
</g>
<!-- node_4&#45;&gt;node_7 -->
<g id="edge32" class="edge">
<title>node_4&#45;&gt;node_7</title>
<path fill="none" stroke="#999999" d="M725,-441.2C725,-441.2 725,-445.9 725,-445.9 725,-445.9 1227,-445.9 1227,-445.9 1227,-445.9 1227,-441.2 1227,-441.2"/>
<polygon fill="#999999" stroke="#999999" points="728.5,-441.2 725,-431.2 721.5,-441.2 728.5,-441.2"/>
<polygon fill="#999999" stroke="#999999" points="1230.5,-441.2 1227,-431.2 1223.5,-441.2 1230.5,-441.2"/>
</g>
<!-- node_5&#45;&gt;node_4 -->
<g id="edge33" class="edge">
<title>node_5&#45;&gt;node_4</title>
<path fill="none" stroke="#999999" d="M823.59,-411.17C823.59,-411.17 790.27,-411.17 790.27,-411.17"/>
<polygon fill="#999999" stroke="#999999" points="790.27,-407.67 780.27,-411.17 790.27,-414.67 790.27,-407.67"/>
<polygon fill="#999999" stroke="#999999" points="823.59,-414.67 833.59,-411.17 823.59,-407.67 823.59,-414.67"/>
</g>
<!-- node_6 -->
<g id="node7" class="node">
<title>node_6</title>
<path fill="#fff3e0" stroke="#000000" d="M1018,-371C1018,-371 1105,-371 1105,-371 1111,-371 1117,-377 1117,-383 1117,-383 1117,-419 1117,-419 1117,-425 1111,-431 1105,-431 1105,-431 1018,-431 1018,-431 1012,-431 1006,-425 1006,-419 1006,-419 1006,-383 1006,-383 1006,-377 1012,-371 1018,-371"/>
<text text-anchor="middle" x="1061.5" y="-418.2" font-family="Fira Mono" font-size="11.00">ind: 6</text>
<polyline fill="none" stroke="#000000" points="1006,-411 1117,-411 "/>
<text text-anchor="middle" x="1061.5" y="-398.2" font-family="Fira Mono" font-size="11.00">val: 4</text>
<polyline fill="none" stroke="#000000" points="1006,-391 1117,-391 "/>
<text text-anchor="middle" x="1033.5" y="-378.2" font-family="Fira Mono" font-size="11.00">prev: 7</text>
<polyline fill="none" stroke="#000000" points="1061,-371 1061,-391 "/>
<text text-anchor="middle" x="1089" y="-378.2" font-family="Fira Mono" font-size="11.00">next: 3</text>
</g>
<!-- node_5&#45;&gt;node_6 -->
<!-- node_6&#45;&gt;node_3 -->
<g id="edge34" class="edge">
<title>node_6&#45;&gt;node_3</title>
<path fill="none" stroke="#999999" d="M1062,-441.01C1062,-441.01 1062,-442.3 1062,-442.3 1062,-442.3 578,-442.3 578,-442.3 578,-442.3 578,-441.01 578,-441.01"/>
<polygon fill="#999999" stroke="#999999" points="1065.5,-441.01 1062,-431.01 1058.5,-441.01 1065.5,-441.01"/>
<polygon fill="#999999" stroke="#999999" points="581.5,-441.01 578,-431.01 574.5,-441.01 581.5,-441.01"/>
</g>
<!-- node_6&#45;&gt;node_7 -->
<!-- node_7&#45;&gt;node_6 -->
<g id="edge35" class="edge">
<title>node_7&#45;&gt;node_6</title>
<path fill="none" stroke="#999999" d="M1160.64,-411.17C1160.64,-411.17 1127.02,-411.17 1127.02,-411.17"/>
<polygon fill="#999999" stroke="#999999" points="1127.02,-407.67 1117.02,-411.17 1127.02,-414.67 1127.02,-407.67"/>
<polygon fill="#999999" stroke="#999999" points="1160.64,-414.67 1170.64,-411.17 1160.64,-407.67 1160.64,-414.67"/>
</g>
<!-- node_7&#45;&gt;node_8 -->
<!-- node_8&#45;&gt;node_1 -->
<g id="edge36" class="edge">
<title>node_8&#45;&gt;node_1</title>
<path fill="none" stroke="#999999" d="M1410,-441.16C1410,-441.16 1410,-449.5 1410,-449.5 1410,-449.5 242,-449.5 242,-449.5 242,-449.5 242,-441.16 242,-441.16"/>
<polygon fill="#999999" stroke="#999999" points="1413.5,-441.16 1410,-431.16 1406.5,-441.16 1413.5,-441.16"/>
<polygon fill="#999999" stroke="#999999" points="245.5,-441.16 242,-431.16 238.5,-441.16 245.5,-441.16"/>
</g>
<!-- node_8&#45;&gt;node_9 -->
<!-- node_9&#45;&gt;node_2 -->
<g id="edge37" class="edge">
<title>node_9&#45;&gt;node_2</title>
<path fill="none" stroke="#999999" d="M1575,-441.13C1575,-441.13 1575,-456.7 1575,-456.7 1575,-456.7 411,-456.7 411,-456.7 411,-456.7 411,-441.13 411,-441.13"/>
<polygon fill="#999999" stroke="#999999" points="1578.5,-441.13 1575,-431.13 1571.5,-441.13 1578.5,-441.13"/>
<polygon fill="#999999" stroke="#999999" points="414.5,-441.13 411,-431.13 407.5,-441.13 414.5,-441.13"/>
</g>
<!-- node_9&#45;&gt;node_10 -->
<!-- node_10&#45;&gt;node_5 -->
<g id="edge38" class="edge">
<title>node_10&#45;&gt;node_5</title>
<path fill="none" stroke="#999999" d="M1740,-434.71C1740,-434.71 1740,-435.1 1740,-435.1 1740,-435.1 893,-435.1 893,-435.1 893,-435.1 893,-434.71 893,-434.71"/>
<polygon fill="#999999" stroke="#999999" points="1743.5,-441.19 1740,-431.19 1736.5,-441.19 1743.5,-441.19"/>
<polygon fill="#999999" stroke="#999999" points="896.5,-441.19 893,-431.19 889.5,-441.19 896.5,-441.19"/>
</g>
<!-- node_11 -->
<g id="node12" class="node">
<title>node_11</title>
<path fill="#ffecec" stroke="#d66d66" d="M1843,-371C1843,-371 1940,-371 1940,-371 1946,-371 1952,-377 1952,-383 1952,-383 1952,-419 1952,-419 1952,-425 1946,-431 1940,-431 1940,-431 1843,-431 1843,-431 1837,-431 1831,-425 1831,-419 1831,-419 1831,-383 1831,-383 1831,-377 1837,-371 1843,-371"/>
<text text-anchor="middle" x="1891.5" y="-418.2" font-family="Fira Mono" font-size="11.00">ind: 11</text>
<polyline fill="none" stroke="#d66d66" points="1831,-411 1952,-411 "/>
<text text-anchor="middle" x="1891.5" y="-398.2" font-family="Fira Mono" font-size="11.00">val: &#45;100</text>
<polyline fill="none" stroke="#d66d66" points="1831,-391 1952,-391 "/>
<text text-anchor="middle" x="1860.5" y="-378.2" font-family="Fira Mono" font-size="11.00">prev: &#45;1</text>
<polyline fill="none" stroke="#d66d66" points="1890,-371 1890,-391 "/>
<text text-anchor="middle" x="1921" y="-378.2" font-family="Fira Mono" font-size="11.00">next: 12</text>
</g>
<!-- node_10&#45;&gt;node_11 -->
<!-- node_12 -->
<g id="node13" class="node">
<title>node_12</title>
<path fill="#ffecec" stroke="#d66d66" d="M2018,-371C2018,-371 2115,-371 2115,-371 2121,-371 2127,-377 2127,-383 2127,-383 2127,-419 2127,-419 2127,-425 2121,-431 2115,-431 2115,-431 2018,-431 2018,-431 2012,-431 2006,-425 2006,-419 2006,-419 2006,-383 2006,-383 2006,-377 2012,-371 2018,-371"/>
<text text-anchor="middle" x="2066.5" y="-418.2" font-family="Fira Mono" font-size="11.00">ind: 12</text>
<polyline fill="none" stroke="#d66d66" points="2006,-411 2127,-411 "/>
<text text-anchor="middle" x="2066.5" y="-398.2" font-family="Fira Mono" font-size="11.00">val: &#45;100</text>
<polyline fill="none" stroke="#d66d66" points="2006,-391 2127,-391 "/>
<text text-anchor="middle" x="2035.5" y="-378.2" font-family="Fira Mono" font-size="11.00">prev: &#45;1</text>
<polyline fill="none" stroke="#d66d66" points="2065,-371 2065,-391 "/>
<text text-anchor="middle" x="2096" y="-378.2" font-family="Fira Mono" font-size="11.00">next: 13</text>
</g>
<!-- node_11&#45;&gt;node_12 -->
<!-- node_11&#45;&gt;node_12 -->
<g id="edge20" class="edge">
<title>node_11&#45;&gt;node_12</title>
<path fill="none" stroke="#d88d88" stroke-dasharray="5,2" d="M1952.22,-411.17C1952.22,-411.17 1995.89,-411.17 1995.89,-411.17"/>
<polygon fill="#d88d88" stroke="#d88d88" points="1995.89,-414.67 2005.89,-411.17 1995.89,-407.67 1995.89,-414.67"/>
</g>
<!-- node_13 -->
<g id="node14" class="node">
<title>node_13</title>
<path fill="#ffecec" stroke="#d66d66" d="M2193,-371C2193,-371 2290,-371 2290,-371 2296,-371 2302,-377 2302,-383 2302,-383 2302,-419 2302,-419 2302,-425 2296,-431 2290,-431 2290,-431 2193,-431 2193,-431 2187,-431 2181,-425 2181,-419 2181,-419 2181,-383 2181,-383 2181,-377 2187,-371 2193,-371"/>
<text text-anchor="middle" x="2241.5" y="-418.2" font-family="Fira Mono" font-size="11.00">ind: 13</text>
<polyline fill="none" stroke="#d66d66" points="2181,-411 2302,-411 "/>
<text text-anchor="middle" x="2241.5" y="-398.2" font-family="Fira Mono" font-size="11.00">val: &#45;100</text>
<polyline fill="none" stroke="#d66d66" points="2181,-391 2302,-391 "/>
<text text-anchor="middle" x="2210.5" y="-378.2" font-family="Fira Mono" font-size="11.00">prev: &#45;1</text>
<polyline fill="none" stroke="#d66d66" points="2240,-371 2240,-391 "/>
<text text-anchor="middle" x="2271" y="-378.2" font-family="Fira Mono" font-size="11.00">next: 14</text>
</g>
<!-- node_12&#45;&gt;node_13 -->
<!-- node_12&#45;&gt;node_13 -->
<g id="edge21" class="edge">
<title>node_12&#45;&gt;node_13</title>
<path fill="none" stroke="#d88d88" stroke-dasharray="5,2" d="M2127.22,-411.17C2127.22,-411.17 2170.89,-411.17 2170.89,-411.17"/>
<polygon fill="#d88d88" stroke="#d88d88" points="2170.89,-414.67 2180.89,-411.17 2170.89,-407.67 2170.89,-414.67"/>
</g>
<!-- node_14 -->
<g id="node15" class="node">
<title>node_14</title>
<path fill="#ffecec" stroke="#d66d66" d="M2368,-371C2368,-371 2465,-371 2465,-371 2471,-371 2477,-377 2477,-383 2477,-383 2477,-419 2477,-419 2477,-425 2471,-431 2465,-431 2465,-431 2368,-431 2368,-431 2362,-431 2356,-425 2356,-419 2356,-419 2356,-383 2356,-383 2356,-377 2362,-371 2368,-371"/>
<text text-anchor="middle" x="2416.5" y="-418.2" font-family="Fira Mono" font-size="11.00">ind: 14</text>
<polyline fill="none" stroke="#d66d66" points="2356,-411 2477,-411 "/>
<text text-anchor="middle" x="2416.5" y="-398.2" font-family="Fira Mono" font-size="11.00">val: &#45;100</text>
<polyline fill="none" stroke="#d66d66" points="2356,-391 2477,-391 "/>
<text text-anchor="middle" x="2385.5" y="-378.2" font-family="Fira Mono" font-size="11.00">prev: &#45;1</text>
<polyline fill="none" stroke="#d66d66" points="2415,-371 2415,-391 "/>
<text text-anchor="middle" x="2446" y="-378.2" font-family="Fira Mono" font-size="11.00">next: 15</text>
</g>
<!-- node_13&#45;&gt;node_14 -->
<!-- node_13&#45;&gt;node_14 -->
<g id="edge22" class="edge">
<title>node_13&#45;&gt;node_14</title>
<path fill="none" stroke="#d88d88" stroke-dasharray="5,2" d="M2302.22,-411.17C2302.22,-411.17 2345.89,-411.17 2345.89,-411.17"/>
<polygon fill="#d88d88" stroke="#d88d88" points="2345.89,-414.67 2355.89,-411.17 2345.89,-407.67 2345.89,-414.67"/>
</g>
<!-- node_15 -->
<g id="node16" class="node">
<title>node_15</title>
<path fill="#ffecec" stroke="#d66d66" d="M2543,-371C2543,-371 2640,-371 2640,-371 2646,-371 2652,-377 2652,-383 2652,-383 2652,-419 2652,-419 2652,-425 2646,-431 2640,-431 2640,-431 2543,-431 2543,-431 2537,-431 2531,-425 2531,-419 2531,-419 2531,-383 2531,-383 2531,-377 2537,-371 2543,-371"/>
<text text-anchor="middle" x="2591.5" y="-418.2" font-family="Fira Mono" font-size="11.00">ind: 15</text>
<polyline fill="none" stroke="#d66d66" points="2531,-411 2652,-411 "/>
<text text-anchor="middle" x="2591.5" y="-398.2" font-family="Fira Mono" font-size="11.00">val: &#45;100</text>
<polyline fill="none" stroke="#d66d66" points="2531,-391 2652,-391 "/>
<text text-anchor="middle" x="2560.5" y="-378.2" font-family="Fira Mono" font-size="11.00">prev: &#45;1</text>
<polyline fill="none" stroke="#d66d66" points="2590,-371 2590,-391 "/>
<text text-anchor="middle" x="2621" y="-378.2" font-family="Fira Mono" font-size="11.00">next: 16</text>
</g>
<!-- node_14&#45;&gt;node_15 -->
<!-- node_14&#45;&gt;node_15 -->
<g id="edge23" class="edge">
<title>node_14&#45;&gt;node_15</title>
<path fill="none" stroke="#d88d88" stroke-dasharray="5,2" d="M2477.22,-411.17C2477.22,-411.17 2520.89,-411.17 2520.89,-411.17"/>
<polygon fill="#d88d88" stroke="#d88d88" points="2520.89,-414.67 2530.89,-411.17 2520.89,-407.67 2520.89,-414.67"/>
</g>
<!-- node_16 -->
<g id="node17" class="node">
<title>node_16</title>
<path fill="#ffecec" stroke="#d66d66" d="M2718,-371C2718,-371 2815,-371 2815,-371 2821,-371 2827,-377 2827,-383 2827,-383 2827,-419 2827,-419 2827,-425 2821,-431 2815,-431 2815,-431 2718,-431 2718,-431 2712,-431 2706,-425 2706,-419 2706,-419 2706,-383 2706,-383 2706,-377 2712,-371 2718,-371"/>
<text text-anchor="middle" x="2766.5" y="-418.2" font-family="Fira Mono" font-size="11.00">ind: 16</text>
<polyline fill="none" stroke="#d66d66" points="2706,-411 2827,-411 "/>
<text text-anchor="middle" x="2766.5" y="-398.2" font-family="Fira Mono" font-size="11.00">val: &#45;100</text>
<polyline fill="none" stroke="#d66d66" points="2706,-391 2827,-391 "/>
<text text-anchor="middle" x="2735.5" y="-378.2" font-family="Fira Mono" font-size="11.00">prev: &#45;1</text>
<polyline fill="none" stroke="#d66d66" points="2765,-371 2765,-391 "/>
<text text-anchor="middle" x="2796" y="-378.2" font-family="Fira Mono" font-size="11.00">next: 17</text>
</g>
<!-- node_15&#45;&gt;node_16 -->
<!-- node_15&#45;&gt;node_16 -->
<g id="edge24" class="edge">
<title>node_15&#45;&gt;node_16</title>
<path fill="none" stroke="#d88d88" stroke-dasharray="5,2" d="M2652.22,-411.17C2652.22,-411.17 2695.89,-411.17 2695.89,-411.17"/>
<polygon fill="#d88d88" stroke="#d88d88" points="2695.89,-414.67 2705.89,-411.17 2695.89,-407.67 2695.89,-414.67"/>
</g>
<!-- node_17 -->
<g id="node18" class="node">
<title>node_17</title>
<path fill="#ffecec" stroke="#d66d66" d="M2893,-371C2893,-371 2990,-371 2990,-371 2996,-371 3002,-377 3002,-383 3002,-383 3002,-419 3002,-419 3002,-425 2996,-431 2990,-431 2990,-431 2893,-431 2893,-431 2887,-431 2881,-425 2881,-419 2881,-419 2881,-383 2881,-383 2881,-377 2887,-371 2893,-371"/>
<text text-anchor="middle" x="2941.5" y="-418.2" font-family="Fira Mono" font-size="11.00">ind: 17</text>
<polyline fill="none" stroke="#d66d66" points="2881,-411 3002,-411 "/>
<text text-anchor="middle" x="2941.5" y="-398.2" font-family="Fira Mono" font-size="11.00">val: &#45;100</text>
<polyline fill="none" stroke="#d66d66" points="2881,-391 3002,-391 "/>
<text text-anchor="middle" x="2910.5" y="-378.2" font-family="Fira Mono" font-size="11.00">prev: &#45;1</text>
<polyline fill="none" stroke="#d66d66" points="2940,-371 2940,-391 "/>
<text text-anchor="middle" x="2971" y="-378.2" font-family="Fira Mono" font-size="11.00">next: 18</text>
</g>
<!-- node_16&#45;&gt;node_17 -->
<!-- node_16&#45;&gt;node_17 -->
<g id="edge25" class="edge">
<title>node_16&#45;&gt;node_17</title>
<path fill="none" stroke="#d88d88" stroke-dasharray="5,2" d="M2827.22,-411.17C2827.22,-411.17 2870.89,-411.17 2870.89,-411.17"/>
<polygon fill="#d88d88" stroke="#d88d88" points="2870.89,-414.67 2880.89,-411.17 2870.89,-407.67 2870.89,-414.67"/>
</g>
<!-- node_18 -->
<g id="node19" class="node">
<title>node_18</title>
<path fill="#ffecec" stroke="#d66d66" d="M3068,-371C3068,-371 3165,-371 3165,-371 3171,-371 3177,-377 3177,-383 3177,-383 3177,-419 3177,-419 3177,-425 3171,-431 3165,-431 3165,-431 3068,-431 3068,-431 3062,-431 3056,-425 3056,-419 3056,-419 3056,-383 3056,-383 3056,-377 3062,-371 3068,-371"/>
<text text-anchor="middle" x="3116.5" y="-418.2" font-family="Fira Mono" font-size="11.00">ind: 18</text>
<polyline fill="none" stroke="#d66d66" points="3056,-411 3177,-411 "/>
<text text-anchor="middle" x="3116.5" y="-398.2" font-family="Fira Mono" font-size="11.00">val: &#45;100</text>
<polyline fill="none" stroke="#d66d66" points="3056,-391 3177,-391 "/>
<text text-anchor="middle" x="3085.5" y="-378.2" font-family="Fira Mono" font-size="11.00">prev: &#45;1</text>
<polyline fill="none" stroke="#d66d66" points="3115,-371 3115,-391 "/>
<text text-anchor="middle" x="3146" y="-378.2" font-family="Fira Mono" font-size="11.00">next: 19</text>
</g>
<!-- node_17&#45;&gt;node_18 -->
<!-- node_17&#45;&gt;node_18 -->
<g id="edge26" class="edge">
<title>node_17&#45;&gt;node_18</title>
<path fill="none" stroke="#d88d88" stroke-dasharray="5,2" d="M3002.22,-411.17C3002.22,-411.17 3045.89,-411.17 3045.89,-411.17"/>
<polygon fill="#d88d88" stroke="#d88d88" points="3045.89,-414.67 3055.89,-411.17 3045.89,-407.67 3045.89,-414.67"/>
</g>
<!-- node_19 -->
<g id="node20" class="node">
<title>node_19</title>
<path fill="#ffecec" stroke="#d66d66" d="M3243,-371C3243,-371 3337,-371 3337,-371 3343,-371 3349,-377 3349,-383 3349,-383 3349,-419 3349,-419 3349,-425 3343,-431 3337,-431 3337,-431 3243,-431 3243,-431 3237,-431 3231,-425 3231,-419 3231,-419 3231,-383 3231,-383 3231,-377 3237,-371 3243,-371"/>
<text text-anchor="middle" x="3290" y="-418.2" font-family="Fira Mono" font-size="11.00">ind: 19</text>
<polyline fill="none" stroke="#d66d66" points="3231,-411 3349,-411 "/>
<text text-anchor="middle" x="3290" y="-398.2" font-family="Fira Mono" font-size="11.00">val: &#45;100</text>
<polyline fill="none" stroke="#d66d66" points="3231,-391 3349,-391 "/>
<text text-anchor="middle" x="3260.5" y="-378.2" font-family="Fira Mono" font-size="11.00">prev: &#45;1</text>
<polyline fill="none" stroke="#d66d66" points="3290,-371 3290,-391 "/>
<text text-anchor="middle" x="3319.5" y="-378.2" font-family="Fira Mono" font-size="11.00">next: &#45;1</text>
</g>
<!-- node_18&#45;&gt;node_19 -->
<!-- node_18&#45;&gt;node_19 -->
<g id="edge27" class="edge">
<title>node_18&#45;&gt;node_19</title>
<path fill="none" stroke="#d88d88" stroke-dasharray="5,2" d="M3177.18,-411.17C3177.18,-411.17 3220.81,-411.17 3220.81,-411.17"/>
<polygon fill="#d88d88" stroke="#d88d88" points="3220.81,-414.67 3230.81,-411.17 3220.81,-407.67 3220.81,-414.67"/>
</g>
<!-- node_free -->
<g id="node21" class="node">
<title>node_free</title>
<path fill="#ffecec" stroke="#d66d66" d="M80.5,-36C80.5,-36 33.5,-36 33.5,-36 27.5,-36 21.5,-30 21.5,-24 21.5,-24 21.5,-12 21.5,-12 21.5,-6 27.5,0 33.5,0 33.5,0 80.5,0 80.5,0 86.5,0 92.5,-6 92.5,-12 92.5,-12 92.5,-24 92.5,-24 92.5,-30 86.5,-36 80.5,-36"/>
<text text-anchor="middle" x="57" y="-15.2" font-family="Fira Mono" font-size="11.00">free_head</text>
</g>
<!-- node_free&#45;&gt;node_11 -->
<g id="edge39" class="edge">
<title>node_free&#45;&gt;node_11</title>
<path fill="none" stroke="#d88d88" stroke-dasharray="5,2" d="M92.83,-18C348.99,-18 1892,-18 1892,-18 1892,-18 1892,-360.95 1892,-360.95"/>
<polygon fill="#d88d88" stroke="#d88d88" points="1888.5,-360.95 1892,-370.95 1895.5,-360.95 1888.5,-360.95"/>
</g>
</g>
</svg>
