<?xml version="1.0" encoding="UTF-8" standalone="no"?>
<!DOCTYPE svg PUBLIC "-//W3C//DTD SVG 1.1//EN"
 "http://www.w3.org/Graphics/SVG/1.1/DTD/svg11.dtd">
<!-- Generated by graphviz version 2.43.0 (0)
 -->
<!-- Title: G Pages: 1 -->
<svg width="3374pt" height="388pt"
 viewBox="0.00 0.00 3374.00 388.30" xmlns="http://www.w3.org/2000/svg" xmlns:xlink="http://www.w3.org/1999/xlink">
<g id="graph0" class="graph" transform="scale(1 1) rotate(0) translate(4 384.3)">
<title>G</title>
<polygon fill="white" stroke="transparent" points="-4,4 -4,-384.3 3370,-384.3 3370,4 -4,4"/>
<!-- node_0 -->
<g id="node1" class="node">
<title>node_0</title>
<path fill="#e9f2ff" stroke="#6b8fd6" stroke-width="2" d="M12,-291C12,-291 106,-291 106,-291 112,-291 118,-297 118,-303 118,-303 118,-339 118,-339 118,-345 112,-351 106,-351 106,-351 12,-351 12,-351 6,-351 0,-345 0,-339 0,-339 0,-303 0,-303 0,-297 6,-291 12,-291"/>
<text text-anchor="middle" x="59" y="-338.2" font-family="Fira Mono" font-size="11.00">ind: 0</text>
<polyline fill="none" stroke="#6b8fd6" stroke-width="2" points="0,-331 118,-331 "/>
<text text-anchor="middle" x="59" y="-318.2" font-family="Fira Mono" font-size="11.00">val: 10101</text>
<polyline fill="none" stroke="#6b8fd6" stroke-width="2" points="0,-311 118,-311 "/>
<text text-anchor="middle" x="31" y="-298.2" font-family="Fira Mono" font-size="11.00">prev: 10</text>
<polyline fill="none" stroke="#6b8fd6" stroke-width="2" points="62,-291 62,-311 "/>
<text text-anchor="middle" x="90" y="-298.2" font-family="Fira Mono" font-size="11.00">next: 1</text>
</g>
<!-- node_1 -->
<g id="node2" class="node">
<title>node_1</title>
<path fill="#e9fbf5" stroke="#5aa99b" d="M184,-291C184,-291 271,-291 271,-291 277,-291 283,-297 283,-303 283,-303 283,-339 283,-339 283,-345 277,-351 271,-351 271,-351 184,-351 184,-351 178,-351 172,-345 172,-339 172,-339 172,-303 172,-303 172,-297 178,-291 184,-291"/>
<text text-anchor="middle" x="227.5" y="-338.2" font-family="Fira Mono" font-size="11.00">ind: 1 (HEAD)</text>
<polyline fill="none" stroke="#5aa99b" points="172,-331 283,-331 "/>
<text text-anchor="middle" x="227.5" y="-318.2" font-family="Fira Mono" font-size="11.00">val: 10</text>
<polyline fill="none" stroke="#5aa99b" points="172,-311 283,-311 "/>
<text text-anchor="middle" x="199.5" y="-298.2" font-family="Fira Mono" font-size="11.00">prev: 0</text>
<polyline fill="none" stroke="#5aa99b" points="227,-291 227,-311 "/>
<text text-anchor="middle" x="255" y="-298.2" font-family="Fira Mono" font-size="11.00">next: 1</text>
</g>
<!-- node_0&#45;&gt;node_1 -->
<!-- node_0&#45;&gt;node_1 -->
<g id="edge28" class="edge">
<title>node_0&#45;&gt;node_1</title>
<path fill="none" stroke="#999999" d="M128.41,-321C128.41,-321 161.73,-321 161.73,-321"/>
<polygon fill="#999999" stroke="#999999" points="161.73,-324.5 171.73,-321 161.73,-317.5 161.73,-324.5"/>
<polygon fill="#999999" stroke="#999999" points="128.41,-317.5 118.41,-321 128.41,-324.5 128.41,-317.5"/>
</g>
<!-- node_1&#45;&gt;node_1 -->
<g id="edge29" class="edge">
<title>node_1&#45;&gt;node_1</title>
<path fill="none" stroke="#ff0000" stroke-width="2.2" d="M171.56,-336.25C156.84,-336.25 145,-336.25 145,-336.25 145,-336.25 145,-380.3 145,-380.3 145,-380.3 310,-380.3 310,-380.3 310,-380.3 310,-336.25 310,-336.25 310,-336.25 293.44,-336.25 293.44,-336.25"/>
<polygon fill="#ff0000" stroke="#ff0000" stroke-width="2.2" points="293.44,-332.75 283.44,-336.25 293.44,-339.75 293.44,-332.75"/>
</g>
<!-- node_2 -->
<g id="node3" class="node">
<title>node_2</title>
<path fill="#fff3e0" stroke="#000000" d="M349,-291C349,-291 436,-291 436,-291 442,-291 448,-297 448,-303 448,-303 448,-339 448,-339 448,-345 442,-351 436,-351 436,-351 349,-351 349,-351 343,-351 337,-345 337,-339 337,-339 337,-303 337,-303 337,-297 343,-291 349,-291"/>
<text text-anchor="middle" x="392.5" y="-338.2" font-family="Fira Mono" font-size="11.00">ind: 2</text>
<polyline fill="none" stroke="#000000" points="337,-331 448,-331 "/>
<text text-anchor="middle" x="392.5" y="-318.2" font-family="Fira Mono" font-size="11.00">val: 2</text>
<polyline fill="none" stroke="#000000" points="337,-311 448,-311 "/>
<text text-anchor="middle" x="364.5" y="-298.2" font-family="Fira Mono" font-size="11.00">prev: 1</text>
<polyline fill="none" stroke="#000000" points="392,-291 392,-311 "/>
<text text-anchor="middle" x="420" y="-298.2" font-family="Fira Mono" font-size="11.00">next: 4</text>
</g>
<!-- node_1&#45;&gt;node_2 -->
<!-- node_1&#45;&gt;node_2 -->
<g id="edge39" class="edge">
<title>node_1&#45;&gt;node_2</title>
<path fill="none" stroke="#ff0000" stroke-width="2.2" d="M283.36,-321C283.36,-321 326.98,-321 326.98,-321"/>
<polygon fill="#ff0000" stroke="#ff0000" stroke-width="2.2" points="326.98,-324.5 336.98,-321 326.98,-317.5 326.98,-324.5"/>
</g>
<!-- node_3 -->
<g id="node4" class="node">
<title>node_3</title>
<path fill="#fff3e0" stroke="#000000" d="M514,-291C514,-291 614,-291 614,-291 620,-291 626,-297 626,-303 626,-303 626,-339 626,-339 626,-345 620,-351 614,-351 614,-351 514,-351 514,-351 508,-351 502,-345 502,-339 502,-339 502,-303 502,-303 502,-297 508,-291 514,-291"/>
<text text-anchor="middle" x="564" y="-338.2" font-family="Fira Mono" font-size="11.00">ind: 3</text>
<polyline fill="none" stroke="#000000" points="502,-331 626,-331 "/>
<text text-anchor="middle" x="564" y="-318.2" font-family="Fira Mono" font-size="11.00">val: 20</text>
<polyline fill="none" stroke="#000000" points="502,-311 626,-311 "/>
<text text-anchor="middle" x="536" y="-298.2" font-family="Fira Mono" font-size="11.00">prev: 150</text>
<polyline fill="none" stroke="#000000" points="570,-291 570,-311 "/>
<text text-anchor="middle" x="598" y="-298.2" font-family="Fira Mono" font-size="11.00">next: 4</text>
</g>
<!-- node_2&#45;&gt;node_3 -->
<!-- node_4 -->
<g id="node5" class="node">
<title>node_4</title>
<path fill="#fff3e0" stroke="#000000" d="M692,-291C692,-291 779,-291 779,-291 785,-291 791,-297 791,-303 791,-303 791,-339 791,-339 791,-345 785,-351 779,-351 779,-351 692,-351 692,-351 686,-351 680,-345 680,-339 680,-339 680,-303 680,-303 680,-297 686,-291 692,-291"/>
<text text-anchor="middle" x="735.5" y="-338.2" font-family="Fira Mono" font-size="11.00">ind: 4</text>
<polyline fill="none" stroke="#000000" points="680,-331 791,-331 "/>
<text text-anchor="middle" x="735.5" y="-318.2" font-family="Fira Mono" font-size="11.00">val: 1</text>
<polyline fill="none" stroke="#000000" points="680,-311 791,-311 "/>
<text text-anchor="middle" x="707.5" y="-298.2" font-family="Fira Mono" font-size="11.00">prev: 3</text>
<polyline fill="none" stroke="#000000" points="735,-291 735,-311 "/>
<text text-anchor="middle" x="763" y="-298.2" font-family="Fira Mono" font-size="11.00">next: 5</text>
</g>
<!-- node_2&#45;&gt;node_4 -->
<g id="edge30" class="edge">
<title>node_2&#45;&gt;node_4</title>
<path fill="none" stroke="#ff0000" stroke-width="2.2" d="M393,-351.2C393,-359.32 393,-365.9 393,-365.9 393,-365.9 717,-365.9 717,-365.9 717,-365.9 717,-361.2 717,-361.2"/>
<polygon fill="#ff0000" stroke="#ff0000" stroke-width="2.2" points="720.5,-361.2 717,-351.2 713.5,-361.2 720.5,-361.2"/>
</g>
<!-- node_3&#45;&gt;node_4 -->
<!-- node_3&#45;&gt;node_4 -->
<g id="edge31" class="edge">
<title>node_3&#45;&gt;node_4</title>
<path fill="none" stroke="#999999" d="M636.4,-331.17C636.4,-331.17 669.96,-331.17 669.96,-331.17"/>
<polygon fill="#999999" stroke="#999999" points="669.96,-334.67 679.96,-331.17 669.96,-327.67 669.96,-334.67"/>
<polygon fill="#999999" stroke="#999999" points="636.4,-327.67 626.4,-331.17 636.4,-334.67 636.4,-327.67"/>
</g>
<!-- node_bad_p_3 -->
<g id="node21" class="node">
<title>node_bad_p_3</title>
<path fill="#d88d88" stroke="#d66d66" d="M580.5,-225C580.5,-225 547.5,-225 547.5,-225 541.5,-225 535.5,-219 535.5,-213 535.5,-213 535.5,-201 535.5,-201 535.5,-195 541.5,-189 547.5,-189 547.5,-189 580.5,-189 580.5,-189 586.5,-189 592.5,-195 592.5,-201 592.5,-201 592.5,-213 592.5,-213 592.5,-219 586.5,-225 580.5,-225"/>
<text text-anchor="middle" x="564" y="-210.2" font-family="Fira Mono" font-size="11.00">idx 150</text>
<text text-anchor="middle" x="564" y="-198.2" font-family="Fira Mono" font-size="11.00">(N/A)</text>
</g>
<!-- node_3&#45;&gt;node_bad_p_3 -->
<!-- node_5 -->
<g id="node6" class="node">
<title>node_5</title>
<path fill="#fff3e0" stroke="#000000" d="M857,-291C857,-291 944,-291 944,-291 950,-291 956,-297 956,-303 956,-303 956,-339 956,-339 956,-345 950,-351 944,-351 944,-351 857,-351 857,-351 851,-351 845,-345 845,-339 845,-339 845,-303 845,-303 845,-297 851,-291 857,-291"/>
<text text-anchor="middle" x="900.5" y="-338.2" font-family="Fira Mono" font-size="11.00">ind: 5</text>
<polyline fill="none" stroke="#000000" points="845,-331 956,-331 "/>
<text text-anchor="middle" x="900.5" y="-318.2" font-family="Fira Mono" font-size="11.00">val: 30</text>
<polyline fill="none" stroke="#000000" points="845,-311 956,-311 "/>
<text text-anchor="middle" x="872.5" y="-298.2" font-family="Fira Mono" font-size="11.00">prev: 4</text>
<polyline fill="none" stroke="#000000" points="900,-291 900,-311 "/>
<text text-anchor="middle" x="928" y="-298.2" font-family="Fira Mono" font-size="11.00">next: 6</text>
</g>
<!-- node_4&#45;&gt;node_5 -->
<!-- node_4&#45;&gt;node_5 -->
<g id="edge32" class="edge">
<title>node_4&#45;&gt;node_5</title>
<path fill="none" stroke="#999999" d="M801.36,-331.17C801.36,-331.17 834.98,-331.17 834.98,-331.17"/>
<polygon fill="#999999" stroke="#999999" points="834.98,-334.67 844.98,-331.17 834.98,-327.67 834.98,-334.67"/>
<polygon fill="#999999" stroke="#999999" points="801.36,-327.67 791.36,-331.17 801.36,-334.67 801.36,-327.67"/>
</g>
<!-- node_6 -->
<g id="node7" class="node">
<title>node_6</title>
<path fill="#fff3e0" stroke="#000000" d="M1022,-291C1022,-291 1116,-291 1116,-291 1122,-291 1128,-297 1128,-303 1128,-303 1128,-339 1128,-339 1128,-345 1122,-351 1116,-351 1116,-351 1022,-351 1022,-351 1016,-351 1010,-345 1010,-339 1010,-339 1010,-303 1010,-303 1010,-297 1016,-291 1022,-291"/>
<text text-anchor="middle" x="1069" y="-338.2" font-family="Fira Mono" font-size="11.00">ind: 6</text>
<polyline fill="none" stroke="#000000" points="1010,-331 1128,-331 "/>
<text text-anchor="middle" x="1069" y="-318.2" font-family="Fira Mono" font-size="11.00">val: 5</text>
<polyline fill="none" stroke="#000000" points="1010,-311 1128,-311 "/>
<text text-anchor="middle" x="1041" y="-298.2" font-family="Fira Mono" font-size="11.00">prev: 10</text>
<polyline fill="none" stroke="#000000" points="1072,-291 1072,-311 "/>
<text text-anchor="middle" x="1100" y="-298.2" font-family="Fira Mono" font-size="11.00">next: 4</text>
</g>
<!-- node_5&#45;&gt;node_6 -->
<!-- node_5&#45;&gt;node_6 -->
<g id="edge33" class="edge">
<title>node_5&#45;&gt;node_6</title>
<path fill="none" stroke="#ff0000" stroke-width="2.2" d="M956.14,-331.17C956.14,-331.17 999.94,-331.17 999.94,-331.17"/>
<polygon fill="#ff0000" stroke="#ff0000" stroke-width="2.2" points="999.94,-334.67 1009.94,-331.17 999.94,-327.67 999.94,-334.67"/>
</g>
<!-- node_6&#45;&gt;node_4 -->
<g id="edge34" class="edge">
<title>node_6&#45;&gt;node_4</title>
<path fill="none" stroke="#ff0000" stroke-width="2.2" d="M1050,-351C1050,-362.59 1050,-373.1 1050,-373.1 1050,-373.1 754,-373.1 754,-373.1 754,-373.1 754,-361 754,-361"/>
<polygon fill="#ff0000" stroke="#ff0000" stroke-width="2.2" points="757.5,-361 754,-351 750.5,-361 757.5,-361"/>
</g>
<!-- node_7 -->
<g id="node8" class="node">
<title>node_7</title>
<path fill="#fff3e0" stroke="#000000" d="M1194,-291C1194,-291 1281,-291 1281,-291 1287,-291 1293,-297 1293,-303 1293,-303 1293,-339 1293,-339 1293,-345 1287,-351 1281,-351 1281,-351 1194,-351 1194,-351 1188,-351 1182,-345 1182,-339 1182,-339 1182,-303 1182,-303 1182,-297 1188,-291 1194,-291"/>
<text text-anchor="middle" x="1237.5" y="-338.2" font-family="Fira Mono" font-size="11.00">ind: 7</text>
<polyline fill="none" stroke="#000000" points="1182,-331 1293,-331 "/>
<text text-anchor="middle" x="1237.5" y="-318.2" font-family="Fira Mono" font-size="11.00">val: 4</text>
<polyline fill="none" stroke="#000000" points="1182,-311 1293,-311 "/>
<text text-anchor="middle" x="1209.5" y="-298.2" font-family="Fira Mono" font-size="11.00">prev: 6</text>
<polyline fill="none" stroke="#000000" points="1237,-291 1237,-311 "/>
<text text-anchor="middle" x="1265" y="-298.2" font-family="Fira Mono" font-size="11.00">next: 8</text>
</g>
<!-- node_6&#45;&gt;node_7 -->
<!-- node_6&#45;&gt;node_7 -->
<g id="edge43" class="edge">
<title>node_6&#45;&gt;node_7</title>
<path fill="none" stroke="#ff0000" stroke-width="2.2" d="M1128.41,-331.17C1128.41,-331.17 1171.73,-331.17 1171.73,-331.17"/>
<polygon fill="#ff0000" stroke="#ff0000" stroke-width="2.2" points="1171.73,-334.67 1181.73,-331.17 1171.73,-327.67 1171.73,-334.67"/>
</g>
<!-- node_8 -->
<g id="node9" class="node">
<title>node_8</title>
<path fill="#fff3e0" stroke="#000000" d="M1359,-291C1359,-291 1446,-291 1446,-291 1452,-291 1458,-297 1458,-303 1458,-303 1458,-339 1458,-339 1458,-345 1452,-351 1446,-351 1446,-351 1359,-351 1359,-351 1353,-351 1347,-345 1347,-339 1347,-339 1347,-303 1347,-303 1347,-297 1353,-291 1359,-291"/>
<text text-anchor="middle" x="1402.5" y="-338.2" font-family="Fira Mono" font-size="11.00">ind: 8</text>
<polyline fill="none" stroke="#000000" points="1347,-331 1458,-331 "/>
<text text-anchor="middle" x="1402.5" y="-318.2" font-family="Fira Mono" font-size="11.00">val: 5</text>
<polyline fill="none" stroke="#000000" points="1347,-311 1458,-311 "/>
<text text-anchor="middle" x="1374.5" y="-298.2" font-family="Fira Mono" font-size="11.00">prev: 7</text>
<polyline fill="none" stroke="#000000" points="1402,-291 1402,-311 "/>
<text text-anchor="middle" x="1430" y="-298.2" font-family="Fira Mono" font-size="11.00">next: 9</text>
</g>
<!-- node_7&#45;&gt;node_8 -->
<!-- node_7&#45;&gt;node_8 -->
<g id="edge35" class="edge">
<title>node_7&#45;&gt;node_8</title>
<path fill="none" stroke="#999999" d="M1303.36,-331.17C1303.36,-331.17 1336.98,-331.17 1336.98,-331.17"/>
<polygon fill="#999999" stroke="#999999" points="1336.98,-334.67 1346.98,-331.17 1336.98,-327.67 1336.98,-334.67"/>
<polygon fill="#999999" stroke="#999999" points="1303.36,-327.67 1293.36,-331.17 1303.36,-334.67 1303.36,-327.67"/>
</g>
<!-- node_9 -->
<g id="node10" class="node">
<title>node_9</title>
<path fill="#fff3e0" stroke="#000000" d="M1524,-291C1524,-291 1617,-291 1617,-291 1623,-291 1629,-297 1629,-303 1629,-303 1629,-339 1629,-339 1629,-345 1623,-351 1617,-351 1617,-351 1524,-351 1524,-351 1518,-351 1512,-345 1512,-339 1512,-339 1512,-303 1512,-303 1512,-297 1518,-291 1524,-291"/>
<text text-anchor="middle" x="1570.5" y="-338.2" font-family="Fira Mono" font-size="11.00">ind: 9</text>
<polyline fill="none" stroke="#000000" points="1512,-331 1629,-331 "/>
<text text-anchor="middle" x="1570.5" y="-318.2" font-family="Fira Mono" font-size="11.00">val: 4</text>
<polyline fill="none" stroke="#000000" points="1512,-311 1629,-311 "/>
<text text-anchor="middle" x="1539.5" y="-298.2" font-family="Fira Mono" font-size="11.00">prev: 8</text>
<polyline fill="none" stroke="#000000" points="1567,-291 1567,-311 "/>
<text text-anchor="middle" x="1598" y="-298.2" font-family="Fira Mono" font-size="11.00">next: 10</text>
</g>
<!-- node_8&#45;&gt;node_9 -->
<!-- node_8&#45;&gt;node_9 -->
<g id="edge36" class="edge">
<title>node_8&#45;&gt;node_9</title>
<path fill="none" stroke="#999999" d="M1468.44,-331.17C1468.44,-331.17 1501.93,-331.17 1501.93,-331.17"/>
<polygon fill="#999999" stroke="#999999" points="1501.93,-334.67 1511.93,-331.17 1501.93,-327.67 1501.93,-334.67"/>
<polygon fill="#999999" stroke="#999999" points="1468.44,-327.67 1458.44,-331.17 1468.44,-334.67 1468.44,-327.67"/>
</g>
<!-- node_10 -->
<g id="node11" class="node">
<title>node_10</title>
<path fill="#f1eafd" stroke="#8e6bd6" d="M1695,-291C1695,-291 1782,-291 1782,-291 1788,-291 1794,-297 1794,-303 1794,-303 1794,-339 1794,-339 1794,-345 1788,-351 1782,-351 1782,-351 1695,-351 1695,-351 1689,-351 1683,-345 1683,-339 1683,-339 1683,-303 1683,-303 1683,-297 1689,-291 1695,-291"/>
<text text-anchor="middle" x="1738.5" y="-338.2" font-family="Fira Mono" font-size="11.00">ind: 10 (TAIL)</text>
<polyline fill="none" stroke="#8e6bd6" points="1683,-331 1794,-331 "/>
<text text-anchor="middle" x="1738.5" y="-318.2" font-family="Fira Mono" font-size="11.00">val: 3</text>
<polyline fill="none" stroke="#8e6bd6" points="1683,-311 1794,-311 "/>
<text text-anchor="middle" x="1710.5" y="-298.2" font-family="Fira Mono" font-size="11.00">prev: 9</text>
<polyline fill="none" stroke="#8e6bd6" points="1738,-291 1738,-311 "/>
<text text-anchor="middle" x="1766" y="-298.2" font-family="Fira Mono" font-size="11.00">next: 0</text>
</g>
<!-- node_9&#45;&gt;node_10 -->
<!-- node_9&#45;&gt;node_10 -->
<g id="edge37" class="edge">
<title>node_9&#45;&gt;node_10</title>
<path fill="none" stroke="#999999" d="M1639.26,-331.17C1639.26,-331.17 1672.88,-331.17 1672.88,-331.17"/>
<polygon fill="#999999" stroke="#999999" points="1672.88,-334.67 1682.88,-331.17 1672.88,-327.67 1672.88,-334.67"/>
<polygon fill="#999999" stroke="#999999" points="1639.26,-327.67 1629.26,-331.17 1639.26,-334.67 1639.26,-327.67"/>
</g>
<!-- node_10&#45;&gt;node_0 -->
<g id="edge38" class="edge">
<title>node_10&#45;&gt;node_0</title>
<path fill="none" stroke="#999999" d="M1739,-280.86C1739,-280.86 1739,-257.75 1739,-257.75 1739,-257.75 107,-257.75 107,-257.75 107,-257.75 107,-280.86 107,-280.86"/>
<polygon fill="#999999" stroke="#999999" points="1735.5,-280.86 1739,-290.86 1742.5,-280.86 1735.5,-280.86"/>
<polygon fill="#999999" stroke="#999999" points="103.5,-280.86 107,-290.86 110.5,-280.86 103.5,-280.86"/>
</g>
<!-- node_10&#45;&gt;node_6 -->
<g id="edge42" class="edge">
<title>node_10&#45;&gt;node_6</title>
<path fill="none" stroke="#ff0000" stroke-width="2.2" d="M1739,-351.07C1739,-355.55 1739,-358.7 1739,-358.7 1739,-358.7 1089,-358.7 1089,-358.7 1089,-358.7 1089,-357.94 1089,-357.94"/>
<polygon fill="#ff0000" stroke="#ff0000" stroke-width="2.2" points="1092.5,-361.07 1089,-351.07 1085.5,-361.07 1092.5,-361.07"/>
</g>
<!-- node_11 -->
<g id="node12" class="node">
<title>node_11</title>
<path fill="#ffecec" stroke="#d66d66" d="M1860,-291C1860,-291 1957,-291 1957,-291 1963,-291 1969,-297 1969,-303 1969,-303 1969,-339 1969,-339 1969,-345 1963,-351 1957,-351 1957,-351 1860,-351 1860,-351 1854,-351 1848,-345 1848,-339 1848,-339 1848,-303 1848,-303 1848,-297 1854,-291 1860,-291"/>
<text text-anchor="middle" x="1908.5" y="-338.2" font-family="Fira Mono" font-size="11.00">ind: 11</text>
<polyline fill="none" stroke="#d66d66" points="1848,-331 1969,-331 "/>
<text text-anchor="middle" x="1908.5" y="-318.2" font-family="Fira Mono" font-size="11.00">val: &#45;100</text>
<polyline fill="none" stroke="#d66d66" points="1848,-311 1969,-311 "/>
<text text-anchor="middle" x="1877.5" y="-298.2" font-family="Fira Mono" font-size="11.00">prev: &#45;1</text>
<polyline fill="none" stroke="#d66d66" points="1907,-291 1907,-311 "/>
<text text-anchor="middle" x="1938" y="-298.2" font-family="Fira Mono" font-size="11.00">next: 12</text>
</g>
<!-- node_10&#45;&gt;node_11 -->
<!-- node_12 -->
<g id="node13" class="node">
<title>node_12</title>
<path fill="#ffecec" stroke="#d66d66" d="M2035,-291C2035,-291 2132,-291 2132,-291 2138,-291 2144,-297 2144,-303 2144,-303 2144,-339 2144,-339 2144,-345 2138,-351 2132,-351 2132,-351 2035,-351 2035,-351 2029,-351 2023,-345 2023,-339 2023,-339 2023,-303 2023,-303 2023,-297 2029,-291 2035,-291"/>
<text text-anchor="middle" x="2083.5" y="-338.2" font-family="Fira Mono" font-size="11.00">ind: 12</text>
<polyline fill="none" stroke="#d66d66" points="2023,-331 2144,-331 "/>
<text text-anchor="middle" x="2083.5" y="-318.2" font-family="Fira Mono" font-size="11.00">val: &#45;100</text>
<polyline fill="none" stroke="#d66d66" points="2023,-311 2144,-311 "/>
<text text-anchor="middle" x="2052.5" y="-298.2" font-family="Fira Mono" font-size="11.00">prev: &#45;1</text>
<polyline fill="none" stroke="#d66d66" points="2082,-291 2082,-311 "/>
<text text-anchor="middle" x="2113" y="-298.2" font-family="Fira Mono" font-size="11.00">next: 13</text>
</g>
<!-- node_11&#45;&gt;node_12 -->
<!-- node_11&#45;&gt;node_12 -->
<g id="edge20" class="edge">
<title>node_11&#45;&gt;node_12</title>
<path fill="none" stroke="#d88d88" stroke-dasharray="5,2" d="M1969.22,-331.17C1969.22,-331.17 2012.89,-331.17 2012.89,-331.17"/>
<polygon fill="#d88d88" stroke="#d88d88" points="2012.89,-334.67 2022.89,-331.17 2012.89,-327.67 2012.89,-334.67"/>
</g>
<!-- node_13 -->
<g id="node14" class="node">
<title>node_13</title>
<path fill="#ffecec" stroke="#d66d66" d="M2210,-291C2210,-291 2307,-291 2307,-291 2313,-291 2319,-297 2319,-303 2319,-303 2319,-339 2319,-339 2319,-345 2313,-351 2307,-351 2307,-351 2210,-351 2210,-351 2204,-351 2198,-345 2198,-339 2198,-339 2198,-303 2198,-303 2198,-297 2204,-291 2210,-291"/>
<text text-anchor="middle" x="2258.5" y="-338.2" font-family="Fira Mono" font-size="11.00">ind: 13</text>
<polyline fill="none" stroke="#d66d66" points="2198,-331 2319,-331 "/>
<text text-anchor="middle" x="2258.5" y="-318.2" font-family="Fira Mono" font-size="11.00">val: &#45;100</text>
<polyline fill="none" stroke="#d66d66" points="2198,-311 2319,-311 "/>
<text text-anchor="middle" x="2227.5" y="-298.2" font-family="Fira Mono" font-size="11.00">prev: &#45;1</text>
<polyline fill="none" stroke="#d66d66" points="2257,-291 2257,-311 "/>
<text text-anchor="middle" x="2288" y="-298.2" font-family="Fira Mono" font-size="11.00">next: 14</text>
</g>
<!-- node_12&#45;&gt;node_13 -->
<!-- node_12&#45;&gt;node_13 -->
<g id="edge21" class="edge">
<title>node_12&#45;&gt;node_13</title>
<path fill="none" stroke="#d88d88" stroke-dasharray="5,2" d="M2144.22,-331.17C2144.22,-331.17 2187.89,-331.17 2187.89,-331.17"/>
<polygon fill="#d88d88" stroke="#d88d88" points="2187.89,-334.67 2197.89,-331.17 2187.89,-327.67 2187.89,-334.67"/>
</g>
<!-- node_14 -->
<g id="node15" class="node">
<title>node_14</title>
<path fill="#ffecec" stroke="#d66d66" d="M2385,-291C2385,-291 2482,-291 2482,-291 2488,-291 2494,-297 2494,-303 2494,-303 2494,-339 2494,-339 2494,-345 2488,-351 2482,-351 2482,-351 2385,-351 2385,-351 2379,-351 2373,-345 2373,-339 2373,-339 2373,-303 2373,-303 2373,-297 2379,-291 2385,-291"/>
<text text-anchor="middle" x="2433.5" y="-338.2" font-family="Fira Mono" font-size="11.00">ind: 14</text>
<polyline fill="none" stroke="#d66d66" points="2373,-331 2494,-331 "/>
<text text-anchor="middle" x="2433.5" y="-318.2" font-family="Fira Mono" font-size="11.00">val: &#45;100</text>
<polyline fill="none" stroke="#d66d66" points="2373,-311 2494,-311 "/>
<text text-anchor="middle" x="2402.5" y="-298.2" font-family="Fira Mono" font-size="11.00">prev: &#45;1</text>
<polyline fill="none" stroke="#d66d66" points="2432,-291 2432,-311 "/>
<text text-anchor="middle" x="2463" y="-298.2" font-family="Fira Mono" font-size="11.00">next: 15</text>
</g>
<!-- node_13&#45;&gt;node_14 -->
<!-- node_13&#45;&gt;node_14 -->
<g id="edge22" class="edge">
<title>node_13&#45;&gt;node_14</title>
<path fill="none" stroke="#d88d88" stroke-dasharray="5,2" d="M2319.22,-331.17C2319.22,-331.17 2362.89,-331.17 2362.89,-331.17"/>
<polygon fill="#d88d88" stroke="#d88d88" points="2362.89,-334.67 2372.89,-331.17 2362.89,-327.67 2362.89,-334.67"/>
</g>
<!-- node_15 -->
<g id="node16" class="node">
<title>node_15</title>
<path fill="#ffecec" stroke="#d66d66" d="M2560,-291C2560,-291 2657,-291 2657,-291 2663,-291 2669,-297 2669,-303 2669,-303 2669,-339 2669,-339 2669,-345 2663,-351 2657,-351 2657,-351 2560,-351 2560,-351 2554,-351 2548,-345 2548,-339 2548,-339 2548,-303 2548,-303 2548,-297 2554,-291 2560,-291"/>
<text text-anchor="middle" x="2608.5" y="-338.2" font-family="Fira Mono" font-size="11.00">ind: 15</text>
<polyline fill="none" stroke="#d66d66" points="2548,-331 2669,-331 "/>
<text text-anchor="middle" x="2608.5" y="-318.2" font-family="Fira Mono" font-size="11.00">val: &#45;100</text>
<polyline fill="none" stroke="#d66d66" points="2548,-311 2669,-311 "/>
<text text-anchor="middle" x="2577.5" y="-298.2" font-family="Fira Mono" font-size="11.00">prev: &#45;1</text>
<polyline fill="none" stroke="#d66d66" points="2607,-291 2607,-311 "/>
<text text-anchor="middle" x="2638" y="-298.2" font-family="Fira Mono" font-size="11.00">next: 16</text>
</g>
<!-- node_14&#45;&gt;node_15 -->
<!-- node_14&#45;&gt;node_15 -->
<g id="edge23" class="edge">
<title>node_14&#45;&gt;node_15</title>
<path fill="none" stroke="#d88d88" stroke-dasharray="5,2" d="M2494.22,-331.17C2494.22,-331.17 2537.89,-331.17 2537.89,-331.17"/>
<polygon fill="#d88d88" stroke="#d88d88" points="2537.89,-334.67 2547.89,-331.17 2537.89,-327.67 2537.89,-334.67"/>
</g>
<!-- node_16 -->
<g id="node17" class="node">
<title>node_16</title>
<path fill="#ffecec" stroke="#d66d66" d="M2735,-291C2735,-291 2832,-291 2832,-291 2838,-291 2844,-297 2844,-303 2844,-303 2844,-339 2844,-339 2844,-345 2838,-351 2832,-351 2832,-351 2735,-351 2735,-351 2729,-351 2723,-345 2723,-339 2723,-339 2723,-303 2723,-303 2723,-297 2729,-291 2735,-291"/>
<text text-anchor="middle" x="2783.5" y="-338.2" font-family="Fira Mono" font-size="11.00">ind: 16</text>
<polyline fill="none" stroke="#d66d66" points="2723,-331 2844,-331 "/>
<text text-anchor="middle" x="2783.5" y="-318.2" font-family="Fira Mono" font-size="11.00">val: &#45;100</text>
<polyline fill="none" stroke="#d66d66" points="2723,-311 2844,-311 "/>
<text text-anchor="middle" x="2752.5" y="-298.2" font-family="Fira Mono" font-size="11.00">prev: &#45;1</text>
<polyline fill="none" stroke="#d66d66" points="2782,-291 2782,-311 "/>
<text text-anchor="middle" x="2813" y="-298.2" font-family="Fira Mono" font-size="11.00">next: 17</text>
</g>
<!-- node_15&#45;&gt;node_16 -->
<!-- node_15&#45;&gt;node_16 -->
<g id="edge24" class="edge">
<title>node_15&#45;&gt;node_16</title>
<path fill="none" stroke="#d88d88" stroke-dasharray="5,2" d="M2669.22,-331.17C2669.22,-331.17 2712.89,-331.17 2712.89,-331.17"/>
<polygon fill="#d88d88" stroke="#d88d88" points="2712.89,-334.67 2722.89,-331.17 2712.89,-327.67 2712.89,-334.67"/>
</g>
<!-- node_17 -->
<g id="node18" class="node">
<title>node_17</title>
<path fill="#ffecec" stroke="#d66d66" d="M2910,-291C2910,-291 3007,-291 3007,-291 3013,-291 3019,-297 3019,-303 3019,-303 3019,-339 3019,-339 3019,-345 3013,-351 3007,-351 3007,-351 2910,-351 2910,-351 2904,-351 2898,-345 2898,-339 2898,-339 2898,-303 2898,-303 2898,-297 2904,-291 2910,-291"/>
<text text-anchor="middle" x="2958.5" y="-338.2" font-family="Fira Mono" font-size="11.00">ind: 17</text>
<polyline fill="none" stroke="#d66d66" points="2898,-331 3019,-331 "/>
<text text-anchor="middle" x="2958.5" y="-318.2" font-family="Fira Mono" font-size="11.00">val: &#45;100</text>
<polyline fill="none" stroke="#d66d66" points="2898,-311 3019,-311 "/>
<text text-anchor="middle" x="2927.5" y="-298.2" font-family="Fira Mono" font-size="11.00">prev: &#45;1</text>
<polyline fill="none" stroke="#d66d66" points="2957,-291 2957,-311 "/>
<text text-anchor="middle" x="2988" y="-298.2" font-family="Fira Mono" font-size="11.00">next: 18</text>
</g>
<!-- node_16&#45;&gt;node_17 -->
<!-- node_16&#45;&gt;node_17 -->
<g id="edge25" class="edge">
<title>node_16&#45;&gt;node_17</title>
<path fill="none" stroke="#d88d88" stroke-dasharray="5,2" d="M2844.22,-331.17C2844.22,-331.17 2887.89,-331.17 2887.89,-331.17"/>
<polygon fill="#d88d88" stroke="#d88d88" points="2887.89,-334.67 2897.89,-331.17 2887.89,-327.67 2887.89,-334.67"/>
</g>
<!-- node_18 -->
<g id="node19" class="node">
<title>node_18</title>
<path fill="#ffecec" stroke="#d66d66" d="M3085,-291C3085,-291 3182,-291 3182,-291 3188,-291 3194,-297 3194,-303 3194,-303 3194,-339 3194,-339 3194,-345 3188,-351 3182,-351 3182,-351 3085,-351 3085,-351 3079,-351 3073,-345 3073,-339 3073,-339 3073,-303 3073,-303 3073,-297 3079,-291 3085,-291"/>
<text text-anchor="middle" x="3133.5" y="-338.2" font-family="Fira Mono" font-size="11.00">ind: 18</text>
<polyline fill="none" stroke="#d66d66" points="3073,-331 3194,-331 "/>
<text text-anchor="middle" x="3133.5" y="-318.2" font-family="Fira Mono" font-size="11.00">val: &#45;100</text>
<polyline fill="none" stroke="#d66d66" points="3073,-311 3194,-311 "/>
<text text-anchor="middle" x="3102.5" y="-298.2" font-family="Fira Mono" font-size="11.00">prev: &#45;1</text>
<polyline fill="none" stroke="#d66d66" points="3132,-291 3132,-311 "/>
<text text-anchor="middle" x="3163" y="-298.2" font-family="Fira Mono" font-size="11.00">next: 19</text>
</g>
<!-- node_17&#45;&gt;node_18 -->
<!-- node_17&#45;&gt;node_18 -->
<g id="edge26" class="edge">
<title>node_17&#45;&gt;node_18</title>
<path fill="none" stroke="#d88d88" stroke-dasharray="5,2" d="M3019.22,-331.17C3019.22,-331.17 3062.89,-331.17 3062.89,-331.17"/>
<polygon fill="#d88d88" stroke="#d88d88" points="3062.89,-334.67 3072.89,-331.17 3062.89,-327.67 3062.89,-334.67"/>
</g>
<!-- node_19 -->
<g id="node20" class="node">
<title>node_19</title>
<path fill="#ffecec" stroke="#d66d66" d="M3260,-291C3260,-291 3354,-291 3354,-291 3360,-291 3366,-297 3366,-303 3366,-303 3366,-339 3366,-339 3366,-345 3360,-351 3354,-351 3354,-351 3260,-351 3260,-351 3254,-351 3248,-345 3248,-339 3248,-339 3248,-303 3248,-303 3248,-297 3254,-291 3260,-291"/>
<text text-anchor="middle" x="3307" y="-338.2" font-family="Fira Mono" font-size="11.00">ind: 19</text>
<polyline fill="none" stroke="#d66d66" points="3248,-331 3366,-331 "/>
<text text-anchor="middle" x="3307" y="-318.2" font-family="Fira Mono" font-size="11.00">val: &#45;100</text>
<polyline fill="none" stroke="#d66d66" points="3248,-311 3366,-311 "/>
<text text-anchor="middle" x="3277.5" y="-298.2" font-family="Fira Mono" font-size="11.00">prev: &#45;1</text>
<polyline fill="none" stroke="#d66d66" points="3307,-291 3307,-311 "/>
<text text-anchor="middle" x="3336.5" y="-298.2" font-family="Fira Mono" font-size="11.00">next: &#45;1</text>
</g>
<!-- node_18&#45;&gt;node_19 -->
<!-- node_18&#45;&gt;node_19 -->
<g id="edge27" class="edge">
<title>node_18&#45;&gt;node_19</title>
<path fill="none" stroke="#d88d88" stroke-dasharray="5,2" d="M3194.18,-331.17C3194.18,-331.17 3237.81,-331.17 3237.81,-331.17"/>
<polygon fill="#d88d88" stroke="#d88d88" points="3237.81,-334.67 3247.81,-331.17 3237.81,-327.67 3237.81,-334.67"/>
</g>
<!-- node_bad_p_3&#45;&gt;node_3 -->
<g id="edge40" class="edge">
<title>node_bad_p_3&#45;&gt;node_3</title>
<path fill="none" stroke="#ffecec" stroke-width="2" d="M574,-225.06C574,-225.06 574,-280.59 574,-280.59"/>
<polygon fill="#ffecec" stroke="#ffecec" stroke-width="2" points="570.5,-280.59 574,-290.59 577.5,-280.59 570.5,-280.59"/>
</g>
<!-- node_free -->
<g id="node22" class="node">
<title>node_free</title>
<path fill="#ffecec" stroke="#d66d66" d="M82.5,-36C82.5,-36 35.5,-36 35.5,-36 29.5,-36 23.5,-30 23.5,-24 23.5,-24 23.5,-12 23.5,-12 23.5,-6 29.5,0 35.5,0 35.5,0 82.5,0 82.5,0 88.5,0 94.5,-6 94.5,-12 94.5,-12 94.5,-24 94.5,-24 94.5,-30 88.5,-36 82.5,-36"/>
<text text-anchor="middle" x="59" y="-15.2" font-family="Fira Mono" font-size="11.00">free_head</text>
</g>
<!-- node_free&#45;&gt;node_11 -->
<g id="edge44" class="edge">
<title>node_free&#45;&gt;node_11</title>
<path fill="none" stroke="#d88d88" stroke-dasharray="5,2" d="M94.71,-18C351.72,-18 1909,-18 1909,-18 1909,-18 1909,-280.84 1909,-280.84"/>
<polygon fill="#d88d88" stroke="#d88d88" points="1905.5,-280.84 1909,-290.84 1912.5,-280.84 1905.5,-280.84"/>
</g>
</g>
</svg>
