<?xml version="1.0" encoding="UTF-8" standalone="no"?>
<!DOCTYPE svg PUBLIC "-//W3C//DTD SVG 1.1//EN"
 "http://www.w3.org/Graphics/SVG/1.1/DTD/svg11.dtd">
<!-- Generated by graphviz version 2.43.0 (0)
 -->
<!-- Title: G Pages: 1 -->
<svg width="3354pt" height="268pt"
 viewBox="0.00 0.00 3354.00 267.50" xmlns="http://www.w3.org/2000/svg" xmlns:xlink="http://www.w3.org/1999/xlink">
<g id="graph0" class="graph" transform="scale(1 1) rotate(0) translate(4 263.5)">
<title>G</title>
<polygon fill="white" stroke="transparent" points="-4,4 -4,-263.5 3350,-263.5 3350,4 -4,4"/>
<!-- node_0 -->
<g id="node1" class="node">
<title>node_0</title>
<path fill="#e9f2ff" stroke="#6b8fd6" stroke-width="2" d="M12,-175C12,-175 106,-175 106,-175 112,-175 118,-181 118,-187 118,-187 118,-223 118,-223 118,-229 112,-235 106,-235 106,-235 12,-235 12,-235 6,-235 0,-229 0,-223 0,-223 0,-187 0,-187 0,-181 6,-175 12,-175"/>
<text text-anchor="middle" x="59" y="-222.2" font-family="Fira Mono" font-size="11.00">ind: 0</text>
<polyline fill="none" stroke="#6b8fd6" stroke-width="2" points="0,-215 118,-215 "/>
<text text-anchor="middle" x="59" y="-202.2" font-family="Fira Mono" font-size="11.00">val: 10101</text>
<polyline fill="none" stroke="#6b8fd6" stroke-width="2" points="0,-195 118,-195 "/>
<text text-anchor="middle" x="31" y="-182.2" font-family="Fira Mono" font-size="11.00">prev: 10</text>
<polyline fill="none" stroke="#6b8fd6" stroke-width="2" points="62,-175 62,-195 "/>
<text text-anchor="middle" x="90" y="-182.2" font-family="Fira Mono" font-size="11.00">next: 1</text>
</g>
<!-- node_1 -->
<g id="node2" class="node">
<title>node_1</title>
<path fill="#e9fbf5" stroke="#5aa99b" d="M184,-175C184,-175 271,-175 271,-175 277,-175 283,-181 283,-187 283,-187 283,-223 283,-223 283,-229 277,-235 271,-235 271,-235 184,-235 184,-235 178,-235 172,-229 172,-223 172,-223 172,-187 172,-187 172,-181 178,-175 184,-175"/>
<text text-anchor="middle" x="227.5" y="-222.2" font-family="Fira Mono" font-size="11.00">ind: 1 (HEAD)</text>
<polyline fill="none" stroke="#5aa99b" points="172,-215 283,-215 "/>
<text text-anchor="middle" x="227.5" y="-202.2" font-family="Fira Mono" font-size="11.00">val: 10</text>
<polyline fill="none" stroke="#5aa99b" points="172,-195 283,-195 "/>
<text text-anchor="middle" x="199.5" y="-182.2" font-family="Fira Mono" font-size="11.00">prev: 0</text>
<polyline fill="none" stroke="#5aa99b" points="227,-175 227,-195 "/>
<text text-anchor="middle" x="255" y="-182.2" font-family="Fira Mono" font-size="11.00">next: 1</text>
</g>
<!-- node_0&#45;&gt;node_1 -->
<!-- node_0&#45;&gt;node_1 -->
<g id="edge28" class="edge">
<title>node_0&#45;&gt;node_1</title>
<path fill="none" stroke="#999999" d="M128.41,-205C128.41,-205 161.73,-205 161.73,-205"/>
<polygon fill="#999999" stroke="#999999" points="161.73,-208.5 171.73,-205 161.73,-201.5 161.73,-208.5"/>
<polygon fill="#999999" stroke="#999999" points="128.41,-201.5 118.41,-205 128.41,-208.5 128.41,-201.5"/>
</g>
<!-- node_1&#45;&gt;node_1 -->
<g id="edge29" class="edge">
<title>node_1&#45;&gt;node_1</title>
<path fill="none" stroke="#ff0000" stroke-width="2.2" d="M171.56,-220.25C156.84,-220.25 145,-220.25 145,-220.25 145,-220.25 145,-247.5 145,-247.5 145,-247.5 310,-247.5 310,-247.5 310,-247.5 310,-220.25 310,-220.25 310,-220.25 293.44,-220.25 293.44,-220.25"/>
<polygon fill="#ff0000" stroke="#ff0000" stroke-width="2.2" points="293.44,-216.75 283.44,-220.25 293.44,-223.75 293.44,-216.75"/>
</g>
<!-- node_2 -->
<g id="node3" class="node">
<title>node_2</title>
<path fill="#fff3e0" stroke="#000000" d="M349,-175C349,-175 436,-175 436,-175 442,-175 448,-181 448,-187 448,-187 448,-223 448,-223 448,-229 442,-235 436,-235 436,-235 349,-235 349,-235 343,-235 337,-229 337,-223 337,-223 337,-187 337,-187 337,-181 343,-175 349,-175"/>
<text text-anchor="middle" x="392.5" y="-222.2" font-family="Fira Mono" font-size="11.00">ind: 2</text>
<polyline fill="none" stroke="#000000" points="337,-215 448,-215 "/>
<text text-anchor="middle" x="392.5" y="-202.2" font-family="Fira Mono" font-size="11.00">val: 2</text>
<polyline fill="none" stroke="#000000" points="337,-195 448,-195 "/>
<text text-anchor="middle" x="364.5" y="-182.2" font-family="Fira Mono" font-size="11.00">prev: 1</text>
<polyline fill="none" stroke="#000000" points="392,-175 392,-195 "/>
<text text-anchor="middle" x="420" y="-182.2" font-family="Fira Mono" font-size="11.00">next: 3</text>
</g>
<!-- node_1&#45;&gt;node_2 -->
<!-- node_1&#45;&gt;node_2 -->
<g id="edge39" class="edge">
<title>node_1&#45;&gt;node_2</title>
<path fill="none" stroke="#ff0000" stroke-width="2.2" d="M283.36,-205C283.36,-205 326.98,-205 326.98,-205"/>
<polygon fill="#ff0000" stroke="#ff0000" stroke-width="2.2" points="326.98,-208.5 336.98,-205 326.98,-201.5 326.98,-208.5"/>
</g>
<!-- node_3 -->
<g id="node4" class="node">
<title>node_3</title>
<path fill="#fff3e0" stroke="#000000" d="M514,-175C514,-175 601,-175 601,-175 607,-175 613,-181 613,-187 613,-187 613,-223 613,-223 613,-229 607,-235 601,-235 601,-235 514,-235 514,-235 508,-235 502,-229 502,-223 502,-223 502,-187 502,-187 502,-181 508,-175 514,-175"/>
<text text-anchor="middle" x="557.5" y="-222.2" font-family="Fira Mono" font-size="11.00">ind: 3</text>
<polyline fill="none" stroke="#000000" points="502,-215 613,-215 "/>
<text text-anchor="middle" x="557.5" y="-202.2" font-family="Fira Mono" font-size="11.00">val: 20</text>
<polyline fill="none" stroke="#000000" points="502,-195 613,-195 "/>
<text text-anchor="middle" x="529.5" y="-182.2" font-family="Fira Mono" font-size="11.00">prev: 2</text>
<polyline fill="none" stroke="#000000" points="557,-175 557,-195 "/>
<text text-anchor="middle" x="585" y="-182.2" font-family="Fira Mono" font-size="11.00">next: 4</text>
</g>
<!-- node_2&#45;&gt;node_3 -->
<!-- node_2&#45;&gt;node_3 -->
<g id="edge30" class="edge">
<title>node_2&#45;&gt;node_3</title>
<path fill="none" stroke="#999999" d="M458.36,-215.17C458.36,-215.17 491.98,-215.17 491.98,-215.17"/>
<polygon fill="#999999" stroke="#999999" points="491.98,-218.67 501.98,-215.17 491.98,-211.67 491.98,-218.67"/>
<polygon fill="#999999" stroke="#999999" points="458.36,-211.67 448.36,-215.17 458.36,-218.67 458.36,-211.67"/>
</g>
<!-- node_4 -->
<g id="node5" class="node">
<title>node_4</title>
<path fill="#fff3e0" stroke="#000000" d="M679,-175C679,-175 766,-175 766,-175 772,-175 778,-181 778,-187 778,-187 778,-223 778,-223 778,-229 772,-235 766,-235 766,-235 679,-235 679,-235 673,-235 667,-229 667,-223 667,-223 667,-187 667,-187 667,-181 673,-175 679,-175"/>
<text text-anchor="middle" x="722.5" y="-222.2" font-family="Fira Mono" font-size="11.00">ind: 4</text>
<polyline fill="none" stroke="#000000" points="667,-215 778,-215 "/>
<text text-anchor="middle" x="722.5" y="-202.2" font-family="Fira Mono" font-size="11.00">val: 1</text>
<polyline fill="none" stroke="#000000" points="667,-195 778,-195 "/>
<text text-anchor="middle" x="694.5" y="-182.2" font-family="Fira Mono" font-size="11.00">prev: 3</text>
<polyline fill="none" stroke="#000000" points="722,-175 722,-195 "/>
<text text-anchor="middle" x="750" y="-182.2" font-family="Fira Mono" font-size="11.00">next: 5</text>
</g>
<!-- node_3&#45;&gt;node_4 -->
<!-- node_3&#45;&gt;node_4 -->
<g id="edge31" class="edge">
<title>node_3&#45;&gt;node_4</title>
<path fill="none" stroke="#999999" d="M623.36,-215.17C623.36,-215.17 656.98,-215.17 656.98,-215.17"/>
<polygon fill="#999999" stroke="#999999" points="656.98,-218.67 666.98,-215.17 656.98,-211.67 656.98,-218.67"/>
<polygon fill="#999999" stroke="#999999" points="623.36,-211.67 613.36,-215.17 623.36,-218.67 623.36,-211.67"/>
</g>
<!-- node_5 -->
<g id="node6" class="node">
<title>node_5</title>
<path fill="#fff3e0" stroke="#000000" d="M844,-175C844,-175 931,-175 931,-175 937,-175 943,-181 943,-187 943,-187 943,-223 943,-223 943,-229 937,-235 931,-235 931,-235 844,-235 844,-235 838,-235 832,-229 832,-223 832,-223 832,-187 832,-187 832,-181 838,-175 844,-175"/>
<text text-anchor="middle" x="887.5" y="-222.2" font-family="Fira Mono" font-size="11.00">ind: 5</text>
<polyline fill="none" stroke="#000000" points="832,-215 943,-215 "/>
<text text-anchor="middle" x="887.5" y="-202.2" font-family="Fira Mono" font-size="11.00">val: 30</text>
<polyline fill="none" stroke="#000000" points="832,-195 943,-195 "/>
<text text-anchor="middle" x="859.5" y="-182.2" font-family="Fira Mono" font-size="11.00">prev: 4</text>
<polyline fill="none" stroke="#000000" points="887,-175 887,-195 "/>
<text text-anchor="middle" x="915" y="-182.2" font-family="Fira Mono" font-size="11.00">next: 6</text>
</g>
<!-- node_4&#45;&gt;node_5 -->
<!-- node_4&#45;&gt;node_5 -->
<g id="edge32" class="edge">
<title>node_4&#45;&gt;node_5</title>
<path fill="none" stroke="#999999" d="M788.36,-215.17C788.36,-215.17 821.98,-215.17 821.98,-215.17"/>
<polygon fill="#999999" stroke="#999999" points="821.98,-218.67 831.98,-215.17 821.98,-211.67 821.98,-218.67"/>
<polygon fill="#999999" stroke="#999999" points="788.36,-211.67 778.36,-215.17 788.36,-218.67 788.36,-211.67"/>
</g>
<!-- node_6 -->
<g id="node7" class="node">
<title>node_6</title>
<path fill="#fff3e0" stroke="#000000" d="M1009,-175C1009,-175 1096,-175 1096,-175 1102,-175 1108,-181 1108,-187 1108,-187 1108,-223 1108,-223 1108,-229 1102,-235 1096,-235 1096,-235 1009,-235 1009,-235 1003,-235 997,-229 997,-223 997,-223 997,-187 997,-187 997,-181 1003,-175 1009,-175"/>
<text text-anchor="middle" x="1052.5" y="-222.2" font-family="Fira Mono" font-size="11.00">ind: 6</text>
<polyline fill="none" stroke="#000000" points="997,-215 1108,-215 "/>
<text text-anchor="middle" x="1052.5" y="-202.2" font-family="Fira Mono" font-size="11.00">val: 5</text>
<polyline fill="none" stroke="#000000" points="997,-195 1108,-195 "/>
<text text-anchor="middle" x="1024.5" y="-182.2" font-family="Fira Mono" font-size="11.00">prev: 5</text>
<polyline fill="none" stroke="#000000" points="1052,-175 1052,-195 "/>
<text text-anchor="middle" x="1080" y="-182.2" font-family="Fira Mono" font-size="11.00">next: 7</text>
</g>
<!-- node_5&#45;&gt;node_6 -->
<!-- node_5&#45;&gt;node_6 -->
<g id="edge33" class="edge">
<title>node_5&#45;&gt;node_6</title>
<path fill="none" stroke="#999999" d="M953.36,-215.17C953.36,-215.17 986.98,-215.17 986.98,-215.17"/>
<polygon fill="#999999" stroke="#999999" points="986.98,-218.67 996.98,-215.17 986.98,-211.67 986.98,-218.67"/>
<polygon fill="#999999" stroke="#999999" points="953.36,-211.67 943.36,-215.17 953.36,-218.67 953.36,-211.67"/>
</g>
<!-- node_7 -->
<g id="node8" class="node">
<title>node_7</title>
<path fill="#fff3e0" stroke="#000000" d="M1174,-175C1174,-175 1261,-175 1261,-175 1267,-175 1273,-181 1273,-187 1273,-187 1273,-223 1273,-223 1273,-229 1267,-235 1261,-235 1261,-235 1174,-235 1174,-235 1168,-235 1162,-229 1162,-223 1162,-223 1162,-187 1162,-187 1162,-181 1168,-175 1174,-175"/>
<text text-anchor="middle" x="1217.5" y="-222.2" font-family="Fira Mono" font-size="11.00">ind: 7</text>
<polyline fill="none" stroke="#000000" points="1162,-215 1273,-215 "/>
<text text-anchor="middle" x="1217.5" y="-202.2" font-family="Fira Mono" font-size="11.00">val: 4</text>
<polyline fill="none" stroke="#000000" points="1162,-195 1273,-195 "/>
<text text-anchor="middle" x="1189.5" y="-182.2" font-family="Fira Mono" font-size="11.00">prev: 6</text>
<polyline fill="none" stroke="#000000" points="1217,-175 1217,-195 "/>
<text text-anchor="middle" x="1245" y="-182.2" font-family="Fira Mono" font-size="11.00">next: 8</text>
</g>
<!-- node_6&#45;&gt;node_7 -->
<!-- node_6&#45;&gt;node_7 -->
<g id="edge34" class="edge">
<title>node_6&#45;&gt;node_7</title>
<path fill="none" stroke="#999999" d="M1118.36,-215.17C1118.36,-215.17 1151.98,-215.17 1151.98,-215.17"/>
<polygon fill="#999999" stroke="#999999" points="1151.98,-218.67 1161.98,-215.17 1151.98,-211.67 1151.98,-218.67"/>
<polygon fill="#999999" stroke="#999999" points="1118.36,-211.67 1108.36,-215.17 1118.36,-218.67 1118.36,-211.67"/>
</g>
<!-- node_8 -->
<g id="node9" class="node">
<title>node_8</title>
<path fill="#fff3e0" stroke="#000000" d="M1339,-175C1339,-175 1426,-175 1426,-175 1432,-175 1438,-181 1438,-187 1438,-187 1438,-223 1438,-223 1438,-229 1432,-235 1426,-235 1426,-235 1339,-235 1339,-235 1333,-235 1327,-229 1327,-223 1327,-223 1327,-187 1327,-187 1327,-181 1333,-175 1339,-175"/>
<text text-anchor="middle" x="1382.5" y="-222.2" font-family="Fira Mono" font-size="11.00">ind: 8</text>
<polyline fill="none" stroke="#000000" points="1327,-215 1438,-215 "/>
<text text-anchor="middle" x="1382.5" y="-202.2" font-family="Fira Mono" font-size="11.00">val: 5</text>
<polyline fill="none" stroke="#000000" points="1327,-195 1438,-195 "/>
<text text-anchor="middle" x="1354.5" y="-182.2" font-family="Fira Mono" font-size="11.00">prev: 7</text>
<polyline fill="none" stroke="#000000" points="1382,-175 1382,-195 "/>
<text text-anchor="middle" x="1410" y="-182.2" font-family="Fira Mono" font-size="11.00">next: 9</text>
</g>
<!-- node_7&#45;&gt;node_8 -->
<!-- node_7&#45;&gt;node_8 -->
<g id="edge35" class="edge">
<title>node_7&#45;&gt;node_8</title>
<path fill="none" stroke="#999999" d="M1283.36,-215.17C1283.36,-215.17 1316.98,-215.17 1316.98,-215.17"/>
<polygon fill="#999999" stroke="#999999" points="1316.98,-218.67 1326.98,-215.17 1316.98,-211.67 1316.98,-218.67"/>
<polygon fill="#999999" stroke="#999999" points="1283.36,-211.67 1273.36,-215.17 1283.36,-218.67 1283.36,-211.67"/>
</g>
<!-- node_9 -->
<g id="node10" class="node">
<title>node_9</title>
<path fill="#fff3e0" stroke="#000000" d="M1504,-175C1504,-175 1597,-175 1597,-175 1603,-175 1609,-181 1609,-187 1609,-187 1609,-223 1609,-223 1609,-229 1603,-235 1597,-235 1597,-235 1504,-235 1504,-235 1498,-235 1492,-229 1492,-223 1492,-223 1492,-187 1492,-187 1492,-181 1498,-175 1504,-175"/>
<text text-anchor="middle" x="1550.5" y="-222.2" font-family="Fira Mono" font-size="11.00">ind: 9</text>
<polyline fill="none" stroke="#000000" points="1492,-215 1609,-215 "/>
<text text-anchor="middle" x="1550.5" y="-202.2" font-family="Fira Mono" font-size="11.00">val: 4</text>
<polyline fill="none" stroke="#000000" points="1492,-195 1609,-195 "/>
<text text-anchor="middle" x="1519.5" y="-182.2" font-family="Fira Mono" font-size="11.00">prev: 8</text>
<polyline fill="none" stroke="#000000" points="1547,-175 1547,-195 "/>
<text text-anchor="middle" x="1578" y="-182.2" font-family="Fira Mono" font-size="11.00">next: 10</text>
</g>
<!-- node_8&#45;&gt;node_9 -->
<!-- node_8&#45;&gt;node_9 -->
<g id="edge36" class="edge">
<title>node_8&#45;&gt;node_9</title>
<path fill="none" stroke="#999999" d="M1448.44,-215.17C1448.44,-215.17 1481.93,-215.17 1481.93,-215.17"/>
<polygon fill="#999999" stroke="#999999" points="1481.93,-218.67 1491.93,-215.17 1481.93,-211.67 1481.93,-218.67"/>
<polygon fill="#999999" stroke="#999999" points="1448.44,-211.67 1438.44,-215.17 1448.44,-218.67 1448.44,-211.67"/>
</g>
<!-- node_10 -->
<g id="node11" class="node">
<title>node_10</title>
<path fill="#f1eafd" stroke="#8e6bd6" d="M1675,-175C1675,-175 1762,-175 1762,-175 1768,-175 1774,-181 1774,-187 1774,-187 1774,-223 1774,-223 1774,-229 1768,-235 1762,-235 1762,-235 1675,-235 1675,-235 1669,-235 1663,-229 1663,-223 1663,-223 1663,-187 1663,-187 1663,-181 1669,-175 1675,-175"/>
<text text-anchor="middle" x="1718.5" y="-222.2" font-family="Fira Mono" font-size="11.00">ind: 10 (TAIL)</text>
<polyline fill="none" stroke="#8e6bd6" points="1663,-215 1774,-215 "/>
<text text-anchor="middle" x="1718.5" y="-202.2" font-family="Fira Mono" font-size="11.00">val: 3</text>
<polyline fill="none" stroke="#8e6bd6" points="1663,-195 1774,-195 "/>
<text text-anchor="middle" x="1690.5" y="-182.2" font-family="Fira Mono" font-size="11.00">prev: 9</text>
<polyline fill="none" stroke="#8e6bd6" points="1718,-175 1718,-195 "/>
<text text-anchor="middle" x="1746" y="-182.2" font-family="Fira Mono" font-size="11.00">next: 0</text>
</g>
<!-- node_9&#45;&gt;node_10 -->
<!-- node_9&#45;&gt;node_10 -->
<g id="edge37" class="edge">
<title>node_9&#45;&gt;node_10</title>
<path fill="none" stroke="#999999" d="M1619.26,-215.17C1619.26,-215.17 1652.88,-215.17 1652.88,-215.17"/>
<polygon fill="#999999" stroke="#999999" points="1652.88,-218.67 1662.88,-215.17 1652.88,-211.67 1652.88,-218.67"/>
<polygon fill="#999999" stroke="#999999" points="1619.26,-211.67 1609.26,-215.17 1619.26,-218.67 1619.26,-211.67"/>
</g>
<!-- node_10&#45;&gt;node_0 -->
<g id="edge38" class="edge">
<title>node_10&#45;&gt;node_0</title>
<path fill="none" stroke="#999999" d="M1719,-245.12C1719,-245.12 1719,-259.5 1719,-259.5 1719,-259.5 59,-259.5 59,-259.5 59,-259.5 59,-245.12 59,-245.12"/>
<polygon fill="#999999" stroke="#999999" points="1722.5,-245.12 1719,-235.12 1715.5,-245.12 1722.5,-245.12"/>
<polygon fill="#999999" stroke="#999999" points="62.5,-245.12 59,-235.12 55.5,-245.12 62.5,-245.12"/>
</g>
<!-- node_11 -->
<g id="node12" class="node">
<title>node_11</title>
<path fill="#ffecec" stroke="#d66d66" d="M1840,-175C1840,-175 1937,-175 1937,-175 1943,-175 1949,-181 1949,-187 1949,-187 1949,-223 1949,-223 1949,-229 1943,-235 1937,-235 1937,-235 1840,-235 1840,-235 1834,-235 1828,-229 1828,-223 1828,-223 1828,-187 1828,-187 1828,-181 1834,-175 1840,-175"/>
<text text-anchor="middle" x="1888.5" y="-222.2" font-family="Fira Mono" font-size="11.00">ind: 11</text>
<polyline fill="none" stroke="#d66d66" points="1828,-215 1949,-215 "/>
<text text-anchor="middle" x="1888.5" y="-202.2" font-family="Fira Mono" font-size="11.00">val: &#45;100</text>
<polyline fill="none" stroke="#d66d66" points="1828,-195 1949,-195 "/>
<text text-anchor="middle" x="1857.5" y="-182.2" font-family="Fira Mono" font-size="11.00">prev: &#45;1</text>
<polyline fill="none" stroke="#d66d66" points="1887,-175 1887,-195 "/>
<text text-anchor="middle" x="1918" y="-182.2" font-family="Fira Mono" font-size="11.00">next: 12</text>
</g>
<!-- node_10&#45;&gt;node_11 -->
<!-- node_12 -->
<g id="node13" class="node">
<title>node_12</title>
<path fill="#ffecec" stroke="#d66d66" d="M2015,-175C2015,-175 2112,-175 2112,-175 2118,-175 2124,-181 2124,-187 2124,-187 2124,-223 2124,-223 2124,-229 2118,-235 2112,-235 2112,-235 2015,-235 2015,-235 2009,-235 2003,-229 2003,-223 2003,-223 2003,-187 2003,-187 2003,-181 2009,-175 2015,-175"/>
<text text-anchor="middle" x="2063.5" y="-222.2" font-family="Fira Mono" font-size="11.00">ind: 12</text>
<polyline fill="none" stroke="#d66d66" points="2003,-215 2124,-215 "/>
<text text-anchor="middle" x="2063.5" y="-202.2" font-family="Fira Mono" font-size="11.00">val: &#45;100</text>
<polyline fill="none" stroke="#d66d66" points="2003,-195 2124,-195 "/>
<text text-anchor="middle" x="2032.5" y="-182.2" font-family="Fira Mono" font-size="11.00">prev: &#45;1</text>
<polyline fill="none" stroke="#d66d66" points="2062,-175 2062,-195 "/>
<text text-anchor="middle" x="2093" y="-182.2" font-family="Fira Mono" font-size="11.00">next: 13</text>
</g>
<!-- node_11&#45;&gt;node_12 -->
<!-- node_11&#45;&gt;node_12 -->
<g id="edge20" class="edge">
<title>node_11&#45;&gt;node_12</title>
<path fill="none" stroke="#d88d88" stroke-dasharray="5,2" d="M1949.22,-215.17C1949.22,-215.17 1992.89,-215.17 1992.89,-215.17"/>
<polygon fill="#d88d88" stroke="#d88d88" points="1992.89,-218.67 2002.89,-215.17 1992.89,-211.67 1992.89,-218.67"/>
</g>
<!-- node_13 -->
<g id="node14" class="node">
<title>node_13</title>
<path fill="#ffecec" stroke="#d66d66" d="M2190,-175C2190,-175 2287,-175 2287,-175 2293,-175 2299,-181 2299,-187 2299,-187 2299,-223 2299,-223 2299,-229 2293,-235 2287,-235 2287,-235 2190,-235 2190,-235 2184,-235 2178,-229 2178,-223 2178,-223 2178,-187 2178,-187 2178,-181 2184,-175 2190,-175"/>
<text text-anchor="middle" x="2238.5" y="-222.2" font-family="Fira Mono" font-size="11.00">ind: 13</text>
<polyline fill="none" stroke="#d66d66" points="2178,-215 2299,-215 "/>
<text text-anchor="middle" x="2238.5" y="-202.2" font-family="Fira Mono" font-size="11.00">val: &#45;100</text>
<polyline fill="none" stroke="#d66d66" points="2178,-195 2299,-195 "/>
<text text-anchor="middle" x="2207.5" y="-182.2" font-family="Fira Mono" font-size="11.00">prev: &#45;1</text>
<polyline fill="none" stroke="#d66d66" points="2237,-175 2237,-195 "/>
<text text-anchor="middle" x="2268" y="-182.2" font-family="Fira Mono" font-size="11.00">next: 14</text>
</g>
<!-- node_12&#45;&gt;node_13 -->
<!-- node_12&#45;&gt;node_13 -->
<g id="edge21" class="edge">
<title>node_12&#45;&gt;node_13</title>
<path fill="none" stroke="#d88d88" stroke-dasharray="5,2" d="M2124.22,-215.17C2124.22,-215.17 2167.89,-215.17 2167.89,-215.17"/>
<polygon fill="#d88d88" stroke="#d88d88" points="2167.89,-218.67 2177.89,-215.17 2167.89,-211.67 2167.89,-218.67"/>
</g>
<!-- node_14 -->
<g id="node15" class="node">
<title>node_14</title>
<path fill="#ffecec" stroke="#d66d66" d="M2365,-175C2365,-175 2462,-175 2462,-175 2468,-175 2474,-181 2474,-187 2474,-187 2474,-223 2474,-223 2474,-229 2468,-235 2462,-235 2462,-235 2365,-235 2365,-235 2359,-235 2353,-229 2353,-223 2353,-223 2353,-187 2353,-187 2353,-181 2359,-175 2365,-175"/>
<text text-anchor="middle" x="2413.5" y="-222.2" font-family="Fira Mono" font-size="11.00">ind: 14</text>
<polyline fill="none" stroke="#d66d66" points="2353,-215 2474,-215 "/>
<text text-anchor="middle" x="2413.5" y="-202.2" font-family="Fira Mono" font-size="11.00">val: &#45;100</text>
<polyline fill="none" stroke="#d66d66" points="2353,-195 2474,-195 "/>
<text text-anchor="middle" x="2382.5" y="-182.2" font-family="Fira Mono" font-size="11.00">prev: &#45;1</text>
<polyline fill="none" stroke="#d66d66" points="2412,-175 2412,-195 "/>
<text text-anchor="middle" x="2443" y="-182.2" font-family="Fira Mono" font-size="11.00">next: 15</text>
</g>
<!-- node_13&#45;&gt;node_14 -->
<!-- node_13&#45;&gt;node_14 -->
<g id="edge22" class="edge">
<title>node_13&#45;&gt;node_14</title>
<path fill="none" stroke="#d88d88" stroke-dasharray="5,2" d="M2299.22,-215.17C2299.22,-215.17 2342.89,-215.17 2342.89,-215.17"/>
<polygon fill="#d88d88" stroke="#d88d88" points="2342.89,-218.67 2352.89,-215.17 2342.89,-211.67 2342.89,-218.67"/>
</g>
<!-- node_15 -->
<g id="node16" class="node">
<title>node_15</title>
<path fill="#ffecec" stroke="#d66d66" d="M2540,-175C2540,-175 2637,-175 2637,-175 2643,-175 2649,-181 2649,-187 2649,-187 2649,-223 2649,-223 2649,-229 2643,-235 2637,-235 2637,-235 2540,-235 2540,-235 2534,-235 2528,-229 2528,-223 2528,-223 2528,-187 2528,-187 2528,-181 2534,-175 2540,-175"/>
<text text-anchor="middle" x="2588.5" y="-222.2" font-family="Fira Mono" font-size="11.00">ind: 15</text>
<polyline fill="none" stroke="#d66d66" points="2528,-215 2649,-215 "/>
<text text-anchor="middle" x="2588.5" y="-202.2" font-family="Fira Mono" font-size="11.00">val: &#45;100</text>
<polyline fill="none" stroke="#d66d66" points="2528,-195 2649,-195 "/>
<text text-anchor="middle" x="2557.5" y="-182.2" font-family="Fira Mono" font-size="11.00">prev: &#45;1</text>
<polyline fill="none" stroke="#d66d66" points="2587,-175 2587,-195 "/>
<text text-anchor="middle" x="2618" y="-182.2" font-family="Fira Mono" font-size="11.00">next: 16</text>
</g>
<!-- node_14&#45;&gt;node_15 -->
<!-- node_14&#45;&gt;node_15 -->
<g id="edge23" class="edge">
<title>node_14&#45;&gt;node_15</title>
<path fill="none" stroke="#d88d88" stroke-dasharray="5,2" d="M2474.22,-215.17C2474.22,-215.17 2517.89,-215.17 2517.89,-215.17"/>
<polygon fill="#d88d88" stroke="#d88d88" points="2517.89,-218.67 2527.89,-215.17 2517.89,-211.67 2517.89,-218.67"/>
</g>
<!-- node_16 -->
<g id="node17" class="node">
<title>node_16</title>
<path fill="#ffecec" stroke="#d66d66" d="M2715,-175C2715,-175 2812,-175 2812,-175 2818,-175 2824,-181 2824,-187 2824,-187 2824,-223 2824,-223 2824,-229 2818,-235 2812,-235 2812,-235 2715,-235 2715,-235 2709,-235 2703,-229 2703,-223 2703,-223 2703,-187 2703,-187 2703,-181 2709,-175 2715,-175"/>
<text text-anchor="middle" x="2763.5" y="-222.2" font-family="Fira Mono" font-size="11.00">ind: 16</text>
<polyline fill="none" stroke="#d66d66" points="2703,-215 2824,-215 "/>
<text text-anchor="middle" x="2763.5" y="-202.2" font-family="Fira Mono" font-size="11.00">val: &#45;100</text>
<polyline fill="none" stroke="#d66d66" points="2703,-195 2824,-195 "/>
<text text-anchor="middle" x="2732.5" y="-182.2" font-family="Fira Mono" font-size="11.00">prev: &#45;1</text>
<polyline fill="none" stroke="#d66d66" points="2762,-175 2762,-195 "/>
<text text-anchor="middle" x="2793" y="-182.2" font-family="Fira Mono" font-size="11.00">next: 17</text>
</g>
<!-- node_15&#45;&gt;node_16 -->
<!-- node_15&#45;&gt;node_16 -->
<g id="edge24" class="edge">
<title>node_15&#45;&gt;node_16</title>
<path fill="none" stroke="#d88d88" stroke-dasharray="5,2" d="M2649.22,-215.17C2649.22,-215.17 2692.89,-215.17 2692.89,-215.17"/>
<polygon fill="#d88d88" stroke="#d88d88" points="2692.89,-218.67 2702.89,-215.17 2692.89,-211.67 2692.89,-218.67"/>
</g>
<!-- node_17 -->
<g id="node18" class="node">
<title>node_17</title>
<path fill="#ffecec" stroke="#d66d66" d="M2890,-175C2890,-175 2987,-175 2987,-175 2993,-175 2999,-181 2999,-187 2999,-187 2999,-223 2999,-223 2999,-229 2993,-235 2987,-235 2987,-235 2890,-235 2890,-235 2884,-235 2878,-229 2878,-223 2878,-223 2878,-187 2878,-187 2878,-181 2884,-175 2890,-175"/>
<text text-anchor="middle" x="2938.5" y="-222.2" font-family="Fira Mono" font-size="11.00">ind: 17</text>
<polyline fill="none" stroke="#d66d66" points="2878,-215 2999,-215 "/>
<text text-anchor="middle" x="2938.5" y="-202.2" font-family="Fira Mono" font-size="11.00">val: &#45;100</text>
<polyline fill="none" stroke="#d66d66" points="2878,-195 2999,-195 "/>
<text text-anchor="middle" x="2907.5" y="-182.2" font-family="Fira Mono" font-size="11.00">prev: &#45;1</text>
<polyline fill="none" stroke="#d66d66" points="2937,-175 2937,-195 "/>
<text text-anchor="middle" x="2968" y="-182.2" font-family="Fira Mono" font-size="11.00">next: 18</text>
</g>
<!-- node_16&#45;&gt;node_17 -->
<!-- node_16&#45;&gt;node_17 -->
<g id="edge25" class="edge">
<title>node_16&#45;&gt;node_17</title>
<path fill="none" stroke="#d88d88" stroke-dasharray="5,2" d="M2824.22,-215.17C2824.22,-215.17 2867.89,-215.17 2867.89,-215.17"/>
<polygon fill="#d88d88" stroke="#d88d88" points="2867.89,-218.67 2877.89,-215.17 2867.89,-211.67 2867.89,-218.67"/>
</g>
<!-- node_18 -->
<g id="node19" class="node">
<title>node_18</title>
<path fill="#ffecec" stroke="#d66d66" d="M3065,-175C3065,-175 3162,-175 3162,-175 3168,-175 3174,-181 3174,-187 3174,-187 3174,-223 3174,-223 3174,-229 3168,-235 3162,-235 3162,-235 3065,-235 3065,-235 3059,-235 3053,-229 3053,-223 3053,-223 3053,-187 3053,-187 3053,-181 3059,-175 3065,-175"/>
<text text-anchor="middle" x="3113.5" y="-222.2" font-family="Fira Mono" font-size="11.00">ind: 18</text>
<polyline fill="none" stroke="#d66d66" points="3053,-215 3174,-215 "/>
<text text-anchor="middle" x="3113.5" y="-202.2" font-family="Fira Mono" font-size="11.00">val: &#45;100</text>
<polyline fill="none" stroke="#d66d66" points="3053,-195 3174,-195 "/>
<text text-anchor="middle" x="3082.5" y="-182.2" font-family="Fira Mono" font-size="11.00">prev: &#45;1</text>
<polyline fill="none" stroke="#d66d66" points="3112,-175 3112,-195 "/>
<text text-anchor="middle" x="3143" y="-182.2" font-family="Fira Mono" font-size="11.00">next: 19</text>
</g>
<!-- node_17&#45;&gt;node_18 -->
<!-- node_17&#45;&gt;node_18 -->
<g id="edge26" class="edge">
<title>node_17&#45;&gt;node_18</title>
<path fill="none" stroke="#d88d88" stroke-dasharray="5,2" d="M2999.22,-215.17C2999.22,-215.17 3042.89,-215.17 3042.89,-215.17"/>
<polygon fill="#d88d88" stroke="#d88d88" points="3042.89,-218.67 3052.89,-215.17 3042.89,-211.67 3042.89,-218.67"/>
</g>
<!-- node_19 -->
<g id="node20" class="node">
<title>node_19</title>
<path fill="#ffecec" stroke="#d66d66" d="M3240,-175C3240,-175 3334,-175 3334,-175 3340,-175 3346,-181 3346,-187 3346,-187 3346,-223 3346,-223 3346,-229 3340,-235 3334,-235 3334,-235 3240,-235 3240,-235 3234,-235 3228,-229 3228,-223 3228,-223 3228,-187 3228,-187 3228,-181 3234,-175 3240,-175"/>
<text text-anchor="middle" x="3287" y="-222.2" font-family="Fira Mono" font-size="11.00">ind: 19</text>
<polyline fill="none" stroke="#d66d66" points="3228,-215 3346,-215 "/>
<text text-anchor="middle" x="3287" y="-202.2" font-family="Fira Mono" font-size="11.00">val: &#45;100</text>
<polyline fill="none" stroke="#d66d66" points="3228,-195 3346,-195 "/>
<text text-anchor="middle" x="3257.5" y="-182.2" font-family="Fira Mono" font-size="11.00">prev: &#45;1</text>
<polyline fill="none" stroke="#d66d66" points="3287,-175 3287,-195 "/>
<text text-anchor="middle" x="3316.5" y="-182.2" font-family="Fira Mono" font-size="11.00">next: &#45;1</text>
</g>
<!-- node_18&#45;&gt;node_19 -->
<!-- node_18&#45;&gt;node_19 -->
<g id="edge27" class="edge">
<title>node_18&#45;&gt;node_19</title>
<path fill="none" stroke="#d88d88" stroke-dasharray="5,2" d="M3174.18,-215.17C3174.18,-215.17 3217.81,-215.17 3217.81,-215.17"/>
<polygon fill="#d88d88" stroke="#d88d88" points="3217.81,-218.67 3227.81,-215.17 3217.81,-211.67 3217.81,-218.67"/>
</g>
<!-- node_free -->
<g id="node21" class="node">
<title>node_free</title>
<path fill="#ffecec" stroke="#d66d66" d="M82.5,-36C82.5,-36 35.5,-36 35.5,-36 29.5,-36 23.5,-30 23.5,-24 23.5,-24 23.5,-12 23.5,-12 23.5,-6 29.5,0 35.5,0 35.5,0 82.5,0 82.5,0 88.5,0 94.5,-6 94.5,-12 94.5,-12 94.5,-24 94.5,-24 94.5,-30 88.5,-36 82.5,-36"/>
<text text-anchor="middle" x="59" y="-15.2" font-family="Fira Mono" font-size="11.00">free_head</text>
</g>
<!-- node_free&#45;&gt;node_11 -->
<g id="edge40" class="edge">
<title>node_free&#45;&gt;node_11</title>
<path fill="none" stroke="#d88d88" stroke-dasharray="5,2" d="M94.73,-18C350.2,-18 1889,-18 1889,-18 1889,-18 1889,-164.96 1889,-164.96"/>
<polygon fill="#d88d88" stroke="#d88d88" points="1885.5,-164.96 1889,-174.96 1892.5,-164.96 1885.5,-164.96"/>
</g>
</g>
</svg>
