<?xml version="1.0" encoding="UTF-8" standalone="no"?>
<!DOCTYPE svg PUBLIC "-//W3C//DTD SVG 1.1//EN"
 "http://www.w3.org/Graphics/SVG/1.1/DTD/svg11.dtd">
<!-- Generated by graphviz version 2.43.0 (0)
 -->
<!-- Title: G Pages: 1 -->
<svg width="1975pt" height="195pt"
 viewBox="0.00 0.00 1975.00 194.50" xmlns="http://www.w3.org/2000/svg" xmlns:xlink="http://www.w3.org/1999/xlink">
<g id="graph0" class="graph" transform="scale(1 1) rotate(0) translate(4 190.5)">
<title>G</title>
<polygon fill="white" stroke="transparent" points="-4,4 -4,-190.5 1971,-190.5 1971,4 -4,4"/>
<!-- node_0 -->
<g id="node1" class="node">
<title>node_0</title>
<path fill="#e9f2ff" stroke="#6b8fd6" stroke-width="2" d="M12,-102C12,-102 106,-102 106,-102 112,-102 118,-108 118,-114 118,-114 118,-150 118,-150 118,-156 112,-162 106,-162 106,-162 12,-162 12,-162 6,-162 0,-156 0,-150 0,-150 0,-114 0,-114 0,-108 6,-102 12,-102"/>
<text text-anchor="middle" x="59" y="-149.2" font-family="Fira Mono" font-size="11.00">ind: 0</text>
<polyline fill="none" stroke="#6b8fd6" stroke-width="2" points="0,-142 118,-142 "/>
<text text-anchor="middle" x="59" y="-129.2" font-family="Fira Mono" font-size="11.00">val: 3.73593e+09</text>
<polyline fill="none" stroke="#6b8fd6" stroke-width="2" points="0,-122 118,-122 "/>
<text text-anchor="middle" x="31" y="-109.2" font-family="Fira Mono" font-size="11.00">prev: 11</text>
<polyline fill="none" stroke="#6b8fd6" stroke-width="2" points="62,-102 62,-122 "/>
<text text-anchor="middle" x="90" y="-109.2" font-family="Fira Mono" font-size="11.00">next: 2</text>
</g>
<!-- node_1 -->
<g id="node2" class="node">
<title>node_1</title>
<path fill="#ffecec" stroke="#d66d66" d="M184,-102C184,-102 275,-102 275,-102 281,-102 287,-108 287,-114 287,-114 287,-150 287,-150 287,-156 281,-162 275,-162 275,-162 184,-162 184,-162 178,-162 172,-156 172,-150 172,-150 172,-114 172,-114 172,-108 178,-102 184,-102"/>
<text text-anchor="middle" x="229.5" y="-149.2" font-family="Fira Mono" font-size="11.00">ind: 1</text>
<polyline fill="none" stroke="#d66d66" points="172,-142 287,-142 "/>
<text text-anchor="middle" x="229.5" y="-129.2" font-family="Fira Mono" font-size="11.00">val: &#45;100</text>
<polyline fill="none" stroke="#d66d66" points="172,-122 287,-122 "/>
<text text-anchor="middle" x="201.5" y="-109.2" font-family="Fira Mono" font-size="11.00">prev: &#45;1</text>
<polyline fill="none" stroke="#d66d66" points="231,-102 231,-122 "/>
<text text-anchor="middle" x="259" y="-109.2" font-family="Fira Mono" font-size="11.00">next: 6</text>
</g>
<!-- node_0&#45;&gt;node_1 -->
<!-- node_2 -->
<g id="node3" class="node">
<title>node_2</title>
<path fill="#e9fbf5" stroke="#5aa99b" d="M353,-102C353,-102 440,-102 440,-102 446,-102 452,-108 452,-114 452,-114 452,-150 452,-150 452,-156 446,-162 440,-162 440,-162 353,-162 353,-162 347,-162 341,-156 341,-150 341,-150 341,-114 341,-114 341,-108 347,-102 353,-102"/>
<text text-anchor="middle" x="396.5" y="-149.2" font-family="Fira Mono" font-size="11.00">ind: 2 (HEAD)</text>
<polyline fill="none" stroke="#5aa99b" points="341,-142 452,-142 "/>
<text text-anchor="middle" x="396.5" y="-129.2" font-family="Fira Mono" font-size="11.00">val: 40</text>
<polyline fill="none" stroke="#5aa99b" points="341,-122 452,-122 "/>
<text text-anchor="middle" x="368.5" y="-109.2" font-family="Fira Mono" font-size="11.00">prev: 0</text>
<polyline fill="none" stroke="#5aa99b" points="396,-102 396,-122 "/>
<text text-anchor="middle" x="424" y="-109.2" font-family="Fira Mono" font-size="11.00">next: 3</text>
</g>
<!-- node_0&#45;&gt;node_2 -->
<g id="edge14" class="edge">
<title>node_0&#45;&gt;node_2</title>
<path fill="none" stroke="#999999" d="M111,-91.86C111,-91.86 111,-79.67 111,-79.67 111,-79.67 397,-79.67 397,-79.67 397,-79.67 397,-91.86 397,-91.86"/>
<polygon fill="#999999" stroke="#999999" points="107.5,-91.86 111,-101.86 114.5,-91.86 107.5,-91.86"/>
<polygon fill="#999999" stroke="#999999" points="393.5,-91.86 397,-101.86 400.5,-91.86 393.5,-91.86"/>
</g>
<!-- node_1&#45;&gt;node_2 -->
<!-- node_6 -->
<g id="node7" class="node">
<title>node_6</title>
<path fill="#ffecec" stroke="#d66d66" d="M1020,-102C1020,-102 1111,-102 1111,-102 1117,-102 1123,-108 1123,-114 1123,-114 1123,-150 1123,-150 1123,-156 1117,-162 1111,-162 1111,-162 1020,-162 1020,-162 1014,-162 1008,-156 1008,-150 1008,-150 1008,-114 1008,-114 1008,-108 1014,-102 1020,-102"/>
<text text-anchor="middle" x="1065.5" y="-149.2" font-family="Fira Mono" font-size="11.00">ind: 6</text>
<polyline fill="none" stroke="#d66d66" points="1008,-142 1123,-142 "/>
<text text-anchor="middle" x="1065.5" y="-129.2" font-family="Fira Mono" font-size="11.00">val: &#45;100</text>
<polyline fill="none" stroke="#d66d66" points="1008,-122 1123,-122 "/>
<text text-anchor="middle" x="1037.5" y="-109.2" font-family="Fira Mono" font-size="11.00">prev: &#45;1</text>
<polyline fill="none" stroke="#d66d66" points="1067,-102 1067,-122 "/>
<text text-anchor="middle" x="1095" y="-109.2" font-family="Fira Mono" font-size="11.00">next: 5</text>
</g>
<!-- node_1&#45;&gt;node_6 -->
<g id="edge12" class="edge">
<title>node_1&#45;&gt;node_6</title>
<path fill="none" stroke="#d88d88" stroke-dasharray="5,2" d="M230,-162.43C230,-169.25 230,-174.5 230,-174.5 230,-174.5 1066,-174.5 1066,-174.5 1066,-174.5 1066,-172.43 1066,-172.43"/>
<polygon fill="#d88d88" stroke="#d88d88" points="1069.5,-172.43 1066,-162.43 1062.5,-172.43 1069.5,-172.43"/>
</g>
<!-- node_3 -->
<g id="node4" class="node">
<title>node_3</title>
<path fill="#fff3e0" stroke="#000000" d="M518,-102C518,-102 605,-102 605,-102 611,-102 617,-108 617,-114 617,-114 617,-150 617,-150 617,-156 611,-162 605,-162 605,-162 518,-162 518,-162 512,-162 506,-156 506,-150 506,-150 506,-114 506,-114 506,-108 512,-102 518,-102"/>
<text text-anchor="middle" x="561.5" y="-149.2" font-family="Fira Mono" font-size="11.00">ind: 3</text>
<polyline fill="none" stroke="#000000" points="506,-142 617,-142 "/>
<text text-anchor="middle" x="561.5" y="-129.2" font-family="Fira Mono" font-size="11.00">val: 2</text>
<polyline fill="none" stroke="#000000" points="506,-122 617,-122 "/>
<text text-anchor="middle" x="533.5" y="-109.2" font-family="Fira Mono" font-size="11.00">prev: 2</text>
<polyline fill="none" stroke="#000000" points="561,-102 561,-122 "/>
<text text-anchor="middle" x="589" y="-109.2" font-family="Fira Mono" font-size="11.00">next: 4</text>
</g>
<!-- node_2&#45;&gt;node_3 -->
<!-- node_2&#45;&gt;node_3 -->
<g id="edge15" class="edge">
<title>node_2&#45;&gt;node_3</title>
<path fill="none" stroke="#999999" d="M462.36,-142.17C462.36,-142.17 495.98,-142.17 495.98,-142.17"/>
<polygon fill="#999999" stroke="#999999" points="495.98,-145.67 505.98,-142.17 495.98,-138.67 495.98,-145.67"/>
<polygon fill="#999999" stroke="#999999" points="462.36,-138.67 452.36,-142.17 462.36,-145.67 462.36,-138.67"/>
</g>
<!-- node_4 -->
<g id="node5" class="node">
<title>node_4</title>
<path fill="#fff3e0" stroke="#000000" d="M683,-102C683,-102 770,-102 770,-102 776,-102 782,-108 782,-114 782,-114 782,-150 782,-150 782,-156 776,-162 770,-162 770,-162 683,-162 683,-162 677,-162 671,-156 671,-150 671,-150 671,-114 671,-114 671,-108 677,-102 683,-102"/>
<text text-anchor="middle" x="726.5" y="-149.2" font-family="Fira Mono" font-size="11.00">ind: 4</text>
<polyline fill="none" stroke="#000000" points="671,-142 782,-142 "/>
<text text-anchor="middle" x="726.5" y="-129.2" font-family="Fira Mono" font-size="11.00">val: 20</text>
<polyline fill="none" stroke="#000000" points="671,-122 782,-122 "/>
<text text-anchor="middle" x="698.5" y="-109.2" font-family="Fira Mono" font-size="11.00">prev: 3</text>
<polyline fill="none" stroke="#000000" points="726,-102 726,-122 "/>
<text text-anchor="middle" x="754" y="-109.2" font-family="Fira Mono" font-size="11.00">next: 7</text>
</g>
<!-- node_3&#45;&gt;node_4 -->
<!-- node_3&#45;&gt;node_4 -->
<g id="edge16" class="edge">
<title>node_3&#45;&gt;node_4</title>
<path fill="none" stroke="#999999" d="M627.36,-142.17C627.36,-142.17 660.98,-142.17 660.98,-142.17"/>
<polygon fill="#999999" stroke="#999999" points="660.98,-145.67 670.98,-142.17 660.98,-138.67 660.98,-145.67"/>
<polygon fill="#999999" stroke="#999999" points="627.36,-138.67 617.36,-142.17 627.36,-145.67 627.36,-138.67"/>
</g>
<!-- node_5 -->
<g id="node6" class="node">
<title>node_5</title>
<path fill="#ffecec" stroke="#d66d66" d="M848,-102C848,-102 942,-102 942,-102 948,-102 954,-108 954,-114 954,-114 954,-150 954,-150 954,-156 948,-162 942,-162 942,-162 848,-162 848,-162 842,-162 836,-156 836,-150 836,-150 836,-114 836,-114 836,-108 842,-102 848,-102"/>
<text text-anchor="middle" x="895" y="-149.2" font-family="Fira Mono" font-size="11.00">ind: 5</text>
<polyline fill="none" stroke="#d66d66" points="836,-142 954,-142 "/>
<text text-anchor="middle" x="895" y="-129.2" font-family="Fira Mono" font-size="11.00">val: &#45;100</text>
<polyline fill="none" stroke="#d66d66" points="836,-122 954,-122 "/>
<text text-anchor="middle" x="865.5" y="-109.2" font-family="Fira Mono" font-size="11.00">prev: &#45;1</text>
<polyline fill="none" stroke="#d66d66" points="895,-102 895,-122 "/>
<text text-anchor="middle" x="924.5" y="-109.2" font-family="Fira Mono" font-size="11.00">next: &#45;1</text>
</g>
<!-- node_4&#45;&gt;node_5 -->
<!-- node_7 -->
<g id="node8" class="node">
<title>node_7</title>
<path fill="#fff3e0" stroke="#000000" d="M1189,-102C1189,-102 1276,-102 1276,-102 1282,-102 1288,-108 1288,-114 1288,-114 1288,-150 1288,-150 1288,-156 1282,-162 1276,-162 1276,-162 1189,-162 1189,-162 1183,-162 1177,-156 1177,-150 1177,-150 1177,-114 1177,-114 1177,-108 1183,-102 1189,-102"/>
<text text-anchor="middle" x="1232.5" y="-149.2" font-family="Fira Mono" font-size="11.00">ind: 7</text>
<polyline fill="none" stroke="#000000" points="1177,-142 1288,-142 "/>
<text text-anchor="middle" x="1232.5" y="-129.2" font-family="Fira Mono" font-size="11.00">val: 5</text>
<polyline fill="none" stroke="#000000" points="1177,-122 1288,-122 "/>
<text text-anchor="middle" x="1204.5" y="-109.2" font-family="Fira Mono" font-size="11.00">prev: 4</text>
<polyline fill="none" stroke="#000000" points="1232,-102 1232,-122 "/>
<text text-anchor="middle" x="1260" y="-109.2" font-family="Fira Mono" font-size="11.00">next: 8</text>
</g>
<!-- node_4&#45;&gt;node_7 -->
<g id="edge17" class="edge">
<title>node_4&#45;&gt;node_7</title>
<path fill="none" stroke="#999999" d="M727,-172.12C727,-172.12 727,-186.5 727,-186.5 727,-186.5 1233,-186.5 1233,-186.5 1233,-186.5 1233,-172.12 1233,-172.12"/>
<polygon fill="#999999" stroke="#999999" points="730.5,-172.12 727,-162.12 723.5,-172.12 730.5,-172.12"/>
<polygon fill="#999999" stroke="#999999" points="1236.5,-172.12 1233,-162.12 1229.5,-172.12 1236.5,-172.12"/>
</g>
<!-- node_5&#45;&gt;node_6 -->
<!-- node_6&#45;&gt;node_5 -->
<g id="edge13" class="edge">
<title>node_6&#45;&gt;node_5</title>
<path fill="none" stroke="#d88d88" stroke-dasharray="5,2" d="M1007.78,-142.17C1007.78,-142.17 964.12,-142.17 964.12,-142.17"/>
<polygon fill="#d88d88" stroke="#d88d88" points="964.12,-138.67 954.12,-142.17 964.12,-145.67 964.12,-138.67"/>
</g>
<!-- node_6&#45;&gt;node_7 -->
<!-- node_8 -->
<g id="node9" class="node">
<title>node_8</title>
<path fill="#fff3e0" stroke="#000000" d="M1354,-102C1354,-102 1441,-102 1441,-102 1447,-102 1453,-108 1453,-114 1453,-114 1453,-150 1453,-150 1453,-156 1447,-162 1441,-162 1441,-162 1354,-162 1354,-162 1348,-162 1342,-156 1342,-150 1342,-150 1342,-114 1342,-114 1342,-108 1348,-102 1354,-102"/>
<text text-anchor="middle" x="1397.5" y="-149.2" font-family="Fira Mono" font-size="11.00">ind: 8</text>
<polyline fill="none" stroke="#000000" points="1342,-142 1453,-142 "/>
<text text-anchor="middle" x="1397.5" y="-129.2" font-family="Fira Mono" font-size="11.00">val: 4</text>
<polyline fill="none" stroke="#000000" points="1342,-122 1453,-122 "/>
<text text-anchor="middle" x="1369.5" y="-109.2" font-family="Fira Mono" font-size="11.00">prev: 7</text>
<polyline fill="none" stroke="#000000" points="1397,-102 1397,-122 "/>
<text text-anchor="middle" x="1425" y="-109.2" font-family="Fira Mono" font-size="11.00">next: 9</text>
</g>
<!-- node_7&#45;&gt;node_8 -->
<!-- node_7&#45;&gt;node_8 -->
<g id="edge18" class="edge">
<title>node_7&#45;&gt;node_8</title>
<path fill="none" stroke="#999999" d="M1298.36,-142.17C1298.36,-142.17 1331.98,-142.17 1331.98,-142.17"/>
<polygon fill="#999999" stroke="#999999" points="1331.98,-145.67 1341.98,-142.17 1331.98,-138.67 1331.98,-145.67"/>
<polygon fill="#999999" stroke="#999999" points="1298.36,-138.67 1288.36,-142.17 1298.36,-145.67 1298.36,-138.67"/>
</g>
<!-- node_9 -->
<g id="node10" class="node">
<title>node_9</title>
<path fill="#fff3e0" stroke="#000000" d="M1519,-102C1519,-102 1612,-102 1612,-102 1618,-102 1624,-108 1624,-114 1624,-114 1624,-150 1624,-150 1624,-156 1618,-162 1612,-162 1612,-162 1519,-162 1519,-162 1513,-162 1507,-156 1507,-150 1507,-150 1507,-114 1507,-114 1507,-108 1513,-102 1519,-102"/>
<text text-anchor="middle" x="1565.5" y="-149.2" font-family="Fira Mono" font-size="11.00">ind: 9</text>
<polyline fill="none" stroke="#000000" points="1507,-142 1624,-142 "/>
<text text-anchor="middle" x="1565.5" y="-129.2" font-family="Fira Mono" font-size="11.00">val: 5</text>
<polyline fill="none" stroke="#000000" points="1507,-122 1624,-122 "/>
<text text-anchor="middle" x="1534.5" y="-109.2" font-family="Fira Mono" font-size="11.00">prev: 8</text>
<polyline fill="none" stroke="#000000" points="1562,-102 1562,-122 "/>
<text text-anchor="middle" x="1593" y="-109.2" font-family="Fira Mono" font-size="11.00">next: 10</text>
</g>
<!-- node_8&#45;&gt;node_9 -->
<!-- node_8&#45;&gt;node_9 -->
<g id="edge19" class="edge">
<title>node_8&#45;&gt;node_9</title>
<path fill="none" stroke="#999999" d="M1463.44,-142.17C1463.44,-142.17 1496.93,-142.17 1496.93,-142.17"/>
<polygon fill="#999999" stroke="#999999" points="1496.93,-145.67 1506.93,-142.17 1496.93,-138.67 1496.93,-145.67"/>
<polygon fill="#999999" stroke="#999999" points="1463.44,-138.67 1453.44,-142.17 1463.44,-145.67 1463.44,-138.67"/>
</g>
<!-- node_10 -->
<g id="node11" class="node">
<title>node_10</title>
<path fill="#fff3e0" stroke="#000000" d="M1690,-102C1690,-102 1783,-102 1783,-102 1789,-102 1795,-108 1795,-114 1795,-114 1795,-150 1795,-150 1795,-156 1789,-162 1783,-162 1783,-162 1690,-162 1690,-162 1684,-162 1678,-156 1678,-150 1678,-150 1678,-114 1678,-114 1678,-108 1684,-102 1690,-102"/>
<text text-anchor="middle" x="1736.5" y="-149.2" font-family="Fira Mono" font-size="11.00">ind: 10</text>
<polyline fill="none" stroke="#000000" points="1678,-142 1795,-142 "/>
<text text-anchor="middle" x="1736.5" y="-129.2" font-family="Fira Mono" font-size="11.00">val: 4</text>
<polyline fill="none" stroke="#000000" points="1678,-122 1795,-122 "/>
<text text-anchor="middle" x="1705.5" y="-109.2" font-family="Fira Mono" font-size="11.00">prev: 9</text>
<polyline fill="none" stroke="#000000" points="1733,-102 1733,-122 "/>
<text text-anchor="middle" x="1764" y="-109.2" font-family="Fira Mono" font-size="11.00">next: 11</text>
</g>
<!-- node_9&#45;&gt;node_10 -->
<!-- node_9&#45;&gt;node_10 -->
<g id="edge20" class="edge">
<title>node_9&#45;&gt;node_10</title>
<path fill="none" stroke="#999999" d="M1634.35,-142.17C1634.35,-142.17 1667.83,-142.17 1667.83,-142.17"/>
<polygon fill="#999999" stroke="#999999" points="1667.83,-145.67 1677.83,-142.17 1667.83,-138.67 1667.83,-145.67"/>
<polygon fill="#999999" stroke="#999999" points="1634.35,-138.67 1624.35,-142.17 1634.35,-145.67 1634.35,-138.67"/>
</g>
<!-- node_11 -->
<g id="node12" class="node">
<title>node_11</title>
<path fill="#f1eafd" stroke="#8e6bd6" d="M1861,-102C1861,-102 1955,-102 1955,-102 1961,-102 1967,-108 1967,-114 1967,-114 1967,-150 1967,-150 1967,-156 1961,-162 1955,-162 1955,-162 1861,-162 1861,-162 1855,-162 1849,-156 1849,-150 1849,-150 1849,-114 1849,-114 1849,-108 1855,-102 1861,-102"/>
<text text-anchor="middle" x="1908" y="-149.2" font-family="Fira Mono" font-size="11.00">ind: 11 (TAIL)</text>
<polyline fill="none" stroke="#8e6bd6" points="1849,-142 1967,-142 "/>
<text text-anchor="middle" x="1908" y="-129.2" font-family="Fira Mono" font-size="11.00">val: 3</text>
<polyline fill="none" stroke="#8e6bd6" points="1849,-122 1967,-122 "/>
<text text-anchor="middle" x="1880" y="-109.2" font-family="Fira Mono" font-size="11.00">prev: 10</text>
<polyline fill="none" stroke="#8e6bd6" points="1911,-102 1911,-122 "/>
<text text-anchor="middle" x="1939" y="-109.2" font-family="Fira Mono" font-size="11.00">next: 0</text>
</g>
<!-- node_10&#45;&gt;node_11 -->
<!-- node_10&#45;&gt;node_11 -->
<g id="edge21" class="edge">
<title>node_10&#45;&gt;node_11</title>
<path fill="none" stroke="#999999" d="M1805.04,-142.17C1805.04,-142.17 1838.85,-142.17 1838.85,-142.17"/>
<polygon fill="#999999" stroke="#999999" points="1838.85,-145.67 1848.85,-142.17 1838.85,-138.67 1838.85,-145.67"/>
<polygon fill="#999999" stroke="#999999" points="1805.04,-138.67 1795.04,-142.17 1805.04,-145.67 1805.04,-138.67"/>
</g>
<!-- node_11&#45;&gt;node_0 -->
<g id="edge22" class="edge">
<title>node_11&#45;&gt;node_0</title>
<path fill="none" stroke="#999999" d="M1908,-91.83C1908,-91.83 1908,-57.83 1908,-57.83 1908,-57.83 103,-57.83 103,-57.83 103,-57.83 103,-91.83 103,-91.83"/>
<polygon fill="#999999" stroke="#999999" points="1904.5,-91.83 1908,-101.83 1911.5,-91.83 1904.5,-91.83"/>
<polygon fill="#999999" stroke="#999999" points="99.5,-91.83 103,-101.83 106.5,-91.83 99.5,-91.83"/>
</g>
<!-- node_free -->
<g id="node13" class="node">
<title>node_free</title>
<path fill="#ffecec" stroke="#d66d66" d="M82.5,-36C82.5,-36 35.5,-36 35.5,-36 29.5,-36 23.5,-30 23.5,-24 23.5,-24 23.5,-12 23.5,-12 23.5,-6 29.5,0 35.5,0 35.5,0 82.5,0 82.5,0 88.5,0 94.5,-6 94.5,-12 94.5,-12 94.5,-24 94.5,-24 94.5,-30 88.5,-36 82.5,-36"/>
<text text-anchor="middle" x="59" y="-15.2" font-family="Fira Mono" font-size="11.00">free_head</text>
</g>
<!-- node_free&#45;&gt;node_1 -->
<g id="edge23" class="edge">
<title>node_free&#45;&gt;node_1</title>
<path fill="none" stroke="#d88d88" stroke-dasharray="5,2" d="M94.85,-18C144.99,-18 230,-18 230,-18 230,-18 230,-91.75 230,-91.75"/>
<polygon fill="#d88d88" stroke="#d88d88" points="226.5,-91.75 230,-101.75 233.5,-91.75 226.5,-91.75"/>
</g>
</g>
</svg>
