<?xml version="1.0" encoding="UTF-8" standalone="no"?>
<!DOCTYPE svg PUBLIC "-//W3C//DTD SVG 1.1//EN"
 "http://www.w3.org/Graphics/SVG/1.1/DTD/svg11.dtd">
<!-- Generated by graphviz version 2.43.0 (0)
 -->
<!-- Title: G Pages: 1 -->
<svg width="1996pt" height="300pt"
 viewBox="0.00 0.00 1996.00 300.30" xmlns="http://www.w3.org/2000/svg" xmlns:xlink="http://www.w3.org/1999/xlink">
<g id="graph0" class="graph" transform="scale(1 1) rotate(0) translate(4 296.3)">
<title>G</title>
<polygon fill="white" stroke="transparent" points="-4,4 -4,-296.3 1992,-296.3 1992,4 -4,4"/>
<!-- node_0 -->
<g id="node1" class="node">
<title>node_0</title>
<path fill="#e9f2ff" stroke="#6b8fd6" stroke-width="2" d="M12,-203C12,-203 102,-203 102,-203 108,-203 114,-209 114,-215 114,-215 114,-251 114,-251 114,-257 108,-263 102,-263 102,-263 12,-263 12,-263 6,-263 0,-257 0,-251 0,-251 0,-215 0,-215 0,-209 6,-203 12,-203"/>
<text text-anchor="middle" x="57" y="-250.2" font-family="Fira Mono" font-size="11.00">ind: 0</text>
<polyline fill="none" stroke="#6b8fd6" stroke-width="2" points="0,-243 114,-243 "/>
<text text-anchor="middle" x="57" y="-230.2" font-family="Fira Mono" font-size="11.00">val: 3.73593e+09</text>
<polyline fill="none" stroke="#6b8fd6" stroke-width="2" points="0,-223 114,-223 "/>
<text text-anchor="middle" x="28" y="-210.2" font-family="Fira Mono" font-size="11.00">prev: 1</text>
<polyline fill="none" stroke="#6b8fd6" stroke-width="2" points="56,-203 56,-223 "/>
<text text-anchor="middle" x="85" y="-210.2" font-family="Fira Mono" font-size="11.00">next: 2</text>
</g>
<!-- node_1 -->
<g id="node2" class="node">
<title>node_1</title>
<path fill="#f1eafd" stroke="#8e6bd6" d="M180,-203C180,-203 267,-203 267,-203 273,-203 279,-209 279,-215 279,-215 279,-251 279,-251 279,-257 273,-263 267,-263 267,-263 180,-263 180,-263 174,-263 168,-257 168,-251 168,-251 168,-215 168,-215 168,-209 174,-203 180,-203"/>
<text text-anchor="middle" x="223.5" y="-250.2" font-family="Fira Mono" font-size="11.00">ind: 1 (TAIL)</text>
<polyline fill="none" stroke="#8e6bd6" points="168,-243 279,-243 "/>
<text text-anchor="middle" x="223.5" y="-230.2" font-family="Fira Mono" font-size="11.00">val: 15</text>
<polyline fill="none" stroke="#8e6bd6" points="168,-223 279,-223 "/>
<text text-anchor="middle" x="195.5" y="-210.2" font-family="Fira Mono" font-size="11.00">prev: 6</text>
<polyline fill="none" stroke="#8e6bd6" points="223,-203 223,-223 "/>
<text text-anchor="middle" x="251" y="-210.2" font-family="Fira Mono" font-size="11.00">next: 0</text>
</g>
<!-- node_0&#45;&gt;node_1 -->
<!-- node_2 -->
<g id="node3" class="node">
<title>node_2</title>
<path fill="#e9fbf5" stroke="#5aa99b" d="M345,-203C345,-203 432,-203 432,-203 438,-203 444,-209 444,-215 444,-215 444,-251 444,-251 444,-257 438,-263 432,-263 432,-263 345,-263 345,-263 339,-263 333,-257 333,-251 333,-251 333,-215 333,-215 333,-209 339,-203 345,-203"/>
<text text-anchor="middle" x="388.5" y="-250.2" font-family="Fira Mono" font-size="11.00">ind: 2 (HEAD)</text>
<polyline fill="none" stroke="#5aa99b" points="333,-243 444,-243 "/>
<text text-anchor="middle" x="388.5" y="-230.2" font-family="Fira Mono" font-size="11.00">val: 40</text>
<polyline fill="none" stroke="#5aa99b" points="333,-223 444,-223 "/>
<text text-anchor="middle" x="360.5" y="-210.2" font-family="Fira Mono" font-size="11.00">prev: 0</text>
<polyline fill="none" stroke="#5aa99b" points="388,-203 388,-223 "/>
<text text-anchor="middle" x="416" y="-210.2" font-family="Fira Mono" font-size="11.00">next: 3</text>
</g>
<!-- node_0&#45;&gt;node_2 -->
<g id="edge12" class="edge">
<title>node_0&#45;&gt;node_2</title>
<path fill="none" stroke="#999999" d="M104,-192.86C104,-192.86 104,-169.75 104,-169.75 104,-169.75 389,-169.75 389,-169.75 389,-169.75 389,-192.86 389,-192.86"/>
<polygon fill="#999999" stroke="#999999" points="100.5,-192.86 104,-202.86 107.5,-192.86 100.5,-192.86"/>
<polygon fill="#999999" stroke="#999999" points="385.5,-192.86 389,-202.86 392.5,-192.86 385.5,-192.86"/>
</g>
<!-- node_1&#45;&gt;node_0 -->
<g id="edge13" class="edge">
<title>node_1&#45;&gt;node_0</title>
<path fill="none" stroke="#999999" d="M157.59,-243.17C157.59,-243.17 124.18,-243.17 124.18,-243.17"/>
<polygon fill="#999999" stroke="#999999" points="124.18,-239.67 114.18,-243.17 124.18,-246.67 124.18,-239.67"/>
<polygon fill="#999999" stroke="#999999" points="157.59,-246.67 167.59,-243.17 157.59,-239.67 157.59,-246.67"/>
</g>
<!-- node_1&#45;&gt;node_2 -->
<!-- node_3 -->
<g id="node4" class="node">
<title>node_3</title>
<path fill="#fff3e0" stroke="#000000" d="M510,-203C510,-203 623,-203 623,-203 629,-203 635,-209 635,-215 635,-215 635,-251 635,-251 635,-257 629,-263 623,-263 623,-263 510,-263 510,-263 504,-263 498,-257 498,-251 498,-251 498,-215 498,-215 498,-209 504,-203 510,-203"/>
<text text-anchor="middle" x="566.5" y="-250.2" font-family="Fira Mono" font-size="11.00">ind: 3</text>
<polyline fill="none" stroke="#000000" points="498,-243 635,-243 "/>
<text text-anchor="middle" x="566.5" y="-230.2" font-family="Fira Mono" font-size="11.00">val: 2</text>
<polyline fill="none" stroke="#000000" points="498,-223 635,-223 "/>
<text text-anchor="middle" x="532" y="-210.2" font-family="Fira Mono" font-size="11.00">prev: 150</text>
<polyline fill="none" stroke="#000000" points="566,-203 566,-223 "/>
<text text-anchor="middle" x="600.5" y="-210.2" font-family="Fira Mono" font-size="11.00">next: 150</text>
</g>
<!-- node_2&#45;&gt;node_3 -->
<!-- node_2&#45;&gt;node_3 -->
<g id="edge14" class="edge">
<title>node_2&#45;&gt;node_3</title>
<path fill="none" stroke="#ff0000" stroke-width="2.2" d="M444.33,-243.17C444.33,-243.17 487.72,-243.17 487.72,-243.17"/>
<polygon fill="#ff0000" stroke="#ff0000" stroke-width="2.2" points="487.72,-246.67 497.72,-243.17 487.72,-239.67 487.72,-246.67"/>
</g>
<!-- node_4 -->
<g id="node5" class="node">
<title>node_4</title>
<path fill="#fff3e0" stroke="#000000" d="M701,-203C701,-203 788,-203 788,-203 794,-203 800,-209 800,-215 800,-215 800,-251 800,-251 800,-257 794,-263 788,-263 788,-263 701,-263 701,-263 695,-263 689,-257 689,-251 689,-251 689,-215 689,-215 689,-209 695,-203 701,-203"/>
<text text-anchor="middle" x="744.5" y="-250.2" font-family="Fira Mono" font-size="11.00">ind: 4</text>
<polyline fill="none" stroke="#000000" points="689,-243 800,-243 "/>
<text text-anchor="middle" x="744.5" y="-230.2" font-family="Fira Mono" font-size="11.00">val: 20</text>
<polyline fill="none" stroke="#000000" points="689,-223 800,-223 "/>
<text text-anchor="middle" x="716.5" y="-210.2" font-family="Fira Mono" font-size="11.00">prev: 3</text>
<polyline fill="none" stroke="#000000" points="744,-203 744,-223 "/>
<text text-anchor="middle" x="772" y="-210.2" font-family="Fira Mono" font-size="11.00">next: 7</text>
</g>
<!-- node_3&#45;&gt;node_4 -->
<!-- node_3&#45;&gt;node_4 -->
<g id="edge26" class="edge">
<title>node_3&#45;&gt;node_4</title>
<path fill="none" stroke="#ff0000" stroke-width="2.2" d="M635.06,-243.17C635.06,-243.17 678.93,-243.17 678.93,-243.17"/>
<polygon fill="#ff0000" stroke="#ff0000" stroke-width="2.2" points="678.93,-246.67 688.93,-243.17 678.93,-239.67 678.93,-246.67"/>
</g>
<!-- node_bad_n_3 -->
<g id="node13" class="node">
<title>node_bad_n_3</title>
<path fill="#ffecec" stroke="#d66d66" d="M583,-36C583,-36 550,-36 550,-36 544,-36 538,-30 538,-24 538,-24 538,-12 538,-12 538,-6 544,0 550,0 550,0 583,0 583,0 589,0 595,-6 595,-12 595,-12 595,-24 595,-24 595,-30 589,-36 583,-36"/>
<text text-anchor="middle" x="566.5" y="-21.2" font-family="Fira Mono" font-size="11.00">idx 150</text>
<text text-anchor="middle" x="566.5" y="-9.2" font-family="Fira Mono" font-size="11.00">(N/A)</text>
</g>
<!-- node_3&#45;&gt;node_bad_n_3 -->
<g id="edge15" class="edge">
<title>node_3&#45;&gt;node_bad_n_3</title>
<path fill="none" stroke="#d66d66" stroke-width="2" d="M512,-202.71C512,-146.26 512,-30.67 512,-30.67 512,-30.67 527.97,-30.67 527.97,-30.67"/>
<polygon fill="#d66d66" stroke="#d66d66" stroke-width="2" points="527.97,-34.17 537.97,-30.67 527.97,-27.17 527.97,-34.17"/>
</g>
<!-- node_3&#45;&gt;node_bad_n_3 -->
<!-- node_bad_p_3 -->
<g id="node14" class="node">
<title>node_bad_p_3</title>
<path fill="#ffecec" stroke="#d66d66" d="M583,-137C583,-137 550,-137 550,-137 544,-137 538,-131 538,-125 538,-125 538,-113 538,-113 538,-107 544,-101 550,-101 550,-101 583,-101 583,-101 589,-101 595,-107 595,-113 595,-113 595,-125 595,-125 595,-131 589,-137 583,-137"/>
<text text-anchor="middle" x="566.5" y="-122.2" font-family="Fira Mono" font-size="11.00">idx 150</text>
<text text-anchor="middle" x="566.5" y="-110.2" font-family="Fira Mono" font-size="11.00">(N/A)</text>
</g>
<!-- node_3&#45;&gt;node_bad_p_3 -->
<!-- node_5 -->
<g id="node6" class="node">
<title>node_5</title>
<path fill="#ffecec" stroke="#d66d66" d="M866,-203C866,-203 960,-203 960,-203 966,-203 972,-209 972,-215 972,-215 972,-251 972,-251 972,-257 966,-263 960,-263 960,-263 866,-263 866,-263 860,-263 854,-257 854,-251 854,-251 854,-215 854,-215 854,-209 860,-203 866,-203"/>
<text text-anchor="middle" x="913" y="-250.2" font-family="Fira Mono" font-size="11.00">ind: 5</text>
<polyline fill="none" stroke="#d66d66" points="854,-243 972,-243 "/>
<text text-anchor="middle" x="913" y="-230.2" font-family="Fira Mono" font-size="11.00">val: &#45;100</text>
<polyline fill="none" stroke="#d66d66" points="854,-223 972,-223 "/>
<text text-anchor="middle" x="883.5" y="-210.2" font-family="Fira Mono" font-size="11.00">prev: &#45;1</text>
<polyline fill="none" stroke="#d66d66" points="913,-203 913,-223 "/>
<text text-anchor="middle" x="942.5" y="-210.2" font-family="Fira Mono" font-size="11.00">next: &#45;1</text>
</g>
<!-- node_4&#45;&gt;node_5 -->
<!-- node_7 -->
<g id="node8" class="node">
<title>node_7</title>
<path fill="#fff3e0" stroke="#000000" d="M1210,-203C1210,-203 1297,-203 1297,-203 1303,-203 1309,-209 1309,-215 1309,-215 1309,-251 1309,-251 1309,-257 1303,-263 1297,-263 1297,-263 1210,-263 1210,-263 1204,-263 1198,-257 1198,-251 1198,-251 1198,-215 1198,-215 1198,-209 1204,-203 1210,-203"/>
<text text-anchor="middle" x="1253.5" y="-250.2" font-family="Fira Mono" font-size="11.00">ind: 7</text>
<polyline fill="none" stroke="#000000" points="1198,-243 1309,-243 "/>
<text text-anchor="middle" x="1253.5" y="-230.2" font-family="Fira Mono" font-size="11.00">val: 5</text>
<polyline fill="none" stroke="#000000" points="1198,-223 1309,-223 "/>
<text text-anchor="middle" x="1225.5" y="-210.2" font-family="Fira Mono" font-size="11.00">prev: 4</text>
<polyline fill="none" stroke="#000000" points="1253,-203 1253,-223 "/>
<text text-anchor="middle" x="1281" y="-210.2" font-family="Fira Mono" font-size="11.00">next: 8</text>
</g>
<!-- node_4&#45;&gt;node_7 -->
<g id="edge17" class="edge">
<title>node_4&#45;&gt;node_7</title>
<path fill="none" stroke="#999999" d="M745,-273C745,-273 745,-285.1 745,-285.1 745,-285.1 1254,-285.1 1254,-285.1 1254,-285.1 1254,-273 1254,-273"/>
<polygon fill="#999999" stroke="#999999" points="748.5,-273 745,-263 741.5,-273 748.5,-273"/>
<polygon fill="#999999" stroke="#999999" points="1257.5,-273 1254,-263 1250.5,-273 1257.5,-273"/>
</g>
<!-- node_6 -->
<g id="node7" class="node">
<title>node_6</title>
<path fill="#fff3e0" stroke="#000000" d="M1038,-203C1038,-203 1132,-203 1132,-203 1138,-203 1144,-209 1144,-215 1144,-215 1144,-251 1144,-251 1144,-257 1138,-263 1132,-263 1132,-263 1038,-263 1038,-263 1032,-263 1026,-257 1026,-251 1026,-251 1026,-215 1026,-215 1026,-209 1032,-203 1038,-203"/>
<text text-anchor="middle" x="1085" y="-250.2" font-family="Fira Mono" font-size="11.00">ind: 6</text>
<polyline fill="none" stroke="#000000" points="1026,-243 1144,-243 "/>
<text text-anchor="middle" x="1085" y="-230.2" font-family="Fira Mono" font-size="11.00">val: 22</text>
<polyline fill="none" stroke="#000000" points="1026,-223 1144,-223 "/>
<text text-anchor="middle" x="1057" y="-210.2" font-family="Fira Mono" font-size="11.00">prev: 11</text>
<polyline fill="none" stroke="#000000" points="1088,-203 1088,-223 "/>
<text text-anchor="middle" x="1116" y="-210.2" font-family="Fira Mono" font-size="11.00">next: 1</text>
</g>
<!-- node_5&#45;&gt;node_6 -->
<!-- node_6&#45;&gt;node_1 -->
<g id="edge18" class="edge">
<title>node_6&#45;&gt;node_1</title>
<path fill="none" stroke="#999999" d="M1066,-269.94C1066,-269.94 1066,-270.7 1066,-270.7 1066,-270.7 224,-270.7 224,-270.7 224,-270.7 224,-269.94 224,-269.94"/>
<polygon fill="#999999" stroke="#999999" points="1069.5,-273.07 1066,-263.07 1062.5,-273.07 1069.5,-273.07"/>
<polygon fill="#999999" stroke="#999999" points="227.5,-273.07 224,-263.07 220.5,-273.07 227.5,-273.07"/>
</g>
<!-- node_6&#45;&gt;node_7 -->
<!-- node_8 -->
<g id="node9" class="node">
<title>node_8</title>
<path fill="#fff3e0" stroke="#000000" d="M1375,-203C1375,-203 1462,-203 1462,-203 1468,-203 1474,-209 1474,-215 1474,-215 1474,-251 1474,-251 1474,-257 1468,-263 1462,-263 1462,-263 1375,-263 1375,-263 1369,-263 1363,-257 1363,-251 1363,-251 1363,-215 1363,-215 1363,-209 1369,-203 1375,-203"/>
<text text-anchor="middle" x="1418.5" y="-250.2" font-family="Fira Mono" font-size="11.00">ind: 8</text>
<polyline fill="none" stroke="#000000" points="1363,-243 1474,-243 "/>
<text text-anchor="middle" x="1418.5" y="-230.2" font-family="Fira Mono" font-size="11.00">val: 4</text>
<polyline fill="none" stroke="#000000" points="1363,-223 1474,-223 "/>
<text text-anchor="middle" x="1390.5" y="-210.2" font-family="Fira Mono" font-size="11.00">prev: 7</text>
<polyline fill="none" stroke="#000000" points="1418,-203 1418,-223 "/>
<text text-anchor="middle" x="1446" y="-210.2" font-family="Fira Mono" font-size="11.00">next: 5</text>
</g>
<!-- node_7&#45;&gt;node_8 -->
<!-- node_7&#45;&gt;node_8 -->
<g id="edge19" class="edge">
<title>node_7&#45;&gt;node_8</title>
<path fill="none" stroke="#999999" d="M1319.36,-243.17C1319.36,-243.17 1352.98,-243.17 1352.98,-243.17"/>
<polygon fill="#999999" stroke="#999999" points="1352.98,-246.67 1362.98,-243.17 1352.98,-239.67 1352.98,-246.67"/>
<polygon fill="#999999" stroke="#999999" points="1319.36,-239.67 1309.36,-243.17 1319.36,-246.67 1319.36,-239.67"/>
</g>
<!-- node_8&#45;&gt;node_5 -->
<g id="edge20" class="edge">
<title>node_8&#45;&gt;node_5</title>
<path fill="none" stroke="#ff0000" stroke-width="2.2" d="M1419,-263.34C1419,-277.93 1419,-292.3 1419,-292.3 1419,-292.3 913,-292.3 913,-292.3 913,-292.3 913,-273.34 913,-273.34"/>
<polygon fill="#ff0000" stroke="#ff0000" stroke-width="2.2" points="916.5,-273.34 913,-263.34 909.5,-273.34 916.5,-273.34"/>
</g>
<!-- node_9 -->
<g id="node10" class="node">
<title>node_9</title>
<path fill="#fff3e0" stroke="#000000" d="M1540,-203C1540,-203 1633,-203 1633,-203 1639,-203 1645,-209 1645,-215 1645,-215 1645,-251 1645,-251 1645,-257 1639,-263 1633,-263 1633,-263 1540,-263 1540,-263 1534,-263 1528,-257 1528,-251 1528,-251 1528,-215 1528,-215 1528,-209 1534,-203 1540,-203"/>
<text text-anchor="middle" x="1586.5" y="-250.2" font-family="Fira Mono" font-size="11.00">ind: 9</text>
<polyline fill="none" stroke="#000000" points="1528,-243 1645,-243 "/>
<text text-anchor="middle" x="1586.5" y="-230.2" font-family="Fira Mono" font-size="11.00">val: 5</text>
<polyline fill="none" stroke="#000000" points="1528,-223 1645,-223 "/>
<text text-anchor="middle" x="1555.5" y="-210.2" font-family="Fira Mono" font-size="11.00">prev: 8</text>
<polyline fill="none" stroke="#000000" points="1583,-203 1583,-223 "/>
<text text-anchor="middle" x="1614" y="-210.2" font-family="Fira Mono" font-size="11.00">next: 10</text>
</g>
<!-- node_8&#45;&gt;node_9 -->
<!-- node_8&#45;&gt;node_9 -->
<g id="edge27" class="edge">
<title>node_8&#45;&gt;node_9</title>
<path fill="none" stroke="#ff0000" stroke-width="2.2" d="M1474.44,-243.17C1474.44,-243.17 1517.93,-243.17 1517.93,-243.17"/>
<polygon fill="#ff0000" stroke="#ff0000" stroke-width="2.2" points="1517.93,-246.67 1527.93,-243.17 1517.93,-239.67 1517.93,-246.67"/>
</g>
<!-- node_10 -->
<g id="node11" class="node">
<title>node_10</title>
<path fill="#fff3e0" stroke="#000000" d="M1711,-203C1711,-203 1804,-203 1804,-203 1810,-203 1816,-209 1816,-215 1816,-215 1816,-251 1816,-251 1816,-257 1810,-263 1804,-263 1804,-263 1711,-263 1711,-263 1705,-263 1699,-257 1699,-251 1699,-251 1699,-215 1699,-215 1699,-209 1705,-203 1711,-203"/>
<text text-anchor="middle" x="1757.5" y="-250.2" font-family="Fira Mono" font-size="11.00">ind: 10</text>
<polyline fill="none" stroke="#000000" points="1699,-243 1816,-243 "/>
<text text-anchor="middle" x="1757.5" y="-230.2" font-family="Fira Mono" font-size="11.00">val: 4</text>
<polyline fill="none" stroke="#000000" points="1699,-223 1816,-223 "/>
<text text-anchor="middle" x="1726.5" y="-210.2" font-family="Fira Mono" font-size="11.00">prev: 9</text>
<polyline fill="none" stroke="#000000" points="1754,-203 1754,-223 "/>
<text text-anchor="middle" x="1785" y="-210.2" font-family="Fira Mono" font-size="11.00">next: 11</text>
</g>
<!-- node_9&#45;&gt;node_10 -->
<!-- node_9&#45;&gt;node_10 -->
<g id="edge21" class="edge">
<title>node_9&#45;&gt;node_10</title>
<path fill="none" stroke="#999999" d="M1655.35,-243.17C1655.35,-243.17 1688.83,-243.17 1688.83,-243.17"/>
<polygon fill="#999999" stroke="#999999" points="1688.83,-246.67 1698.83,-243.17 1688.83,-239.67 1688.83,-246.67"/>
<polygon fill="#999999" stroke="#999999" points="1655.35,-239.67 1645.35,-243.17 1655.35,-246.67 1655.35,-239.67"/>
</g>
<!-- node_11 -->
<g id="node12" class="node">
<title>node_11</title>
<path fill="#fff3e0" stroke="#000000" d="M1882,-203C1882,-203 1976,-203 1976,-203 1982,-203 1988,-209 1988,-215 1988,-215 1988,-251 1988,-251 1988,-257 1982,-263 1976,-263 1976,-263 1882,-263 1882,-263 1876,-263 1870,-257 1870,-251 1870,-251 1870,-215 1870,-215 1870,-209 1876,-203 1882,-203"/>
<text text-anchor="middle" x="1929" y="-250.2" font-family="Fira Mono" font-size="11.00">ind: 11</text>
<polyline fill="none" stroke="#000000" points="1870,-243 1988,-243 "/>
<text text-anchor="middle" x="1929" y="-230.2" font-family="Fira Mono" font-size="11.00">val: 3</text>
<polyline fill="none" stroke="#000000" points="1870,-223 1988,-223 "/>
<text text-anchor="middle" x="1901" y="-210.2" font-family="Fira Mono" font-size="11.00">prev: 10</text>
<polyline fill="none" stroke="#000000" points="1932,-203 1932,-223 "/>
<text text-anchor="middle" x="1960" y="-210.2" font-family="Fira Mono" font-size="11.00">next: 6</text>
</g>
<!-- node_10&#45;&gt;node_11 -->
<!-- node_10&#45;&gt;node_11 -->
<g id="edge22" class="edge">
<title>node_10&#45;&gt;node_11</title>
<path fill="none" stroke="#999999" d="M1826.04,-243.17C1826.04,-243.17 1859.85,-243.17 1859.85,-243.17"/>
<polygon fill="#999999" stroke="#999999" points="1859.85,-246.67 1869.85,-243.17 1859.85,-239.67 1859.85,-246.67"/>
<polygon fill="#999999" stroke="#999999" points="1826.04,-239.67 1816.04,-243.17 1826.04,-246.67 1826.04,-239.67"/>
</g>
<!-- node_11&#45;&gt;node_6 -->
<g id="edge23" class="edge">
<title>node_11&#45;&gt;node_6</title>
<path fill="none" stroke="#999999" d="M1929,-273.2C1929,-273.2 1929,-277.9 1929,-277.9 1929,-277.9 1105,-277.9 1105,-277.9 1105,-277.9 1105,-273.2 1105,-273.2"/>
<polygon fill="#999999" stroke="#999999" points="1932.5,-273.2 1929,-263.2 1925.5,-273.2 1932.5,-273.2"/>
<polygon fill="#999999" stroke="#999999" points="1108.5,-273.2 1105,-263.2 1101.5,-273.2 1108.5,-273.2"/>
</g>
<!-- node_bad_p_3&#45;&gt;node_3 -->
<g id="edge24" class="edge">
<title>node_bad_p_3&#45;&gt;node_3</title>
<path fill="none" stroke="#d66d66" stroke-width="2" d="M576,-137.06C576,-137.06 576,-192.59 576,-192.59"/>
<polygon fill="#d66d66" stroke="#d66d66" stroke-width="2" points="572.5,-192.59 576,-202.59 579.5,-192.59 572.5,-192.59"/>
</g>
<!-- node_free -->
<g id="node15" class="node">
<title>node_free</title>
<path fill="#ffecec" stroke="#d66d66" d="M80.5,-64C80.5,-64 33.5,-64 33.5,-64 27.5,-64 21.5,-58 21.5,-52 21.5,-52 21.5,-40 21.5,-40 21.5,-34 27.5,-28 33.5,-28 33.5,-28 80.5,-28 80.5,-28 86.5,-28 92.5,-34 92.5,-40 92.5,-40 92.5,-52 92.5,-52 92.5,-58 86.5,-64 80.5,-64"/>
<text text-anchor="middle" x="57" y="-43.2" font-family="Fira Mono" font-size="11.00">free_head</text>
</g>
<!-- node_free&#45;&gt;node_5 -->
<g id="edge28" class="edge">
<title>node_free&#45;&gt;node_5</title>
<path fill="none" stroke="#d88d88" stroke-dasharray="5,2" d="M92.69,-50C254.7,-50 913,-50 913,-50 913,-50 913,-192.78 913,-192.78"/>
<polygon fill="#d88d88" stroke="#d88d88" points="909.5,-192.78 913,-202.78 916.5,-192.78 909.5,-192.78"/>
</g>
</g>
</svg>
