<?xml version="1.0" encoding="UTF-8" standalone="no"?>
<!DOCTYPE svg PUBLIC "-//W3C//DTD SVG 1.1//EN"
 "http://www.w3.org/Graphics/SVG/1.1/DTD/svg11.dtd">
<!-- Generated by graphviz version 2.43.0 (0)
 -->
<!-- Title: G Pages: 1 -->
<svg width="3401pt" height="438pt"
 viewBox="0.00 0.00 3401.00 438.30" xmlns="http://www.w3.org/2000/svg" xmlns:xlink="http://www.w3.org/1999/xlink">
<g id="graph0" class="graph" transform="scale(1 1) rotate(0) translate(4 434.3)">
<title>G</title>
<polygon fill="white" stroke="transparent" points="-4,4 -4,-434.3 3397,-434.3 3397,4 -4,4"/>
<!-- node_0 -->
<g id="node1" class="node">
<title>node_0</title>
<path fill="#e9f2ff" stroke="#6b8fd6" stroke-width="2" d="M12,-341C12,-341 106,-341 106,-341 112,-341 118,-347 118,-353 118,-353 118,-389 118,-389 118,-395 112,-401 106,-401 106,-401 12,-401 12,-401 6,-401 0,-395 0,-389 0,-389 0,-353 0,-353 0,-347 6,-341 12,-341"/>
<text text-anchor="middle" x="59" y="-388.2" font-family="Fira Mono" font-size="11.00">ind: 0</text>
<polyline fill="none" stroke="#6b8fd6" stroke-width="2" points="0,-381 118,-381 "/>
<text text-anchor="middle" x="59" y="-368.2" font-family="Fira Mono" font-size="11.00">val: 10101</text>
<polyline fill="none" stroke="#6b8fd6" stroke-width="2" points="0,-361 118,-361 "/>
<text text-anchor="middle" x="31" y="-348.2" font-family="Fira Mono" font-size="11.00">prev: 10</text>
<polyline fill="none" stroke="#6b8fd6" stroke-width="2" points="62,-341 62,-361 "/>
<text text-anchor="middle" x="90" y="-348.2" font-family="Fira Mono" font-size="11.00">next: 1</text>
</g>
<!-- node_1 -->
<g id="node2" class="node">
<title>node_1</title>
<path fill="#e9fbf5" stroke="#5aa99b" d="M184,-341C184,-341 271,-341 271,-341 277,-341 283,-347 283,-353 283,-353 283,-389 283,-389 283,-395 277,-401 271,-401 271,-401 184,-401 184,-401 178,-401 172,-395 172,-389 172,-389 172,-353 172,-353 172,-347 178,-341 184,-341"/>
<text text-anchor="middle" x="227.5" y="-388.2" font-family="Fira Mono" font-size="11.00">ind: 1 (HEAD)</text>
<polyline fill="none" stroke="#5aa99b" points="172,-381 283,-381 "/>
<text text-anchor="middle" x="227.5" y="-368.2" font-family="Fira Mono" font-size="11.00">val: 10</text>
<polyline fill="none" stroke="#5aa99b" points="172,-361 283,-361 "/>
<text text-anchor="middle" x="199.5" y="-348.2" font-family="Fira Mono" font-size="11.00">prev: 0</text>
<polyline fill="none" stroke="#5aa99b" points="227,-341 227,-361 "/>
<text text-anchor="middle" x="255" y="-348.2" font-family="Fira Mono" font-size="11.00">next: 1</text>
</g>
<!-- node_0&#45;&gt;node_1 -->
<!-- node_0&#45;&gt;node_1 -->
<g id="edge28" class="edge">
<title>node_0&#45;&gt;node_1</title>
<path fill="none" stroke="#999999" d="M128.41,-371C128.41,-371 161.73,-371 161.73,-371"/>
<polygon fill="#999999" stroke="#999999" points="161.73,-374.5 171.73,-371 161.73,-367.5 161.73,-374.5"/>
<polygon fill="#999999" stroke="#999999" points="128.41,-367.5 118.41,-371 128.41,-374.5 128.41,-367.5"/>
</g>
<!-- node_1&#45;&gt;node_1 -->
<g id="edge29" class="edge">
<title>node_1&#45;&gt;node_1</title>
<path fill="none" stroke="#ff0000" stroke-width="2.2" d="M171.56,-386.25C156.84,-386.25 145,-386.25 145,-386.25 145,-386.25 145,-430.3 145,-430.3 145,-430.3 310,-430.3 310,-430.3 310,-430.3 310,-386.25 310,-386.25 310,-386.25 293.44,-386.25 293.44,-386.25"/>
<polygon fill="#ff0000" stroke="#ff0000" stroke-width="2.2" points="293.44,-382.75 283.44,-386.25 293.44,-389.75 293.44,-382.75"/>
</g>
<!-- node_2 -->
<g id="node3" class="node">
<title>node_2</title>
<path fill="#fff3e0" stroke="#000000" d="M349,-341C349,-341 436,-341 436,-341 442,-341 448,-347 448,-353 448,-353 448,-389 448,-389 448,-395 442,-401 436,-401 436,-401 349,-401 349,-401 343,-401 337,-395 337,-389 337,-389 337,-353 337,-353 337,-347 343,-341 349,-341"/>
<text text-anchor="middle" x="392.5" y="-388.2" font-family="Fira Mono" font-size="11.00">ind: 2</text>
<polyline fill="none" stroke="#000000" points="337,-381 448,-381 "/>
<text text-anchor="middle" x="392.5" y="-368.2" font-family="Fira Mono" font-size="11.00">val: 2</text>
<polyline fill="none" stroke="#000000" points="337,-361 448,-361 "/>
<text text-anchor="middle" x="364.5" y="-348.2" font-family="Fira Mono" font-size="11.00">prev: 1</text>
<polyline fill="none" stroke="#000000" points="392,-341 392,-361 "/>
<text text-anchor="middle" x="420" y="-348.2" font-family="Fira Mono" font-size="11.00">next: 4</text>
</g>
<!-- node_1&#45;&gt;node_2 -->
<!-- node_1&#45;&gt;node_2 -->
<g id="edge40" class="edge">
<title>node_1&#45;&gt;node_2</title>
<path fill="none" stroke="#ff0000" stroke-width="2.2" d="M283.36,-371C283.36,-371 326.98,-371 326.98,-371"/>
<polygon fill="#ff0000" stroke="#ff0000" stroke-width="2.2" points="326.98,-374.5 336.98,-371 326.98,-367.5 326.98,-374.5"/>
</g>
<!-- node_3 -->
<g id="node4" class="node">
<title>node_3</title>
<path fill="#fff3e0" stroke="#000000" d="M514,-341C514,-341 641,-341 641,-341 647,-341 653,-347 653,-353 653,-353 653,-389 653,-389 653,-395 647,-401 641,-401 641,-401 514,-401 514,-401 508,-401 502,-395 502,-389 502,-389 502,-353 502,-353 502,-347 508,-341 514,-341"/>
<text text-anchor="middle" x="577.5" y="-388.2" font-family="Fira Mono" font-size="11.00">ind: 3</text>
<polyline fill="none" stroke="#000000" points="502,-381 653,-381 "/>
<text text-anchor="middle" x="577.5" y="-368.2" font-family="Fira Mono" font-size="11.00">val: 20</text>
<polyline fill="none" stroke="#000000" points="502,-361 653,-361 "/>
<text text-anchor="middle" x="536" y="-348.2" font-family="Fira Mono" font-size="11.00">prev: 150</text>
<polyline fill="none" stroke="#000000" points="570,-341 570,-361 "/>
<text text-anchor="middle" x="611.5" y="-348.2" font-family="Fira Mono" font-size="11.00">next: 10000</text>
</g>
<!-- node_2&#45;&gt;node_3 -->
<!-- node_4 -->
<g id="node5" class="node">
<title>node_4</title>
<path fill="#fff3e0" stroke="#000000" d="M719,-341C719,-341 806,-341 806,-341 812,-341 818,-347 818,-353 818,-353 818,-389 818,-389 818,-395 812,-401 806,-401 806,-401 719,-401 719,-401 713,-401 707,-395 707,-389 707,-389 707,-353 707,-353 707,-347 713,-341 719,-341"/>
<text text-anchor="middle" x="762.5" y="-388.2" font-family="Fira Mono" font-size="11.00">ind: 4</text>
<polyline fill="none" stroke="#000000" points="707,-381 818,-381 "/>
<text text-anchor="middle" x="762.5" y="-368.2" font-family="Fira Mono" font-size="11.00">val: 1</text>
<polyline fill="none" stroke="#000000" points="707,-361 818,-361 "/>
<text text-anchor="middle" x="734.5" y="-348.2" font-family="Fira Mono" font-size="11.00">prev: 3</text>
<polyline fill="none" stroke="#000000" points="762,-341 762,-361 "/>
<text text-anchor="middle" x="790" y="-348.2" font-family="Fira Mono" font-size="11.00">next: 5</text>
</g>
<!-- node_2&#45;&gt;node_4 -->
<g id="edge30" class="edge">
<title>node_2&#45;&gt;node_4</title>
<path fill="none" stroke="#ff0000" stroke-width="2.2" d="M393,-401.2C393,-409.32 393,-415.9 393,-415.9 393,-415.9 744,-415.9 744,-415.9 744,-415.9 744,-411.2 744,-411.2"/>
<polygon fill="#ff0000" stroke="#ff0000" stroke-width="2.2" points="747.5,-411.2 744,-401.2 740.5,-411.2 747.5,-411.2"/>
</g>
<!-- node_3&#45;&gt;node_4 -->
<!-- node_3&#45;&gt;node_4 -->
<g id="edge43" class="edge">
<title>node_3&#45;&gt;node_4</title>
<path fill="none" stroke="#ff0000" stroke-width="2.2" d="M653.01,-381.17C653.01,-381.17 696.78,-381.17 696.78,-381.17"/>
<polygon fill="#ff0000" stroke="#ff0000" stroke-width="2.2" points="696.78,-384.67 706.78,-381.17 696.78,-377.67 696.78,-384.67"/>
</g>
<!-- node_bad_n_3 -->
<g id="node21" class="node">
<title>node_bad_n_3</title>
<path fill="#d88d88" stroke="#d66d66" d="M601,-174C601,-174 554,-174 554,-174 548,-174 542,-168 542,-162 542,-162 542,-150 542,-150 542,-144 548,-138 554,-138 554,-138 601,-138 601,-138 607,-138 613,-144 613,-150 613,-150 613,-162 613,-162 613,-168 607,-174 601,-174"/>
<text text-anchor="middle" x="577.5" y="-159.2" font-family="Fira Mono" font-size="11.00">idx 10000</text>
<text text-anchor="middle" x="577.5" y="-147.2" font-family="Fira Mono" font-size="11.00">(N/A)</text>
</g>
<!-- node_3&#45;&gt;node_bad_n_3 -->
<g id="edge31" class="edge">
<title>node_3&#45;&gt;node_bad_n_3</title>
<path fill="none" stroke="#ffecec" stroke-width="2" d="M545,-340.65C545,-340.65 545,-184.2 545,-184.2"/>
<polygon fill="#ffecec" stroke="#ffecec" stroke-width="2" points="548.5,-184.2 545,-174.2 541.5,-184.2 548.5,-184.2"/>
</g>
<!-- node_3&#45;&gt;node_bad_n_3 -->
<!-- node_bad_p_3 -->
<g id="node22" class="node">
<title>node_bad_p_3</title>
<path fill="#d88d88" stroke="#d66d66" d="M594,-275C594,-275 561,-275 561,-275 555,-275 549,-269 549,-263 549,-263 549,-251 549,-251 549,-245 555,-239 561,-239 561,-239 594,-239 594,-239 600,-239 606,-245 606,-251 606,-251 606,-263 606,-263 606,-269 600,-275 594,-275"/>
<text text-anchor="middle" x="577.5" y="-260.2" font-family="Fira Mono" font-size="11.00">idx 150</text>
<text text-anchor="middle" x="577.5" y="-248.2" font-family="Fira Mono" font-size="11.00">(N/A)</text>
</g>
<!-- node_3&#45;&gt;node_bad_p_3 -->
<!-- node_5 -->
<g id="node6" class="node">
<title>node_5</title>
<path fill="#fff3e0" stroke="#000000" d="M884,-341C884,-341 971,-341 971,-341 977,-341 983,-347 983,-353 983,-353 983,-389 983,-389 983,-395 977,-401 971,-401 971,-401 884,-401 884,-401 878,-401 872,-395 872,-389 872,-389 872,-353 872,-353 872,-347 878,-341 884,-341"/>
<text text-anchor="middle" x="927.5" y="-388.2" font-family="Fira Mono" font-size="11.00">ind: 5</text>
<polyline fill="none" stroke="#000000" points="872,-381 983,-381 "/>
<text text-anchor="middle" x="927.5" y="-368.2" font-family="Fira Mono" font-size="11.00">val: 30</text>
<polyline fill="none" stroke="#000000" points="872,-361 983,-361 "/>
<text text-anchor="middle" x="899.5" y="-348.2" font-family="Fira Mono" font-size="11.00">prev: 4</text>
<polyline fill="none" stroke="#000000" points="927,-341 927,-361 "/>
<text text-anchor="middle" x="955" y="-348.2" font-family="Fira Mono" font-size="11.00">next: 6</text>
</g>
<!-- node_4&#45;&gt;node_5 -->
<!-- node_4&#45;&gt;node_5 -->
<g id="edge33" class="edge">
<title>node_4&#45;&gt;node_5</title>
<path fill="none" stroke="#999999" d="M828.36,-381.17C828.36,-381.17 861.98,-381.17 861.98,-381.17"/>
<polygon fill="#999999" stroke="#999999" points="861.98,-384.67 871.98,-381.17 861.98,-377.67 861.98,-384.67"/>
<polygon fill="#999999" stroke="#999999" points="828.36,-377.67 818.36,-381.17 828.36,-384.67 828.36,-377.67"/>
</g>
<!-- node_6 -->
<g id="node7" class="node">
<title>node_6</title>
<path fill="#fff3e0" stroke="#000000" d="M1049,-341C1049,-341 1143,-341 1143,-341 1149,-341 1155,-347 1155,-353 1155,-353 1155,-389 1155,-389 1155,-395 1149,-401 1143,-401 1143,-401 1049,-401 1049,-401 1043,-401 1037,-395 1037,-389 1037,-389 1037,-353 1037,-353 1037,-347 1043,-341 1049,-341"/>
<text text-anchor="middle" x="1096" y="-388.2" font-family="Fira Mono" font-size="11.00">ind: 6</text>
<polyline fill="none" stroke="#000000" points="1037,-381 1155,-381 "/>
<text text-anchor="middle" x="1096" y="-368.2" font-family="Fira Mono" font-size="11.00">val: 5</text>
<polyline fill="none" stroke="#000000" points="1037,-361 1155,-361 "/>
<text text-anchor="middle" x="1068" y="-348.2" font-family="Fira Mono" font-size="11.00">prev: 10</text>
<polyline fill="none" stroke="#000000" points="1099,-341 1099,-361 "/>
<text text-anchor="middle" x="1127" y="-348.2" font-family="Fira Mono" font-size="11.00">next: 4</text>
</g>
<!-- node_5&#45;&gt;node_6 -->
<!-- node_5&#45;&gt;node_6 -->
<g id="edge34" class="edge">
<title>node_5&#45;&gt;node_6</title>
<path fill="none" stroke="#ff0000" stroke-width="2.2" d="M983.14,-381.17C983.14,-381.17 1026.94,-381.17 1026.94,-381.17"/>
<polygon fill="#ff0000" stroke="#ff0000" stroke-width="2.2" points="1026.94,-384.67 1036.94,-381.17 1026.94,-377.67 1026.94,-384.67"/>
</g>
<!-- node_6&#45;&gt;node_4 -->
<g id="edge35" class="edge">
<title>node_6&#45;&gt;node_4</title>
<path fill="none" stroke="#ff0000" stroke-width="2.2" d="M1077,-401C1077,-412.59 1077,-423.1 1077,-423.1 1077,-423.1 781,-423.1 781,-423.1 781,-423.1 781,-411 781,-411"/>
<polygon fill="#ff0000" stroke="#ff0000" stroke-width="2.2" points="784.5,-411 781,-401 777.5,-411 784.5,-411"/>
</g>
<!-- node_7 -->
<g id="node8" class="node">
<title>node_7</title>
<path fill="#fff3e0" stroke="#000000" d="M1221,-341C1221,-341 1308,-341 1308,-341 1314,-341 1320,-347 1320,-353 1320,-353 1320,-389 1320,-389 1320,-395 1314,-401 1308,-401 1308,-401 1221,-401 1221,-401 1215,-401 1209,-395 1209,-389 1209,-389 1209,-353 1209,-353 1209,-347 1215,-341 1221,-341"/>
<text text-anchor="middle" x="1264.5" y="-388.2" font-family="Fira Mono" font-size="11.00">ind: 7</text>
<polyline fill="none" stroke="#000000" points="1209,-381 1320,-381 "/>
<text text-anchor="middle" x="1264.5" y="-368.2" font-family="Fira Mono" font-size="11.00">val: 4</text>
<polyline fill="none" stroke="#000000" points="1209,-361 1320,-361 "/>
<text text-anchor="middle" x="1236.5" y="-348.2" font-family="Fira Mono" font-size="11.00">prev: 6</text>
<polyline fill="none" stroke="#000000" points="1264,-341 1264,-361 "/>
<text text-anchor="middle" x="1292" y="-348.2" font-family="Fira Mono" font-size="11.00">next: 8</text>
</g>
<!-- node_6&#45;&gt;node_7 -->
<!-- node_6&#45;&gt;node_7 -->
<g id="edge45" class="edge">
<title>node_6&#45;&gt;node_7</title>
<path fill="none" stroke="#ff0000" stroke-width="2.2" d="M1155.41,-381.17C1155.41,-381.17 1198.73,-381.17 1198.73,-381.17"/>
<polygon fill="#ff0000" stroke="#ff0000" stroke-width="2.2" points="1198.73,-384.67 1208.73,-381.17 1198.73,-377.67 1198.73,-384.67"/>
</g>
<!-- node_8 -->
<g id="node9" class="node">
<title>node_8</title>
<path fill="#fff3e0" stroke="#000000" d="M1386,-341C1386,-341 1473,-341 1473,-341 1479,-341 1485,-347 1485,-353 1485,-353 1485,-389 1485,-389 1485,-395 1479,-401 1473,-401 1473,-401 1386,-401 1386,-401 1380,-401 1374,-395 1374,-389 1374,-389 1374,-353 1374,-353 1374,-347 1380,-341 1386,-341"/>
<text text-anchor="middle" x="1429.5" y="-388.2" font-family="Fira Mono" font-size="11.00">ind: 8</text>
<polyline fill="none" stroke="#000000" points="1374,-381 1485,-381 "/>
<text text-anchor="middle" x="1429.5" y="-368.2" font-family="Fira Mono" font-size="11.00">val: 5</text>
<polyline fill="none" stroke="#000000" points="1374,-361 1485,-361 "/>
<text text-anchor="middle" x="1401.5" y="-348.2" font-family="Fira Mono" font-size="11.00">prev: 7</text>
<polyline fill="none" stroke="#000000" points="1429,-341 1429,-361 "/>
<text text-anchor="middle" x="1457" y="-348.2" font-family="Fira Mono" font-size="11.00">next: 9</text>
</g>
<!-- node_7&#45;&gt;node_8 -->
<!-- node_7&#45;&gt;node_8 -->
<g id="edge36" class="edge">
<title>node_7&#45;&gt;node_8</title>
<path fill="none" stroke="#999999" d="M1330.36,-381.17C1330.36,-381.17 1363.98,-381.17 1363.98,-381.17"/>
<polygon fill="#999999" stroke="#999999" points="1363.98,-384.67 1373.98,-381.17 1363.98,-377.67 1363.98,-384.67"/>
<polygon fill="#999999" stroke="#999999" points="1330.36,-377.67 1320.36,-381.17 1330.36,-384.67 1330.36,-377.67"/>
</g>
<!-- node_9 -->
<g id="node10" class="node">
<title>node_9</title>
<path fill="#fff3e0" stroke="#000000" d="M1551,-341C1551,-341 1644,-341 1644,-341 1650,-341 1656,-347 1656,-353 1656,-353 1656,-389 1656,-389 1656,-395 1650,-401 1644,-401 1644,-401 1551,-401 1551,-401 1545,-401 1539,-395 1539,-389 1539,-389 1539,-353 1539,-353 1539,-347 1545,-341 1551,-341"/>
<text text-anchor="middle" x="1597.5" y="-388.2" font-family="Fira Mono" font-size="11.00">ind: 9</text>
<polyline fill="none" stroke="#000000" points="1539,-381 1656,-381 "/>
<text text-anchor="middle" x="1597.5" y="-368.2" font-family="Fira Mono" font-size="11.00">val: 4</text>
<polyline fill="none" stroke="#000000" points="1539,-361 1656,-361 "/>
<text text-anchor="middle" x="1566.5" y="-348.2" font-family="Fira Mono" font-size="11.00">prev: 8</text>
<polyline fill="none" stroke="#000000" points="1594,-341 1594,-361 "/>
<text text-anchor="middle" x="1625" y="-348.2" font-family="Fira Mono" font-size="11.00">next: 10</text>
</g>
<!-- node_8&#45;&gt;node_9 -->
<!-- node_8&#45;&gt;node_9 -->
<g id="edge37" class="edge">
<title>node_8&#45;&gt;node_9</title>
<path fill="none" stroke="#999999" d="M1495.44,-381.17C1495.44,-381.17 1528.93,-381.17 1528.93,-381.17"/>
<polygon fill="#999999" stroke="#999999" points="1528.93,-384.67 1538.93,-381.17 1528.93,-377.67 1528.93,-384.67"/>
<polygon fill="#999999" stroke="#999999" points="1495.44,-377.67 1485.44,-381.17 1495.44,-384.67 1495.44,-377.67"/>
</g>
<!-- node_10 -->
<g id="node11" class="node">
<title>node_10</title>
<path fill="#f1eafd" stroke="#8e6bd6" d="M1722,-341C1722,-341 1809,-341 1809,-341 1815,-341 1821,-347 1821,-353 1821,-353 1821,-389 1821,-389 1821,-395 1815,-401 1809,-401 1809,-401 1722,-401 1722,-401 1716,-401 1710,-395 1710,-389 1710,-389 1710,-353 1710,-353 1710,-347 1716,-341 1722,-341"/>
<text text-anchor="middle" x="1765.5" y="-388.2" font-family="Fira Mono" font-size="11.00">ind: 10 (TAIL)</text>
<polyline fill="none" stroke="#8e6bd6" points="1710,-381 1821,-381 "/>
<text text-anchor="middle" x="1765.5" y="-368.2" font-family="Fira Mono" font-size="11.00">val: 3</text>
<polyline fill="none" stroke="#8e6bd6" points="1710,-361 1821,-361 "/>
<text text-anchor="middle" x="1737.5" y="-348.2" font-family="Fira Mono" font-size="11.00">prev: 9</text>
<polyline fill="none" stroke="#8e6bd6" points="1765,-341 1765,-361 "/>
<text text-anchor="middle" x="1793" y="-348.2" font-family="Fira Mono" font-size="11.00">next: 0</text>
</g>
<!-- node_9&#45;&gt;node_10 -->
<!-- node_9&#45;&gt;node_10 -->
<g id="edge38" class="edge">
<title>node_9&#45;&gt;node_10</title>
<path fill="none" stroke="#999999" d="M1666.26,-381.17C1666.26,-381.17 1699.88,-381.17 1699.88,-381.17"/>
<polygon fill="#999999" stroke="#999999" points="1699.88,-384.67 1709.88,-381.17 1699.88,-377.67 1699.88,-384.67"/>
<polygon fill="#999999" stroke="#999999" points="1666.26,-377.67 1656.26,-381.17 1666.26,-384.67 1666.26,-377.67"/>
</g>
<!-- node_10&#45;&gt;node_0 -->
<g id="edge39" class="edge">
<title>node_10&#45;&gt;node_0</title>
<path fill="none" stroke="#999999" d="M1766,-330.86C1766,-330.86 1766,-307.75 1766,-307.75 1766,-307.75 107,-307.75 107,-307.75 107,-307.75 107,-330.86 107,-330.86"/>
<polygon fill="#999999" stroke="#999999" points="1762.5,-330.86 1766,-340.86 1769.5,-330.86 1762.5,-330.86"/>
<polygon fill="#999999" stroke="#999999" points="103.5,-330.86 107,-340.86 110.5,-330.86 103.5,-330.86"/>
</g>
<!-- node_10&#45;&gt;node_6 -->
<g id="edge44" class="edge">
<title>node_10&#45;&gt;node_6</title>
<path fill="none" stroke="#ff0000" stroke-width="2.2" d="M1766,-401.07C1766,-405.55 1766,-408.7 1766,-408.7 1766,-408.7 1116,-408.7 1116,-408.7 1116,-408.7 1116,-407.94 1116,-407.94"/>
<polygon fill="#ff0000" stroke="#ff0000" stroke-width="2.2" points="1119.5,-411.07 1116,-401.07 1112.5,-411.07 1119.5,-411.07"/>
</g>
<!-- node_11 -->
<g id="node12" class="node">
<title>node_11</title>
<path fill="#ffecec" stroke="#d66d66" d="M1887,-341C1887,-341 1984,-341 1984,-341 1990,-341 1996,-347 1996,-353 1996,-353 1996,-389 1996,-389 1996,-395 1990,-401 1984,-401 1984,-401 1887,-401 1887,-401 1881,-401 1875,-395 1875,-389 1875,-389 1875,-353 1875,-353 1875,-347 1881,-341 1887,-341"/>
<text text-anchor="middle" x="1935.5" y="-388.2" font-family="Fira Mono" font-size="11.00">ind: 11</text>
<polyline fill="none" stroke="#d66d66" points="1875,-381 1996,-381 "/>
<text text-anchor="middle" x="1935.5" y="-368.2" font-family="Fira Mono" font-size="11.00">val: &#45;100</text>
<polyline fill="none" stroke="#d66d66" points="1875,-361 1996,-361 "/>
<text text-anchor="middle" x="1904.5" y="-348.2" font-family="Fira Mono" font-size="11.00">prev: &#45;1</text>
<polyline fill="none" stroke="#d66d66" points="1934,-341 1934,-361 "/>
<text text-anchor="middle" x="1965" y="-348.2" font-family="Fira Mono" font-size="11.00">next: 12</text>
</g>
<!-- node_10&#45;&gt;node_11 -->
<!-- node_12 -->
<g id="node13" class="node">
<title>node_12</title>
<path fill="#ffecec" stroke="#d66d66" d="M2062,-341C2062,-341 2159,-341 2159,-341 2165,-341 2171,-347 2171,-353 2171,-353 2171,-389 2171,-389 2171,-395 2165,-401 2159,-401 2159,-401 2062,-401 2062,-401 2056,-401 2050,-395 2050,-389 2050,-389 2050,-353 2050,-353 2050,-347 2056,-341 2062,-341"/>
<text text-anchor="middle" x="2110.5" y="-388.2" font-family="Fira Mono" font-size="11.00">ind: 12</text>
<polyline fill="none" stroke="#d66d66" points="2050,-381 2171,-381 "/>
<text text-anchor="middle" x="2110.5" y="-368.2" font-family="Fira Mono" font-size="11.00">val: &#45;100</text>
<polyline fill="none" stroke="#d66d66" points="2050,-361 2171,-361 "/>
<text text-anchor="middle" x="2079.5" y="-348.2" font-family="Fira Mono" font-size="11.00">prev: &#45;1</text>
<polyline fill="none" stroke="#d66d66" points="2109,-341 2109,-361 "/>
<text text-anchor="middle" x="2140" y="-348.2" font-family="Fira Mono" font-size="11.00">next: 13</text>
</g>
<!-- node_11&#45;&gt;node_12 -->
<!-- node_11&#45;&gt;node_12 -->
<g id="edge20" class="edge">
<title>node_11&#45;&gt;node_12</title>
<path fill="none" stroke="#d88d88" stroke-dasharray="5,2" d="M1996.22,-381.17C1996.22,-381.17 2039.89,-381.17 2039.89,-381.17"/>
<polygon fill="#d88d88" stroke="#d88d88" points="2039.89,-384.67 2049.89,-381.17 2039.89,-377.67 2039.89,-384.67"/>
</g>
<!-- node_13 -->
<g id="node14" class="node">
<title>node_13</title>
<path fill="#ffecec" stroke="#d66d66" d="M2237,-341C2237,-341 2334,-341 2334,-341 2340,-341 2346,-347 2346,-353 2346,-353 2346,-389 2346,-389 2346,-395 2340,-401 2334,-401 2334,-401 2237,-401 2237,-401 2231,-401 2225,-395 2225,-389 2225,-389 2225,-353 2225,-353 2225,-347 2231,-341 2237,-341"/>
<text text-anchor="middle" x="2285.5" y="-388.2" font-family="Fira Mono" font-size="11.00">ind: 13</text>
<polyline fill="none" stroke="#d66d66" points="2225,-381 2346,-381 "/>
<text text-anchor="middle" x="2285.5" y="-368.2" font-family="Fira Mono" font-size="11.00">val: &#45;100</text>
<polyline fill="none" stroke="#d66d66" points="2225,-361 2346,-361 "/>
<text text-anchor="middle" x="2254.5" y="-348.2" font-family="Fira Mono" font-size="11.00">prev: &#45;1</text>
<polyline fill="none" stroke="#d66d66" points="2284,-341 2284,-361 "/>
<text text-anchor="middle" x="2315" y="-348.2" font-family="Fira Mono" font-size="11.00">next: 14</text>
</g>
<!-- node_12&#45;&gt;node_13 -->
<!-- node_12&#45;&gt;node_13 -->
<g id="edge21" class="edge">
<title>node_12&#45;&gt;node_13</title>
<path fill="none" stroke="#d88d88" stroke-dasharray="5,2" d="M2171.22,-381.17C2171.22,-381.17 2214.89,-381.17 2214.89,-381.17"/>
<polygon fill="#d88d88" stroke="#d88d88" points="2214.89,-384.67 2224.89,-381.17 2214.89,-377.67 2214.89,-384.67"/>
</g>
<!-- node_14 -->
<g id="node15" class="node">
<title>node_14</title>
<path fill="#ffecec" stroke="#d66d66" d="M2412,-341C2412,-341 2509,-341 2509,-341 2515,-341 2521,-347 2521,-353 2521,-353 2521,-389 2521,-389 2521,-395 2515,-401 2509,-401 2509,-401 2412,-401 2412,-401 2406,-401 2400,-395 2400,-389 2400,-389 2400,-353 2400,-353 2400,-347 2406,-341 2412,-341"/>
<text text-anchor="middle" x="2460.5" y="-388.2" font-family="Fira Mono" font-size="11.00">ind: 14</text>
<polyline fill="none" stroke="#d66d66" points="2400,-381 2521,-381 "/>
<text text-anchor="middle" x="2460.5" y="-368.2" font-family="Fira Mono" font-size="11.00">val: &#45;100</text>
<polyline fill="none" stroke="#d66d66" points="2400,-361 2521,-361 "/>
<text text-anchor="middle" x="2429.5" y="-348.2" font-family="Fira Mono" font-size="11.00">prev: &#45;1</text>
<polyline fill="none" stroke="#d66d66" points="2459,-341 2459,-361 "/>
<text text-anchor="middle" x="2490" y="-348.2" font-family="Fira Mono" font-size="11.00">next: 15</text>
</g>
<!-- node_13&#45;&gt;node_14 -->
<!-- node_13&#45;&gt;node_14 -->
<g id="edge22" class="edge">
<title>node_13&#45;&gt;node_14</title>
<path fill="none" stroke="#d88d88" stroke-dasharray="5,2" d="M2346.22,-381.17C2346.22,-381.17 2389.89,-381.17 2389.89,-381.17"/>
<polygon fill="#d88d88" stroke="#d88d88" points="2389.89,-384.67 2399.89,-381.17 2389.89,-377.67 2389.89,-384.67"/>
</g>
<!-- node_15 -->
<g id="node16" class="node">
<title>node_15</title>
<path fill="#ffecec" stroke="#d66d66" d="M2587,-341C2587,-341 2684,-341 2684,-341 2690,-341 2696,-347 2696,-353 2696,-353 2696,-389 2696,-389 2696,-395 2690,-401 2684,-401 2684,-401 2587,-401 2587,-401 2581,-401 2575,-395 2575,-389 2575,-389 2575,-353 2575,-353 2575,-347 2581,-341 2587,-341"/>
<text text-anchor="middle" x="2635.5" y="-388.2" font-family="Fira Mono" font-size="11.00">ind: 15</text>
<polyline fill="none" stroke="#d66d66" points="2575,-381 2696,-381 "/>
<text text-anchor="middle" x="2635.5" y="-368.2" font-family="Fira Mono" font-size="11.00">val: &#45;100</text>
<polyline fill="none" stroke="#d66d66" points="2575,-361 2696,-361 "/>
<text text-anchor="middle" x="2604.5" y="-348.2" font-family="Fira Mono" font-size="11.00">prev: &#45;1</text>
<polyline fill="none" stroke="#d66d66" points="2634,-341 2634,-361 "/>
<text text-anchor="middle" x="2665" y="-348.2" font-family="Fira Mono" font-size="11.00">next: 16</text>
</g>
<!-- node_14&#45;&gt;node_15 -->
<!-- node_14&#45;&gt;node_15 -->
<g id="edge23" class="edge">
<title>node_14&#45;&gt;node_15</title>
<path fill="none" stroke="#d88d88" stroke-dasharray="5,2" d="M2521.22,-381.17C2521.22,-381.17 2564.89,-381.17 2564.89,-381.17"/>
<polygon fill="#d88d88" stroke="#d88d88" points="2564.89,-384.67 2574.89,-381.17 2564.89,-377.67 2564.89,-384.67"/>
</g>
<!-- node_16 -->
<g id="node17" class="node">
<title>node_16</title>
<path fill="#ffecec" stroke="#d66d66" d="M2762,-341C2762,-341 2859,-341 2859,-341 2865,-341 2871,-347 2871,-353 2871,-353 2871,-389 2871,-389 2871,-395 2865,-401 2859,-401 2859,-401 2762,-401 2762,-401 2756,-401 2750,-395 2750,-389 2750,-389 2750,-353 2750,-353 2750,-347 2756,-341 2762,-341"/>
<text text-anchor="middle" x="2810.5" y="-388.2" font-family="Fira Mono" font-size="11.00">ind: 16</text>
<polyline fill="none" stroke="#d66d66" points="2750,-381 2871,-381 "/>
<text text-anchor="middle" x="2810.5" y="-368.2" font-family="Fira Mono" font-size="11.00">val: &#45;100</text>
<polyline fill="none" stroke="#d66d66" points="2750,-361 2871,-361 "/>
<text text-anchor="middle" x="2779.5" y="-348.2" font-family="Fira Mono" font-size="11.00">prev: &#45;1</text>
<polyline fill="none" stroke="#d66d66" points="2809,-341 2809,-361 "/>
<text text-anchor="middle" x="2840" y="-348.2" font-family="Fira Mono" font-size="11.00">next: 17</text>
</g>
<!-- node_15&#45;&gt;node_16 -->
<!-- node_15&#45;&gt;node_16 -->
<g id="edge24" class="edge">
<title>node_15&#45;&gt;node_16</title>
<path fill="none" stroke="#d88d88" stroke-dasharray="5,2" d="M2696.22,-381.17C2696.22,-381.17 2739.89,-381.17 2739.89,-381.17"/>
<polygon fill="#d88d88" stroke="#d88d88" points="2739.89,-384.67 2749.89,-381.17 2739.89,-377.67 2739.89,-384.67"/>
</g>
<!-- node_17 -->
<g id="node18" class="node">
<title>node_17</title>
<path fill="#ffecec" stroke="#d66d66" d="M2937,-341C2937,-341 3034,-341 3034,-341 3040,-341 3046,-347 3046,-353 3046,-353 3046,-389 3046,-389 3046,-395 3040,-401 3034,-401 3034,-401 2937,-401 2937,-401 2931,-401 2925,-395 2925,-389 2925,-389 2925,-353 2925,-353 2925,-347 2931,-341 2937,-341"/>
<text text-anchor="middle" x="2985.5" y="-388.2" font-family="Fira Mono" font-size="11.00">ind: 17</text>
<polyline fill="none" stroke="#d66d66" points="2925,-381 3046,-381 "/>
<text text-anchor="middle" x="2985.5" y="-368.2" font-family="Fira Mono" font-size="11.00">val: &#45;100</text>
<polyline fill="none" stroke="#d66d66" points="2925,-361 3046,-361 "/>
<text text-anchor="middle" x="2954.5" y="-348.2" font-family="Fira Mono" font-size="11.00">prev: &#45;1</text>
<polyline fill="none" stroke="#d66d66" points="2984,-341 2984,-361 "/>
<text text-anchor="middle" x="3015" y="-348.2" font-family="Fira Mono" font-size="11.00">next: 18</text>
</g>
<!-- node_16&#45;&gt;node_17 -->
<!-- node_16&#45;&gt;node_17 -->
<g id="edge25" class="edge">
<title>node_16&#45;&gt;node_17</title>
<path fill="none" stroke="#d88d88" stroke-dasharray="5,2" d="M2871.22,-381.17C2871.22,-381.17 2914.89,-381.17 2914.89,-381.17"/>
<polygon fill="#d88d88" stroke="#d88d88" points="2914.89,-384.67 2924.89,-381.17 2914.89,-377.67 2914.89,-384.67"/>
</g>
<!-- node_18 -->
<g id="node19" class="node">
<title>node_18</title>
<path fill="#ffecec" stroke="#d66d66" d="M3112,-341C3112,-341 3209,-341 3209,-341 3215,-341 3221,-347 3221,-353 3221,-353 3221,-389 3221,-389 3221,-395 3215,-401 3209,-401 3209,-401 3112,-401 3112,-401 3106,-401 3100,-395 3100,-389 3100,-389 3100,-353 3100,-353 3100,-347 3106,-341 3112,-341"/>
<text text-anchor="middle" x="3160.5" y="-388.2" font-family="Fira Mono" font-size="11.00">ind: 18</text>
<polyline fill="none" stroke="#d66d66" points="3100,-381 3221,-381 "/>
<text text-anchor="middle" x="3160.5" y="-368.2" font-family="Fira Mono" font-size="11.00">val: &#45;100</text>
<polyline fill="none" stroke="#d66d66" points="3100,-361 3221,-361 "/>
<text text-anchor="middle" x="3129.5" y="-348.2" font-family="Fira Mono" font-size="11.00">prev: &#45;1</text>
<polyline fill="none" stroke="#d66d66" points="3159,-341 3159,-361 "/>
<text text-anchor="middle" x="3190" y="-348.2" font-family="Fira Mono" font-size="11.00">next: 19</text>
</g>
<!-- node_17&#45;&gt;node_18 -->
<!-- node_17&#45;&gt;node_18 -->
<g id="edge26" class="edge">
<title>node_17&#45;&gt;node_18</title>
<path fill="none" stroke="#d88d88" stroke-dasharray="5,2" d="M3046.22,-381.17C3046.22,-381.17 3089.89,-381.17 3089.89,-381.17"/>
<polygon fill="#d88d88" stroke="#d88d88" points="3089.89,-384.67 3099.89,-381.17 3089.89,-377.67 3089.89,-384.67"/>
</g>
<!-- node_19 -->
<g id="node20" class="node">
<title>node_19</title>
<path fill="#ffecec" stroke="#d66d66" d="M3287,-341C3287,-341 3381,-341 3381,-341 3387,-341 3393,-347 3393,-353 3393,-353 3393,-389 3393,-389 3393,-395 3387,-401 3381,-401 3381,-401 3287,-401 3287,-401 3281,-401 3275,-395 3275,-389 3275,-389 3275,-353 3275,-353 3275,-347 3281,-341 3287,-341"/>
<text text-anchor="middle" x="3334" y="-388.2" font-family="Fira Mono" font-size="11.00">ind: 19</text>
<polyline fill="none" stroke="#d66d66" points="3275,-381 3393,-381 "/>
<text text-anchor="middle" x="3334" y="-368.2" font-family="Fira Mono" font-size="11.00">val: &#45;100</text>
<polyline fill="none" stroke="#d66d66" points="3275,-361 3393,-361 "/>
<text text-anchor="middle" x="3304.5" y="-348.2" font-family="Fira Mono" font-size="11.00">prev: &#45;1</text>
<polyline fill="none" stroke="#d66d66" points="3334,-341 3334,-361 "/>
<text text-anchor="middle" x="3363.5" y="-348.2" font-family="Fira Mono" font-size="11.00">next: &#45;1</text>
</g>
<!-- node_18&#45;&gt;node_19 -->
<!-- node_18&#45;&gt;node_19 -->
<g id="edge27" class="edge">
<title>node_18&#45;&gt;node_19</title>
<path fill="none" stroke="#d88d88" stroke-dasharray="5,2" d="M3221.18,-381.17C3221.18,-381.17 3264.81,-381.17 3264.81,-381.17"/>
<polygon fill="#d88d88" stroke="#d88d88" points="3264.81,-384.67 3274.81,-381.17 3264.81,-377.67 3264.81,-384.67"/>
</g>
<!-- node_bad_p_3&#45;&gt;node_3 -->
<g id="edge41" class="edge">
<title>node_bad_p_3&#45;&gt;node_3</title>
<path fill="none" stroke="#ffecec" stroke-width="2" d="M587,-275.06C587,-275.06 587,-330.59 587,-330.59"/>
<polygon fill="#ffecec" stroke="#ffecec" stroke-width="2" points="583.5,-330.59 587,-340.59 590.5,-330.59 583.5,-330.59"/>
</g>
<!-- node_free -->
<g id="node23" class="node">
<title>node_free</title>
<path fill="#ffecec" stroke="#d66d66" d="M82.5,-36C82.5,-36 35.5,-36 35.5,-36 29.5,-36 23.5,-30 23.5,-24 23.5,-24 23.5,-12 23.5,-12 23.5,-6 29.5,0 35.5,0 35.5,0 82.5,0 82.5,0 88.5,0 94.5,-6 94.5,-12 94.5,-12 94.5,-24 94.5,-24 94.5,-30 88.5,-36 82.5,-36"/>
<text text-anchor="middle" x="59" y="-15.2" font-family="Fira Mono" font-size="11.00">free_head</text>
</g>
<!-- node_free&#45;&gt;node_11 -->
<g id="edge46" class="edge">
<title>node_free&#45;&gt;node_11</title>
<path fill="none" stroke="#d88d88" stroke-dasharray="5,2" d="M94.82,-18C354.31,-18 1936,-18 1936,-18 1936,-18 1936,-330.9 1936,-330.9"/>
<polygon fill="#d88d88" stroke="#d88d88" points="1932.5,-330.9 1936,-340.9 1939.5,-330.9 1932.5,-330.9"/>
</g>
</g>
</svg>
